<?xml version="1.0" encoding="utf-8"?>
<!-- Generator: Adobe Illustrator 16.0.0, SVG Export Plug-In . SVG Version: 6.00 Build 0)  -->
<!DOCTYPE svg PUBLIC "-//W3C//DTD SVG 1.1//EN" "http://www.w3.org/Graphics/SVG/1.1/DTD/svg11.dtd">
<svg version="1.1" id="Layer_1" xmlns="http://www.w3.org/2000/svg" xmlns:xlink="http://www.w3.org/1999/xlink" x="0px" y="0px"
	 width="37px" height="25px" viewBox="0 0 37 25" style="enable-background:new 0 0 37 25;" xml:space="preserve">
<g>
	<g>
		<path style="fill-rule:evenodd;clip-rule:evenodd;fill:#87788D;" d="M30.1,6c3.2,1.8,4.8,4,4.8,6.6c0,2.6-1.6,4.7-4.8,6.5
			c-3.2,1.8-7.1,2.7-11.6,2.7c-4.5,0-8.4-0.9-11.6-2.7c-3.2-1.8-4.8-4-4.8-6.5C2.1,10,3.7,7.8,6.9,6c3.2-1.8,7.1-2.7,11.6-2.7
			C23,3.3,26.9,4.2,30.1,6z"/>
		
			<path style="fill-rule:evenodd;clip-rule:evenodd;fill:none;stroke:#BAC9D1;stroke-width:1.5;stroke-linecap:round;stroke-linejoin:round;stroke-miterlimit:3;" d="
			M30.1,6c3.2,1.8,4.8,4,4.8,6.6c0,2.6-1.6,4.7-4.8,6.5c-3.2,1.8-7.1,2.7-11.6,2.7c-4.5,0-8.4-0.9-11.6-2.7c-3.2-1.8-4.8-4-4.8-6.5
			C2.1,10,3.7,7.8,6.9,6c3.2-1.8,7.1-2.7,11.6-2.7C23,3.3,26.9,4.2,30.1,6z"/>
	</g>
	<g>
		<path style="fill-rule:evenodd;clip-rule:evenodd;fill:#FFFFFF;fill-opacity:0.502;" d="M29.1,10.3l0.1,1.5h-0.2
			c-0.3-0.2-0.7-0.4-1-0.5c-0.4-0.1-0.8-0.2-1.2-0.2c-0.3,0-0.6,0-0.8,0.1c-0.2,0.1-0.3,0.2-0.3,0.4c0,0.1,0.1,0.2,0.2,0.3
			c0.1,0,0.3,0.1,0.7,0.2c0.2,0,0.4,0.1,0.7,0.1c0.2,0,0.5,0,0.7,0.1c0.5,0.1,0.9,0.4,1.2,0.7c0.3,0.3,0.4,0.6,0.5,1.1
			c0.1,0.7-0.2,1.2-0.7,1.6c-0.6,0.4-1.4,0.6-2.4,0.6c-0.6,0-1.1-0.1-1.6-0.2c-0.5-0.1-0.8-0.2-1.1-0.3l-0.1-1.7H24
			c0.1,0.1,0.2,0.1,0.4,0.2c0.2,0.1,0.4,0.2,0.6,0.3c0.2,0,0.4,0.1,0.7,0.2c0.3,0.1,0.6,0.1,0.9,0.1c0.4,0,0.7,0,0.9-0.1
			c0.2-0.1,0.3-0.3,0.3-0.4c0-0.2-0.1-0.3-0.2-0.3c-0.1-0.1-0.3-0.1-0.7-0.2c-0.1-0.1-0.3-0.1-0.6-0.1c-0.3-0.1-0.5-0.1-0.7-0.2
			c-0.6-0.1-1-0.4-1.3-0.7c-0.3-0.3-0.4-0.7-0.5-1.2c0-0.6,0.2-1.1,0.8-1.5c0.5-0.4,1.3-0.6,2.2-0.6c0.5,0,0.9,0,1.3,0.1
			C28.5,10,28.8,10.1,29.1,10.3z M20.2,9.8c0.8,0,1.4,0.3,1.8,0.8c0.4,0.6,0.7,1.4,0.7,2.3c0,1-0.2,1.8-0.7,2.4c-0.6,0.7-1.2,1-2,1
			c-0.4,0-0.7,0-1-0.1c-0.3-0.1-0.5-0.2-0.7-0.3l-0.1,0.3h-2l0.1-8.6h1.9v2.9c0.3-0.2,0.6-0.4,0.9-0.6C19.4,9.9,19.8,9.8,20.2,9.8z
			 M20.6,13c0-0.6-0.1-1-0.3-1.3c-0.2-0.3-0.5-0.4-1-0.4c-0.2,0-0.4,0-0.6,0.1c-0.2,0-0.4,0.1-0.6,0.2v3.2c0.2,0,0.3,0.1,0.4,0.1
			c0.1,0,0.3,0,0.5,0c0.5,0,0.9-0.2,1.2-0.5C20.5,14.1,20.7,13.6,20.6,13z M12.3,8l2.7,8.2h-2.2l-0.5-1.8H9.1l-0.7,1.8H6.2L9.9,8
			H12.3z M11.8,12.9L10.9,10l-1.2,2.9H11.8z"/>
	</g>
</g>
</svg>
