<?xml version="1.0" encoding="utf-8"?>
<!-- Generator: Adobe Illustrator 16.0.0, SVG Export Plug-In . SVG Version: 6.00 Build 0)  -->
<!DOCTYPE svg PUBLIC "-//W3C//DTD SVG 1.1//EN" "http://www.w3.org/Graphics/SVG/1.1/DTD/svg11.dtd">
<svg version="1.1" id="Layer_1" xmlns="http://www.w3.org/2000/svg" xmlns:xlink="http://www.w3.org/1999/xlink" x="0px" y="0px"
	 width="37px" height="25px" viewBox="0 0 37 25" style="enable-background:new 0 0 37 25;" xml:space="preserve">
<g>
	<g>
		<path style="fill-rule:evenodd;clip-rule:evenodd;fill:#87788D;" d="M30.1,4.5c3.2,1.8,4.8,4,4.8,6.6c0,2.6-1.6,4.7-4.8,6.5
			c-3.2,1.8-7.1,2.7-11.6,2.7c-4.5,0-8.4-0.9-11.6-2.7c-3.2-1.8-4.8-4-4.8-6.5c0-2.6,1.6-4.8,4.8-6.6c3.2-1.8,7.1-2.7,11.6-2.7
			C23,1.8,26.9,2.7,30.1,4.5z"/>
		
			<path style="fill-rule:evenodd;clip-rule:evenodd;fill:none;stroke:#BAC9D1;stroke-width:1.5;stroke-linecap:round;stroke-linejoin:round;stroke-miterlimit:3;" d="
			M30.1,4.5c3.2,1.8,4.8,4,4.8,6.6c0,2.6-1.6,4.7-4.8,6.5c-3.2,1.8-7.1,2.7-11.6,2.7c-4.5,0-8.4-0.9-11.6-2.7
			c-3.2-1.8-4.8-4-4.8-6.5c0-2.6,1.6-4.8,4.8-6.6c3.2-1.8,7.1-2.7,11.6-2.7C23,1.8,26.9,2.7,30.1,4.5z"/>
	</g>
	<g>
		<path style="fill-rule:evenodd;clip-rule:evenodd;fill:#FFFFFF;" d="M22,9c0.4,0.6,0.7,1.4,0.7,2.3c0,1-0.2,1.8-0.7,2.4
			c-0.6,0.7-1.2,1-2,1c-0.4,0-0.7-0.1-1-0.2c-0.3-0.1-0.5-0.2-0.8-0.3l-0.1,0.3h-2l0.1-8.5h1.9V9c0.3-0.2,0.6-0.4,0.9-0.6
			c0.3-0.1,0.7-0.2,1.1-0.2C21,8.2,21.6,8.5,22,9z M18.8,9.8c-0.2,0-0.4,0.1-0.6,0.2v3.2c0.1,0,0.3,0.1,0.4,0.1c0.1,0,0.3,0,0.5,0
			c0.5,0,0.9-0.2,1.2-0.5c0.3-0.3,0.4-0.8,0.4-1.4c0-0.6-0.1-1-0.3-1.3c-0.2-0.3-0.5-0.4-1-0.4C19.2,9.7,19,9.7,18.8,9.8z M24.5,8.8
			c0.5-0.4,1.3-0.6,2.2-0.6c0.5,0,0.9,0,1.3,0.1c0.4,0.1,0.8,0.2,1,0.3l0.1,1.5H29c-0.3-0.2-0.7-0.4-1-0.5c-0.4-0.1-0.8-0.2-1.2-0.2
			c-0.3,0-0.6,0-0.8,0.1c-0.2,0.1-0.3,0.2-0.3,0.4c0,0.1,0.1,0.3,0.2,0.3c0.1,0.1,0.3,0.1,0.7,0.2c0.2,0,0.4,0.1,0.7,0.1
			c0.2,0,0.5,0.1,0.7,0.1c0.5,0.1,0.9,0.4,1.2,0.7c0.3,0.3,0.4,0.6,0.5,1.1c0.1,0.7-0.2,1.2-0.8,1.6c-0.6,0.4-1.3,0.6-2.4,0.6
			c-0.6,0-1.1-0.1-1.6-0.2c-0.5-0.1-0.8-0.2-1.1-0.3l-0.1-1.7H24c0.1,0.1,0.2,0.2,0.4,0.3c0.1,0.1,0.3,0.2,0.6,0.3
			c0.2,0.1,0.5,0.1,0.8,0.2c0.3,0.1,0.5,0.1,0.9,0.1c0.4,0,0.7,0,0.9-0.1c0.2-0.1,0.3-0.2,0.3-0.4c0-0.2-0.1-0.3-0.2-0.4
			c-0.1-0.1-0.3-0.1-0.7-0.2c-0.1,0-0.3-0.1-0.6-0.1c-0.3-0.1-0.5-0.1-0.7-0.2c-0.6-0.1-1-0.4-1.3-0.7c-0.3-0.3-0.5-0.7-0.5-1.2
			C23.7,9.7,24,9.2,24.5,8.8z M12.3,6.5l2.8,8.2h-2.3l-0.5-1.7H9.1l-0.7,1.7H6.2l3.7-8.2H12.3z M11.8,11.4l-0.8-2.9l-1.2,2.9H11.8z"
			/>
	</g>
</g>
</svg>
