<?xml version="1.0" encoding="utf-8"?>
<!-- Generator: Adobe Illustrator 16.0.0, SVG Export Plug-In . SVG Version: 6.00 Build 0)  -->
<!DOCTYPE svg PUBLIC "-//W3C//DTD SVG 1.1//EN" "http://www.w3.org/Graphics/SVG/1.1/DTD/svg11.dtd">
<svg version="1.1" id="Layer_1" xmlns="http://www.w3.org/2000/svg" xmlns:xlink="http://www.w3.org/1999/xlink" x="0px" y="0px"
	 width="37px" height="25px" viewBox="0 0 37 25" style="enable-background:new 0 0 37 25;" xml:space="preserve">
<g>
	<g>
		<g>
			<path style="fill-rule:evenodd;clip-rule:evenodd;fill:#87788D;" d="M30.1,6.2c3.2,1.8,4.8,4,4.8,6.6c0,2.6-1.6,4.7-4.8,6.5
				c-1,0.6-2.1,1.1-3.3,1.5c-1.4,0.5-2.9,0.8-4.4,1c-1.2,0.2-2.5,0.2-3.8,0.2c-1.4,0-2.7-0.1-3.9-0.2c-2-0.3-3.9-0.8-5.6-1.4
				c-0.7-0.3-1.4-0.6-2.1-1c-3.2-1.8-4.8-4-4.8-6.5C2.1,10.2,3.7,8,7,6.2c3.2-1.8,7.1-2.7,11.6-2.7C23,3.5,26.9,4.4,30.1,6.2z"/>
			
				<path style="fill-rule:evenodd;clip-rule:evenodd;fill:none;stroke:#BAC9D1;stroke-width:1.5;stroke-linecap:round;stroke-linejoin:round;stroke-miterlimit:3;" d="
				M30.1,6.2c3.2,1.8,4.8,4,4.8,6.6c0,2.6-1.6,4.7-4.8,6.5c-1,0.6-2.1,1.1-3.3,1.5c-1.4,0.5-2.9,0.8-4.4,1c-1.2,0.2-2.5,0.2-3.8,0.2
				c-1.4,0-2.7-0.1-3.9-0.2c-2-0.3-3.9-0.8-5.6-1.4c-0.7-0.3-1.4-0.6-2.1-1c-3.2-1.8-4.8-4-4.8-6.5C2.1,10.2,3.7,8,7,6.2
				c3.2-1.8,7.1-2.7,11.6-2.7C23,3.5,26.9,4.4,30.1,6.2z"/>
		</g>
	</g>
	<g>
		<path style="fill-rule:evenodd;clip-rule:evenodd;fill:#FFFFFF;fill-opacity:0.502;" d="M21.4,5.9v1.2H23v0.6h-1.6v1.9
			c0,0.2,0,0.4,0,0.6c0,0.1,0,0.2,0.1,0.3c0.1,0.1,0.2,0.2,0.3,0.3c0.1,0,0.3,0.1,0.5,0.1c0,0,0.1,0,0.1,0c0.1,0,0.1,0,0.2-0.1
			c0.1,0,0.2,0,0.3-0.1h0v0.6c-0.1,0-0.3,0-0.5,0.1c-0.2,0-0.3,0-0.4,0c0,0-0.1,0-0.1,0c-0.4,0-0.7-0.1-1-0.3c0,0-0.1-0.1-0.1-0.1
			c0,0,0,0,0-0.1c-0.1-0.3-0.2-0.6-0.2-0.9V7.7h-0.5V7.2h0.5V5.9H21.4z M24.2,7.6C24.6,7.2,25.1,7,25.7,7c0.7,0,1.2,0.2,1.6,0.6
			c0.4,0.4,0.6,1,0.6,1.7c0,0.7-0.2,1.3-0.6,1.7c-0.4,0.4-0.9,0.6-1.6,0.6c-0.6,0-1.2-0.2-1.5-0.6c0,0,0,0,0,0
			c-0.4-0.4-0.6-0.9-0.6-1.6c0-0.3,0-0.5,0.1-0.8C23.8,8.1,24,7.9,24.2,7.6z M24.8,10.5c0.2,0.3,0.6,0.4,1,0.4c0.4,0,0.8-0.1,1-0.4
			c0.2-0.3,0.4-0.7,0.4-1.2c0-0.6-0.1-1-0.4-1.2c-0.2-0.3-0.6-0.4-1-0.4c-0.4,0-0.7,0.1-1,0.4c-0.2,0.3-0.3,0.7-0.3,1.2
			C24.4,9.8,24.5,10.2,24.8,10.5z M26.6,15.5c-0.2-0.3-0.6-0.4-1-0.4c-0.4,0-0.7,0.1-1,0.4c-0.2,0.3-0.3,0.7-0.3,1.2s0.1,1,0.3,1.2
			c0.2,0.3,0.6,0.4,1,0.4c0.4,0,0.8-0.1,1-0.4c0.2-0.3,0.4-0.7,0.4-1.2S26.9,15.8,26.6,15.5z M27.2,15.1c0.4,0.4,0.6,1,0.6,1.7
			c0,0.7-0.2,1.3-0.6,1.6c-0.4,0.4-0.9,0.6-1.6,0.6c-0.6,0-1.2-0.2-1.5-0.6c-0.2-0.2-0.4-0.4-0.5-0.7c-0.1-0.3-0.1-0.6-0.1-0.9
			c0,0,0,0,0-0.1c0-0.7,0.2-1.2,0.6-1.6c0.4-0.4,0.9-0.6,1.5-0.6C26.3,14.5,26.8,14.7,27.2,15.1z M22.8,14.6c0,0,0.1,0,0.3,0v0.7h0
			c-0.1,0-0.2,0-0.3-0.1c-0.1,0-0.3,0-0.4,0c-0.2,0-0.5,0-0.7,0.1c-0.2,0.1-0.5,0.2-0.7,0.4v3h-0.8v-4.2H21v0.6
			c0.3-0.2,0.6-0.4,0.8-0.4s0.5-0.1,0.7-0.1C22.7,14.6,22.8,14.6,22.8,14.6z M19,17.8v0.8c-0.2,0.1-0.5,0.2-0.7,0.2c0,0,0,0-0.1,0
			c-0.3,0.1-0.6,0.1-0.9,0.1c-0.1,0-0.3,0-0.4,0c-0.6-0.1-1.1-0.3-1.4-0.6c-0.4-0.3-0.6-0.8-0.7-1.4c0-0.1,0-0.1,0-0.2
			c0-0.7,0.2-1.2,0.6-1.7c0.4-0.4,1-0.7,1.6-0.7c0.6,0,1.1,0.2,1.5,0.5c0.2,0.2,0.3,0.5,0.4,0.8c0,0.2,0.1,0.4,0.1,0.7v0.4h-3.4
			c0,0.3,0,0.5,0.1,0.7c0,0,0.1,0.1,0.1,0.1c0.1,0.1,0.2,0.2,0.3,0.3c0.2,0.1,0.3,0.2,0.5,0.3c0,0,0,0,0,0c0.2,0,0.4,0,0.6,0
			c0.1,0,0.2,0,0.3,0c0.2,0,0.5-0.1,0.7-0.2h0C18.6,18.1,18.8,18,19,17.8L19,17.8z M19.1,11.4h-0.8v-0.4c-0.2,0.1-0.3,0.2-0.4,0.3
			c0,0-0.1,0-0.1,0.1c-0.1,0-0.2,0-0.2,0.1c-0.2,0.1-0.5,0.1-0.8,0.1c-0.2,0-0.4,0-0.6-0.1c-0.2-0.1-0.4-0.2-0.5-0.3
			c-0.3-0.3-0.4-0.7-0.4-1.2V7.2H16v2.4c0,0.2,0,0.4,0,0.6c0,0.2,0.1,0.3,0.1,0.4c0.1,0.1,0.2,0.2,0.3,0.3c0.1,0,0.2,0,0.3,0.1
			c0,0,0.1,0,0.2,0c0.2,0,0.4-0.1,0.7-0.2c0,0,0.1,0,0.1,0c0.2-0.1,0.4-0.2,0.6-0.3V7.2h0.8V11.4z M10.5,9.2h2.2l-1.1-2.8L10.5,9.2z
			 M12.2,5.7l2.2,5.7h-0.9l-0.6-1.6h-2.7l-0.6,1.6H8.8L11,5.7H12.2z M14,13.9l-3.8,4.3h3.9v0.7H9.3v-0.7l3.8-4.3H9.5v-0.7H14V13.9z
			 M18,15.4c-0.2-0.2-0.5-0.3-1-0.3c-0.4,0-0.7,0.1-1,0.3c-0.1,0.1-0.2,0.2-0.2,0.3c-0.1,0.2-0.2,0.3-0.2,0.6h2.7c0-0.1,0-0.1,0-0.2
			C18.2,15.8,18.1,15.6,18,15.4z"/>
	</g>
</g>
</svg>
