<?xml version="1.0" encoding="utf-8"?>
<!-- Generator: Adobe Illustrator 16.0.0, SVG Export Plug-In . SVG Version: 6.00 Build 0)  -->
<!DOCTYPE svg PUBLIC "-//W3C//DTD SVG 1.1//EN" "http://www.w3.org/Graphics/SVG/1.1/DTD/svg11.dtd">
<svg version="1.1" id="Layer_1" xmlns="http://www.w3.org/2000/svg" xmlns:xlink="http://www.w3.org/1999/xlink" x="0px" y="0px"
	 width="37px" height="25px" viewBox="0 0 37 25" style="enable-background:new 0 0 37 25;" xml:space="preserve">
<g>
	<g>
		<g>
			<path style="fill-rule:evenodd;clip-rule:evenodd;fill:#87788D;" d="M30.1,4.5c3.2,1.8,4.8,4,4.8,6.6c0,2.6-1.6,4.7-4.8,6.5
				c-1,0.6-2.1,1.1-3.3,1.5c-1.4,0.5-2.9,0.8-4.4,1c-1.2,0.2-2.5,0.2-3.8,0.2c-1.4,0-2.7-0.1-3.9-0.2c-2-0.3-3.9-0.8-5.6-1.4
				c-0.7-0.3-1.4-0.6-2.1-1c-3.2-1.8-4.8-4-4.8-6.5c0-2.6,1.6-4.8,4.8-6.6c3.2-1.8,7.1-2.7,11.6-2.7C23,1.8,26.9,2.7,30.1,4.5z"/>
			
				<path style="fill-rule:evenodd;clip-rule:evenodd;fill:none;stroke:#BAC9D1;stroke-width:1.5;stroke-linecap:round;stroke-linejoin:round;stroke-miterlimit:3;" d="
				M30.1,4.5c3.2,1.8,4.8,4,4.8,6.6c0,2.6-1.6,4.7-4.8,6.5c-1,0.6-2.1,1.1-3.3,1.5c-1.4,0.5-2.9,0.8-4.4,1c-1.2,0.2-2.5,0.2-3.8,0.2
				c-1.4,0-2.7-0.1-3.9-0.2c-2-0.3-3.9-0.8-5.6-1.4c-0.7-0.3-1.4-0.6-2.1-1c-3.2-1.8-4.8-4-4.8-6.5c0-2.6,1.6-4.8,4.8-6.6
				c3.2-1.8,7.1-2.7,11.6-2.7C23,1.8,26.9,2.7,30.1,4.5z"/>
		</g>
	</g>
	<g>
		<path style="fill-rule:evenodd;clip-rule:evenodd;fill:#FFFFFF;" d="M23,6h-1.6v1.9c0,0.2,0,0.4,0,0.6c0,0.1,0,0.2,0.1,0.3
			C21.6,8.9,21.6,9,21.8,9c0.1,0,0.3,0.1,0.5,0.1c0,0,0.1,0,0.1,0c0.1,0,0.1,0,0.2-0.1c0.1,0,0.2,0,0.3-0.1h0v0.6
			c-0.1,0-0.3,0-0.5,0.1c-0.2,0-0.3,0-0.4,0c0,0-0.1,0-0.1,0c-0.4,0-0.7-0.1-1-0.3c0,0-0.1-0.1-0.1-0.1c0,0,0,0,0-0.1
			c-0.1-0.3-0.2-0.6-0.2-0.9V6h-0.5V5.4h0.5V4.2h0.8v1.2H23V6z M24.2,5.8c0.4-0.4,0.9-0.6,1.5-0.6c0.7,0,1.2,0.2,1.6,0.6
			c0.4,0.4,0.6,1,0.6,1.7c0,0.7-0.2,1.3-0.6,1.7c-0.4,0.4-0.9,0.6-1.6,0.6c-0.6,0-1.2-0.2-1.5-0.6c0,0,0,0,0,0
			c-0.4-0.4-0.6-0.9-0.6-1.6c0-0.3,0-0.5,0.1-0.8C23.8,6.4,24,6.1,24.2,5.8z M24.8,8.7c0.2,0.3,0.6,0.4,1,0.4c0.4,0,0.8-0.1,1-0.4
			s0.4-0.7,0.4-1.2c0-0.6-0.1-1-0.4-1.2c-0.2-0.3-0.6-0.4-1-0.4c-0.4,0-0.7,0.1-1,0.4c-0.2,0.3-0.3,0.7-0.3,1.2
			C24.4,8,24.5,8.5,24.8,8.7z M19.1,9.6h-0.8V9.2c-0.2,0.1-0.3,0.2-0.4,0.3c0,0-0.1,0-0.1,0.1c-0.1,0-0.2,0-0.2,0.1
			c-0.2,0.1-0.5,0.1-0.8,0.1c-0.2,0-0.4,0-0.6-0.1c-0.2-0.1-0.4-0.2-0.5-0.3c-0.3-0.3-0.4-0.7-0.4-1.2V5.4H16v2.4c0,0.2,0,0.4,0,0.6
			c0,0.2,0.1,0.3,0.1,0.4c0.1,0.1,0.2,0.2,0.3,0.3c0.1,0,0.2,0,0.3,0.1c0,0,0.1,0,0.2,0c0.2,0,0.4-0.1,0.7-0.2c0,0,0.1,0,0.1,0
			c0.2-0.1,0.4-0.2,0.6-0.3V5.4h0.8V9.6z M27.2,16.6c-0.4,0.4-0.9,0.6-1.6,0.6c-0.6,0-1.2-0.2-1.5-0.6c-0.2-0.2-0.4-0.4-0.5-0.7
			c-0.1-0.3-0.1-0.6-0.1-0.9c0,0,0,0,0-0.1c0-0.7,0.2-1.2,0.6-1.6c0.4-0.4,0.9-0.6,1.5-0.6c0.7,0,1.2,0.2,1.6,0.6
			c0.4,0.4,0.6,1,0.6,1.7C27.8,15.7,27.6,16.2,27.2,16.6z M27,15c0-0.6-0.1-1-0.4-1.2c-0.2-0.3-0.6-0.4-1-0.4c-0.4,0-0.7,0.1-1,0.4
			c-0.2,0.3-0.3,0.7-0.3,1.2c0,0.6,0.1,1,0.3,1.2c0.2,0.3,0.6,0.4,1,0.4c0.4,0,0.8-0.1,1-0.4C26.9,15.9,27,15.5,27,15z M23.1,12.9
			v0.7h0c-0.1,0-0.2,0-0.3-0.1c-0.1,0-0.3,0-0.4,0c-0.2,0-0.5,0-0.7,0.1c-0.2,0.1-0.5,0.2-0.7,0.4v3h-0.8v-4.2H21v0.6
			c0.3-0.2,0.6-0.4,0.8-0.4c0.2-0.1,0.5-0.1,0.7-0.1c0.1,0,0.2,0,0.3,0C22.9,12.9,23,12.9,23.1,12.9z M19.1,14.7v0.4h-3.4
			c0,0.3,0,0.5,0.1,0.7c0,0,0.1,0.1,0.1,0.1c0.1,0.1,0.2,0.2,0.3,0.3c0.2,0.1,0.3,0.2,0.5,0.3c0,0,0,0,0,0c0.2,0,0.4,0,0.6,0
			c0.1,0,0.2,0,0.3,0c0.2,0,0.5-0.1,0.7-0.2h0c0.3-0.1,0.5-0.2,0.7-0.3h0v0.8c-0.2,0.1-0.5,0.2-0.7,0.2c0,0,0,0-0.1,0
			c-0.3,0.1-0.6,0.1-0.9,0.1c-0.1,0-0.3,0-0.4,0c-0.6-0.1-1.1-0.3-1.4-0.6c-0.4-0.3-0.6-0.8-0.7-1.4c0-0.1,0-0.1,0-0.2
			c0-0.7,0.2-1.2,0.6-1.7c0.4-0.4,1-0.7,1.6-0.7c0.6,0,1.1,0.2,1.5,0.5c0.2,0.2,0.3,0.5,0.4,0.8C19,14.2,19.1,14.4,19.1,14.7z
			 M11,3.9h1.1l2.2,5.7h-0.9l-0.6-1.6h-2.7L9.7,9.6H8.8L11,3.9z M10.5,7.4h2.2l-1.1-2.8L10.5,7.4z M15.6,14.5h2.7c0-0.1,0-0.1,0-0.2
			c0-0.3-0.1-0.5-0.3-0.7c-0.2-0.2-0.5-0.3-1-0.3c-0.4,0-0.7,0.1-1,0.3c-0.1,0.1-0.2,0.2-0.2,0.3C15.7,14.1,15.6,14.3,15.6,14.5z
			 M14,12.1l-3.8,4.3h3.9v0.7H9.3v-0.7l3.8-4.3H9.5v-0.7H14V12.1z"/>
	</g>
</g>
</svg>
