<?xml version="1.0" encoding="utf-8"?>
<!-- Generator: Adobe Illustrator 16.0.0, SVG Export Plug-In . SVG Version: 6.00 Build 0)  -->
<!DOCTYPE svg PUBLIC "-//W3C//DTD SVG 1.1//EN" "http://www.w3.org/Graphics/SVG/1.1/DTD/svg11.dtd">
<svg version="1.1" xmlns="http://www.w3.org/2000/svg" xmlns:xlink="http://www.w3.org/1999/xlink" x="0px" y="0px" width="700px"
	 height="700px" viewBox="0 0 700 700" style="enable-background:new 0 0 700 700;" xml:space="preserve">
<g id="CHEMISTRY_x5F_LAB_x5F_BG001">
	<g>
		<g>
			<linearGradient id="SVGID_1_" gradientUnits="userSpaceOnUse" x1="345.1338" y1="125.9346" x2="353.6146" y2="794.6576">
				<stop  offset="0" style="stop-color:#9E6749"/>
				<stop  offset="1" style="stop-color:#DECE8F"/>
			</linearGradient>
			<rect x="-51.2" y="-34.5" style="fill-rule:evenodd;clip-rule:evenodd;fill:url(#SVGID_1_);" width="798.8" height="800.6"/>
		</g>
		<g>
			<g>
				<linearGradient id="SVGID_2_" gradientUnits="userSpaceOnUse" x1="354.5332" y1="-275.9194" x2="346.3423" y2="589.7526">
					<stop  offset="0" style="stop-color:#0F0D0B;stop-opacity:0.451"/>
					<stop  offset="1" style="stop-color:#97814F;stop-opacity:9.411765e-002"/>
				</linearGradient>
				<polygon style="fill-rule:evenodd;clip-rule:evenodd;fill:url(#SVGID_2_);" points="748.2,-34.4 748,784.4 -51.2,784.4 
					-51.2,-34.4 				"/>
			</g>
		</g>
		<g>
			<g>
				<polygon style="fill-rule:evenodd;clip-rule:evenodd;fill:#312113;fill-opacity:0.4431;" points="721.5,15.7 721.5,162.5 
					-18.2,162.5 -18.2,13 493.5,14.1 493.5,14.4 				"/>
			</g>
			<g>
				<g>
					<path style="fill-rule:evenodd;clip-rule:evenodd;fill:#C18C57;" d="M679.5,19.6H18.1H7.3V136v1.8h683v-1V19.6H679.5z
						 M704.7,153.2H-7.7V4.7h712.4V153.2z"/>
					<path style="fill-rule:evenodd;clip-rule:evenodd;fill:#49321B;" d="M679.5,126.4V19.6h10.7v117.2L679.5,126.4z M18.1,19.6
						v106.8l-0.4,0.4L7.3,136V19.6H18.1z"/>
					<polygon style="fill-rule:evenodd;clip-rule:evenodd;fill:#644424;" points="679.5,126.4 690.3,136.8 690.3,137.8 7.3,137.8 
						7.3,136 17.8,126.7 679.5,126.7 					"/>
					<linearGradient id="SVGID_3_" gradientUnits="userSpaceOnUse" x1="348.6499" y1="139.8501" x2="348.6499" y2="23.0501">
						<stop  offset="0" style="stop-color:#835830"/>
						<stop  offset="1" style="stop-color:#5E4022"/>
					</linearGradient>
					<polygon style="fill-rule:evenodd;clip-rule:evenodd;fill:url(#SVGID_3_);" points="17.8,126.7 18.1,126.4 18.1,19.6 
						679.5,19.6 679.5,126.4 679.5,126.7 					"/>
				</g>
			</g>
		</g>
		<g>
			<g>
				<g>
					<linearGradient id="SVGID_4_" gradientUnits="userSpaceOnUse" x1="348.1753" y1="631.9502" x2="348.1753" y2="626.9502">
						<stop  offset="0.2745" style="stop-color:#352E28"/>
						<stop  offset="0.4902" style="stop-color:#B9B4B3"/>
						<stop  offset="0.8471" style="stop-color:#5D5554"/>
					</linearGradient>
					<polygon style="fill-rule:evenodd;clip-rule:evenodd;fill:url(#SVGID_4_);" points="747.5,652.2 747.4,652.2 714,652.2 
						708.3,652.2 678.5,652.2 348.5,652.2 343,652.2 234.5,652.2 228.9,652.2 135.8,652.2 130,652.2 -51.2,652.2 -51.2,522.6 
						678.5,522.7 747.5,522.8 					"/>
					<path style="fill-rule:evenodd;clip-rule:evenodd;fill:#5C3423;" d="M343,768.2v-116h5.6v116H343z M747.4,768.2v-116h0.1v116
						H747.4z"/>
					<path style="fill-rule:evenodd;clip-rule:evenodd;fill:#76412C;" d="M-51.2,652.2H130h5.8h93.1h5.6H343v116H-51.2V652.2z
						 M747.4,768.2H348.5v-116h329.9h29.8h5.8h33.4V768.2z"/>
				</g>
			</g>
			<g>
				<g>
					<polygon style="fill-rule:evenodd;clip-rule:evenodd;fill:#BE825A;" points="742.3,669.5 367,669.5 362.8,667.6 747.5,667.6 
											"/>
					<rect x="367" y="669.5" style="fill-rule:evenodd;clip-rule:evenodd;fill:#98613D;" width="375.4" height="81.6"/>
					<path style="fill-rule:evenodd;clip-rule:evenodd;fill:#8F4634;" d="M367,669.5v81.6l-4.2,2.1V725c0.1-0.8,0.2-1.5,0.2-2.1
						c0-1-0.1-2-0.2-3.1v-52.3L367,669.5z"/>
					<line style="fill-rule:evenodd;clip-rule:evenodd;fill:none;" x1="367" y1="669.5" x2="742.3" y2="669.5"/>
				</g>
			</g>
			<g>
				<g>
					<polygon style="fill-rule:evenodd;clip-rule:evenodd;fill:#BE825A;" points="324.6,669.5 -50.8,669.5 -55,667.6 329.9,667.6 
											"/>
					<path style="fill-rule:evenodd;clip-rule:evenodd;fill:#805133;" d="M324.6,751.2v-81.6l5.3-2v84
						C329.7,753.8,328,753.6,324.6,751.2z"/>
					<rect x="-50.8" y="669.5" style="fill-rule:evenodd;clip-rule:evenodd;fill:#98613D;" width="375.4" height="81.6"/>
					<line style="fill-rule:evenodd;clip-rule:evenodd;fill:none;" x1="324.6" y1="751.2" x2="324.6" y2="669.5"/>
					<line style="fill-rule:evenodd;clip-rule:evenodd;fill:none;" x1="-50.8" y1="669.5" x2="324.6" y2="669.5"/>
				</g>
			</g>
		</g>
	</g>
</g>
<g id="machine_under">
	<g>
		<g>
			
				<linearGradient id="SVGID_5_" gradientUnits="userSpaceOnUse" x1="2.9995" y1="-81.8999" x2="2.9995" y2="124.7001" gradientTransform="matrix(0.6683 0 0 0.6899 559.3497 519.5497)">
				<stop  offset="0" style="stop-color:#726D74"/>
				<stop  offset="0.1529" style="stop-color:#7D7781"/>
				<stop  offset="0.1843" style="stop-color:#A78FA8"/>
				<stop  offset="0.2118" style="stop-color:#87788D"/>
				<stop  offset="0.7098" style="stop-color:#897B90"/>
				<stop  offset="0.7294" style="stop-color:#889BAC"/>
				<stop  offset="0.7529" style="stop-color:#4A5B6B"/>
				<stop  offset="1" style="stop-color:#4A5B6B"/>
			</linearGradient>
			<path style="fill-rule:evenodd;clip-rule:evenodd;fill:url(#SVGID_5_);" d="M662.3,462.9c0.6,0.1,1.3,0.6,1.9,1.5l5.9,15.8
				l1.8,4.9H450.7c0.4-1.5,0.9-3.1,1.5-4.9l3-9.8l1.7-5.7c0.3-1.2,0.9-1.8,1.9-1.9H662.3z"/>
		</g>
		<g>
			<g>
				
					<radialGradient id="SVGID_6_" cx="1.7002" cy="-70.5" r="32.675" gradientTransform="matrix(0.6683 0 0 0.2544 559.3497 488.8495)" gradientUnits="userSpaceOnUse">
					<stop  offset="0" style="stop-color:#401C1C"/>
					<stop  offset="0.6" style="stop-color:#401C1C"/>
					<stop  offset="0.7412" style="stop-color:#401C1C;stop-opacity:0.498"/>
					<stop  offset="1" style="stop-color:#401C1C;stop-opacity:0"/>
				</radialGradient>
				<path style="fill-rule:evenodd;clip-rule:evenodd;fill:url(#SVGID_6_);" d="M575.5,472.6l0.1,4.1c0,2.3-0.5,3.8-1.4,4.6
					c-0.9,0.8-3.2,1.5-6.8,2c-6.1,0.8-13.3-0.3-21.4-3.4v-7.2h0.2c0.2,0.3,0.4,0.6,0.6,1c0.7-0.5,1.9-1,3.5-1.4
					c2.9-0.7,6.5-1.1,10.6-1.1c0.5,0,1,0,1.4,0C565.3,471.4,569.7,471.8,575.5,472.6z"/>
			</g>
			<g>
				
					<radialGradient id="SVGID_7_" cx="2.0996" cy="-69.2998" r="26.5255" gradientTransform="matrix(0.6683 0 0 0.1775 559.3497 484.0425)" gradientUnits="userSpaceOnUse">
					<stop  offset="0" style="stop-color:#401C1C"/>
					<stop  offset="0.8471" style="stop-color:#401C1C"/>
					<stop  offset="0.9922" style="stop-color:#130707"/>
					<stop  offset="1" style="stop-color:#120707"/>
				</radialGradient>
				<path style="fill-rule:evenodd;clip-rule:evenodd;fill:url(#SVGID_7_);" d="M571.2,470.3c2.9,0.7,4.4,1.6,4.4,2.6
					s-1.5,1.9-4.4,2.6c-2.5,0.7-5.6,1-9.1,1.1c-0.5,0-0.9,0-1.4,0c-4.1,0-7.6-0.4-10.6-1.1c-2.9-0.7-4.3-1.6-4.3-2.6
					s1.4-1.9,4.3-2.6c2.9-0.7,6.5-1.1,10.6-1.1c0.5,0,1,0,1.4,0C565.7,469.3,568.7,469.7,571.2,470.3z"/>
			</g>
			<g>
				<g>
					
						<linearGradient id="SVGID_8_" gradientUnits="userSpaceOnUse" x1="-17.5752" y1="-69.7251" x2="21.0748" y2="-69.7251" gradientTransform="matrix(0.6683 0 0 0.6899 559.3497 519.5497)">
						<stop  offset="7.843138e-003" style="stop-color:#582727"/>
						<stop  offset="1" style="stop-color:#582C27"/>
					</linearGradient>
					<path style="fill-rule:evenodd;clip-rule:evenodd;fill:url(#SVGID_8_);" d="M571.8,471.6c-0.1,0.5-1.2,1-3.3,1.4
						c-1.8,0.3-3.9,0.5-6.3,0.6c-0.5,0-1.1,0-1.6,0c-3.1,0-5.8-0.2-8-0.6c-2-0.4-3.1-0.9-3.2-1.4c0.1-0.6,1.2-1.1,3.2-1.5
						c1-0.2,2.2-0.4,3.4-0.5l4-0.2c0,0,0.1,0,0.1,0c0,0,0.1,0,0.1,0c0,0,0.1,0,0.1,0c0,0,0.1,0,0.1,0c0.1,0,0.1,0,0.2,0
						c0,0,0.1,0,0.1,0s0.1,0,0.1,0c0,0,0.1,0,0.1,0l4,0.2c1.2,0.1,2.4,0.3,3.4,0.5C570.6,470.5,571.7,471,571.8,471.6z M567.4,470.1
						c-1.5-0.2-3.2-0.3-5.2-0.4c-0.5,0-1.1,0-1.7,0c-2.7,0-5,0.1-6.9,0.4c-1.9,0.3-2.9,0.6-2.9,1c0,0.4,1,0.8,2.9,1
						c1.9,0.3,4.2,0.4,6.9,0.4c0.6,0,1.1,0,1.7,0c2-0.1,3.8-0.2,5.2-0.4c1.9-0.3,2.9-0.6,2.9-1C570.3,470.7,569.4,470.3,567.4,470.1
						z"/>
					<path style="fill-rule:evenodd;clip-rule:evenodd;" d="M567.4,470.1c1.9,0.3,2.9,0.6,2.9,1c0,0.4-1,0.8-2.9,1
						c-1.5,0.2-3.2,0.3-5.2,0.4c-0.5,0-1.1,0-1.7,0c-2.7,0-5-0.1-6.9-0.4c-1.9-0.3-2.9-0.6-2.9-1c0-0.4,1-0.7,2.9-1
						c1.9-0.3,4.2-0.4,6.9-0.4c0.6,0,1.1,0,1.7,0C564.2,469.7,565.9,469.8,567.4,470.1z"/>
				</g>
			</g>
			<g>
				<g>
					
						<linearGradient id="SVGID_9_" gradientUnits="userSpaceOnUse" x1="-17.5752" y1="-69.6758" x2="21.0748" y2="-69.6758" gradientTransform="matrix(0.6683 0 0 0.6899 559.3497 519.5497)">
						<stop  offset="7.843138e-003" style="stop-color:#582727"/>
						<stop  offset="1" style="stop-color:#582C27"/>
					</linearGradient>
					<path style="fill-rule:evenodd;clip-rule:evenodd;fill:url(#SVGID_9_);" d="M562.4,469.4l2.7,0.1c1.2,0.1,2.4,0.3,3.4,0.5
						c2.1,0.4,3.2,0.9,3.3,1.5c-0.1,0.5-1.2,1-3.3,1.4c-1.8,0.3-3.8,0.5-6.1,0.6v-1.1c1.9-0.1,3.6-0.2,5-0.4c1.9-0.3,2.9-0.6,2.9-1
						c0-0.4-1-0.7-2.9-1c-1.4-0.2-3.1-0.3-5-0.4V469.4z"/>
					
						<linearGradient id="SVGID_10_" gradientUnits="userSpaceOnUse" x1="25.5347" y1="-64.5293" x2="36.6258" y2="-64.5293" gradientTransform="matrix(0.6537 -0.1431 0.1861 0.6645 559.3497 519.5495)">
						<stop  offset="0" style="stop-color:#020101;stop-opacity:0"/>
						<stop  offset="0.4745" style="stop-color:#020101;stop-opacity:0.5765"/>
						<stop  offset="0.9922" style="stop-color:#000000"/>
						<stop  offset="1" style="stop-color:#120707"/>
					</linearGradient>
					<path style="fill-rule:evenodd;clip-rule:evenodd;fill:url(#SVGID_10_);" d="M562.4,469.4v-0.2c3.4,0.1,6.4,0.4,8.9,1.1
						c2.9,0.7,4.4,1.6,4.4,2.6s-1.5,1.9-4.4,2.6c-2.4,0.6-5.1,1-8.3,1.1c-0.2,0-0.4,0-0.6,0v-3.1c2.3-0.1,4.4-0.3,6.1-0.6
						c2.1-0.4,3.2-0.9,3.3-1.4c-0.1-0.6-1.2-1.1-3.3-1.5c-1-0.2-2.2-0.4-3.4-0.5L562.4,469.4z"/>
				</g>
			</g>
		</g>
	</g>
</g>
<g id="Layer_2">
	<g>
		<path style="fill-rule:evenodd;clip-rule:evenodd;fill:#FFFFFF;fill-opacity:0.8;" d="M406.2,167.9h15.8c5.1,0,7.6,2.6,7.6,7.9
			v117.8v321.2c0,5.3-2.5,7.9-7.6,7.9H11.5c-5.1,0-7.6-2.6-7.6-7.9v-439c0-5.3,2.5-7.9,7.6-7.9H406.2z"/>
	</g>
</g>
</svg>
