<?xml version="1.0" encoding="utf-8"?>
<!-- Generator: Adobe Illustrator 16.0.0, SVG Export Plug-In . SVG Version: 6.00 Build 0)  -->
<!DOCTYPE svg PUBLIC "-//W3C//DTD SVG 1.1//EN" "http://www.w3.org/Graphics/SVG/1.1/DTD/svg11.dtd">
<svg version="1.1" id="Layer_1" xmlns="http://www.w3.org/2000/svg" xmlns:xlink="http://www.w3.org/1999/xlink" x="0px" y="0px"
	 width="299px" height="299px" viewBox="0 0 299 299" enable-background="new 0 0 299 299" xml:space="preserve">
<g id="Layer_1_2_">
	<g id="Layer_4">
	</g>
	<g id="Layer_1_1_">
		<g>
			<g>
				<g>
					<polygon fill="#FFFFFF" points="90.4,271.7 90.4,271.4 39.1,271.4 39.1,8.4 265.3,8.4 265.3,271.7 					"/>
					<path fill="none" stroke="#000000" stroke-linecap="round" stroke-linejoin="round" stroke-miterlimit="3" d="M90.4,271.4v0.3
						 M39.1,271.4v0.3"/>
				</g>
			</g>
			<g>
				<path fill="none" stroke="#FFCCFF" stroke-linecap="round" stroke-linejoin="round" stroke-miterlimit="3" d="M40,8.5h25.1h25
					h25h25h25h25h25h25h25v24v23.8v24v24v24v24v24v24v24v24v23 M190.1,8.5v24h25v-24 M240.1,8.5v24h25 M215.1,32.5v23.8h25V32.5
					H215.1z M265.1,56.2h-25v24h25 M240.1,80.2v24h25 M215.1,80.2v-24h-25v24H215.1z M190.1,80.2v24h25v-24 M215.1,128.2h-25v24h25
					V128.2z M265.1,128.2h-25v24h25 M240.1,128.2v-24h-25v24H240.1z M215.1,152.2v24h25v-24H215.1z M240.1,80.2h-25 M190.1,104.2
					h-25v24h25V104.2z M190.1,32.5h-25v23.8h25V32.5z M265.1,176.2h-25v24h25 M215.1,176.2h-25v24h25V176.2z M190.1,248.2h25v-24
					h-25V248.2z M265.1,248.2h-25v23 M240.1,200.2v24h25 M215.1,248.2h25v-24h-25 M240.1,200.2h-25v24 M190.1,200.2h-25v24h25V200.2
					z M215.1,248.2v23 M190.1,271.2v-23h-25v23 M190.1,152.2h-25v24h25V152.2z M115.1,32.5v23.8h25V32.5H115.1z M140.1,8.5v24h25
					v-24 M90.1,8.5v24h25v-24 M40.3,32.5h24.9v-24 M65.1,32.5v23.8h25V32.5H65.1z M90.1,80.2h25v-24h-25V80.2v24h25v-24h25v-24h25
					v24h25 M40.3,80.2h24.9v-24H40 M40.3,128.2h24.9v-24H40.3 M90.1,80.2h-25v24h25v24h25v-24 M40.3,176.2h24.9v-24H40.3
					 M65.1,152.2h25v-24h-25V152.2z M165.1,80.2v24 M115.1,128.2h25v-24h-25 M165.1,80.2h-25v24h25 M115.1,128.2v24h25v-24h25v24
					h-25v24h25v24h-25v24h25v24h-25v23 M90.1,152.2h25 M140.1,176.2h-25v24h25V176.2z M140.1,224.2h-25v24h25V224.2z M115.1,200.2
					h-25v24h25V200.2z M90.1,176.2h-25v24h25V176.2z M40.3,224.2h24.9v-24H40.3 M65.1,248.2h25v-24h-25V248.2z M65.1,271.2v-23H40.3
					 M90.1,248.2h25 M90.1,248.2v23 M115.1,271.2v-23 M90.1,152.2v24h25v-24"/>
			</g>
			<g>
				<path fill="none" stroke="#8888FF" stroke-linecap="round" stroke-linejoin="round" stroke-miterlimit="3" d="M287.3,269.2
					l4.1,2.2l-0.3,0.3l-3.5,2.4 M42,10.8l-2.8-3.5v1l0.1,1.3v1.1V13v0.5v1.9v256.2H291 M39.3,15.4l-0.1-7.1 M39.2,7.3l-2.7,3.6"/>
			</g>
			<g>
				<path d="M283,261.3l-2.5,3.6h-1.3l3-4.4l-3-4.3h1.4l2.3,3.5l2.4-3.5h1.3l-3,4.3l3,4.4h-1.3L283,261.3z M50,16.8h-1.2v-3.7l-3-5
					H47l2.4,3.9l2.4-3.9H53L50,13V16.8z M28.1,35h-4v-0.8h1.5v-4.8h-1.5v-0.7c0.2,0,0.4,0,0.6,0c0.2,0,0.4-0.1,0.6-0.2
					c0.1-0.1,0.3-0.2,0.4-0.3c0.1-0.1,0.1-0.3,0.1-0.5h0.8v6.5h1.5V35z M30.9,51.9c0.4,0,0.7,0,1,0.1c0.3,0.1,0.6,0.3,0.8,0.5
					c0.3,0.3,0.5,0.6,0.6,1c0.2,0.4,0.3,1,0.3,1.7c0,0.6-0.1,1.2-0.2,1.7c-0.2,0.5-0.4,1-0.7,1.4c-0.3,0.4-0.6,0.6-1.1,0.9
					c-0.4,0.2-1,0.3-1.5,0.3c-0.2,0-0.3,0-0.5,0c-0.1,0-0.3,0-0.4-0.1v-0.9h0.1c0.1,0,0.2,0.1,0.4,0.1c0.2,0,0.4,0,0.6,0
					c0.7,0,1.3-0.2,1.7-0.6s0.6-1,0.7-1.8c-0.3,0.2-0.6,0.3-0.9,0.4c-0.3,0.1-0.6,0.1-0.9,0.1c-0.3,0-0.6,0-0.8-0.1
					c-0.2-0.1-0.5-0.2-0.8-0.3c-0.3-0.2-0.5-0.5-0.7-0.8c-0.1-0.3-0.2-0.7-0.2-1.1c0-0.7,0.3-1.3,0.8-1.8
					C29.6,52.1,30.1,51.9,30.9,51.9z M32,53c-0.2-0.2-0.3-0.3-0.5-0.3c-0.2-0.1-0.4-0.1-0.6-0.1c-0.5,0-0.8,0.1-1.1,0.4
					c-0.3,0.3-0.4,0.7-0.4,1.3c0,0.3,0,0.6,0.1,0.8c0.1,0.2,0.3,0.4,0.4,0.5c0.2,0.1,0.3,0.2,0.5,0.3c0.2,0,0.4,0.1,0.6,0.1
					s0.5-0.1,0.8-0.1c0.3-0.1,0.5-0.2,0.8-0.3c0-0.1,0-0.2,0-0.2c0-0.1,0-0.2,0-0.3c0-0.5,0-0.9-0.1-1.2C32.4,53.6,32.1,53.2,32,53z
					 M33.5,81.5c0,0.6-0.2,1.2-0.7,1.6s-1.1,0.6-1.9,0.6c-0.8,0-1.4-0.2-1.9-0.6s-0.7-0.9-0.7-1.5c0-0.4,0.1-0.8,0.4-1.1
					c0.2-0.3,0.6-0.6,1-0.8c-0.4-0.2-0.7-0.4-0.9-0.7c-0.2-0.2-0.3-0.5-0.3-0.9c0-0.6,0.2-1,0.6-1.4c0.5-0.4,1-0.6,1.8-0.6
					c0.8,0,1.3,0.2,1.7,0.6c0.4,0.3,0.6,0.8,0.6,1.3c0,0.3-0.1,0.7-0.3,1c-0.2,0.3-0.5,0.6-0.9,0.8c0.5,0.2,0.8,0.5,1.1,0.8
					C33.4,80.7,33.5,81,33.5,81.5z M31,75.8c-0.4,0-0.7,0.1-1,0.3c-0.3,0.2-0.4,0.5-0.4,0.8c0,0.2,0.1,0.4,0.2,0.6
					c0.1,0.2,0.3,0.3,0.6,0.5c0.1,0,0.3,0.1,0.5,0.2c0.2,0.1,0.5,0.2,0.6,0.3c0.3-0.2,0.6-0.5,0.7-0.7c0.1-0.2,0.2-0.5,0.2-0.8
					s-0.1-0.6-0.4-0.8C31.7,75.9,31.4,75.8,31,75.8z M29.4,81.4c0,0.5,0.1,0.8,0.5,1.1c0.3,0.3,0.7,0.5,1.1,0.5s0.9-0.1,1.1-0.4
					c0.3-0.2,0.4-0.6,0.4-1c0-0.3-0.1-0.5-0.2-0.7c-0.1-0.2-0.4-0.4-0.8-0.6c-0.2-0.1-0.3-0.1-0.5-0.2s-0.5-0.1-0.8-0.3
					c-0.3,0.2-0.5,0.4-0.7,0.6C29.5,80.8,29.4,81.1,29.4,81.4z M30.3,106.5h-1l3.5-6.4h-4.2v-0.9h5v1L30.3,106.5z M32.5,123.1
					c0.1,0,0.3,0.1,0.4,0.1v0.9l0,0c-0.1-0.1-0.2-0.1-0.4-0.1s-0.4,0-0.6,0c-0.7,0-1.3,0.2-1.7,0.6c-0.4,0.4-0.6,1-0.7,1.8
					c0.3-0.2,0.5-0.3,0.8-0.4c0.3-0.1,0.6-0.1,0.9-0.1c0.3,0,0.6,0,0.8,0.1s0.5,0.2,0.7,0.3c0.3,0.2,0.5,0.5,0.6,0.8
					c0.1,0.3,0.2,0.7,0.2,1.1c0,0.7-0.2,1.3-0.7,1.8s-1.1,0.7-1.8,0.7c-0.4,0-0.7,0-1-0.1s-0.5-0.3-0.8-0.5
					c-0.3-0.3-0.5-0.6-0.6-1.1c-0.2-0.4-0.3-1-0.3-1.6s0.1-1.2,0.3-1.7c0.1-0.5,0.3-1,0.6-1.4c0.3-0.4,0.6-0.6,1.1-0.9
					c0.5-0.2,1-0.3,1.6-0.3C32.2,123.1,32.4,123.1,32.5,123.1z M31.5,126.7c-0.2,0-0.3-0.1-0.5-0.1c-0.3,0-0.6,0-0.8,0.1
					c-0.2,0.1-0.5,0.2-0.8,0.3c0,0.1,0,0.1,0,0.2c0,0.1,0,0.1,0,0.3c0,0.5,0,1,0.1,1.3c0.1,0.3,0.3,0.5,0.4,0.7
					c0.2,0.1,0.3,0.2,0.5,0.3c0.2,0.1,0.4,0.1,0.6,0.1c0.5,0,0.8-0.1,1.1-0.4c0.3-0.3,0.4-0.7,0.4-1.3c0-0.3,0-0.6-0.1-0.8
					c-0.1-0.2-0.3-0.4-0.5-0.6C31.9,126.8,31.7,126.7,31.5,126.7z M33.4,147.3v0.9H30v1.9c0.2,0,0.3,0,0.4,0s0.3,0,0.4,0
					c0.4,0,0.7,0,1,0.1c0.3,0.1,0.6,0.2,0.9,0.4c0.2,0.2,0.4,0.4,0.6,0.7c0.1,0.3,0.2,0.6,0.2,1.1c0,0.3-0.1,0.6-0.2,0.9
					c-0.1,0.3-0.3,0.6-0.5,0.8c-0.2,0.2-0.5,0.4-0.9,0.5c-0.3,0.1-0.7,0.2-1.1,0.2c-0.4,0-0.8,0-1.1-0.1c-0.4-0.1-0.7-0.2-0.9-0.3
					v-1h0.1c0.3,0.2,0.6,0.3,0.9,0.4c0.4,0.1,0.7,0.1,1,0.1c0.2,0,0.5,0,0.7-0.1c0.2-0.1,0.4-0.2,0.5-0.4c0.2-0.1,0.3-0.3,0.4-0.5
					c0.1-0.2,0.1-0.4,0.1-0.6c0-0.3,0-0.5-0.1-0.7c-0.1-0.2-0.2-0.3-0.4-0.4c-0.2-0.1-0.4-0.2-0.6-0.3c-0.2-0.1-0.5-0.1-0.8-0.1
					c-0.3,0-0.6,0-0.8,0.1c-0.3,0-0.5,0.1-0.7,0.1v-3.7H33.4z M26.5,57.9v1.4h-1.1v-1.4H26.5z M21,52.6c-0.3,0-0.6,0.1-0.8,0.2
					c-0.2,0.1-0.4,0.3-0.5,0.5c-0.1,0.2-0.2,0.6-0.3,1c0,0.4,0,0.8,0,1.3s0,1,0,1.3c0,0.3,0.1,0.6,0.3,0.9c0.1,0.3,0.3,0.5,0.5,0.6
					c0.2,0.1,0.5,0.2,0.8,0.2s0.5-0.1,0.8-0.2c0.3-0.1,0.4-0.3,0.5-0.5c0.1-0.3,0.2-0.6,0.3-1c0-0.4,0-0.8,0-1.3s0-0.9,0-1.3
					c0-0.3-0.1-0.6-0.3-0.9c-0.1-0.3-0.3-0.4-0.5-0.5C21.5,52.7,21.3,52.6,21,52.6z M19.1,52.8c0.4-0.6,1-0.9,1.9-0.9
					s1.5,0.3,1.9,0.9c0.4,0.6,0.6,1.5,0.6,2.8c0,1.3-0.2,2.3-0.6,2.9s-1.1,0.9-1.9,0.9c-0.9,0-1.5-0.3-2-0.9
					c-0.4-0.6-0.6-1.6-0.6-2.9C18.5,54.3,18.7,53.4,19.1,52.8z M22.9,77c0.4,0.6,0.6,1.5,0.6,2.8c0,1.3-0.2,2.3-0.6,2.9
					c-0.4,0.6-1.1,0.9-1.9,0.9c-0.9,0-1.5-0.3-2-0.9c-0.4-0.6-0.6-1.6-0.6-2.9c0-1.3,0.2-2.2,0.6-2.9c0.4-0.6,1-0.9,1.9-0.9
					S22.5,76.4,22.9,77z M21,76.9c-0.3,0-0.6,0.1-0.8,0.2c-0.2,0.1-0.4,0.3-0.5,0.5c-0.1,0.2-0.2,0.6-0.3,1c0,0.4,0,0.8,0,1.3
					s0,1,0,1.3c0,0.3,0.1,0.6,0.3,0.9c0.1,0.3,0.3,0.5,0.5,0.6c0.2,0.1,0.5,0.2,0.8,0.2s0.5-0.1,0.8-0.2c0.3-0.1,0.4-0.3,0.5-0.5
					c0.1-0.3,0.2-0.6,0.3-1c0-0.4,0-0.8,0-1.3s0-0.9,0-1.3c0-0.3-0.1-0.6-0.3-0.9c-0.1-0.3-0.3-0.4-0.5-0.5
					C21.5,77,21.3,76.9,21,76.9z M25.4,82.1h1.1v1.4h-1.1V82.1z M22.9,100c0.4,0.6,0.6,1.5,0.6,2.8c0,1.3-0.2,2.3-0.6,2.9
					c-0.4,0.6-1.1,0.9-1.9,0.9c-0.9,0-1.5-0.3-2-0.9c-0.4-0.6-0.6-1.6-0.6-2.9c0-1.3,0.2-2.2,0.6-2.9c0.4-0.6,1-0.9,1.9-0.9
					S22.5,99.4,22.9,100z M20.3,100.1c-0.2,0.1-0.4,0.3-0.5,0.5c-0.1,0.2-0.2,0.6-0.3,1c0,0.4,0,0.8,0,1.3s0,1,0,1.3
					c0,0.3,0.1,0.6,0.3,0.9c0.1,0.3,0.3,0.5,0.5,0.6c0.2,0.1,0.5,0.2,0.8,0.2c0.3,0,0.5-0.1,0.8-0.2c0.3-0.1,0.4-0.3,0.5-0.5
					c0.1-0.3,0.2-0.6,0.3-1c0-0.4,0-0.8,0-1.3s0-0.9,0-1.3c0-0.3-0.1-0.6-0.3-0.9c-0.1-0.3-0.3-0.4-0.5-0.5
					c-0.2-0.1-0.5-0.2-0.8-0.2C20.7,99.9,20.4,100,20.3,100.1z M26.5,105.1v1.4h-1.1v-1.4H26.5z M26.5,129.1v1.4h-1.1v-1.4H26.5z
					 M22.2,124.6c-0.1-0.3-0.3-0.4-0.5-0.5c-0.2-0.1-0.5-0.2-0.8-0.2c-0.3,0-0.6,0.1-0.8,0.2c-0.2,0.1-0.4,0.3-0.5,0.5
					c-0.1,0.2-0.2,0.6-0.3,1c0,0.4,0,0.8,0,1.3s0,1,0,1.3c0,0.3,0.1,0.6,0.3,0.9c0.1,0.3,0.3,0.5,0.5,0.6c0.2,0.1,0.5,0.2,0.8,0.2
					c0.3,0,0.5-0.1,0.8-0.2c0.3-0.1,0.4-0.3,0.5-0.5c0.1-0.3,0.2-0.6,0.3-1c0-0.4,0-0.8,0-1.3s0-0.9,0-1.3
					C22.4,125.2,22.3,124.9,22.2,124.6z M19.1,124c0.4-0.6,1-0.9,1.9-0.9s1.5,0.3,1.9,0.9s0.6,1.5,0.6,2.8c0,1.3-0.2,2.3-0.6,2.9
					c-0.4,0.6-1.1,0.9-1.9,0.9c-0.9,0-1.5-0.3-2-0.9c-0.4-0.6-0.6-1.6-0.6-2.9C18.5,125.6,18.7,124.6,19.1,124z M22.9,148
					c0.4,0.6,0.6,1.5,0.6,2.8s-0.2,2.3-0.6,2.9c-0.4,0.6-1.1,0.9-1.9,0.9c-0.9,0-1.5-0.3-2-0.9c-0.4-0.6-0.6-1.6-0.6-2.9
					s0.2-2.2,0.6-2.9c0.4-0.6,1-0.9,1.9-0.9S22.5,147.4,22.9,148z M20.3,148.1c-0.2,0.1-0.4,0.3-0.5,0.5c-0.1,0.2-0.2,0.6-0.3,1
					c0,0.4,0,0.8,0,1.3s0,1,0,1.3s0.1,0.6,0.3,0.9c0.1,0.3,0.3,0.5,0.5,0.6c0.2,0.1,0.5,0.2,0.8,0.2c0.3,0,0.5-0.1,0.8-0.2
					c0.3-0.1,0.4-0.3,0.5-0.5c0.1-0.3,0.2-0.6,0.3-1c0-0.4,0-0.8,0-1.3s0-0.9,0-1.3c0-0.3-0.1-0.6-0.3-0.9c-0.1-0.3-0.3-0.4-0.5-0.5
					c-0.2-0.1-0.5-0.2-0.8-0.2C20.7,147.9,20.4,148,20.3,148.1z M25.4,153.1h1.1v1.4h-1.1V153.1z M26.5,177.1v1.4h-1.1v-1.4H26.5z
					 M22.2,172.7c-0.1-0.3-0.3-0.5-0.5-0.6c-0.2-0.1-0.5-0.2-0.8-0.2c-0.3,0-0.6,0.1-0.8,0.2c-0.2,0.1-0.4,0.3-0.5,0.6
					c-0.1,0.2-0.2,0.5-0.3,0.9c0,0.4,0,0.8,0,1.3s0,1,0,1.3s0.1,0.6,0.3,0.9c0.1,0.3,0.3,0.5,0.5,0.6c0.2,0.1,0.5,0.2,0.8,0.2
					c0.3,0,0.5-0.1,0.8-0.2c0.2-0.1,0.4-0.3,0.5-0.6c0.1-0.3,0.2-0.6,0.3-0.9c0-0.4,0-0.8,0-1.3s0-0.9,0-1.3
					C22.4,173.2,22.3,172.9,22.2,172.7z M19.1,172c0.4-0.6,1-0.9,1.9-0.9s1.5,0.3,1.9,1c0.4,0.6,0.6,1.5,0.6,2.8s-0.2,2.3-0.6,2.9
					c-0.4,0.6-1.1,0.9-1.9,0.9c-0.9,0-1.5-0.3-2-1c-0.4-0.6-0.6-1.5-0.6-2.9C18.5,173.6,18.7,172.6,19.1,172z M26.5,201.1v1.4h-1.1
					v-1.4H26.5z M21,195.9c-0.3,0-0.6,0.1-0.8,0.2c-0.2,0.1-0.4,0.3-0.5,0.6c-0.1,0.2-0.2,0.5-0.3,0.9c0,0.4,0,0.8,0,1.3s0,1,0,1.3
					s0.1,0.6,0.3,0.9c0.1,0.3,0.3,0.5,0.5,0.6c0.2,0.1,0.5,0.2,0.8,0.2s0.5-0.1,0.8-0.2c0.2-0.1,0.4-0.3,0.5-0.6
					c0.1-0.3,0.2-0.6,0.3-0.9c0-0.4,0-0.8,0-1.3s0-0.9,0-1.3c0-0.3-0.1-0.6-0.3-0.9c-0.1-0.3-0.3-0.5-0.5-0.6
					C21.5,196,21.3,195.9,21,195.9z M19.1,196c0.4-0.6,1-0.9,1.9-0.9s1.5,0.3,1.9,1c0.4,0.6,0.6,1.5,0.6,2.8s-0.2,2.3-0.6,2.9
					c-0.4,0.6-1.1,0.9-1.9,0.9c-0.9,0-1.5-0.3-2-1c-0.4-0.6-0.6-1.5-0.6-2.9C18.5,197.6,18.7,196.6,19.1,196z M21,220.9
					c-0.3,0-0.6,0.1-0.8,0.2c-0.2,0.1-0.4,0.3-0.5,0.6c-0.1,0.2-0.2,0.5-0.3,0.9c0,0.4,0,0.8,0,1.3s0,1,0,1.3s0.1,0.6,0.3,0.9
					c0.1,0.3,0.3,0.5,0.5,0.6c0.2,0.1,0.5,0.2,0.8,0.2s0.5-0.1,0.8-0.2c0.2-0.1,0.4-0.3,0.5-0.6c0.1-0.3,0.2-0.6,0.3-0.9
					c0-0.4,0-0.8,0-1.3s0-0.9,0-1.3c0-0.3-0.1-0.6-0.3-0.9c-0.1-0.3-0.3-0.5-0.5-0.6C21.5,221,21.3,220.9,21,220.9z M22.9,221
					c0.4,0.6,0.6,1.5,0.6,2.8s-0.2,2.3-0.6,2.9c-0.4,0.6-1.1,0.9-1.9,0.9c-0.9,0-1.5-0.3-2-1c-0.4-0.6-0.6-1.5-0.6-2.9
					c0-1.3,0.2-2.2,0.6-2.8c0.4-0.6,1-0.9,1.9-0.9S22.5,220.4,22.9,221z M25.4,226.1h1.1v1.4h-1.1V226.1z M21.8,245.7
					c-0.1-0.3-0.3-0.5-0.5-0.6c-0.2-0.1-0.4-0.2-0.8-0.2c-0.3,0-0.6,0.1-0.8,0.2c-0.2,0.1-0.4,0.3-0.5,0.6c-0.1,0.2-0.2,0.5-0.3,0.9
					c0,0.4,0,0.8,0,1.3s0,1,0,1.3s0.1,0.6,0.3,0.9c0.1,0.3,0.3,0.5,0.5,0.6c0.2,0.1,0.5,0.2,0.8,0.2s0.6-0.1,0.8-0.2
					c0.2-0.1,0.4-0.3,0.5-0.6c0.1-0.3,0.2-0.6,0.3-0.9c0-0.4,0-0.8,0-1.3s0-0.9,0-1.3C22,246.2,21.9,245.9,21.8,245.7z M22.5,245
					c0.4,0.6,0.6,1.5,0.6,2.8s-0.2,2.3-0.6,2.9c-0.4,0.6-1.1,0.9-1.9,0.9c-0.9,0-1.5-0.3-1.9-1c-0.4-0.6-0.6-1.5-0.6-2.9
					c0-1.3,0.2-2.2,0.6-2.8c0.4-0.6,1-0.9,1.9-0.9S22,244.4,22.5,245z M25,251.5v-1.4h1.1v1.4H25z M25.9,279.8
					c0.4-0.6,1-0.9,1.9-0.9c0.9,0,1.5,0.3,1.9,1c0.4,0.6,0.6,1.5,0.6,2.8c0,1.3-0.2,2.3-0.6,2.9c-0.4,0.6-1.1,0.9-1.9,0.9
					c-0.9,0-1.5-0.3-1.9-1c-0.4-0.6-0.6-1.5-0.6-2.9C25.3,281.3,25.5,280.4,25.9,279.8z M27,279.8c-0.2,0.1-0.4,0.3-0.5,0.6
					c-0.1,0.2-0.2,0.5-0.3,0.9c0,0.4,0,0.8,0,1.3s0,1,0,1.3s0.1,0.6,0.3,0.9c0.1,0.3,0.3,0.5,0.5,0.6s0.5,0.2,0.8,0.2
					c0.3,0,0.6-0.1,0.8-0.2c0.2-0.1,0.4-0.3,0.5-0.6s0.2-0.6,0.3-0.9c0-0.4,0-0.8,0-1.3s0-0.9,0-1.3c0-0.3-0.1-0.6-0.3-0.9
					c-0.1-0.3-0.3-0.5-0.5-0.6c-0.2-0.1-0.4-0.2-0.8-0.2C27.5,279.7,27.2,279.7,27,279.8z M32.6,171.3v4.4h1v0.8h-1v2h-1v-2h-3.4
					v-1.1l3.5-4.1L32.6,171.3L32.6,171.3z M31.6,172.4l-2.8,3.3h2.8V172.4z M33.2,201.3c-0.1,0.3-0.3,0.5-0.5,0.8
					c-0.2,0.2-0.5,0.4-0.9,0.5c-0.3,0.1-0.7,0.2-1.1,0.2c-0.4,0-0.8-0.1-1.1-0.2c-0.4-0.1-0.7-0.2-1-0.3v-1h0.1
					c0.3,0.2,0.6,0.4,0.9,0.5c0.4,0.1,0.8,0.1,1.1,0.1c0.2,0,0.4,0,0.6-0.1c0.2-0.1,0.4-0.2,0.6-0.3c0.2-0.1,0.3-0.3,0.3-0.5
					c0.1-0.2,0.1-0.4,0.1-0.7c0-0.2,0-0.4-0.1-0.6c-0.1-0.2-0.2-0.4-0.3-0.5c-0.2-0.1-0.4-0.2-0.6-0.2c-0.2,0-0.4,0-0.6,0h-0.5v-0.8
					h0.4c0.5,0,0.9-0.1,1.1-0.3c0.3-0.2,0.5-0.5,0.5-0.9c0-0.2,0-0.4-0.1-0.5s-0.2-0.2-0.3-0.3c-0.1-0.1-0.3-0.2-0.5-0.2
					c-0.2,0-0.4,0-0.5,0c-0.3,0-0.6,0.1-1,0.2c-0.3,0.1-0.7,0.3-1,0.5v-1c0.2-0.1,0.5-0.3,0.9-0.3c0.4-0.1,0.8-0.1,1.1-0.1
					c0.4,0,0.7,0,0.9,0.1c0.3,0,0.5,0.1,0.8,0.3c0.2,0.1,0.4,0.3,0.5,0.5s0.2,0.5,0.2,0.8c0,0.4-0.1,0.8-0.4,1.1
					c-0.3,0.3-0.6,0.5-1.1,0.5v0.1c0.2,0,0.4,0,0.6,0.2c0.2,0.1,0.4,0.2,0.5,0.3c0.2,0.1,0.3,0.3,0.4,0.5c0.1,0.2,0.1,0.5,0.1,0.8
					C33.4,200.7,33.3,201,33.2,201.3z M33.1,222.8c-0.1,0.2-0.2,0.5-0.3,0.7c-0.1,0.2-0.3,0.4-0.4,0.6c-0.2,0.2-0.4,0.4-0.6,0.6
					c-0.3,0.3-0.7,0.7-1.1,1c-0.4,0.3-0.7,0.6-1,0.9h3.9v0.8h-4.9v-1c0.3-0.3,0.7-0.6,1-0.9c0.4-0.3,0.7-0.6,0.9-0.8
					c0.6-0.6,1.1-1.1,1.3-1.5c0.2-0.4,0.4-0.8,0.4-1.1c0-0.4-0.1-0.7-0.4-0.9c-0.3-0.2-0.6-0.3-1.1-0.3c-0.3,0-0.6,0.1-0.9,0.2
					c-0.4,0.1-0.7,0.3-1.1,0.5l0,0v-1c0.2-0.1,0.5-0.3,1-0.3c0.4-0.1,0.7-0.1,1.1-0.1c0.8,0,1.4,0.2,1.8,0.5
					c0.4,0.4,0.7,0.9,0.7,1.5C33.2,222.4,33.2,222.6,33.1,222.8z M30.4,244.2h0.8v6.5h1.5v0.8h-3.9v-0.8h1.5v-4.8h-1.5v-0.7
					c0.2,0,0.4,0,0.6,0c0.2,0,0.4-0.1,0.5-0.2s0.3-0.2,0.4-0.3C30.4,244.6,30.4,244.4,30.4,244.2z"/>
			</g>
		</g>
	</g>
</g>
<g id="Layer_2">
	<text transform="matrix(1 0 0 1 57 284.5)" font-family="'MyriadPro-Regular'" font-size="10">0.2</text>
</g>
<g id="Layer_2_copy">
	<text transform="matrix(1 0 0 1 84 284.5)" font-family="'MyriadPro-Regular'" font-size="10">0.4</text>
</g>
<g id="Layer_2_copy_2">
	<text transform="matrix(1 0 0 1 109 284.5)" font-family="'MyriadPro-Regular'" font-size="10">0.6</text>
</g>
<g id="Layer_2_copy_3">
	<text transform="matrix(1 0 0 1 134 284.5)" font-family="'MyriadPro-Regular'" font-size="10">0.8</text>
</g>
<g id="Layer_2_copy_4">
	<text transform="matrix(1 0 0 1 162 284.5)" font-family="'MyriadPro-Regular'" font-size="10">1</text>
</g>
<g id="Layer_2_copy_5">
	<text transform="matrix(1 0 0 1 184 284.5)" font-family="'MyriadPro-Regular'" font-size="10">1.2</text>
</g>
<g id="Layer_2_copy_6">
	<text transform="matrix(1 0 0 1 208 284.5)" font-family="'MyriadPro-Regular'" font-size="10">1.4</text>
</g>
<g id="Layer_2_copy_7">
	<text transform="matrix(1 0 0 1 234 284.5)" font-family="'MyriadPro-Regular'" font-size="10">1.6</text>
</g>
<g id="Layer_2_copy_8">
	<text transform="matrix(1 0 0 1 259 284.5)" font-family="'MyriadPro-Regular'" font-size="10">1.8</text>
</g>
</svg>
