<?xml version="1.0" encoding="utf-8"?>
<!-- Generator: Adobe Illustrator 16.0.0, SVG Export Plug-In . SVG Version: 6.00 Build 0)  -->
<!DOCTYPE svg PUBLIC "-//W3C//DTD SVG 1.1//EN" "http://www.w3.org/Graphics/SVG/1.1/DTD/svg11.dtd">
<svg version="1.1" id="Layer_1" xmlns="http://www.w3.org/2000/svg" xmlns:xlink="http://www.w3.org/1999/xlink" x="0px" y="0px"
	 width="700px" height="700px" viewBox="0 0 700 700" style="enable-background:new 0 0 700 700;" xml:space="preserve">
<g>
	<g>
		<polygon style="fill-rule:evenodd;clip-rule:evenodd;fill-opacity:0.251;" points="695.9,627.4 433.4,627.4 441.8,580.1 
			677.2,577.3 		"/>
	</g>
	<g>
		<path style="fill-rule:evenodd;clip-rule:evenodd;fill-opacity:0.8;" d="M687.5,609.6c0.7,2.3-1.3,3.4-5.8,3.2H444.6
			c-3.7,0.1-5.6-1.1-5.7-3.7l7.2-38.8H676L687.5,609.6z"/>
	</g>
	<g>
		<path style="fill-rule:evenodd;clip-rule:evenodd;" d="M714.4,537.9c0.8,0,1.4,0.4,1.9,0.9c0.5,0.6,0.8,1.3,0.7,2.1
			c0,0.8-0.3,1.5-0.9,2c-0.6,0.5-1.2,0.8-2,0.7c-9.3-0.5-14.4,2-15.2,7.5c-0.6,7.1-4.4,11.5-11.2,13.1c-5.9,1.4-14.4,0.4-25.6-2.9
			c-0.7-0.2-1.3-0.7-1.7-1.4c-0.4-0.7-0.4-1.4-0.2-2.2c0.2-0.8,0.7-1.3,1.3-1.7c0.7-0.4,1.4-0.5,2.1-0.2c10,3,17.6,3.9,22.8,2.8
			c4.2-1,6.5-3.6,6.9-7.9C693.9,541.4,700.9,537.2,714.4,537.9z"/>
	</g>
	<g>
		
			<linearGradient id="SVGID_1_" gradientUnits="userSpaceOnUse" x1="188.2002" y1="46.0059" x2="235.1002" y2="46.0059" gradientTransform="matrix(0.6683 0 0 0.6899 559.3497 519.5497)">
			<stop  offset="0" style="stop-color:#FFFFFF;stop-opacity:0"/>
			<stop  offset="0.2078" style="stop-color:#FFFFFF;stop-opacity:0.498"/>
			<stop  offset="0.2863" style="stop-color:#F9F9F9;stop-opacity:0.3216"/>
			<stop  offset="0.3765" style="stop-color:#F8F8F8;stop-opacity:0"/>
			<stop  offset="0.502" style="stop-color:#F5F5F5;stop-opacity:0.3922"/>
			<stop  offset="0.5176" style="stop-color:#F5F5F5;stop-opacity:0.4196"/>
			<stop  offset="0.6902" style="stop-color:#F0F0F0;stop-opacity:0.1255"/>
			<stop  offset="1" style="stop-color:#EDEDED;stop-opacity:0"/>
		</linearGradient>
		<path style="fill-rule:evenodd;clip-rule:evenodd;fill:url(#SVGID_1_);" d="M716,540.8v0.2c-5.3-0.4-9.5-0.1-12.7,1
			c-4.3,1.5-6.7,4.5-7.1,8.9c-0.5,5.8-3.6,9.3-9.1,10.6c-5.6,1.3-13.6,0.3-24.2-2.9c0,0,0,0,0-0.1c0,0,0,0,0-0.1c0,0,0,0,0-0.1
			c0,0,0,0,0,0c10.6,3.2,18.6,4.1,24.2,2.9c5.5-1.3,8.5-4.7,9-10.4c0.4-4.5,2.8-7.5,7.2-9.1C706.5,540.7,710.7,540.3,716,540.8z"/>
	</g>
	<g>
		
			<linearGradient id="SVGID_2_" gradientUnits="userSpaceOnUse" x1="-129.8423" y1="5.7197" x2="-123.2423" y2="5.7197" gradientTransform="matrix(1.012536e-004 -0.6899 0.6683 -6.898806e-004 559.3499 519.5497)">
			<stop  offset="0" style="stop-color:#354D61"/>
			<stop  offset="0.3765" style="stop-color:#4D6476"/>
			<stop  offset="0.5804" style="stop-color:#748B9B"/>
			<stop  offset="0.7294" style="stop-color:#3F5B73"/>
			<stop  offset="1" style="stop-color:#1C2931"/>
		</linearGradient>
		<path style="fill-rule:evenodd;clip-rule:evenodd;fill:url(#SVGID_2_);" d="M685,610c-0.4,0.4-0.8,0.6-1.4,0.6H545.8h-1.3H442.7
			c-0.6,0-1-0.2-1.4-0.6l-0.6-0.7c0-0.5,1-1.7,2.9-3.3c0,0,0.1,0,0.1-0.1c0.3-0.3,0.7-0.6,1-0.9h2.9h96.8h1.3h132.9h2.9
			c2.7,2.2,4,3.6,4,4.3L685,610z"/>
	</g>
	<g>
		<g>
			
				<linearGradient id="SVGID_3_" gradientUnits="userSpaceOnUse" x1="157.5352" y1="-64.5889" x2="167.315" y2="-68.0754" gradientTransform="matrix(0.6683 0 0 0.6899 559.3497 519.5497)">
				<stop  offset="0" style="stop-color:#354D61"/>
				<stop  offset="0.4745" style="stop-color:#4D6476"/>
				<stop  offset="0.7059" style="stop-color:#6E8596"/>
				<stop  offset="0.851" style="stop-color:#445C70"/>
				<stop  offset="1" style="stop-color:#3A5266"/>
			</linearGradient>
			<path style="fill-rule:evenodd;clip-rule:evenodd;fill:url(#SVGID_3_);" d="M678,488.6h-13.4h-4.7l-12.5-25.7h20
				c0.6,0.1,1.3,0.6,1.9,1.6l5.9,15.7l1.8,5C677.4,486.1,677.7,487.2,678,488.6z"/>
			
				<linearGradient id="SVGID_4_" gradientUnits="userSpaceOnUse" x1="166.9624" y1="-39.9927" x2="174.936" y2="-40.782" gradientTransform="matrix(0.6683 0 0 0.6899 559.3497 519.5497)">
				<stop  offset="0" style="stop-color:#726D74"/>
				<stop  offset="0.549" style="stop-color:#7E7980"/>
				<stop  offset="0.7059" style="stop-color:#959397"/>
				<stop  offset="0.8353" style="stop-color:#726D74"/>
			</linearGradient>
			<path style="fill-rule:evenodd;clip-rule:evenodd;fill:url(#SVGID_4_);" d="M678.2,490.4L678.2,490.4c0.1,0.5,0.2,1.1,0.2,1.7
				L678.2,490.4z"/>
			
				<linearGradient id="SVGID_5_" gradientUnits="userSpaceOnUse" x1="172.2788" y1="13.7085" x2="180.2524" y2="12.9191" gradientTransform="matrix(0.6683 0 0 0.6899 559.3497 519.5497)">
				<stop  offset="0" style="stop-color:#354D61"/>
				<stop  offset="0.4745" style="stop-color:#4D6476"/>
				<stop  offset="0.6431" style="stop-color:#748B9B"/>
				<stop  offset="0.9255" style="stop-color:#3F576A"/>
				<stop  offset="1" style="stop-color:#3A5266"/>
			</linearGradient>
			<path style="fill-rule:evenodd;clip-rule:evenodd;fill:url(#SVGID_5_);" d="M686.2,569.3H672l-7.4-80.7H678
				c0.1,0.6,0.2,1.1,0.3,1.7l0,0.1l0.6,4.9l6,60.5l1.2,9.7C686.1,566.8,686.2,568.1,686.2,569.3z"/>
			
				<linearGradient id="SVGID_6_" gradientUnits="userSpaceOnUse" x1="178.7002" y1="101.1123" x2="186.1002" y2="101.1123" gradientTransform="matrix(0.6683 0 0 0.6899 559.3497 519.5497)">
				<stop  offset="0" style="stop-color:#354D61"/>
				<stop  offset="0.4745" style="stop-color:#4D6476"/>
				<stop  offset="0.6431" style="stop-color:#748B9B"/>
				<stop  offset="1" style="stop-color:#3A5266"/>
				<stop  offset="1" style="stop-color:#354D61"/>
			</linearGradient>
			<path style="fill-rule:evenodd;clip-rule:evenodd;fill:url(#SVGID_6_);" d="M672,569.3h14.2c0,0.7-0.1,1.3-0.1,2v4.2v30
				c0.1,2.4-0.1,3.7-0.6,3.9c-1.1-1.7-2.3-3-3.4-3.8l-0.4-0.7l-14.9,0.6v-36.2H672z"/>
			
				<linearGradient id="SVGID_7_" gradientUnits="userSpaceOnUse" x1="-163.9858" y1="-66.6494" x2="-158.1588" y2="-64.831" gradientTransform="matrix(0.6683 0 0 0.6899 559.3497 519.5497)">
				<stop  offset="0" style="stop-color:#354D61"/>
				<stop  offset="0.4745" style="stop-color:#4D6476"/>
				<stop  offset="0.6431" style="stop-color:#748B9B"/>
				<stop  offset="0.7686" style="stop-color:#3F5B73"/>
				<stop  offset="1" style="stop-color:#1C2931"/>
			</linearGradient>
			<path style="fill-rule:evenodd;clip-rule:evenodd;fill:url(#SVGID_7_);" d="M461.9,488.6H445l7.2-23.9c0.5-1.4,1.3-2,2.4-1.8
				h13.2L461.9,488.6z"/>
			
				<linearGradient id="SVGID_8_" gradientUnits="userSpaceOnUse" x1="-174.9722" y1="12.5664" x2="-168.1728" y2="13.0011" gradientTransform="matrix(0.6683 0 0 0.6899 559.3497 519.5497)">
				<stop  offset="0" style="stop-color:#354D61"/>
				<stop  offset="0.5333" style="stop-color:#4D6476"/>
				<stop  offset="0.698" style="stop-color:#6C8393"/>
				<stop  offset="0.7882" style="stop-color:#3F5B73"/>
				<stop  offset="1" style="stop-color:#1C2931"/>
			</linearGradient>
			<path style="fill-rule:evenodd;clip-rule:evenodd;fill:url(#SVGID_8_);" d="M455.9,569.3h-15.7l-0.5,0.1c0,0,0,0,0-0.1
				c2-27.4,3.8-54.3,5.3-80.7h16.9h5.3L455.9,569.3z"/>
			
				<linearGradient id="SVGID_9_" gradientUnits="userSpaceOnUse" x1="-178.0498" y1="101.1753" x2="-171.9498" y2="101.1753" gradientTransform="matrix(0.6683 0 0 0.6899 559.3497 519.5497)">
				<stop  offset="0" style="stop-color:#354D61"/>
				<stop  offset="0.4745" style="stop-color:#4D6476"/>
				<stop  offset="0.6431" style="stop-color:#748B9B"/>
				<stop  offset="0.7686" style="stop-color:#3F5B73"/>
				<stop  offset="1" style="stop-color:#1C2931"/>
			</linearGradient>
			<path style="fill-rule:evenodd;clip-rule:evenodd;fill:url(#SVGID_9_);" d="M439.8,569.4L439.8,569.4c0,0,0-0.1,0-0.1
				C439.7,569.3,439.7,569.3,439.8,569.4l0.4-0.1h15.7h0.1v36.2l-12-0.2l0.1,0.3c-1.4,1-2.4,2.3-3.3,3.9c-0.7-0.5-1-1.9-1.1-4V569.4
				z"/>
			
				<linearGradient id="SVGID_10_" gradientUnits="userSpaceOnUse" x1="-178.8032" y1="72.4888" x2="-172.0038" y2="72.9235" gradientTransform="matrix(0.6683 0 0 0.6899 559.3497 519.5497)">
				<stop  offset="0" style="stop-color:#726D74"/>
				<stop  offset="0.549" style="stop-color:#7E7980"/>
				<stop  offset="0.7059" style="stop-color:#959397"/>
				<stop  offset="0.8353" style="stop-color:#726D74"/>
			</linearGradient>
			<path style="fill-rule:evenodd;clip-rule:evenodd;fill:url(#SVGID_10_);" d="M439.7,569.4L439.7,569.4c0.1,0.1,0,0.1,0,0.1
				C439.7,569.8,439.7,569.8,439.7,569.4C439.7,569.4,439.7,569.4,439.7,569.4z"/>
		</g>
	</g>
	<g>
		<path style="fill-rule:evenodd;clip-rule:evenodd;" d="M570.4,473.8c6.8-4.7,11.7-8.3,14.7-10.9h78.2l1.9,1.6l5.9,15.7l1.8,5
			c0.7,1.8,1.2,4.2,1.4,7l-0.2-1.7l0.6,4.9l6,60.5l1.2,9.7c0.3,2,0.3,3.9,0.1,5.7v4.2v30H443.8v-30v-4.7c-0.2-2.8-0.2-4.6-0.1-5.4
			l5.1-75.1h0c0.2-2.3,1.1-5.7,2.5-10.2l2.9-9.7l1.7-5.7l1.9-1.9h74c3.1,2.1,9.3,5.7,18.5,10.9H570.4z"/>
	</g>
	<g>
		
			<linearGradient id="SVGID_11_" gradientUnits="userSpaceOnUse" x1="5.2847" y1="-81.8999" x2="5.2847" y2="124.7001" gradientTransform="matrix(0.6683 0 0 0.6899 559.3497 519.5497)">
			<stop  offset="0" style="stop-color:#726D74"/>
			<stop  offset="0.1529" style="stop-color:#7D7781"/>
			<stop  offset="0.1843" style="stop-color:#A78FA8"/>
			<stop  offset="0.2118" style="stop-color:#87788D"/>
			<stop  offset="0.7098" style="stop-color:#897B90"/>
			<stop  offset="0.7294" style="stop-color:#889BAC"/>
			<stop  offset="0.7529" style="stop-color:#4A5B6B"/>
			<stop  offset="1" style="stop-color:#4A5B6B"/>
		</linearGradient>
		<path style="fill-rule:evenodd;clip-rule:evenodd;fill:url(#SVGID_11_);" d="M570.4,473.8c5.9-5,9.7-8.6,11.2-10.9h80.7
			c0.6,0.1,1.3,0.6,1.9,1.5l5.9,15.8l1.8,5c0.7,1.8,1.2,4.2,1.5,7.1l-0.2-1.7l0.6,5l6,61.1l1.3,9.7c0.3,2,0.3,4,0.1,5.7v4.3v28.4
			H444.6v-28.4v-4.7c-0.2-2.8-0.2-4.6-0.1-5.4l5-74.2c0-2.3,0.9-6.2,2.7-11.8l3-9.8l1.7-5.7c0.3-1.2,0.9-1.8,1.9-1.9H535
			c2.9,2.5,8,6.2,15.4,10.9H570.4z M570.8,462.9c-0.1,0-0.2,0.1-0.4,0.1c0,0,0-0.1,0-0.1H570.8z"/>
	</g>
	<g>
		<g>
			<path style="fill-rule:evenodd;clip-rule:evenodd;fill:#D4B6B8;" d="M585.1,495.4c3.4,0,5.1,2.6,5.1,7.9l1.1,28.3
				c0,5.3-1.7,8-5.1,8h-0.6H558h-33h-19.2h-37.1c-3.4,0-5.1-2.7-5.1-8l1.7-28.2c0-0.7,0-1.3,0.1-1.8c0.4-4.1,2.1-6.1,5.1-6.1h35.3
				H525h33H585.1z M467.1,500.1c-0.3,0.9-0.4,2-0.4,3.3l-1.7,28.2c0,3.9,1.3,5.9,3.8,5.9h37.1H525h33h28.3c0.4,0,0.8-0.1,1.2-0.2
				c1.7-0.6,2.5-2.4,2.5-5.6l-1.1-28.3c0-3.9-1.3-5.9-3.8-5.9H558h-33h-19.2h-35.3C468.8,497.5,467.7,498.3,467.1,500.1z"/>
			<path style="fill-rule:evenodd;clip-rule:evenodd;fill:#58030E;" d="M587.6,537.2c0.3-0.9,0.4-1.9,0.4-3.2l-1.1-28.3
				c0-3.9-1.3-5.9-3.8-5.9h-27.1h-33h-19.2h-35.3c-0.5,0-0.9,0.1-1.3,0.2c0.6-1.7,1.7-2.6,3.4-2.6h35.3H525h33h27.1
				c2.5,0,3.8,2,3.8,5.9l1.1,28.3C590.1,534.8,589.2,536.7,587.6,537.2z"/>
			<path style="fill-rule:evenodd;clip-rule:evenodd;fill:#B4061D;" d="M587.6,537.2c-0.4,0.1-0.8,0.2-1.2,0.2H558h-33h-19.2h-37.1
				c-2.5,0-3.8-2-3.8-5.9l1.7-28.2c0-1.3,0.1-2.4,0.4-3.3c0.4-0.1,0.8-0.2,1.3-0.2h35.3h19.2h33H583c2.5,0,3.8,2,3.8,5.9L588,534
				C588,535.3,587.8,536.4,587.6,537.2z"/>
		</g>
	</g>
	<g>
		<path style="fill-rule:evenodd;clip-rule:evenodd;fill:#BAC9D1;" d="M638.5,507.2l-0.1-0.6h-5.8l0.1,0.6H638.5z M624.1,497.2
			c0,0.2-0.1,0.4-0.1,0.7l0.4,17.5c0,1.6,1,2.4,2.9,2.4h38c1.9,0,2.8-0.8,2.8-2.3l-2.5-17.5c0,0,0,0,0-0.1c0-0.2,0-0.5-0.1-0.7
			c-0.3-1.2-1.2-1.8-2.8-1.8h-35.9C625.2,495.4,624.3,496,624.1,497.2z M623,497.2c0.2-1.7,1.5-2.6,3.8-2.6h35.9
			c2.3,0,3.6,0.9,3.8,2.6c0,0.2,0,0.4,0,0.6l2.5,17.5v0c0,2.2-1.2,3.3-3.8,3.3h-38c-2.6,0-3.9-1.1-3.9-3.3l-0.4-17.5
			C623,497.6,623,497.4,623,497.2z M632.2,501.8l0.1,0.6h6.3c0.1,0,0.2,0,0.3,0.1c0.1,0.1,0.1,0.2,0.2,0.3l0.6,7.9
			c0,0.1,0,0.2,0,0.2c-0.1,0.1-0.1,0.1-0.2,0.2c-0.1,0-0.2,0.1-0.3,0.1h-2.9l0.1,1.4c0,0.1,0,0.2-0.1,0.3c-0.1,0.1-0.2,0.2-0.3,0.2
			c-0.1,0-0.3,0-0.4-0.1c-0.1-0.1-0.2-0.2-0.2-0.3l-0.1-1.5h-2.9c-0.1,0-0.2,0-0.3-0.1c-0.1-0.1-0.2-0.2-0.2-0.3l-1.1-12.9
			c0-0.1,0-0.1,0.1-0.2c0-0.1,0.1-0.1,0.2-0.2c0.1,0,0.2-0.1,0.3-0.1h6.8c0.1,0,0.3,0,0.4,0.1c0.1,0.1,0.1,0.2,0.1,0.3l0.2,1.8v0
			l0.1,1.6c0,0.1,0,0.2-0.1,0.3c-0.1,0.1-0.2,0.1-0.4,0.1H632.2z M632.1,500.2l0.1,0.7h5.8l0-0.7H632.1z M631.9,498.4l0.1,1h5.8
			l-0.1-1H631.9z M638.7,509.7h-5.8l0,0.8h5.8L638.7,509.7z M638.3,505.8l-0.1-0.9h-5.8l0.1,0.9H638.3z M638.2,504l-0.1-0.7h-5.8
			l0,0.7H638.2z M638.6,508.8l-0.1-0.8h-5.8l0.1,0.8H638.6z M636.3,514.3l1.2,2.4h-0.6l-0.3-0.6h-1.2l-0.2,0.6h-0.6l1.1-2.4H636.3z
			 M636.4,515.8l-0.4-0.9l-0.4,0.9H636.4z M658.3,498.2L658.3,498.2c0.9,0.5,1.3,1.1,1.3,1.9c0,0.7-0.4,1.3-1.3,1.8h0
			c-0.7,0.4-1.5,0.6-2.4,0.7l1,10.3c0,0.1,0,0.2-0.1,0.3c-0.1,0.1-0.2,0.1-0.4,0.1c-0.1,0-0.3,0-0.4-0.1c-0.1-0.1-0.2-0.2-0.2-0.3
			l-1-10.5c-0.9,0-1.6-0.3-2.3-0.7c-0.9-0.5-1.3-1.1-1.3-1.8c0-0.7,0.4-1.4,1.3-1.9c0.8-0.5,1.7-0.7,2.8-0.7
			S657.5,497.8,658.3,498.2z M655.3,501.8C655.4,501.8,655.4,501.8,655.3,501.8h0.1c0.9,0,1.7-0.2,2.3-0.5c0.5-0.3,0.8-0.7,0.8-1.1
			c0-0.5-0.3-0.8-0.9-1.1c-0.6-0.4-1.4-0.6-2.3-0.6c-0.9,0-1.7,0.2-2.3,0.6h0c-0.6,0.3-0.8,0.7-0.8,1.1c0,0.4,0.3,0.8,0.8,1.1h0
			C653.8,501.6,654.5,501.7,655.3,501.8L655.3,501.8z M658,514.9c0,0.1,0,0.2-0.1,0.3c-0.1,0.1-0.2,0.2-0.3,0.2
			c0.2,0,0.3,0.1,0.4,0.2c0.1,0.1,0.1,0.2,0.1,0.4c0,0.1,0,0.2-0.1,0.3c-0.1,0.1-0.1,0.2-0.2,0.2c-0.1,0.1-0.2,0.1-0.4,0.1
			c-0.1,0-0.3,0-0.7,0h-1l0-2.4h1.1c0.2,0,0.4,0,0.5,0c0.1,0,0.2,0,0.3,0.1c0.1,0.1,0.2,0.1,0.2,0.2C658,514.7,658,514.8,658,514.9z
			 M656.3,515.3h0.4c0.2,0,0.4,0,0.4,0c0.1,0,0.2-0.1,0.2-0.1c0.1,0,0.1-0.1,0.1-0.2c0-0.1,0-0.1-0.1-0.2c0-0.1-0.1-0.1-0.2-0.1
			c-0.1,0-0.2,0-0.5,0h-0.3V515.3z M657.4,516.2c0.1-0.1,0.1-0.1,0.1-0.2c0-0.1,0-0.1-0.1-0.2c0,0-0.1-0.1-0.2-0.1
			c-0.1,0-0.3,0-0.5,0h-0.5v0.7h0.5c0.2,0,0.4,0,0.4,0C657.3,516.3,657.4,516.3,657.4,516.2z M669,532.8c1.7,0,2.6,1.1,2.6,3.2
			l2.5,23.9v0c0,2.2-0.8,3.3-2.5,3.3h-47.6c-1.7,0-2.6-1.1-2.6-3.3l0-23.9c0-2.2,0.8-3.3,2.6-3.3H669z M670.9,536.1
			c0-1.6-0.7-2.4-1.9-2.4h-45.2c-1.3,0-1.9,0.8-1.9,2.4l0,23.9c0,1.6,0.6,2.4,1.9,2.4h47.6c1.2,0,1.9-0.8,1.9-2.4L670.9,536.1
			C670.9,536.1,670.9,536.1,670.9,536.1z"/>
	</g>
	<g>
		<g>
			
				<radialGradient id="SVGID_12_" cx="1.75" cy="-70.5" r="32.75" gradientTransform="matrix(0.6683 0 0 0.2538 559.3497 488.8085)" gradientUnits="userSpaceOnUse">
				<stop  offset="0" style="stop-color:#401C1C"/>
				<stop  offset="0.6" style="stop-color:#401C1C"/>
				<stop  offset="0.7412" style="stop-color:#401C1C;stop-opacity:0.498"/>
				<stop  offset="1" style="stop-color:#401C1C;stop-opacity:0"/>
			</radialGradient>
			<path style="fill-rule:evenodd;clip-rule:evenodd;fill:url(#SVGID_12_);" d="M575.6,472.6l0.1,4.1c0,2.3-0.5,3.8-1.4,4.6
				c-0.9,0.8-3.2,1.5-6.8,2c-6.2,0.8-13.3-0.3-21.5-3.4v-7.2h0.2c0.2,0.3,0.4,0.6,0.6,1c0.7-0.5,1.9-1,3.5-1.4
				c0.7-0.2,1.4-0.3,2.2-0.4c0.3,0.1,0.8,0.1,1.2,0.2c1.9,0.3,4.2,0.4,6.9,0.4c0.6,0,1.1,0,1.7,0c2-0.1,3.8-0.2,5.2-0.4
				c0.6-0.1,1.2-0.2,1.6-0.3C571,472,573.1,472.2,575.6,472.6z"/>
		</g>
		<g>
			
				<radialGradient id="SVGID_13_" cx="2.0996" cy="-69.2998" r="26.5255" gradientTransform="matrix(0.6683 0 0 0.1775 559.3497 484.0425)" gradientUnits="userSpaceOnUse">
				<stop  offset="0" style="stop-color:#401C1C"/>
				<stop  offset="0.8471" style="stop-color:#401C1C"/>
				<stop  offset="0.9922" style="stop-color:#130707"/>
				<stop  offset="1" style="stop-color:#120707"/>
			</radialGradient>
			<path style="fill-rule:evenodd;clip-rule:evenodd;fill:url(#SVGID_13_);" d="M570.3,471.1v-0.9c0.3,0.1,0.7,0.1,1,0.2
				c0.9,0.2,1.7,0.5,2.3,0.7c1.4,0.6,2.1,1.2,2.1,1.9c0,1-1.5,1.9-4.4,2.6c-2.5,0.7-5.6,1-9.1,1.1c-0.5,0-0.9,0-1.4,0
				c-4.1,0-7.6-0.4-10.6-1.1c-2.9-0.7-4.3-1.6-4.3-2.6s1.4-1.9,4.3-2.6c0.2,0,0.4-0.1,0.6-0.1v0.9c0,0.4,0.9,0.8,2.8,1
				c1.9,0.3,4.2,0.4,6.9,0.4c0.6,0,1.1,0,1.7,0c2-0.1,3.8-0.2,5.2-0.4C569.1,471.8,570.1,471.5,570.3,471.1z"/>
		</g>
		<g>
			<g>
				<path style="fill-rule:evenodd;clip-rule:evenodd;" d="M570.3,471.2v-0.3c0,0,0,0.1,0,0.1C570.3,471.1,570.3,471.1,570.3,471.2z
					 M550.7,471.1c0,0,0-0.1,0-0.1L550.7,471.1L550.7,471.1z"/>
				
					<linearGradient id="SVGID_14_" gradientUnits="userSpaceOnUse" x1="-17.5752" y1="-68.9004" x2="21.0748" y2="-68.9004" gradientTransform="matrix(0.6683 0 0 0.6899 559.3497 519.5497)">
					<stop  offset="7.843138e-003" style="stop-color:#582727"/>
					<stop  offset="1" style="stop-color:#582C27"/>
				</linearGradient>
				<path style="fill-rule:evenodd;clip-rule:evenodd;fill:url(#SVGID_14_);" d="M570.3,471.2c0,0,0-0.1,0-0.1c0,0,0-0.1,0-0.1v-0.4
					c0.5,0.2,0.9,0.4,1.2,0.6c0.2,0.2,0.4,0.3,0.4,0.5c-0.1,0.5-1.2,1-3.3,1.4c-1.8,0.3-3.9,0.5-6.3,0.6c-0.5,0-1.1,0-1.6,0
					c-3.1,0-5.8-0.2-8-0.6c-2-0.4-3.1-0.9-3.2-1.4c0.1-0.4,0.6-0.7,1.4-1v0.4c0,0,0,0.1,0,0.1c0,0.4,1,0.8,2.9,1
					c1.9,0.3,4.2,0.4,6.9,0.4c0.6,0,1.1,0,1.7,0c2-0.1,3.8-0.2,5.2-0.4C569.1,471.8,570.1,471.5,570.3,471.2z"/>
			</g>
		</g>
		<g>
			
				<radialGradient id="SVGID_15_" cx="67.3174" cy="15.9282" r="1.4513" gradientTransform="matrix(-0.1266 -0.6774 3.5398 -0.1367 513.7294 521.3107)" gradientUnits="userSpaceOnUse">
				<stop  offset="0" style="stop-color:#FFFFFF"/>
				<stop  offset="0.251" style="stop-color:#FFFFFF;stop-opacity:0.8627"/>
				<stop  offset="0.3647" style="stop-color:#FDFDFD;stop-opacity:0.4706"/>
				<stop  offset="1" style="stop-color:#FAFAFA;stop-opacity:0"/>
			</radialGradient>
			<path style="fill-rule:evenodd;clip-rule:evenodd;fill:url(#SVGID_15_);" d="M566.4,473.7c-0.7,0.3-1.1,0.7-1.2,1.1l-6.7,0.6
				c-0.7,0-1.4,0-1.9-0.3l0.2-2.7c0.1,0,0.3-0.1,0.4-0.1c0.2-0.1,0.4-0.1,0.6-0.2l7.1-0.4c0.2,0,0.4-0.1,0.6,0c0,0.4,0.3,0.7,1,1
				C567,473,567,473.3,566.4,473.7z"/>
		</g>
		<g>
			
				<linearGradient id="SVGID_16_" gradientUnits="userSpaceOnUse" x1="25.5347" y1="-62.7065" x2="36.6258" y2="-62.7065" gradientTransform="matrix(0.6537 -0.1431 0.1861 0.6645 559.3497 519.5495)">
				<stop  offset="0" style="stop-color:#020101;stop-opacity:0"/>
				<stop  offset="0.4314" style="stop-color:#020101;stop-opacity:0.5765"/>
				<stop  offset="1" style="stop-color:#120707"/>
			</linearGradient>
			<path style="fill-rule:evenodd;clip-rule:evenodd;fill:url(#SVGID_16_);" d="M568.5,472.9c2.1-0.4,3.2-0.9,3.3-1.4
				c0-0.2-0.2-0.4-0.4-0.5c-0.3-0.2-0.7-0.4-1.2-0.6v-0.4c0.3,0.1,0.7,0.1,1,0.2c0.9,0.2,1.7,0.5,2.3,0.7c1.4,0.6,2.1,1.2,2.1,1.9
				c0,1-1.5,1.9-4.4,2.6c-2.4,0.6-5.1,1-8.3,1.1c-0.2,0-0.4,0-0.6,0v-3.1C564.7,473.5,566.8,473.3,568.5,472.9z"/>
		</g>
	</g>
	<g>
		
			<radialGradient id="SVGID_17_" cx="73.75" cy="-44.8999" r="99.5877" gradientTransform="matrix(0.6683 -4.159309e-003 2.012849e-004 3.446475e-002 559.3597 490.4284)" gradientUnits="userSpaceOnUse">
			<stop  offset="0" style="stop-color:#FFFFFF"/>
			<stop  offset="0.2078" style="stop-color:#FFFFFF"/>
			<stop  offset="0.3608" style="stop-color:#FFFFFF;stop-opacity:0.3922"/>
			<stop  offset="0.5059" style="stop-color:#FFFFFF;stop-opacity:0.298"/>
			<stop  offset="0.7843" style="stop-color:#FFFFFF;stop-opacity:6.666667e-002"/>
			<stop  offset="1" style="stop-color:#FEFEFE;stop-opacity:0"/>
		</radialGradient>
		<path style="fill-rule:evenodd;clip-rule:evenodd;fill:url(#SVGID_17_);" d="M608.6,485.1c5.7,0,11.1,0,16.3,0.1
			c7.7,0.1,25.2,0.4,52.7,0.8v3.5c-6.6,0.7-16.4,1.3-29.3,1.8c-7.1,0.3-14.8,0.5-23.3,0.6c-5.2,0-10.6,0.1-16.3,0.1
			c-6,0-11.7,0-17-0.1c-0.8,0-1.5,0-2.3,0l-80.6-2.3l79.7-4.3c1,0,2.1,0,3.2-0.1C597,485.1,602.7,485.1,608.6,485.1z"/>
	</g>
	<g>
		
			<radialGradient id="SVGID_18_" cx="112.5" cy="71.6001" r="60.6503" gradientTransform="matrix(0.6683 -2.870852e-003 2.281166e-004 5.658945e-002 559.334 565.2164)" gradientUnits="userSpaceOnUse">
			<stop  offset="0" style="stop-color:#FFFFFF"/>
			<stop  offset="0.2078" style="stop-color:#FFFFFF"/>
			<stop  offset="0.3608" style="stop-color:#FFFFFF;stop-opacity:0.3922"/>
			<stop  offset="0.5059" style="stop-color:#FFFFFF;stop-opacity:0.298"/>
			<stop  offset="0.7843" style="stop-color:#FFFFFF;stop-opacity:6.666667e-002"/>
			<stop  offset="1" style="stop-color:#FEFEFE;stop-opacity:0"/>
		</radialGradient>
		<path style="fill-rule:evenodd;clip-rule:evenodd;fill:url(#SVGID_18_);" d="M676.5,569.8c-4,0.7-10,1.3-17.8,1.8
			c-4.3,0.3-9,0.5-14.2,0.6c-3.2,0-6.5,0.1-10,0.1c-3.6,0-7.1,0-10.4-0.1c-0.5,0-0.9,0-1.4,0l-49.1-2.3l48.5-4.3
			c0.6,0,1.3,0,1.9-0.1c3.3-0.1,6.7-0.1,10.4-0.1c3.5,0,6.8,0,10,0.1c4.7,0.1,15.3,0.4,32,0.8V569.8z"/>
	</g>
	<g>
		
			<radialGradient id="SVGID_19_" cx="76.9082" cy="125.832" r="105.2251" gradientTransform="matrix(0.6683 -7.375766e-004 3.175451e-004 1.925895e-002 560.741 603.9337)" gradientUnits="userSpaceOnUse">
			<stop  offset="0" style="stop-color:#FFFFFF"/>
			<stop  offset="0.2078" style="stop-color:#FFFFFF"/>
			<stop  offset="0.3608" style="stop-color:#FFFFFF;stop-opacity:0.3922"/>
			<stop  offset="0.5059" style="stop-color:#FFFFFF;stop-opacity:0.298"/>
			<stop  offset="0.7843" style="stop-color:#FFFFFF;stop-opacity:6.666667e-002"/>
			<stop  offset="1" style="stop-color:#FEFEFE;stop-opacity:0"/>
		</radialGradient>
		<path style="fill-rule:evenodd;clip-rule:evenodd;fill:url(#SVGID_19_);" d="M685.1,606.9c-7,0.4-17.3,0.7-31,1.1
			c-7.5,0.2-15.6,0.3-24.6,0.4c-5.5,0-11.2,0-17.3,0c-6.3,0-12.3,0-18,0c-0.8,0-1.6,0-2.4,0l-85.2-1.4l84.2-2.6c1.1,0,2.2,0,3.4,0
			c5.7,0,11.7-0.1,17.9-0.1c6,0,11.8,0,17.3,0c8.1,0,26.6,0.2,55.6,0.5V606.9z"/>
	</g>
	<g>
		<g>
			<g>
				<polygon style="fill-rule:evenodd;clip-rule:evenodd;" points="500.2,467.9 511.2,467.9 512.6,479.8 499.2,479.8 				"/>
			</g>
		</g>
		<g>
			<g>
				
					<linearGradient id="SVGID_20_" gradientUnits="userSpaceOnUse" x1="-79.9277" y1="-73.5381" x2="-79.8466" y2="-58.1631" gradientTransform="matrix(0.6683 0 0 0.6899 559.3497 519.5497)">
					<stop  offset="0" style="stop-color:#3C0F16"/>
					<stop  offset="0.3255" style="stop-color:#62312C"/>
					<stop  offset="0.5412" style="stop-color:#773836"/>
					<stop  offset="1" style="stop-color:#462120"/>
					<stop  offset="1" style="stop-color:#7F3B3A"/>
					<stop  offset="1" style="stop-color:#7F3B3A"/>
				</linearGradient>
				<polygon style="fill-rule:evenodd;clip-rule:evenodd;fill:url(#SVGID_20_);" points="501,468.7 510.6,468.7 511.9,478.8 
					511.9,479.2 500.1,479.2 				"/>
			</g>
		</g>
	</g>
</g>
</svg>
