<?xml version="1.0" encoding="utf-8"?>
<!-- Generator: Adobe Illustrator 16.0.0, SVG Export Plug-In . SVG Version: 6.00 Build 0)  -->
<!DOCTYPE svg PUBLIC "-//W3C//DTD SVG 1.1//EN" "http://www.w3.org/Graphics/SVG/1.1/DTD/svg11.dtd">
<svg version="1.1" id="Layer_1" xmlns="http://www.w3.org/2000/svg" xmlns:xlink="http://www.w3.org/1999/xlink" x="0px" y="0px"
	 width="37px" height="25px" viewBox="0 0 37 25" style="enable-background:new 0 0 37 25;" xml:space="preserve">
<g>
	<g>
		<path style="fill-rule:evenodd;clip-rule:evenodd;fill:#87788D;" d="M30.1,4.5c3.2,1.8,4.8,4,4.8,6.6c0,2.6-1.6,4.7-4.8,6.5
			c-3.2,1.8-7,2.7-11.6,2.7c-4.5,0-8.4-0.9-11.6-2.7c-3.2-1.8-4.8-4-4.8-6.5c0-2.6,1.6-4.8,4.8-6.6c3.2-1.8,7.1-2.7,11.6-2.7
			C23,1.8,26.9,2.7,30.1,4.5z"/>
		
			<path style="fill-rule:evenodd;clip-rule:evenodd;fill:none;stroke:#BAC9D1;stroke-width:1.5;stroke-linecap:round;stroke-linejoin:round;stroke-miterlimit:3;" d="
			M30.1,4.5c3.2,1.8,4.8,4,4.8,6.6c0,2.6-1.6,4.7-4.8,6.5c-3.2,1.8-7,2.7-11.6,2.7c-4.5,0-8.4-0.9-11.6-2.7c-3.2-1.8-4.8-4-4.8-6.5
			c0-2.6,1.6-4.8,4.8-6.6c3.2-1.8,7.1-2.7,11.6-2.7C23,1.8,26.9,2.7,30.1,4.5z"/>
	</g>
	<g>
		<path style="fill-rule:evenodd;clip-rule:evenodd;fill:#FFFFFF;" d="M28.7,6.8v1.7H26v7.1h-2.2V8.6h-2.6V6.8H28.7z M19.4,15.1
			c-0.4,0.5-1.1,0.7-1.9,0.7c-0.9,0-1.5-0.2-1.9-0.7c-0.4-0.5-0.7-1.2-0.7-2.2c0-1,0.2-1.7,0.7-2.1c0.4-0.5,1.1-0.7,1.9-0.7
			s1.5,0.2,1.9,0.7c0.4,0.5,0.6,1.2,0.6,2.1C20.1,13.9,19.8,14.6,19.4,15.1z M7.5,7.4c0.4-0.5,1.1-0.7,1.9-0.7
			c0.9,0,1.5,0.2,1.9,0.7C11.8,7.9,12,8.6,12,9.5c0,1-0.2,1.7-0.6,2.2c-0.4,0.5-1.1,0.7-1.9,0.7c-0.8,0-1.5-0.2-1.9-0.7
			C7,11.2,6.8,10.5,6.8,9.6C6.8,8.6,7,7.9,7.5,7.4z M10.3,9.5c0-0.6-0.1-1-0.2-1.3C10,8,9.7,7.9,9.4,7.9C9.1,7.9,8.9,8,8.7,8.3
			C8.6,8.5,8.5,8.9,8.5,9.6c0,0.6,0.1,1,0.2,1.3c0.2,0.2,0.4,0.3,0.7,0.3c0.3,0,0.5-0.1,0.7-0.3C10.2,10.6,10.3,10.2,10.3,9.5z
			 M16.5,6.8L12,15.6h-1.5l4.5-8.8H16.5z M18.4,12.9c0-0.6-0.1-1-0.2-1.3c-0.1-0.2-0.4-0.3-0.7-0.3c-0.3,0-0.5,0.1-0.7,0.3
			c-0.2,0.2-0.2,0.7-0.2,1.3c0,0.6,0.1,1.1,0.2,1.3c0.1,0.2,0.4,0.3,0.7,0.3c0.3,0,0.6-0.1,0.7-0.3C18.3,14,18.4,13.6,18.4,12.9z"/>
	</g>
</g>
</svg>
