<?xml version="1.0" encoding="utf-8"?>
<!-- Generator: Adobe Illustrator 16.0.0, SVG Export Plug-In . SVG Version: 6.00 Build 0)  -->
<!DOCTYPE svg PUBLIC "-//W3C//DTD SVG 1.1//EN" "http://www.w3.org/Graphics/SVG/1.1/DTD/svg11.dtd">
<svg version="1.1" id="Layer_1" xmlns="http://www.w3.org/2000/svg" xmlns:xlink="http://www.w3.org/1999/xlink" x="0px" y="0px"
	 width="37px" height="25px" viewBox="0 0 37 25" style="enable-background:new 0 0 37 25;" xml:space="preserve">
<g>
	<g>
		<path style="fill-rule:evenodd;clip-rule:evenodd;fill:#87788D;" d="M30.1,6.5c3.2,1.8,4.8,4,4.8,6.6c0,2.6-1.6,4.7-4.8,6.5
			c-3.2,1.8-7,2.7-11.6,2.7c-4.5,0-8.4-0.9-11.6-2.7c-3.2-1.8-4.8-4-4.8-6.5c0-2.6,1.6-4.8,4.8-6.6c3.2-1.8,7.1-2.7,11.6-2.7
			C23,3.8,26.9,4.7,30.1,6.5z"/>
		
			<path style="fill-rule:evenodd;clip-rule:evenodd;fill:none;stroke:#BAC9D1;stroke-width:1.5;stroke-linecap:round;stroke-linejoin:round;stroke-miterlimit:3;" d="
			M30.1,6.5c3.2,1.8,4.8,4,4.8,6.6c0,2.6-1.6,4.7-4.8,6.5c-3.2,1.8-7,2.7-11.6,2.7c-4.5,0-8.4-0.9-11.6-2.7c-3.2-1.8-4.8-4-4.8-6.5
			c0-2.6,1.6-4.8,4.8-6.6c3.2-1.8,7.1-2.7,11.6-2.7C23,3.8,26.9,4.7,30.1,6.5z"/>
	</g>
	<g>
		<path style="fill-rule:evenodd;clip-rule:evenodd;fill:#FFFFFF;fill-opacity:0.502;" d="M28.7,10.6H26v7.1h-2.2v-7.1h-2.6V8.9h7.5
			V10.6z M19.4,17.2c-0.4,0.5-1.1,0.7-1.9,0.7c-0.9,0-1.5-0.2-1.9-0.7c-0.4-0.5-0.7-1.2-0.7-2.2s0.2-1.7,0.7-2.1
			c0.4-0.5,1.1-0.7,1.9-0.7s1.5,0.2,1.9,0.7c0.4,0.5,0.6,1.2,0.6,2.1S19.8,16.7,19.4,17.2z M16.5,8.9L12,17.7h-1.5l4.5-8.8H16.5z
			 M11.3,9.5c0.4,0.5,0.6,1.2,0.6,2.1c0,1-0.2,1.7-0.6,2.2c-0.4,0.5-1.1,0.7-1.9,0.7c-0.8,0-1.5-0.2-1.9-0.7
			c-0.4-0.5-0.7-1.2-0.7-2.1c0-1,0.2-1.7,0.7-2.2C7.9,9,8.6,8.8,9.4,8.8C10.3,8.8,10.9,9,11.3,9.5z M9.4,10c-0.3,0-0.5,0.1-0.7,0.3
			c-0.1,0.2-0.2,0.7-0.2,1.3c0,0.6,0.1,1,0.2,1.3c0.2,0.2,0.4,0.3,0.7,0.3c0.3,0,0.5-0.1,0.7-0.3c0.1-0.2,0.2-0.7,0.2-1.3
			c0-0.6-0.1-1-0.2-1.3C10,10.1,9.7,10,9.4,10z M16.6,15c0,0.6,0.1,1.1,0.2,1.3c0.1,0.2,0.4,0.3,0.7,0.3c0.3,0,0.6-0.1,0.7-0.3
			c0.1-0.2,0.2-0.6,0.2-1.3c0-0.6-0.1-1-0.2-1.3c-0.1-0.2-0.4-0.3-0.7-0.3c-0.3,0-0.5,0.1-0.7,0.3C16.6,14,16.6,14.4,16.6,15z"/>
	</g>
</g>
</svg>
