<?xml version="1.0" encoding="utf-8"?>
<!-- Generator: Adobe Illustrator 16.0.0, SVG Export Plug-In . SVG Version: 6.00 Build 0)  -->
<!DOCTYPE svg PUBLIC "-//W3C//DTD SVG 1.1//EN" "http://www.w3.org/Graphics/SVG/1.1/DTD/svg11.dtd">
<svg version="1.1" id="Layer_1" xmlns="http://www.w3.org/2000/svg" xmlns:xlink="http://www.w3.org/1999/xlink" x="0px" y="0px"
	 width="679px" height="58px" viewBox="0 0 679 58" enable-background="new 0 0 679 58" xml:space="preserve">
<g id="CHEMISTRY_x5F_LAB_x5F_BG001">
</g>
<g id="Layer_3">
	<g>
		<g>
			<g>
				<g>
					<path fill="#558599" d="M660.3,43.3h4.602l0,0l0.8,1l0,0l0,0l0,0h-0.3H664h-3.7V43.3z M8.9,44.3l0.5-1H17v1h-2.4H8.9z
						 M665.7,8.1h-46.3H192.5h-35.2h-36.1h-18H8.9l0.6-0.5H161l0,0h504L665.7,8.1z M654.6,43.3V43.4V44.3H652.2h-32.8H192.5h-35.2
						H26.5h-3.7V43.4V43.3H654.6z"/>
					<path fill="#2E4752" d="M665.7,8.1v3.6H664h-3.7v31.5v1h3.7h1.4h0.3l0,0v3.6h-0.3h-46H192.5h-35.2H8.9l0,0v-3.6l0,0h5.7H17v-1
						V11.7H8.9V8.1h94.4h18h36.1h35.2h426.9H665.7z M654.6,43.3v-0.5v-0.5v-2v-3.5v-6v-19H619.4H192.5h-35.2H22.8v19v6v3.5v2v0.5
						v0.5V43.4V44.3h3.7h130.9h35.2h426.9h32.8h2.4V43.4V43.3H654.6z"/>
				</g>
			</g>
		</g>
		<g>
			<g>
				<rect x="23.3" y="30.1" fill="#FFFFFF" width="48.7" height="19.4"/>
			</g>
			<g>
				<rect x="76" y="30.2" fill="#FFFFFF" width="48.8" height="19.3"/>
			</g>
			<g>
				<rect x="128.6" y="30.2" fill="#FFFFFF" width="48.8" height="19.3"/>
			</g>
			<g>
				<rect x="181.4" y="30.2" fill="#FFFFFF" width="48.7" height="19.3"/>
			</g>
			<g>
				<rect x="234" y="30.2" fill="#FFFFFF" width="48.8" height="19.3"/>
			</g>
			<g>
				<rect x="286.8" y="30.2" fill="#FFFFFF" width="48.7" height="19.3"/>
			</g>
			<g>
				<rect x="339.5" y="30.2" fill="#FFFFFF" width="48.7" height="19.3"/>
			</g>
			<g>
				<rect x="392.2" y="30.2" fill="#FFFFFF" width="48.7" height="19.3"/>
			</g>
			<g>
				<rect x="444.8" y="30.2" fill="#FFFFFF" width="48.8" height="19.3"/>
			</g>
			<g>
				<rect x="497.6" y="30.2" fill="#FFFFFF" width="48.7" height="19.3"/>
			</g>
			<g>
				<rect x="550.3" y="30.2" fill="#FFFFFF" width="48.8" height="19.3"/>
			</g>
			<g>
				<rect x="603.2" y="30.2" fill="#FFFFFF" width="48.8" height="19.3"/>
			</g>
		</g>
		<g>
			<path d="M527.8,37.4c0-0.801,0.3-1.4,1-1.9s1.5-0.8,2.7-0.8c1.1,0,2,0.2,2.6,0.7c0.602,0.398,1,1,1,1.699
				c0,0.5-0.1,0.899-0.398,1.199c-0.3,0.4-0.7,0.7-1.3,0.9v0.1c0.698,0.2,1.198,0.602,1.5,1c0.3,0.4,0.5,0.9,0.5,1.5
				c0,0.801-0.302,1.5-1,2c-0.7,0.5-1.602,0.801-2.9,0.801c-0.7,0-1.2-0.101-1.7-0.199c-0.5-0.102-0.899-0.301-1.2-0.602
				c-0.3-0.199-0.6-0.5-0.699-0.898c-0.199-0.4-0.301-0.7-0.301-1.102c0-0.5,0.102-0.898,0.4-1.3s0.7-0.7,1.4-1
				c-0.5-0.3-0.9-0.601-1.102-1C527.9,38.3,527.8,37.9,527.8,37.4z M531,36.5c-0.2,0-0.3,0.1-0.5,0.1c-0.1,0.102-0.2,0.2-0.3,0.301
				C530.1,37,530.1,37.1,530.1,37.3s0.102,0.4,0.2,0.5c0.102,0.2,0.4,0.3,0.7,0.5c0.1,0,0.3,0.101,0.5,0.2s0.5,0.1,0.8,0.2
				c0.2-0.2,0.3-0.4,0.4-0.601c0.1-0.199,0.1-0.399,0.1-0.601c0-0.3-0.1-0.601-0.398-0.8c-0.2-0.2-0.5-0.301-0.9-0.301
				C531.2,36.5,531.1,36.5,531,36.5z M532.9,42c0-0.3-0.102-0.5-0.2-0.7c-0.2-0.1-0.5-0.3-1-0.5c-0.102-0.1-0.3-0.1-0.5-0.3
				c-0.3-0.1-0.5-0.2-0.7-0.3c-0.2,0.2-0.4,0.399-0.5,0.6c-0.1,0.201-0.2,0.5-0.2,0.8c0,0.4,0.2,0.801,0.5,1.102
				c0.3,0.3,0.7,0.398,1.2,0.398c0.1,0,0.3,0,0.5-0.1s0.3-0.1,0.5-0.2c0.2-0.1,0.3-0.2,0.3-0.399C532.8,42.4,532.9,42.2,532.9,42z
				 M521.1,44.5H515v-1.6h1.9v-5H515V36.3c0.3,0,0.6,0,0.8,0s0.5-0.1,0.7-0.2c0.2-0.1,0.4-0.199,0.5-0.398
				c0.1-0.2,0.2-0.4,0.2-0.602h2V43h1.898L521.1,44.5L521.1,44.5z M523.5,42h2.3v2.5h-2.3V42z M481.2,34.9
				c0.398,0.1,0.6,0.1,0.7,0.1v1.9H481.6c-0.1-0.102-0.3-0.102-0.6-0.2c-0.3-0.101-0.6-0.101-0.9-0.101
				c-0.8,0-1.398,0.199-1.898,0.601c-0.4,0.399-0.7,0.899-0.8,1.6c0.3-0.2,0.698-0.399,1-0.5c0.398-0.1,0.8-0.2,1.198-0.2
				c0.4,0,0.7,0,1,0.102c0.302,0.1,0.602,0.3,0.802,0.5c0.3,0.199,0.6,0.5,0.8,1c0.2,0.398,0.3,1,0.3,1.6c0,0.5-0.1,0.9-0.3,1.4
				c-0.2,0.398-0.4,0.8-0.7,1.1c-0.3,0.301-0.7,0.5-1.2,0.7c-0.398,0.2-1,0.3-1.5,0.3c-0.6,0-1.1-0.1-1.5-0.3
				c-0.5-0.101-0.8-0.399-1.2-0.7c-0.4-0.4-0.7-0.801-0.9-1.4c-0.2-0.602-0.3-1.301-0.3-2.102c0-0.8,0.1-1.6,0.3-2.3
				c0.2-0.601,0.5-1.2,0.898-1.7c0.4-0.5,0.9-0.8,1.602-1.1c0.6-0.301,1.398-0.4,2.3-0.4C480.5,34.9,480.8,34.9,481.2,34.9z
				 M480.2,40.6c-0.102-0.199-0.2-0.398-0.4-0.5c-0.1-0.1-0.3-0.199-0.5-0.3c-0.2,0-0.398,0-0.6,0s-0.4,0-0.602,0
				C477.9,39.9,477.7,39.9,477.6,39.9c0,0.1,0,0.199,0,0.3c0,0.1,0,0.2,0,0.399c0,0.5,0,1,0.2,1.301c0.102,0.3,0.2,0.6,0.4,0.8
				c0.1,0.1,0.2,0.2,0.398,0.3c0.2,0.1,0.302,0.1,0.5,0.1c0.102,0,0.302,0,0.5-0.1c0.2-0.1,0.302-0.2,0.4-0.3
				c0.1-0.101,0.3-0.3,0.4-0.5c0.1-0.2,0.1-0.5,0.1-0.8C480.3,41.1,480.3,40.9,480.2,40.6z M360.5,35v7.9h1.9v1.6H356.3v-1.6h1.9v-5
				h-1.9V36.3c0.3,0,0.601,0,0.9,0c0.299,0,0.5-0.1,0.6-0.2c0.2-0.1,0.4-0.199,0.5-0.398c0.101-0.2,0.2-0.4,0.2-0.602h2V35z
				 M369.6,35.5c0.301-0.1,0.7-0.3,1.301-0.4c0.601-0.1,1.199-0.199,1.801-0.199c1.1,0,2,0.301,2.6,0.801
				c0.602,0.5,0.9,1.199,0.9,2.1c0,0.602-0.102,1.2-0.4,1.7s-0.8,1.101-1.398,1.7c-0.4,0.3-0.801,0.6-1.102,0.898
				c-0.398,0.301-0.6,0.5-0.8,0.7h4.101v1.8H369.4V43c0.5-0.4,1.1-0.9,1.699-1.3c0.5-0.5,1-0.9,1.301-1.2c0.5-0.5,0.898-0.9,1.1-1.3
				c0.2-0.4,0.3-0.7,0.3-1.101c0-0.399-0.1-0.801-0.399-1c-0.301-0.199-0.601-0.301-1.101-0.301c-0.399,0-0.8,0.102-1.2,0.301
				C370.7,37.2,370.3,37.4,369.9,37.7h-0.2v-2.2H369.6z M367.1,44.5h-2.3V42h2.3V44.5z M466.7,35v7.9h1.898v1.6h-6.1v-1.6h1.9v-5
				h-1.9V36.3c0.3,0,0.6,0,0.8,0s0.5-0.1,0.7-0.2c0.2-0.1,0.4-0.199,0.5-0.398c0.1-0.2,0.2-0.4,0.2-0.602h2L466.7,35L466.7,35z
				 M471,44.5V42h2.3v2.5H471z M429,35v5.6h1.3v1.7H429v2.3h-2.3v-2.3h-4.5v-1.8l4.3-5.5H429z M414.1,35v7.9h1.9v1.6h-6.1v-1.6
				h1.898v-5H409.9V36.3c0.3,0,0.6,0,0.8,0s0.5-0.1,0.7-0.2C411.6,36,411.8,35.9,411.9,35.7c0.1-0.2,0.199-0.4,0.199-0.601h2V35
				L414.1,35z M418.4,44.5V42h2.3v2.5H418.4z M426.8,40.6v-3.5l-2.7,3.5H426.8z M216.4,34.9c0.4,0.1,0.6,0.1,0.7,0.1v1.9h-0.3
				c-0.1-0.102-0.3-0.102-0.6-0.2c-0.3-0.101-0.6-0.101-0.9-0.101c-0.8,0-1.4,0.199-1.9,0.601c-0.4,0.399-0.7,0.899-0.8,1.6
				c0.3-0.2,0.7-0.399,1-0.5c0.4-0.1,0.8-0.2,1.1-0.2c0.4,0,0.7,0,1,0.102c0.3,0.1,0.6,0.3,0.9,0.5c0.3,0.199,0.6,0.5,0.8,1
				c0.2,0.398,0.3,1,0.3,1.6c0,0.5-0.1,0.9-0.3,1.4c-0.2,0.398-0.4,0.8-0.7,1.1c-0.3,0.301-0.7,0.5-1.1,0.7s-1,0.3-1.5,0.3
				c-0.6,0-1.1-0.1-1.5-0.3c-0.5-0.101-0.9-0.399-1.2-0.7c-0.4-0.398-0.7-0.8-0.9-1.398c-0.2-0.602-0.3-1.301-0.3-2.102
				c0-0.8,0.1-1.6,0.3-2.3c0.2-0.601,0.5-1.2,0.9-1.7s0.9-0.8,1.6-1.1c0.6-0.301,1.4-0.4,2.3-0.4C215.7,34.9,216,34.9,216.4,34.9z
				 M200.5,36.6c-0.5,0-0.9,0.2-1.1,0.7c-0.2,0.5-0.4,1.3-0.4,2.5c0,1.101,0.1,1.9,0.4,2.4c0.3,0.5,0.6,0.8,1.1,0.8s0.9-0.3,1-0.8
				c0.2-0.5,0.4-1.3,0.4-2.5s-0.1-2-0.4-2.5C201.4,36.8,201,36.6,200.5,36.6z M198.8,35.1c0.5-0.199,1-0.3,1.8-0.3
				c0.8,0,1.3,0.101,1.8,0.3c0.5,0.2,0.9,0.602,1.1,1c0.3,0.4,0.5,0.9,0.6,1.5c0.1,0.602,0.2,1.301,0.2,2.102c0,0.8-0.1,1.5-0.2,2.1
				c-0.1,0.602-0.3,1.102-0.6,1.602c-0.3,0.398-0.7,0.699-1.1,0.898c-0.5,0.2-1,0.301-1.8,0.301c-0.8,0-1.3-0.101-1.8-0.301
				c-0.5-0.199-0.9-0.5-1.2-0.898c-0.3-0.4-0.5-1-0.6-1.602c-0.1-0.6-0.2-1.398-0.2-2.1s0.1-1.5,0.2-2.102c0.1-0.6,0.4-1.1,0.6-1.5
				C197.9,35.7,198.3,35.4,198.8,35.1z M212.8,40.3c0,0.101,0,0.2,0,0.4c0,0.5,0,1,0.1,1.3s0.2,0.6,0.4,0.8
				c0.1,0.101,0.2,0.2,0.4,0.3c0.2,0.102,0.3,0.102,0.5,0.102c0.1,0,0.3,0,0.4-0.102c0.2-0.1,0.3-0.199,0.4-0.3
				c0.1-0.1,0.3-0.3,0.4-0.5s0.1-0.5,0.1-0.8s0-0.5-0.1-0.8c-0.1-0.2-0.2-0.4-0.4-0.5c-0.1-0.101-0.3-0.2-0.5-0.3
				c-0.2,0-0.4,0-0.6,0c-0.2,0-0.4,0-0.6,0c-0.2,0.1-0.4,0.1-0.5,0.1C212.8,40.1,212.8,40.2,212.8,40.3z M206.1,42h2.3v2.5h-2.3V42z
				 M163,35v5.6h1.3v1.7H163v2.3h-2.3v-2.3h-4.5v-1.8l4.3-5.5H163z M160.8,40.6v-3.5l-2.6,3.5H160.8z M154.7,44.5h-2.3V42h2.3V44.5z
				 M257,36.1c0.3,0.4,0.5,0.9,0.7,1.5c0.2,0.602,0.2,1.301,0.2,2.102c0,0.8-0.1,1.5-0.2,2.1c-0.1,0.602-0.4,1.102-0.7,1.602
				c-0.3,0.398-0.7,0.699-1.1,0.898c-0.5,0.2-1,0.301-1.8,0.301c-0.7,0-1.3-0.101-1.8-0.301c-0.5-0.199-0.9-0.5-1.2-0.898
				c-0.3-0.4-0.5-1-0.7-1.602c-0.1-0.6-0.2-1.398-0.2-2.1s0.1-1.5,0.2-2.102c0.1-0.6,0.4-1.1,0.7-1.5c0.3-0.398,0.7-0.8,1.2-1
				c0.5-0.199,1.1-0.3,1.8-0.3c0.7,0,1.3,0.101,1.8,0.3C256.4,35.4,256.8,35.7,257,36.1z M266.5,37c-0.1,0.1-0.1,0.2-0.1,0.4
				c0,0.199,0.1,0.398,0.2,0.5c0.1,0.199,0.4,0.3,0.7,0.5c0.1,0,0.3,0.1,0.5,0.199c0.2,0.101,0.5,0.101,0.8,0.199
				c0.2-0.199,0.3-0.398,0.4-0.6s0.1-0.4,0.1-0.602c0-0.3-0.1-0.6-0.4-0.8c-0.2-0.2-0.5-0.3-0.9-0.3c-0.2,0-0.3,0-0.5,0
				c-0.2,0-0.3,0.1-0.5,0.1C266.7,36.7,266.6,36.8,266.5,37z M267.7,34.8c1.1,0,2,0.2,2.6,0.7c0.6,0.4,0.9,1,0.9,1.7
				c0,0.5-0.1,0.899-0.4,1.2c-0.3,0.398-0.7,0.699-1.3,0.898V39.4c0.7,0.199,1.1,0.6,1.5,1c0.3,0.398,0.4,0.898,0.4,1.5
				c0,0.8-0.3,1.5-1,2c-0.7,0.5-1.6,0.8-2.9,0.8c-0.7,0-1.2-0.101-1.7-0.2s-0.9-0.3-1.2-0.6c-0.3-0.2-0.6-0.5-0.7-0.9
				c-0.2-0.4-0.3-0.7-0.3-1.1c0-0.5,0.1-0.9,0.4-1.301c0.3-0.399,0.7-0.699,1.4-1c-0.5-0.301-0.9-0.601-1.1-1
				c-0.3-0.399-0.4-0.801-0.4-1.301c0-0.8,0.3-1.398,1-1.898C265.7,35,266.6,34.8,267.7,34.8z M253,37.3c-0.2,0.5-0.3,1.3-0.3,2.5
				c0,1.101,0.1,1.9,0.3,2.4s0.6,0.8,1.1,0.8s0.9-0.3,1.1-0.8c0.2-0.5,0.3-1.3,0.3-2.5s-0.1-2-0.3-2.5c-0.2-0.5-0.6-0.7-1.1-0.7
				C253.6,36.6,253.3,36.8,253,37.3z M267.5,40.5c-0.3-0.1-0.5-0.2-0.6-0.3c-0.2,0.2-0.4,0.399-0.5,0.6c-0.1,0.201-0.2,0.5-0.2,0.8
				c0,0.4,0.1,0.801,0.5,1.102c0.3,0.3,0.7,0.398,1.2,0.398c0.1,0,0.3,0,0.5-0.1c0.2-0.1,0.3-0.1,0.5-0.2c0.2-0.1,0.3-0.2,0.3-0.399
				c0.1-0.101,0.2-0.301,0.2-0.5c0-0.301-0.1-0.5-0.2-0.699c-0.2-0.102-0.5-0.301-1-0.5C267.9,40.7,267.7,40.6,267.5,40.5z
				 M259.8,44.5V42h2.3v2.5H259.8z M150.3,37.6c0.1,0.602,0.2,1.301,0.2,2.102c0,0.8-0.1,1.5-0.2,2.1
				c-0.1,0.602-0.3,1.102-0.6,1.602c-0.3,0.398-0.7,0.699-1.1,0.898c-0.5,0.2-1,0.301-1.8,0.301c-0.8,0-1.3-0.101-1.8-0.301
				c-0.5-0.199-0.9-0.5-1.2-0.898c-0.3-0.4-0.5-1-0.6-1.602c-0.1-0.6-0.2-1.398-0.2-2.1s0.1-1.5,0.2-2.102c0.1-0.6,0.4-1.1,0.6-1.5
				c0.3-0.398,0.7-0.8,1.2-1c0.5-0.199,1-0.3,1.8-0.3c0.8,0,1.3,0.101,1.8,0.3c0.5,0.2,0.9,0.602,1.1,1
				C150,36.5,150.2,37,150.3,37.6z M146.8,36.6c-0.5,0-0.9,0.2-1.1,0.7c-0.2,0.5-0.4,1.3-0.4,2.5c0,1.101,0.1,1.9,0.4,2.4
				c0.3,0.5,0.6,0.8,1.1,0.8s0.9-0.3,1-0.8c0.2-0.5,0.4-1.3,0.4-2.5s-0.1-2-0.4-2.5C147.6,36.8,147.3,36.6,146.8,36.6z M94,36.6
				c-0.5,0-0.9,0.2-1.1,0.7c-0.2,0.5-0.4,1.3-0.4,2.5c0,1.101,0.1,1.9,0.4,2.4c0.2,0.5,0.6,0.8,1.1,0.8s0.9-0.3,1.1-0.8
				c0.2-0.5,0.4-1.3,0.4-2.5s-0.1-2-0.4-2.5C94.9,36.8,94.5,36.6,94,36.6z M94,34.9c0.7,0,1.3,0.1,1.8,0.3s0.9,0.6,1.2,1
				c0.3,0.399,0.5,0.899,0.6,1.5c0.1,0.6,0.2,1.3,0.2,2.1s-0.1,1.5-0.2,2.101s-0.3,1.101-0.6,1.601c-0.3,0.399-0.7,0.7-1.2,0.899
				s-1,0.301-1.8,0.301c-0.7,0-1.3-0.102-1.8-0.301s-0.9-0.5-1.2-0.899s-0.5-1-0.6-1.601s-0.2-1.399-0.2-2.101
				c0-0.7,0.1-1.5,0.2-2.1c0.1-0.601,0.3-1.101,0.6-1.5c0.3-0.4,0.7-0.8,1.2-1C92.8,35,93.4,34.9,94,34.9z M104.5,37.5v-2.1
				c0.3-0.102,0.7-0.301,1.3-0.4c0.6-0.1,1.1-0.2,1.8-0.2c1.1,0,2,0.3,2.6,0.8c0.6,0.5,0.9,1.2,0.9,2.102c0,0.6-0.1,1.199-0.4,1.699
				c-0.3,0.5-0.8,1.101-1.4,1.699c-0.4,0.301-0.8,0.602-1.1,0.9c-0.4,0.3-0.6,0.5-0.8,0.7h4.2v1.8h-7.2V43c0.5-0.4,1.1-0.9,1.6-1.3
				c0.5-0.5,1-0.9,1.3-1.2c0.5-0.5,0.9-0.9,1.1-1.3c0.2-0.4,0.3-0.7,0.3-1.101c0-0.399-0.1-0.801-0.4-1
				c-0.3-0.199-0.7-0.301-1.2-0.301c-0.4,0-0.8,0.102-1.2,0.301c-0.4,0.101-0.8,0.301-1.1,0.601h-0.3V37.5z M102,44.5h-2.3V42h2.3
				V44.5z M311.5,35v7.9h1.9v1.6h-6.1v-1.6h1.9v-5h-1.9V36.3c0.3,0,0.601,0,0.9,0c0.299,0,0.5-0.1,0.6-0.2
				c0.2-0.1,0.4-0.199,0.5-0.398c0.101-0.2,0.2-0.4,0.2-0.602h2V35z"/>
		</g>
	</g>
</g>
</svg>
