<?xml version="1.0" encoding="utf-8"?>
<!-- Generator: Adobe Illustrator 16.0.0, SVG Export Plug-In . SVG Version: 6.00 Build 0)  -->
<!DOCTYPE svg PUBLIC "-//W3C//DTD SVG 1.1//EN" "http://www.w3.org/Graphics/SVG/1.1/DTD/svg11.dtd">
<svg version="1.1" id="Layer_1" xmlns="http://www.w3.org/2000/svg" xmlns:xlink="http://www.w3.org/1999/xlink" x="0px" y="0px"
	 width="15px" height="65px" viewBox="0 0 15 65" style="enable-background:new 0 0 15 65;" xml:space="preserve">
<g>
	<g>
		<path style="fill-rule:evenodd;clip-rule:evenodd;fill:#3737AE;" d="M1.5,11.8h12v48.1c-0.1,1.3-0.8,2.3-2,3.1S8.8,64.1,7.2,64
			c-3.2-0.1-5.1-1.5-5.7-4.2V11.8z"/>
	</g>
	<g>
		<g>
			<linearGradient id="SVGID_1_" gradientUnits="userSpaceOnUse" x1="1.125" y1="2.2998" x2="13.9761" y2="2.2998">
				<stop  offset="0" style="stop-color:#9EA2A5;stop-opacity:0.1098"/>
				<stop  offset="6.274510e-002" style="stop-color:#A0A3A3;stop-opacity:0.4824"/>
				<stop  offset="0.1725" style="stop-color:#CBCDCD;stop-opacity:0.1725"/>
				<stop  offset="0.2745" style="stop-color:#A4A7A8;stop-opacity:0.251"/>
				<stop  offset="0.3647" style="stop-color:#C6CED2;stop-opacity:9.019608e-002"/>
				<stop  offset="0.4549" style="stop-color:#DAE0E3;stop-opacity:9.019608e-002"/>
				<stop  offset="0.4863" style="stop-color:#E2E7E9;stop-opacity:9.019608e-002"/>
				<stop  offset="0.6" style="stop-color:#AAB3B1;stop-opacity:0.149"/>
				<stop  offset="0.8549" style="stop-color:#808080;stop-opacity:0.2627"/>
				<stop  offset="0.9451" style="stop-color:#808080;stop-opacity:8.627451e-002"/>
				<stop  offset="1" style="stop-color:#5E5E5E;stop-opacity:0.3529"/>
			</linearGradient>
			<path style="fill-rule:evenodd;clip-rule:evenodd;fill:url(#SVGID_1_);" d="M1.4,2.9C1,2.6,1,2.1,1.4,1.5l0-0.1l0.1,0
				C1.4,1.5,1.9,1.6,3.1,1.8c1.2,0.1,2.7,0.1,4.4,0.1s3.2,0,4.5-0.1c0.9-0.1,1.5-0.1,1.8-0.3h0h0c0.2,0.4,0.2,0.9,0,1.4l0,0.1
				C13.4,3,12.9,3.1,12,3.1c-1.2,0.1-2.7,0.1-4.5,0.1c-1.7,0-3.2,0-4.4-0.1C2.2,3.1,1.6,3,1.4,2.9z"/>
			<linearGradient id="SVGID_2_" gradientUnits="userSpaceOnUse" x1="1.3999" y1="33.5752" x2="13.7249" y2="33.5752">
				<stop  offset="0" style="stop-color:#9EA2A5;stop-opacity:0.1098"/>
				<stop  offset="6.274510e-002" style="stop-color:#A0A3A3;stop-opacity:0.4824"/>
				<stop  offset="0.1725" style="stop-color:#CBCDCD;stop-opacity:0.1725"/>
				<stop  offset="0.2745" style="stop-color:#A4A7A8;stop-opacity:0.251"/>
				<stop  offset="0.3647" style="stop-color:#C6CED2;stop-opacity:9.019608e-002"/>
				<stop  offset="0.4549" style="stop-color:#DAE0E3;stop-opacity:9.019608e-002"/>
				<stop  offset="0.4863" style="stop-color:#E2E7E9;stop-opacity:9.019608e-002"/>
				<stop  offset="0.6" style="stop-color:#AAB3B1;stop-opacity:0.149"/>
				<stop  offset="0.8549" style="stop-color:#808080;stop-opacity:0.2627"/>
				<stop  offset="0.9451" style="stop-color:#808080;stop-opacity:8.627451e-002"/>
				<stop  offset="1" style="stop-color:#5E5E5E;stop-opacity:0.3529"/>
			</linearGradient>
			<path style="fill-rule:evenodd;clip-rule:evenodd;fill:url(#SVGID_2_);" d="M13.7,3v57.1c-0.2,1.1-0.8,2-1.8,2.8
				c-1.2,0.9-2.7,1.4-4.4,1.4s-3.2-0.5-4.4-1.4c-1-0.8-1.6-1.7-1.8-2.8V2.9C1.6,3,2.2,3.1,3.1,3.1c1.2,0.1,2.7,0.1,4.4,0.1
				c1.7,0,3.2,0,4.5-0.1C12.9,3.1,13.4,3,13.7,3z"/>
			<linearGradient id="SVGID_3_" gradientUnits="userSpaceOnUse" x1="1.3252" y1="1.4502" x2="13.7752" y2="1.4502">
				<stop  offset="0" style="stop-color:#9EA2A5;stop-opacity:0.1098"/>
				<stop  offset="3.921569e-002" style="stop-color:#7E8184;stop-opacity:0.4824"/>
				<stop  offset="9.411765e-002" style="stop-color:#A7AAAF;stop-opacity:8.627451e-002"/>
				<stop  offset="0.2353" style="stop-color:#FFFFFF"/>
				<stop  offset="0.3647" style="stop-color:#C6CED2;stop-opacity:9.019608e-002"/>
				<stop  offset="0.4863" style="stop-color:#E2E7E9;stop-opacity:9.019608e-002"/>
				<stop  offset="0.6" style="stop-color:#AAB3B1;stop-opacity:0.149"/>
				<stop  offset="0.7216" style="stop-color:#BCC1C2;stop-opacity:8.627451e-002"/>
				<stop  offset="0.9882" style="stop-color:#8E9193;stop-opacity:0.4235"/>
			</linearGradient>
			<path style="fill-rule:evenodd;clip-rule:evenodd;fill:url(#SVGID_3_);" d="M1.5,1.4c0.3-0.1,0.8-0.1,1.7-0.2C4.4,1,5.8,1,7.5,1
				c1.7,0,3.2,0,4.4,0.1c1,0.1,1.6,0.1,1.8,0.3c0,0,0,0,0,0.1c0,0,0,0,0,0c-0.3,0.1-0.9,0.2-1.8,0.3c-1.2,0.1-2.7,0.1-4.5,0.1
				s-3.2,0-4.4-0.1C1.9,1.6,1.4,1.5,1.5,1.4z"/>
			
				<path style="fill-rule:evenodd;clip-rule:evenodd;fill:none;stroke:#FFFFFF;stroke-width:0.1;stroke-linecap:round;stroke-linejoin:round;stroke-miterlimit:3;stroke-opacity:0.3333;" d="
				M1.4,2.9C1.6,3,2.2,3.1,3.1,3.1c1.2,0.1,2.7,0.1,4.4,0.1c1.7,0,3.2,0,4.5-0.1C12.9,3.1,13.4,3,13.7,3l0-0.1c0.3-0.5,0.3-1,0-1.4
				h0h0c-0.3,0.1-0.9,0.2-1.8,0.3c-1.2,0.1-2.7,0.1-4.5,0.1s-3.2,0-4.4-0.1C1.9,1.6,1.4,1.5,1.5,1.4l-0.1,0l0,0.1
				C1,2.1,1,2.6,1.4,2.9z M13.8,1.5C13.8,1.5,13.8,1.5,13.8,1.5 M1.5,1.4c0.3-0.1,0.8-0.1,1.7-0.2C4.4,1,5.8,1,7.5,1
				c1.7,0,3.2,0,4.4,0.1c1,0.1,1.6,0.1,1.8,0.3c0,0,0,0,0,0.1c0,0,0,0,0,0 M13.8,1.5L13.8,1.5 M1.4,1.4c0,0,0-0.1,0.1-0.1L1.4,1.4
				 M13.7,3v57.1c-0.2,1.1-0.8,2-1.8,2.8c-1.2,0.9-2.7,1.4-4.4,1.4s-3.2-0.5-4.4-1.4c-1-0.8-1.6-1.7-1.8-2.8V2.9"/>
		</g>
	</g>
	<g>
		
			<radialGradient id="SVGID_4_" cx="7.5498" cy="53.25" r="15.375" gradientTransform="matrix(1 0 0 0.7805 0 11.689)" gradientUnits="userSpaceOnUse">
			<stop  offset="0" style="stop-color:#050505;stop-opacity:0"/>
			<stop  offset="0.6157" style="stop-color:#050505;stop-opacity:0"/>
			<stop  offset="0.7765" style="stop-color:#030303;stop-opacity:0.1333"/>
			<stop  offset="1" style="stop-color:#000000;stop-opacity:0.5412"/>
		</radialGradient>
		<path style="fill-rule:evenodd;clip-rule:evenodd;fill:url(#SVGID_4_);" d="M13.7,48.3v11.8c-0.2,1.1-0.8,2-1.8,2.8
			c-1.2,0.9-2.7,1.4-4.4,1.4s-3.2-0.5-4.4-1.4c-1-0.8-1.6-1.7-1.8-2.8V48.3H13.7z"/>
	</g>
	<g>
		
			<radialGradient id="SVGID_5_" cx="4.7002" cy="2.3252" r="4.6126" gradientTransform="matrix(1 -5.419975e-003 0 0.1545 1.026392e-004 1.9659)" gradientUnits="userSpaceOnUse">
			<stop  offset="0" style="stop-color:#FFFFFF"/>
			<stop  offset="0.2078" style="stop-color:#FFFFFF"/>
			<stop  offset="0.3608" style="stop-color:#FFFFFF;stop-opacity:0.3922"/>
			<stop  offset="0.5059" style="stop-color:#FFFFFF;stop-opacity:0.298"/>
			<stop  offset="0.7843" style="stop-color:#FFFFFF;stop-opacity:6.666667e-002"/>
			<stop  offset="1" style="stop-color:#FEFEFE;stop-opacity:0"/>
		</radialGradient>
		<path style="fill-rule:evenodd;clip-rule:evenodd;fill:url(#SVGID_5_);" d="M9.5,2.5C9,2.6,8.3,2.8,7.5,2.9C7,2.9,6.5,3,5.9,3
			C5.5,3,5.1,3,4.7,3C4.3,3,3.9,3,3.5,3C3.5,3,3.4,3,3.4,3L1.8,2.8c-0.5-1,0-1.4,1.5-1.2c0.1,0,0.2,0,0.3,0c0.4,0,0.8-0.1,1.2-0.1
			c0.4,0,0.8,0,1.1,0c0.5,0,1.7,0.1,3.6,0.2V2.5z"/>
	</g>
	
		<radialGradient id="SVGID_6_" cx="370.2949" cy="121.7344" r="351.6161" gradientTransform="matrix(1.407219e-004 8.391744e-002 -4.693687e-003 -7.468623e-005 11.9261 1.0865)" gradientUnits="userSpaceOnUse">
		<stop  offset="0" style="stop-color:#FFFFFF"/>
		<stop  offset="0.3451" style="stop-color:#FFFFFF;stop-opacity:0.3922"/>
		<stop  offset="0.7843" style="stop-color:#FFFFFF;stop-opacity:6.666667e-002"/>
		<stop  offset="1" style="stop-color:#FEFEFE;stop-opacity:0"/>
	</radialGradient>
	<path style="fill-rule:evenodd;clip-rule:evenodd;fill:url(#SVGID_6_);" d="M13,24.7c0,2.4,0.1,4.9,0.1,7.5c0,2.5,0,4.9,0,7.2
		c0,3.4-0.2,11.2-0.4,23.3l-1.7,0c-0.3-2.9-0.6-7.3-0.9-13c-0.1-3.1-0.2-6.6-0.3-10.3c0-2.3,0-4.7,0-7.2c0-2.6,0-5.2,0-7.5
		c0-0.3,0-0.7,0-1l1-21.5c1.2-2.8,1.9,4.3,2.2,21.2C13,23.8,13,24.2,13,24.7z"/>
</g>
</svg>
