<?xml version="1.0" encoding="utf-8"?>
<!-- Generator: Adobe Illustrator 16.0.0, SVG Export Plug-In . SVG Version: 6.00 Build 0)  -->
<!DOCTYPE svg PUBLIC "-//W3C//DTD SVG 1.1//EN" "http://www.w3.org/Graphics/SVG/1.1/DTD/svg11.dtd">
<svg version="1.1" id="Layer_1" xmlns="http://www.w3.org/2000/svg" xmlns:xlink="http://www.w3.org/1999/xlink" x="0px" y="0px"
	 width="700px" height="700px" viewBox="0 0 700 700" enable-background="new 0 0 700 700" xml:space="preserve">
<symbol  id="bg1" viewBox="-372.6 -289.6 669.3 603.1">
	<g id="Layer_11_1_">
	</g>
	<g id="CHEMISTRY_x5F_TABLE_1_">
	</g>
	<g id="Layer_4_1_">
	</g>
	<g id="Layer_6_1_">
	</g>
	<g id="Layer_5_1_">
		<g>
			<polygon fill-rule="evenodd" clip-rule="evenodd" fill="#616D26" points="131.9,-230.5 296.2,-230.5 296.2,-247.4 131.9,-247.4 
							"/>
			<g>
				<polygon fill-rule="evenodd" clip-rule="evenodd" fill="#503428" points="-370.5,312.2 294.5,312.2 294.5,-237.6 -370.5,-237.6 
									"/>
			</g>
			<g>
				<linearGradient id="SVGID_1_" gradientUnits="userSpaceOnUse" x1="-38.6382" y1="-138.606" x2="-38.296" y2="-47.1563">
					<stop  offset="0" style="stop-color:#000000"/>
					<stop  offset="1" style="stop-color:#010101;stop-opacity:0"/>
				</linearGradient>
				<polygon fill-rule="evenodd" clip-rule="evenodd" fill="url(#SVGID_1_)" points="294.5,-236.3 -370.5,-236.3 -370.5,313.5 
					294.5,313.5 				"/>
			</g>
			<g>
				<polygon fill-rule="evenodd" clip-rule="evenodd" fill-opacity="0.298" points="167,34.5 167,95.1 243.5,95.1 243.5,34.5 				
					"/>
			</g>
			<g>
				<path fill-rule="evenodd" clip-rule="evenodd" fill="#D2CFB5" d="M168,96.1l6.2-3.2V39.1l-6.6-2.8v59.7H168z M243.5,90.8V41.3
					h-67.8v49.5H243.5z"/>
				<polygon fill-rule="evenodd" clip-rule="evenodd" fill="#ECEADF" points="168,96.1 243.5,96.1 243.5,92.9 174.3,92.9 				"/>
				<polygon fill-rule="evenodd" clip-rule="evenodd" fill="#A29780" points="174.3,39.1 243.5,39.1 243.5,36.1 167.6,36.1 
					167.6,36.4 				"/>
				<polygon fill-rule="evenodd" clip-rule="evenodd" fill="#DCDAC5" points="243.5,41.3 243.5,39.1 174.3,39.1 174.3,92.9 
					243.5,92.9 243.5,90.8 175.8,90.8 175.8,41.3 				"/>
				
					<polyline fill-rule="evenodd" clip-rule="evenodd" fill="none" stroke="#959595" stroke-width="0.1" stroke-linecap="round" stroke-linejoin="round" stroke-miterlimit="3" points="
					243.5,90.8 175.8,90.8 175.8,41.3 243.5,41.3 				"/>
				<g>
					<path fill-rule="evenodd" clip-rule="evenodd" fill="#F7F7F7" d="M206.8,56.4c0-0.6,0.2-1,0.5-1.4c0.4-0.4,0.9-0.6,1.4-0.6
						c0.5,0,1,0.2,1.3,0.6c0.4,0.4,0.6,0.8,0.6,1.4c0,0.5-0.2,1-0.6,1.4c-0.4,0.4-0.8,0.5-1.3,0.5c-0.5,0-1-0.2-1.4-0.5
						C206.9,57.3,206.8,56.9,206.8,56.4z M207.3,65.4c-0.4-0.4-0.5-0.8-0.5-1.4c0-0.5,0.2-1,0.5-1.4c0.4-0.4,0.9-0.6,1.4-0.6
						c0.5,0,1,0.2,1.3,0.6c0.4,0.4,0.6,0.8,0.6,1.4c0,0.6-0.2,1-0.6,1.4c-0.4,0.4-0.8,0.5-1.3,0.5C208.2,65.9,207.7,65.7,207.3,65.4
						z M204.9,73c-0.5,0.5-1.2,0.8-2,0.8c-0.8,0-1.5-0.3-2-0.8c-0.5-0.6-0.8-1.2-0.8-2c0-0.8,0.3-1.5,0.8-2c0.5-0.6,1.2-0.9,2-0.9
						c0.8,0,1.5,0.3,2,0.9c0.5,0.5,0.8,1.2,0.8,2C205.7,71.7,205.4,72.4,204.9,73z M215.3,52.1h-24.1v26.7h24.1V52.1z M199,56.4
						c0,0.5-0.2,1-0.6,1.4c-0.4,0.4-0.9,0.5-1.4,0.5c-0.5,0-1-0.2-1.4-0.5c-0.4-0.4-0.6-0.8-0.6-1.4c0-0.6,0.2-1,0.6-1.4
						c0.4-0.4,0.9-0.6,1.4-0.6c0.5,0,1,0.2,1.4,0.6C198.8,55.3,199,55.8,199,56.4z M195.6,65.4c-0.4-0.4-0.6-0.8-0.6-1.4
						c0-0.5,0.2-1,0.6-1.4c0.4-0.4,0.9-0.6,1.4-0.6c0.5,0,1,0.2,1.4,0.6c0.4,0.4,0.6,0.8,0.6,1.4c0,0.6-0.2,1-0.6,1.4
						c-0.4,0.4-0.9,0.5-1.4,0.5C196.5,65.9,196,65.7,195.6,65.4z"/>
					<path fill-rule="evenodd" clip-rule="evenodd" fill="#BFB59D" d="M218.3,80V50.4h-29.5V80H218.3z M215.3,52.1v26.7h-24.1V52.1
						H215.3z"/>
					<g>
						<path fill-rule="evenodd" clip-rule="evenodd" fill="#C4C4C4" d="M205,71.3c0,0.6-0.2,1-0.6,1.5c-0.4,0.4-0.9,0.6-1.5,0.6
							c-0.6,0-1-0.2-1.4-0.6c-0.4-0.4-0.6-0.9-0.6-1.5c0-0.6,0.2-1.1,0.6-1.5c0.4-0.4,0.9-0.6,1.4-0.6c0.6,0,1.1,0.2,1.5,0.6
							C204.8,70.2,205,70.6,205,71.3z M205.8,71c0-0.8-0.3-1.5-0.9-2c-0.5-0.6-1.2-0.9-2-0.9c-0.8,0-1.4,0.3-2,0.9
							c-0.5,0.5-0.8,1.2-0.8,2c0,0.8,0.3,1.4,0.8,2c0.6,0.5,1.2,0.8,2,0.8c0.8,0,1.5-0.3,2-0.8C205.5,72.4,205.8,71.7,205.8,71z
							 M206.8,64c0,0.6,0.2,1,0.5,1.4c0.4,0.4,0.9,0.5,1.4,0.5c0.6,0,1-0.2,1.4-0.5s0.5-0.8,0.5-1.4c0-0.5-0.2-1-0.5-1.4
							c-0.4-0.4-0.8-0.6-1.4-0.6c-0.5,0-1,0.2-1.4,0.6C206.9,63,206.8,63.4,206.8,64z M209.8,65.1c-0.3,0.3-0.7,0.5-1,0.5
							s-0.7-0.1-1-0.5c-0.3-0.2-0.4-0.6-0.4-1c0-0.4,0.1-0.7,0.4-0.9c0.3-0.3,0.6-0.5,1-0.5s0.7,0.1,1,0.5c0.3,0.2,0.4,0.5,0.4,0.9
							C210.1,64.6,210,64.9,209.8,65.1z M210.6,56.4c0-0.6-0.2-1-0.5-1.4s-0.8-0.6-1.4-0.6c-0.5,0-1,0.2-1.4,0.6
							c-0.4,0.4-0.5,0.8-0.5,1.4c0,0.5,0.2,1,0.5,1.4c0.4,0.4,0.9,0.5,1.4,0.5c0.6,0,1-0.2,1.4-0.5S210.6,56.9,210.6,56.4z
							 M210.1,56.5c0,0.4-0.1,0.7-0.4,1c-0.3,0.3-0.7,0.5-1,0.5s-0.7-0.2-1-0.5c-0.3-0.2-0.4-0.5-0.4-1c0-0.4,0.1-0.8,0.4-1
							c0.3-0.3,0.6-0.4,1-0.4s0.7,0.1,1,0.4C210,55.8,210.1,56.1,210.1,56.5z M197,65.9c0.6,0,1-0.2,1.4-0.5s0.6-0.8,0.6-1.4
							c0-0.5-0.2-1-0.6-1.4c-0.4-0.4-0.8-0.6-1.4-0.6c-0.5,0-1,0.2-1.4,0.6c-0.4,0.4-0.6,0.8-0.6,1.4c0,0.6,0.2,1,0.6,1.4
							S196.5,65.9,197,65.9z M196,63.2c0.3-0.3,0.6-0.5,1-0.5c0.4,0,0.8,0.1,1,0.5c0.3,0.2,0.4,0.5,0.4,0.9c0,0.4-0.1,0.8-0.4,1
							c-0.3,0.3-0.6,0.5-1,0.5c-0.4,0-0.7-0.1-1-0.5c-0.2-0.2-0.4-0.6-0.4-1C195.6,63.8,195.8,63.4,196,63.2z M199,56.4
							c0-0.6-0.2-1-0.6-1.4s-0.8-0.6-1.4-0.6c-0.5,0-1,0.2-1.4,0.6s-0.6,0.8-0.6,1.4c0,0.5,0.2,1,0.6,1.4s0.9,0.5,1.4,0.5
							c0.6,0,1-0.2,1.4-0.5S199,56.9,199,56.4z M198.5,56.5c0,0.4-0.1,0.7-0.4,1c-0.3,0.3-0.6,0.5-1,0.5c-0.4,0-0.7-0.2-1-0.5
							c-0.2-0.2-0.4-0.5-0.4-1c0-0.4,0.1-0.8,0.4-1c0.3-0.3,0.6-0.4,1-0.4c0.4,0,0.8,0.1,1,0.4C198.3,55.8,198.5,56.1,198.5,56.5z"
							/>
						<path fill-rule="evenodd" clip-rule="evenodd" fill="#6F6F6F" d="M205,71.3c0-0.6-0.2-1.1-0.6-1.5c-0.4-0.4-0.9-0.6-1.5-0.6
							c-0.6,0-1,0.2-1.4,0.6c-0.4,0.4-0.6,0.9-0.6,1.5c0,0.6,0.2,1,0.6,1.5c0.4,0.4,0.9,0.6,1.4,0.6c0.6,0,1.1-0.2,1.5-0.6
							C204.8,72.3,205,71.8,205,71.3z M209.8,65.1c0.3-0.2,0.4-0.6,0.4-1c0-0.4-0.1-0.7-0.4-0.9c-0.3-0.3-0.7-0.5-1-0.5
							s-0.7,0.1-1,0.5c-0.3,0.2-0.4,0.5-0.4,0.9c0,0.4,0.1,0.8,0.4,1c0.3,0.3,0.6,0.5,1,0.5S209.4,65.5,209.8,65.1z M210.1,56.5
							c0-0.4-0.1-0.8-0.4-1c-0.3-0.3-0.7-0.4-1-0.4s-0.7,0.1-1,0.4c-0.3,0.2-0.4,0.6-0.4,1c0,0.4,0.1,0.7,0.4,1
							c0.3,0.3,0.6,0.5,1,0.5s0.7-0.2,1-0.5C210,57.3,210.1,57,210.1,56.5z M196,63.2c-0.2,0.2-0.4,0.5-0.4,0.9c0,0.4,0.1,0.8,0.4,1
							c0.3,0.3,0.6,0.5,1,0.5c0.4,0,0.8-0.1,1-0.5c0.3-0.2,0.4-0.6,0.4-1c0-0.4-0.1-0.7-0.4-0.9c-0.3-0.3-0.6-0.5-1-0.5
							C196.6,62.8,196.3,62.9,196,63.2z M198.5,56.5c0-0.4-0.1-0.8-0.4-1c-0.3-0.3-0.6-0.4-1-0.4c-0.4,0-0.7,0.1-1,0.4
							c-0.2,0.2-0.4,0.6-0.4,1c0,0.4,0.1,0.7,0.4,1c0.3,0.3,0.6,0.5,1,0.5c0.4,0,0.8-0.2,1-0.5C198.3,57.3,198.5,57,198.5,56.5z"/>
					</g>
				</g>
				<g>
					<g>
						<path fill-rule="evenodd" clip-rule="evenodd" fill-opacity="0.2235" d="M209.9,73.6l1.5-1.5l2.5-17.2c-0.4-1.5-1-2.6-1.9-3.3
							c-0.4-0.2-0.9-0.4-1.3-0.5h-5.1c0.3-21.6,3.4-39.3,9.2-53.2c12-24.6,17.6-56,16.8-94.3l-4.2,0.5c1.9,36.5-3.2,66.9-15.1,91.4
							C206.4,9.5,203,28.1,202,51.2h-7.3L194,73.4L209.9,73.6z M205,53c0.2,0.1,0.4,0.2,0.5,0.3c0,0.1,0,0.2,0,0.3
							c0,0.2-0.1,0.3-0.4,0.4c-0.1,0-0.2,0.1-0.3,0.1c-1,0.3-1.9,0.3-2.5,0c-0.3-0.2-0.5-0.3-0.5-0.5c0,0,0-0.1,0-0.1
							c0-0.2,0.2-0.3,0.5-0.5c-0.3,0.1-0.4,0.3-0.5,0.5c0,0,0,0.1,0,0.1c0,0.2,0.2,0.3,0.5,0.5c0.6,0.3,1.4,0.3,2.5,0
							c0.1,0,0.1-0.1,0.3-0.1c0.3-0.1,0.4-0.2,0.4-0.4c0-0.1,0-0.1,0-0.3C205.4,53.2,205.2,53.1,205,53z"/>
						
							<path fill-rule="evenodd" clip-rule="evenodd" fill="none" stroke="#8A775B" stroke-width="0.1" stroke-linecap="round" stroke-linejoin="round" stroke-miterlimit="3" d="
							M205,53c0.2,0.1,0.4,0.2,0.5,0.3c0,0.1,0,0.2,0,0.3c0,0.2-0.1,0.3-0.4,0.4c-0.1,0-0.2,0.1-0.3,0.1c-1,0.3-1.9,0.3-2.5,0
							c-0.3-0.2-0.5-0.3-0.5-0.5c0,0,0-0.1,0-0.1c0-0.2,0.2-0.3,0.5-0.5"/>
					</g>
					<g>
						<path fill-rule="evenodd" clip-rule="evenodd" fill="#EAE3D9" d="M208.2,70.8c-0.8,1.4-1.6,2.2-2.3,2.5l1-0.1
							c0.3-0.1,0.6-0.2,1-0.4c0.6-0.4,1.2-1.1,1.6-2H208.2z"/>
						<path fill-rule="evenodd" clip-rule="evenodd" fill="#D2C7AC" d="M208.2,54.6c1.6,1.5,2.2,3.3,1.8,5.3l-1.8,10.9h1.3l2-12.5
							c0.1-0.2,0.2-0.5,0.2-0.8v0c0.5-2.5-0.2-4.1-2-5h-0.1L208.2,54.6z M190.6,57.9c0-1.4,0.8-2.4,2.4-3.1l-0.5-2
							c-1.2,0.5-2,1.3-2.4,2.5L190.6,57.9z"/>
						<path fill-rule="evenodd" clip-rule="evenodd" fill="#BFB59D" d="M192.5,52.8l17-0.3h0.1c0,0-0.1,0-0.1,0l-16.8,0.1
							c-2.3,1-3.1,2.6-2.4,4.8L193,71c0.4,0.9,1.2,1.7,2.4,2.3h0h0c-1.2-0.6-2-1.3-2.4-2.3l-2.7-13.6c-0.7-2.2,0.1-3.8,2.4-4.8
							l16.8-0.1c0.1,0,0.1,0,0.1,0c1.9,0.8,2.5,2.5,2,5v0c0,0.3-0.1,0.5-0.2,0.8l-2,12.5c-0.4,0.9-1,1.5-1.6,2
							c-0.3,0.2-0.6,0.3-1,0.4l-1,0.1c-0.1,0-0.2,0.1-0.3,0.1c-0.2,0-0.4,0-0.5,0c-0.7,0.1-1.4,0.2-2.1,0.2c1.2,0,2.4-0.1,3.6-0.3
							c0.4-0.1,0.8-0.3,1.2-0.6c-0.4,0.3-0.8,0.5-1.2,0.6c-1.2,0.1-2.4,0.2-3.6,0.3l-5.5,0c-0.7,0-1.4-0.1-2-0.1c0,0,0-0.1-0.1-0.1
							c-1-0.5-1.7-1.2-2.1-2l-2.4-12.2c0-0.1-0.1-0.2-0.1-0.3c-0.1-0.3-0.1-0.6-0.1-0.9l-0.5-2.6C190.5,54.1,191.3,53.3,192.5,52.8z
							 M212.6,57.8c0.5-2.5-0.2-4.6-2.2-6.5l-18.7,0.2c-2.6,1.1-3.5,2.9-2.8,5.4l3.1,15c0.5,1,1.4,1.9,2.6,2.5
							c4.1,0.5,8.3,0.5,12.5,0c1-0.2,2.1-1.3,3.2-3.1L212.6,57.8z"/>
						<path fill-rule="evenodd" clip-rule="evenodd" fill="#DED6C2" d="M208.2,54.6L193,54.8c-1.6,0.7-2.4,1.7-2.4,3.1
							c0,0.3,0,0.6,0.1,0.9c0,0.1,0.1,0.2,0.1,0.3l2.4,12.2c0.4,0.8,1.1,1.5,2.1,2c0,0,0.1,0,0.1,0.1c0.7,0.1,1.3,0.1,2,0.1l5.5,0
							c0.7,0,1.5-0.1,2.1-0.2c0.1,0,0.3,0,0.5,0c0.1,0,0.1-0.1,0.3-0.1c0.7-0.3,1.5-1.1,2.3-2.5l1.8-10.9
							C210.4,57.9,209.8,56.1,208.2,54.6z M206,69.3l1-9.3c0.6-2.4,0.7-1.5,0.2,2.8l-0.8,6.9c-0.4,0.9-0.8,1.5-1.3,1.8
							c0,0-0.4,0-1.1,0.1C205.2,71.4,205.8,70.6,206,69.3z M207.4,70.1l1.6-9.9c0.4-1.8-0.1-3.3-1.6-4.7l-13.6,0.2
							c-1.9,0.8-2.6,2.1-2,3.8l2.2,11.1c0.3,0.7,1,1.3,2,1.8c3,0.4,6,0.4,9.1,0C205.9,72.3,206.6,71.5,207.4,70.1
							c-0.8,1.4-1.5,2.2-2.3,2.3c-3.1,0.4-6.2,0.4-9.1,0c-1-0.5-1.6-1-2-1.8l-2.2-11.1c-0.6-1.8,0.1-3,2-3.8l13.6-0.2
							c1.5,1.4,2,2.9,1.6,4.7L207.4,70.1z M205.9,56.7c-1.3,0-3.9-0.1-7.8-0.1c-1.9,0-2.7-0.1-2.4-0.1c-0.8-0.1-0.8-0.1,0.1-0.1
							c0.9-0.1,1.3-0.1,1.1-0.1c3.6,0,6.1,0,7.5,0c1.4,0,2.1,0.2,2.1,0.4c1,1.2,1,1.4,0.3,0.8C206.5,57,206.3,56.8,205.9,56.7z"/>
						<path fill-rule="evenodd" clip-rule="evenodd" fill="#F3EFE9" d="M206,69.3c-0.1,1.3-0.8,2.1-1.9,2.3c0.7-0.1,1.1-0.1,1.1-0.1
							c0.5-0.3,0.9-0.9,1.3-1.8l0.8-6.9c0.5-4.3,0.4-5.3-0.2-2.8L206,69.3z M205.9,56.7c0.4,0.1,0.7,0.3,0.9,0.8
							c0.8,0.6,0.7,0.4-0.3-0.8c0-0.3-0.7-0.4-2.1-0.4c-1.4,0-3.9,0-7.5,0c0.2,0-0.2,0.1-1.1,0.1c-0.9,0-0.9,0.1-0.1,0.1
							c-0.3,0,0.5,0.1,2.4,0.1C201.9,56.6,204.5,56.7,205.9,56.7z"/>
						<polygon fill-rule="evenodd" clip-rule="evenodd" fill="#A49575" points="193,54.8 208.2,54.6 209.5,52.5 192.5,52.8 						
							"/>
						
							<path fill-rule="evenodd" clip-rule="evenodd" fill="none" stroke="#A8A48C" stroke-width="0.1" stroke-linecap="round" stroke-linejoin="round" stroke-miterlimit="3" d="
							M205.9,73.3c0.7-0.3,1.5-1.1,2.3-2.5l1.8-10.9c0.4-2-0.2-3.7-1.8-5.3L193,54.8c-1.6,0.7-2.4,1.7-2.4,3.1 M203,73.5
							c0.7,0,1.5-0.1,2.1-0.2c0.1,0,0.3,0,0.5,0c0.1,0,0.1-0.1,0.3-0.1 M207.4,70.1l1.6-9.9c0.4-1.8-0.1-3.3-1.6-4.7l-13.6,0.2
							c-1.9,0.8-2.6,2.1-2,3.8l2.2,11.1c0.3,0.7,1,1.3,2,1.8c3,0.4,6,0.4,9.1,0C205.9,72.3,206.6,71.5,207.4,70.1z M207.9,72.7
							c-0.4,0.3-0.8,0.5-1.2,0.6c-1.2,0.1-2.4,0.2-3.6,0.3 M209.6,52.5c0,0-0.1,0-0.1,0l-16.8,0.1c-2.3,1-3.1,2.6-2.4,4.8L193,71
							c0.4,0.9,1.2,1.7,2.4,2.3h0c0,0,0.1,0,0.1,0.1c0.7,0.1,1.3,0.1,2,0.1l5.5,0 M212.6,57.8c0.5-2.5-0.2-4.6-2.2-6.5l-18.7,0.2
							c-2.6,1.1-3.5,2.9-2.8,5.4l3.1,15c0.5,1,1.4,1.9,2.6,2.5c4.1,0.5,8.3,0.5,12.5,0c1-0.2,2.1-1.3,3.2-3.1L212.6,57.8z
							 M190.8,58.8c0,0.1,0.1,0.2,0.1,0.3l2.4,12.2c0.4,0.8,1.1,1.5,2.1,2"/>
					</g>
					<g>
						<path fill-rule="evenodd" clip-rule="evenodd" d="M199.8,53.1c0,0.1,0,0.3,0,0.4c0,0.2,0.1,0.4,0.5,0.5c0.1,0,0.3,0,0.4,0
							c0.8,0,1.3-0.1,1.6-0.5c0-0.2,0-0.4,0-0.5h0c0,0,0-0.1,0.1-0.1c0,0,0.1,0,0.1,0c0.2,0.1,0.3,0.2,0.5,0.2
							c0-0.4-0.1-0.9-0.1-1.4c-0.5-21.8,2-39.7,7.4-53.7c11.2-24.6,15.7-56,13.6-94.3l-4.2,0.5c3.2,36.5-0.8,66.9-11.9,91.4
							c-5.4,14-8.1,32.7-8.4,56.1c0,0.5,0,1,0,1.5c0.1-0.1,0.3-0.2,0.5-0.3c0,0,0.1,0,0.1,0c0,0,0,0,0.1,0.1c0,0,0,0.1,0,0.1
							C199.9,53.1,199.8,53.1,199.8,53.1C199.8,53.1,199.8,53.1,199.8,53.1z M202.2,31.1c-0.3,3.1-0.5,5-0.8,5.6
							c-0.2,0.4-0.4,2.5-0.5,6.3c0-4.8-0.1-7.8-0.3-8.9l0.6-4.3c1.5-13.3,2.9-20.7,4.3-22.3c-1.5,4.8-2.3,7.7-2.4,8.8
							c-0.3,5-0.7,8.5-1.1,10.6C202.3,29,202.3,30.4,202.2,31.1z M207.7,1.5c-0.8,2-1.4,3.5-1.8,4.3c0.5-2.2,1.1-4.3,1.9-6.3
							c0.8-2.1,2.8-7.6,6.2-16.5C210.7-7.3,208.6-1.1,207.7,1.5z M228.2-22.5v-0.6C228.2-22.9,228.2-22.8,228.2-22.5L228.2-22.5z
							 M215.2-19.7c1.7-7.5,2.6-11.5,2.8-12.1c0.3-2.5,0.8-5.6,1.4-9.4l3.1-33.5l-1.1,22.8l-2.9,21.4C218-29,217-25.4,215.2-19.7z"
							/>
						<path fill-rule="evenodd" clip-rule="evenodd" fill="#8A775B" d="M202.9,53.1c-0.1-0.1-0.3-0.1-0.5-0.2c0,0-0.1,0-0.1,0
							c0,0-0.1,0-0.1,0.1c0,0,0,0.1,0,0.1c0,0,0,0.1,0.1,0.1c0.2,0.1,0.4,0.2,0.5,0.3c0,0.1,0,0.1,0,0.1c0,0.1-0.1,0.2-0.3,0.3
							c-0.1,0-0.2,0.1-0.3,0.1l0,0c-1,0.3-1.8,0.3-2.4,0c-0.3-0.1-0.5-0.3-0.5-0.4v0c0.1-0.1,0.2-0.3,0.4-0.4c0,0,0,0,0,0
							c0,0,0.1,0,0.1-0.1c0,0,0-0.1,0-0.1c0,0,0-0.1-0.1-0.1c0,0-0.1,0-0.1,0c-0.2,0.1-0.3,0.2-0.5,0.3c-0.1,0.1-0.1,0.1-0.1,0.2
							v0.1c0,0,0,0.1,0,0.1c0,0.2,0.2,0.4,0.6,0.6c0.7,0.3,1.5,0.3,2.5,0l0,0c0.1,0,0.2,0,0.3-0.1c0.3-0.1,0.5-0.3,0.5-0.5
							c0-0.1,0-0.2,0-0.3c0,0,0,0,0,0C202.9,53.2,202.9,53.1,202.9,53.1z"/>
						<path fill-rule="evenodd" clip-rule="evenodd" fill="#524636" d="M202.2,53L202.2,53c0,0.2,0,0.4,0,0.5
							c-0.3,0.4-0.8,0.5-1.6,0.5c-0.1,0-0.3,0-0.4,0c-0.3-0.1-0.5-0.3-0.5-0.5c0-0.1,0-0.2,0-0.4c-0.2,0.1-0.3,0.2-0.4,0.4v0
							c0,0.1,0.2,0.2,0.5,0.4c0.6,0.3,1.4,0.3,2.4,0l0,0c0.1,0,0.1-0.1,0.3-0.1c0.2-0.1,0.3-0.2,0.3-0.3c0,0,0-0.1,0-0.1
							c-0.1-0.1-0.2-0.2-0.5-0.3C202.3,53.1,202.2,53.1,202.2,53C202.2,53,202.2,53,202.2,53z"/>
						<path fill-rule="evenodd" clip-rule="evenodd" fill="#FFFFFF" d="M202.2,31.1c0.1-0.8,0-2.2-0.1-4.1c0.4-2.1,0.8-5.7,1.1-10.6
							c0.1-1.1,0.9-4,2.4-8.8c-1.4,1.5-2.8,9-4.3,22.3l-0.6,4.3c0.1,1.1,0.2,4,0.3,8.9c0.1-3.8,0.2-5.9,0.5-6.3
							C201.7,36.1,201.9,34.3,202.2,31.1z M207.7,1.5c0.9-2.6,3-8.8,6.3-18.5c-3.4,8.9-5.4,14.4-6.2,16.5c-0.8,2-1.4,4.1-1.9,6.3
							C206.3,5,206.9,3.5,207.7,1.5z M215.2-19.7c1.8-5.7,2.8-9.3,3.3-10.8l2.9-21.4l1.1-22.8l-3.1,33.5c-0.6,3.8-1.1,6.9-1.4,9.4
							C217.9-31.2,216.9-27.2,215.2-19.7z"/>
					</g>
				</g>
			</g>
			<g>
				<linearGradient id="SVGID_2_" gradientUnits="userSpaceOnUse" x1="-37.9497" y1="-233.0498" x2="-37.9497" y2="-287.0498">
					<stop  offset="0" style="stop-color:#18190F"/>
					<stop  offset="0.2745" style="stop-color:#13150A"/>
					<stop  offset="0.4039" style="stop-color:#2C3115"/>
					<stop  offset="1" style="stop-color:#434A20"/>
				</linearGradient>
				<polygon fill-rule="evenodd" clip-rule="evenodd" fill="url(#SVGID_2_)" points="296.2,-240.5 296.2,-289.6 -372.1,-289.6 
					-372.1,-240.5 				"/>
			</g>
			<g>
				<polygon fill-rule="evenodd" clip-rule="evenodd" fill="#616D26" points="-372.1,-231.1 296.2,-231.1 296.2,-246.1 
					-372.1,-246.1 				"/>
				<linearGradient id="SVGID_3_" gradientUnits="userSpaceOnUse" x1="-257.2803" y1="-167.9209" x2="224.3458" y2="-121.4323">
					<stop  offset="0" style="stop-color:#79892F"/>
					<stop  offset="0.4941" style="stop-color:#9AB55A"/>
					<stop  offset="1" style="stop-color:#7A8B31"/>
				</linearGradient>
				<polygon fill-rule="evenodd" clip-rule="evenodd" fill="url(#SVGID_3_)" points="-372.1,-231.1 -372.1,-62.4 296.2,-62.4 
					296.2,-231.1 				"/>
			</g>
			<g>
				
					<radialGradient id="SVGID_4_" cx="-8.3501" cy="-230.5" r="392.8625" gradientTransform="matrix(1 0 0 0.9344 0 -15.1157)" gradientUnits="userSpaceOnUse">
					<stop  offset="0" style="stop-color:#FFFFFF"/>
					<stop  offset="0.6078" style="stop-color:#FFFFFF;stop-opacity:0.8353"/>
					<stop  offset="1" style="stop-color:#FFFFFF;stop-opacity:0"/>
				</radialGradient>
				<path fill-rule="evenodd" clip-rule="evenodd" fill="url(#SVGID_4_)" d="M296.2-230c0.1,0,0.3,0,0.3-0.1
					c0.1-0.1,0.2-0.2,0.2-0.4s-0.1-0.3-0.2-0.4c-0.1-0.1-0.2-0.1-0.3-0.1h-668.3c-0.1,0-0.3,0-0.4,0.1c-0.1,0.1-0.1,0.2-0.1,0.4
					s0,0.3,0.1,0.4c0.1,0.1,0.2,0.1,0.4,0.1H296.2z"/>
			</g>
			
				<radialGradient id="SVGID_5_" cx="-363.2002" cy="295.25" r="206.1" gradientTransform="matrix(1 0 0 1.249 0 -73.5254)" gradientUnits="userSpaceOnUse">
				<stop  offset="0" style="stop-color:#FEFDDF;stop-opacity:0.3176"/>
				<stop  offset="0.2275" style="stop-color:#FEF9D3;stop-opacity:0.2314"/>
				<stop  offset="0.4549" style="stop-color:#FEF9D3;stop-opacity:0.1373"/>
				<stop  offset="0.702" style="stop-color:#FEF9D3;stop-opacity:6.666667e-002"/>
				<stop  offset="1" style="stop-color:#FEF9D3;stop-opacity:0"/>
			</radialGradient>
			<path fill-rule="evenodd" clip-rule="evenodd" fill="url(#SVGID_5_)" d="M-371,41.3v272.1h210.8c0.3-5.9,0.5-12,0.5-18
				c0-70.2-19.9-130.1-59.6-179.7c-39.7-49.7-87.7-74.5-143.9-74.5C-365.9,41.1-368.5,41.2-371,41.3z"/>
		</g>
	</g>
	<g id="Layer_10_1_">
	</g>
	<g id="Layer_7_1_">
	</g>
	<g id="Layer_8_1_">
	</g>
</symbol>
<g>
	
		<use xlink:href="#bg1"  width="669.3" height="603.1" x="-372.6" y="-289.6" transform="matrix(1.2153 0 0 -1.2153 430.1504 368.0498)" overflow="visible"/>
	<g>
		<g>
			<path fill-rule="evenodd" clip-rule="evenodd" fill-opacity="0.251" d="M695,474.7c-0.2,0-0.3,0.1-0.4,0.1
				c-20.5,3-39.7,3.1-57.8,0.1c-0.2,0-0.4-0.1-0.6-0.1c-0.2,0-0.3,0-0.4,0c-1.5-0.3-3-0.6-4.4-0.9l2,0.2c-2.7-0.4-4.2-0.7-4.6-0.7
				c-2.1-0.4-4.2-0.8-6.4-1.2c-2-0.4-4.1-0.7-6.1-1h-0.1l-1.8-0.2c-24.3-3-51,0.7-80,11c-0.6,0.2-1.3,0.2-1.9-0.1
				c-0.6-0.3-1-0.7-1.2-1.3c-0.2-0.6-0.2-1.3,0.1-1.9c0.3-0.6,0.7-1,1.4-1.2c29.9-10.6,57.3-14.4,82.2-11.2h0.1l1.8,0.2
				c2.1,0.2,4.3,0.6,6.4,1c2.1,0.4,4.2,0.7,6.3,1.2c0.5,0.1,1.7,0.3,3.7,0.6l-1.1-0.1c1.4,0.2,2.8,0.5,4.3,0.8c0.1,0,0.2,0,0.4,0.1
				c0.2,0,0.5,0.1,0.7,0.1c17.5,2.8,36,2.8,55.7-0.1c0.2-0.1,0.4-0.1,0.7-0.1c7-1.8,11.3-4.2,13-7.2c0.2-0.4,0.3-0.9,0.4-1.3
				c0,0,0-0.1,0.1-0.1v-0.1l-0.1-0.1l0.1,0.1c-0.4-0.6-0.9-1.2-1.6-1.7c-1.8-1.1-3.1-2.6-4-4.6c-0.1-0.2-0.2-0.5-0.2-0.7
				c-0.1-0.1-2.6-1.5-7.4-4.4c-3.5-2.1-7.2-4.1-11.2-6h9.8c6,3.2,9.6,5.2,11,6c0.6,0.3,0.9,0.8,1.1,1.5c0,0.1,0,0.2,0.1,0.3
				c0.6,0.2,1.1,0.6,1.3,1.3c0.4,1.1,1.2,1.9,2.1,2.5h0.1c1.7,1.1,2.8,2.3,3.5,3.8c0,0,0,0.1,0,0.1c0.1,0.2,0.2,0.5,0.3,0.9
				c0.1,0.3,0.2,0.7,0.1,1c0,0.3-0.1,0.6-0.1,1c0,0.1-0.1,0.2-0.1,0.2c-0.2,0.6-0.3,1.3-0.5,1.9c0,0-0.1,0-0.1,0.1
				C709.7,469.1,704.2,472.4,695,474.7z"/>
		</g>
		<g>
			<g>
				<path fill-rule="evenodd" clip-rule="evenodd" d="M685.5,443.7c0,0-0.1-0.1-0.2-0.1h11c6.1,3.2,9.4,5.7,9.8,7.3
					c0.5,1.3,1.3,2.4,2.4,3.3c1.9,1.5,3.2,3.1,3.7,5c0.1,0.3,0.1,0.6,0.1,0.9c-0.3,7.7-9,11.9-26.1,12.5c-15.6,0.6-37-3.1-64-11.1
					c-26.4-7.8-55.7-7.7-87.9,0.1c-0.7,0.2-1.3,0.1-1.9-0.3s-0.9-0.9-1.1-1.5c-0.2-0.7-0.1-1.3,0.3-1.9s0.9-0.9,1.5-1.1
					c33.1-8.1,63.3-8.1,90.4-0.1c26.3,7.7,47.1,11.4,62.4,10.9c13.1-0.4,20.3-3,21.4-7.6c-0.4-0.7-0.9-1.4-1.7-1.9l-0.1-0.1
					c-1.9-1.4-3.2-3.2-4.1-5.5C700.7,451.3,695.4,448.3,685.5,443.7z"/>
			</g>
			<g>
				<path fill-rule="evenodd" clip-rule="evenodd" fill="#FFFFFF" d="M663.7,468.3c6.4,1.2,13,1.7,19.7,1.7c5.5,0,10.8-0.4,15.9-1.2
					c-4,0.9-8.2,1.5-12.6,1.6c-8.1,0.3-15.8-0.4-23.2-2.1H663.7z M700.4,448.8L700.4,448.8c0,0,0,0-0.1,0H700.4z M704.7,453.9
					c-0.2-0.3-0.4-0.6-0.7-0.9c-0.8-1.1-1.3-2.1-1.6-2.8c0-0.1-0.1-0.2-0.1-0.2c0.7,0.6,1.2,1.3,1.5,2.1
					C704.1,452.7,704.4,453.3,704.7,453.9z M709.6,459.2c0.6,2.3-0.6,4.3-3.5,6.1c-0.6,0.3-1.1,0.5-1.6,0.6c2.6-1.6,4.2-3.5,4.8-5.8
					c0.1-0.3,0.1-0.5,0.2-0.8C709.4,459.1,709.5,459.1,709.6,459.2z M638.2,463.7c-14.3-4.5-25.7-7.5-34.3-9.2
					C612,455.5,623.4,458.6,638.2,463.7z"/>
			</g>
		</g>
	</g>
</g>
</svg>
