<?xml version="1.0" encoding="utf-8"?>
<!-- Generator: Adobe Illustrator 15.0.0, SVG Export Plug-In . SVG Version: 6.00 Build 0)  -->
<!DOCTYPE svg PUBLIC "-//W3C//DTD SVG 1.1//EN" "http://www.w3.org/Graphics/SVG/1.1/DTD/svg11.dtd">
<svg version="1.1" xmlns="http://www.w3.org/2000/svg" xmlns:xlink="http://www.w3.org/1999/xlink" x="0px" y="0px" width="176px"
	 height="105px" viewBox="0 0 176 105" enable-background="new 0 0 176 105" xml:space="preserve">
<g id="Layer_3">
	<g id="Layer_1_1_">
		<g>
			
				<linearGradient id="SVGID_1_" gradientUnits="userSpaceOnUse" x1="70.0498" y1="68.7119" x2="70.0498" y2="46.2874" gradientTransform="matrix(1 0 0 -1 4 100)">
				<stop  offset="0" style="stop-color:#FF5C50"/>
				<stop  offset="0.9686" style="stop-color:#F8AEAF"/>
			</linearGradient>
			<path fill="url(#SVGID_1_)" d="M101.949,42.75c-0.1,3-2.799,5.601-8.199,7.801c-0.9,0.399-1.9,0.699-2.801,1
				c-0.1,0-0.199,0-0.199,0.1c-4.8,1.4-10.4,2.1-16.6,2.1c-6.3,0-11.8-0.699-16.7-2.1l0,0c-1-0.4-1.9-0.8-2.8-1.1
				c-4-1.601-6.5-3.5-7.5-5.5c-0.101-0.2-0.2-0.301-0.3-0.301v0.5c-0.4-0.8-0.601-1.6-0.7-2.399v-0.3c0.1-3.101,2.8-5.7,8.2-7.9
				c5.399-2.2,12-3.3,19.699-3.3c7.7,0,14.2,1.1,19.601,3.3c5.398,2.2,8.1,4.8,8.199,7.8v0.3H101.949z"/>
			<path fill="#F0D9D8" d="M90.949,51.551c4.6-1.4,7.801-3.101,9.801-5.301c-2.301,2.7-4.5,4.5-6.701,5.4
				c-0.898,0.3-1.898,0.7-2.898,1.1h-0.102c-4.899,1.5-10.5,2.2-16.899,2.2c-6.4,0-12.101-0.7-17-2.2c-1-0.399-2-0.8-2.9-1.1
				c-3.6-1.5-6-3.6-7.3-6.5v-0.5c0.1,0,0.2,0.1,0.3,0.3c0.9,2.101,3.4,3.9,7.5,5.5c0.9,0.3,1.9,0.7,2.8,1.101l0,0
				c4.801,1.399,10.4,2.1,16.7,2.1c6.2,0,11.8-0.7,16.6-2.1C90.75,51.551,90.75,51.551,90.949,51.551z"/>
			
				<linearGradient id="SVGID_2_" gradientUnits="userSpaceOnUse" x1="70.0498" y1="57.25" x2="70.0498" y2="-8.1992" gradientTransform="matrix(1 0 0 -1 4 100)">
				<stop  offset="0" style="stop-color:#FF4A41"/>
				<stop  offset="1" style="stop-color:#9A2F37"/>
			</linearGradient>
			<path fill="url(#SVGID_2_)" d="M46.25,42.75c0.101,0.801,0.3,1.601,0.7,2.4c1.3,2.9,3.8,5.1,7.3,6.5c0.9,0.3,1.8,0.7,2.9,1.1
				c4.899,1.5,10.6,2.2,17,2.2c6.399,0,12-0.7,16.899-2.2h0.102c1-0.399,2-0.8,2.898-1.1c2.201-0.9,4.4-2.7,6.701-5.4
				c-2,2.101-5.201,3.9-9.801,5.301c1-0.301,1.9-0.7,2.801-1c5.4-2.2,8.1-4.801,8.199-7.801v30.601
				c-1.199,1.899-3.799,3.7-7.799,5.2c-5.701,2.199-12.401,3.3-20.201,3.3s-14.6-1.101-20.3-3.3c-3.7-1.4-6.2-3-7.5-5V42.75H46.25z"
				/>
		</g>
	</g>
</g>
<g id="Layer_2">
	<g>
		<g>
			
				<radialGradient id="SVGID_3_" cx="69.25" cy="-349.5874" r="66.3995" gradientTransform="matrix(1 0 0 -0.4015 4 -67.9119)" gradientUnits="userSpaceOnUse">
				<stop  offset="0" style="stop-color:#000000;stop-opacity:0"/>
				<stop  offset="0.1608" style="stop-color:#000000;stop-opacity:0"/>
				<stop  offset="0.4078" style="stop-color:#000000;stop-opacity:0.098"/>
				<stop  offset="0.4745" style="stop-color:#000000;stop-opacity:0.3059"/>
				<stop  offset="0.6196" style="stop-color:#000000;stop-opacity:0.0863"/>
				<stop  offset="1" style="stop-color:#000000;stop-opacity:0"/>
			</radialGradient>
			<path fill="url(#SVGID_3_)" d="M24.1,54.8c14.4-5.3,31.6-8,51.8-8c20.3,0,37.6,2.7,51.9,8c14.2,5,21.3,11.101,21.3,18.101
				c0,7.5-7.1,13.699-21.3,18.699c-14.3,5-31.6,7.5-51.9,7.5c-20.1,0-37.4-2.5-51.8-7.5C10,86.5,2.9,80.3,2.9,72.7
				C2.9,65.8,10,59.8,24.1,54.8z"/>
		</g>
		<g>
			
				<linearGradient id="SVGID_4_" gradientUnits="userSpaceOnUse" x1="100.7539" y1="45.1846" x2="104.2407" y2="5.1367" gradientTransform="matrix(1 0 0 -1 4 100)">
				<stop  offset="0" style="stop-color:#000000;stop-opacity:0.149"/>
				<stop  offset="1" style="stop-color:#000000;stop-opacity:0"/>
			</linearGradient>
			<path fill="url(#SVGID_4_)" d="M43.7,78.5c12.5,6.3,24.3,8.8,35.1,7.4C95.3,83.3,103.9,78.4,104.4,71.3l67.5,29.8H76.8L43.7,78.5
				z"/>
		</g>
		<g>
			
				<radialGradient id="SVGID_5_" cx="68.5498" cy="-350.958" r="30.4125" gradientTransform="matrix(1 0 0 -0.3999 4 -69.0497)" gradientUnits="userSpaceOnUse">
				<stop  offset="0" style="stop-color:#000000;stop-opacity:0.0471"/>
				<stop  offset="0.898" style="stop-color:#9F9F9F;stop-opacity:0.2392"/>
				<stop  offset="1" style="stop-color:#000000;stop-opacity:0"/>
			</radialGradient>
			<path fill="url(#SVGID_5_)" d="M102.2,70.7c-0.4,3.3-3.2,6-8.601,8.3C87.9,81.5,81,82.8,73,82.8S58.1,81.5,52.3,79
				c-5.2-2.3-8-5-8.5-8v-0.9c0.7-2.899,3.6-5.399,8.5-7.5C58,60,64.9,58.8,73,58.8s15,1.3,20.7,3.8c5.2,2.301,8,4.9,8.6,8V70.7
				H102.2z"/>
			
				<linearGradient id="SVGID_6_" gradientUnits="userSpaceOnUse" x1="39.6001" y1="22.5" x2="98.1997" y2="22.5" gradientTransform="matrix(1 0 0 -1 4 100)">
				<stop  offset="0" style="stop-color:#070707;stop-opacity:0.4"/>
				<stop  offset="0.2588" style="stop-color:#040404;stop-opacity:0.4784"/>
				<stop  offset="0.8118" style="stop-color:#020202;stop-opacity:0.0667"/>
				<stop  offset="1" style="stop-color:#000000;stop-opacity:0.6941"/>
			</linearGradient>
			<path fill="url(#SVGID_6_)" d="M43.8,71c0.5,3.1,3.3,5.8,8.5,8c5.8,2.5,12.7,3.8,20.7,3.8c8.1,0,15-1.3,20.7-3.8
				c5.3-2.3,8.2-5.1,8.6-8.3c0,0.3,0,0.6,0,0.8c0,3.5-2.899,6.6-8.6,9.1C87.9,83.1,81,84.3,73,84.3s-14.9-1.2-20.7-3.7
				c-5.7-2.5-8.5-5.5-8.6-8.899L43.8,71z"/>
		</g>
		<g>
			<path fill="#5A504E" d="M102.2,24.3c-1.5,1.6-3.8,3.1-6.8,4.4c-6.2,2.7-13.8,4-22.601,4c-8.8,0-16.3-1.3-22.5-4
				c-2.9-1.3-5.2-2.7-6.7-4.2c-0.4-0.3-0.7-0.6-0.9-1c-0.6-0.7-1-1.5-1.3-2.2c-0.6-1.7-0.6-3.3,0-5c1.1-2.8,4-5.3,8.9-7.4
				C56.5,6.4,64,5,72.8,5C81.6,5,89.2,6.4,95.4,9.1c5.899,2.6,9,5.7,9.399,9.3c0,0.1,0,0.3,0,0.4V19c0,1.6-0.6,3.1-1.6,4.4
				C102.9,23.7,102.6,24,102.2,24.3z M50.9,26.8c6.2,2.8,13.6,4.3,22,4.3s15.6-1.2,21.4-3.5c5.9-2.4,8.9-5.3,9-8.6
				c0-0.2,0-0.4,0-0.6c-0.3-3.3-3.3-6-9-8.3c-5.9-2.4-13-3.6-21.4-3.6c-8.3,0-15.5,1.2-21.4,3.6c-5.1,2-8,4.5-8.8,7.4
				C41.9,20.8,44.6,23.9,50.9,26.8z"/>
			
				<linearGradient id="SVGID_7_" gradientUnits="userSpaceOnUse" x1="39.543" y1="45.3789" x2="98.2139" y2="45.4055" gradientTransform="matrix(1 0 0 -1 4 100)">
				<stop  offset="0" style="stop-color:#9EA2A5;stop-opacity:0.0863"/>
				<stop  offset="0.0392" style="stop-color:#7E8184;stop-opacity:0.4824"/>
				<stop  offset="0.0941" style="stop-color:#A7AAAF;stop-opacity:0.0863"/>
				<stop  offset="0.2157" style="stop-color:#FFFFFF;stop-opacity:0.4392"/>
				<stop  offset="0.3647" style="stop-color:#C6CED2;stop-opacity:0.0863"/>
				<stop  offset="0.4863" style="stop-color:#E2E7E9;stop-opacity:0.0863"/>
				<stop  offset="0.6" style="stop-color:#AAB3B1;stop-opacity:0.1294"/>
				<stop  offset="0.7216" style="stop-color:#BCC1C2;stop-opacity:0.0863"/>
				<stop  offset="0.8196" style="stop-color:#EDEFEF;stop-opacity:0.2235"/>
				<stop  offset="0.9882" style="stop-color:#8E9193;stop-opacity:0.4235"/>
			</linearGradient>
			<path fill="url(#SVGID_7_)" d="M43.5,24.5c1.5,1.5,3.8,2.9,6.7,4.2c6.2,2.7,13.8,4,22.5,4c8.8,0,16.399-1.3,22.6-4
				c3-1.3,5.3-2.8,6.8-4.4v47.5c0,0.101,0,0.2,0,0.3c0,3.5-2.899,6.5-8.699,9C87.7,83.6,80.8,84.9,72.6,84.9
				c-8.1,0-15-1.301-20.8-3.801C46.9,79,44.1,75.9,43.5,72c-0.1-0.4-0.1-0.7-0.1-1s-0.1-0.5-0.1-0.9V24.5H43.5z"/>
			
				<linearGradient id="SVGID_8_" gradientUnits="userSpaceOnUse" x1="38.563" y1="81.2969" x2="99.2998" y2="81.2969" gradientTransform="matrix(1 0 0 -1 4 100)">
				<stop  offset="0" style="stop-color:#666666;stop-opacity:0.4"/>
				<stop  offset="0.3255" style="stop-color:#FFFFFF;stop-opacity:0.4196"/>
				<stop  offset="0.5333" style="stop-color:#BCBCBC;stop-opacity:0.4588"/>
				<stop  offset="1" style="stop-color:#353535;stop-opacity:0.4667"/>
			</linearGradient>
			<path fill="url(#SVGID_8_)" d="M50.9,26.8c-6.3-2.9-9-6-8.2-9.4c0.8-2.9,3.7-5.4,8.8-7.4c5.9-2.4,13.1-3.6,21.4-3.6
				c8.4,0,15.6,1.2,21.4,3.6c5.7,2.3,8.7,5,9,8.3c0,0.1,0,0.3,0,0.6c-0.1,3.3-3.1,6.2-9,8.6c-5.9,2.4-13,3.5-21.4,3.5
				C64.4,31.1,57.1,29.6,50.9,26.8z"/>
			<path fill="none" d="M102.2,24.3v47.5c0,0.101,0,0.2,0,0.3c0,3.5-2.9,6.5-8.7,9C87.8,83.6,80.9,84.9,72.7,84.9
				c-8.1,0-15-1.301-20.8-3.801C47,79,44.2,75.9,43.6,72c-0.1-0.4-0.1-0.7-0.1-1s-0.1-0.5-0.1-0.9V24.5"/>
		</g>
		<g>
			<path fill="none" d="M103.3,19.7c-0.5,3-3.5,5.6-9,7.8c-5.9,2.4-13,3.5-21.4,3.5s-15.8-1.5-22-4.3c-4.8-2.2-7.6-4.6-8.2-7.1"/>
			<path fill="none" d="M42.5,18.5c-0.1-0.4,0-0.8,0.1-1.1c0.8-2.9,3.7-5.4,8.8-7.4c5.9-2.4,13.1-3.6,21.4-3.6
				c8.4,0,15.6,1.2,21.4,3.6c5.7,2.3,8.7,5,9,8.3"/>
			<path fill="none" d="M101,70.7c-0.5,3-3.3,5.6-8.3,7.8c-5.6,2.4-12.3,3.6-20.1,3.6c-7.8,0-14.7-1.399-20.5-4.3
				c-4.5-2.2-7.1-4.6-7.7-7.1"/>
		</g>
		<g>
			
				<radialGradient id="SVGID_9_" cx="269.665" cy="-688.5747" r="5.3831" gradientTransform="matrix(0.9822 0.1881 0.0441 -0.1672 -148.1276 -157.8992)" gradientUnits="userSpaceOnUse">
				<stop  offset="0" style="stop-color:#FFFFFF"/>
				<stop  offset="0.1922" style="stop-color:#FFFFFF"/>
				<stop  offset="0.2824" style="stop-color:#FFFFFF;stop-opacity:0.7216"/>
				<stop  offset="0.4157" style="stop-color:#FFFFFF;stop-opacity:0.6"/>
				<stop  offset="0.5882" style="stop-color:#FEFEFE;stop-opacity:0.3333"/>
				<stop  offset="0.8157" style="stop-color:#FCFCFC;stop-opacity:0.0863"/>
				<stop  offset="1" style="stop-color:#F9F9F9;stop-opacity:0"/>
			</radialGradient>
			<path fill="url(#SVGID_9_)" d="M81.1,7c0.1-0.3,0.6-0.4,1.7-0.4c1,0.1,2.3,0.2,3.8,0.5c1.4,0.3,2.5,0.6,3.5,1
				C91,8.5,91.5,8.8,91.5,9c-0.1,0.2-0.6,0.3-1.6,0.3C88.8,9.2,87.6,9,86.2,8.8c-1.5-0.3-2.7-0.6-3.6-1C81.5,7.5,81.1,7.2,81.1,7z"
				/>
		</g>
		<g>
			
				<radialGradient id="SVGID_10_" cx="95.4736" cy="258.9365" r="2.4552" gradientTransform="matrix(0.9978 -0.0662 0 -9.6523 2.7865 2550.2498)" gradientUnits="userSpaceOnUse">
				<stop  offset="0" style="stop-color:#FFFFFF"/>
				<stop  offset="0.1922" style="stop-color:#FFFFFF"/>
				<stop  offset="0.2824" style="stop-color:#FFFFFF;stop-opacity:0.7216"/>
				<stop  offset="0.4157" style="stop-color:#FFFFFF;stop-opacity:0.6"/>
				<stop  offset="0.5882" style="stop-color:#FEFEFE;stop-opacity:0.3333"/>
				<stop  offset="0.8157" style="stop-color:#FCFCFC;stop-opacity:0.0863"/>
				<stop  offset="1" style="stop-color:#F9F9F9;stop-opacity:0"/>
			</radialGradient>
			<path fill="url(#SVGID_10_)" d="M96.4,28.5c0.5-4.8,1-7.2,1.699-7.3c0.7-0.1,1.2,2.3,1.7,7c0.5,4.7,0.7,10.2,0.7,16.3
				s-0.2,11.5-0.7,16.3c-0.5,4.101-1,6.101-1.7,6.2C97.4,67.1,96.9,65.1,96.4,61C96,56.3,95.8,50.9,95.8,44.7
				C95.7,38.7,95.9,33.3,96.4,28.5z"/>
		</g>
		<g>
			
				<radialGradient id="SVGID_11_" cx="43.4639" cy="247.1914" r="1.8542" gradientTransform="matrix(0.9977 -0.0674 0 -5.3594 2.7353 1364.4319)" gradientUnits="userSpaceOnUse">
				<stop  offset="0" style="stop-color:#FFFFFF"/>
				<stop  offset="0.1922" style="stop-color:#FFFFFF"/>
				<stop  offset="0.2824" style="stop-color:#FFFFFF;stop-opacity:0.7216"/>
				<stop  offset="0.4157" style="stop-color:#FFFFFF;stop-opacity:0.6"/>
				<stop  offset="0.5882" style="stop-color:#FEFEFE;stop-opacity:0.3333"/>
				<stop  offset="0.8157" style="stop-color:#FCFCFC;stop-opacity:0.0863"/>
				<stop  offset="1" style="stop-color:#F9F9F9;stop-opacity:0"/>
			</radialGradient>
			<path fill="url(#SVGID_11_)" d="M44.9,30c0.3-2,0.7-3,1.3-3.1c0.5,0,0.9,1,1.3,2.9c0.4,2,0.6,4.2,0.6,6.8s-0.2,4.9-0.6,6.9
				c-0.4,1.7-0.8,2.6-1.3,2.6c-0.5,0.1-1-0.7-1.3-2.4c-0.4-2-0.6-4.2-0.6-6.8S44.5,32,44.9,30z"/>
		</g>
		<g>
			
				<radialGradient id="SVGID_12_" cx="595.8701" cy="455.4814" r="1.8672" gradientTransform="matrix(0.8971 0.4418 1.841 -1.7741 -1273.1978 619.0901)" gradientUnits="userSpaceOnUse">
				<stop  offset="0" style="stop-color:#FFFFFF"/>
				<stop  offset="0.1922" style="stop-color:#FFFFFF"/>
				<stop  offset="0.2824" style="stop-color:#FFFFFF;stop-opacity:0.7216"/>
				<stop  offset="0.4157" style="stop-color:#FFFFFF;stop-opacity:0.6"/>
				<stop  offset="0.5882" style="stop-color:#FEFEFE;stop-opacity:0.3333"/>
				<stop  offset="0.8157" style="stop-color:#FCFCFC;stop-opacity:0.0863"/>
				<stop  offset="1" style="stop-color:#F9F9F9;stop-opacity:0"/>
			</radialGradient>
			<path fill="url(#SVGID_12_)" d="M103.4,72.7c-0.4,0.8-1,1.6-1.9,2.399c-0.9,0.9-1.9,1.601-2.9,2.101c-0.899,0.399-1.6,0.5-2,0.3
				c-0.5-0.3-0.6-0.7-0.3-1.4c0.3-0.8,0.9-1.699,1.9-2.5c0.8-0.899,1.8-1.5,2.8-2s1.7-0.6,2.2-0.399
				C103.6,71.3,103.7,71.8,103.4,72.7z"/>
		</g>
		<g>
			
				<radialGradient id="SVGID_13_" cx="-362.2559" cy="1595.2842" r="1.8675" gradientTransform="matrix(-0.4418 0.8971 1.7741 1.841 -2943.5823 -2537.4829)" gradientUnits="userSpaceOnUse">
				<stop  offset="0" style="stop-color:#FFFFFF"/>
				<stop  offset="0.1922" style="stop-color:#FFFFFF"/>
				<stop  offset="0.2824" style="stop-color:#FFFFFF;stop-opacity:0.7216"/>
				<stop  offset="0.4157" style="stop-color:#FFFFFF;stop-opacity:0.6"/>
				<stop  offset="0.5882" style="stop-color:#FEFEFE;stop-opacity:0.3333"/>
				<stop  offset="0.8157" style="stop-color:#FCFCFC;stop-opacity:0.0863"/>
				<stop  offset="1" style="stop-color:#F9F9F9;stop-opacity:0"/>
			</radialGradient>
			<path fill="url(#SVGID_13_)" d="M47.5,72.8c0.8,0.9,1.5,1.9,2,2.9s0.7,1.7,0.5,2.2c-0.3,0.399-0.8,0.5-1.6,0.1
				c-0.8-0.4-1.6-1-2.5-1.9c-0.8-0.899-1.5-1.8-2.1-2.8c-0.4-0.899-0.5-1.6-0.3-2c0.2-0.5,0.7-0.6,1.4-0.3
				C45.8,71.3,46.6,71.9,47.5,72.8z"/>
		</g>
	</g>
</g>
</svg>
