<?xml version="1.0" encoding="utf-8"?>
<!-- Generator: Adobe Illustrator 15.0.0, SVG Export Plug-In . SVG Version: 6.00 Build 0)  -->
<!DOCTYPE svg PUBLIC "-//W3C//DTD SVG 1.1//EN" "http://www.w3.org/Graphics/SVG/1.1/DTD/svg11.dtd">
<svg version="1.1" id="Layer_2" xmlns="http://www.w3.org/2000/svg" xmlns:xlink="http://www.w3.org/1999/xlink" x="0px" y="0px"
	 width="700px" height="700px" viewBox="0 0 700 700" enable-background="new 0 0 700 700" xml:space="preserve">
<g>
	<path fill="#BDB9A8" d="M569,216l17.7,45.4l2.2,5.6l0.3,1l0.3,0.9c0.2,0.4,0.3,0.7,0.3,1v-0.1v0.5l1.4,20.4l3,44.6L598,398.9
		l1.3,21.3c-0.2,3.8-3,5.8-8.399,6H423.5c-3.7,0-5.8,1.5-6.3,4.7l3,39.8l1.1,15.6l-1.3,17.3l-2.3,34.4c-0.601,4-3.101,5.8-7.4,5.5
		H44.9c-3.9-0.9-6-2.9-6.3-6l-0.9-9.6L35.6,503.6L34.2,488.4l-0.1-1.601l-0.1-0.5l0.7-15.6l2.9-71.7l4.5-108.2l0.7-15.5l0.1-4l0,0
		l0,0v-0.5v-0.5v-0.6v-0.4v-0.2H43l0,0c0-0.1,0-0.2,0-0.3c0-0.1,0-0.2,0.1-0.2v-0.1v-0.1l0,0c0-0.1,0-0.1,0-0.1v-0.2
		c0,0,0-0.1,0.1-0.1c0-0.1,0-0.2,0-0.2s0,0,0.1,0c0-0.1,0-0.2,0.1-0.3V267l0.2-0.4l0.2-0.8l0.3-0.8l0.3-0.9V264l0.3-0.9l0.6-1.9
		l0.6-1.6L61.3,213c0.9-1.4,2.3-2.1,4.1-2.1c1.8-0.1,2.8-0.2,3-0.2h43.8h258.5h157.1h32.7c3.7-0.1,6.5,1.4,8.3,4.6
		C568.8,215.6,569,215.8,569,216z M43.1,269L43.1,269l-0.1-0.1L43.1,269z"/>
</g>
<g>
	<g>
		<path fill-opacity="0.251" d="M694.1,450c-3.5-2.1-7.199-4.1-11.199-6h9.8c6,3.2,9.6,5.2,11,6c0.6,0.3,0.899,0.8,1.1,1.5
			c0,0.1,0,0.2,0.101,0.3c0.6,0.2,1.1,0.601,1.3,1.3c0.399,1.101,1.2,1.9,2.1,2.5h0.1c1.7,1.101,2.801,2.301,3.5,3.801v0.1
			c0.101,0.2,0.2,0.5,0.301,0.9c0.1,0.3,0.199,0.699,0.1,1c0,0.3-0.1,0.6-0.1,1c0,0.1-0.101,0.199-0.101,0.199
			c-0.2,0.601-0.3,1.301-0.5,1.9c0,0-0.1,0-0.1,0.1c-1.8,4.5-7.3,7.801-16.5,10.101c-0.2,0-0.3,0.1-0.4,0.1
			c-20.5,3-39.7,3.101-57.8,0.101c-0.2,0-0.4-0.101-0.6-0.101c-0.2,0-0.3,0-0.4,0c-1.5-0.3-3-0.6-4.4-0.899l2,0.199
			c-2.699-0.399-4.199-0.699-4.6-0.699c-2.1-0.4-4.2-0.801-6.4-1.2c-2-0.4-4.1-0.7-6.1-1h-0.1l-1.8-0.2c-24.301-3-51,0.7-80,11
			c-0.601,0.2-1.301,0.2-1.9-0.1c-0.6-0.301-1-0.7-1.2-1.301c-0.2-0.6-0.2-1.3,0.1-1.899c0.301-0.601,0.7-1,1.4-1.2
			c29.9-10.6,57.3-14.4,82.2-11.2h0.1l1.8,0.2c2.101,0.2,4.301,0.6,6.4,1s4.2,0.7,6.3,1.2c0.5,0.1,1.7,0.3,3.7,0.6l-1.1-0.1
			c1.399,0.2,2.8,0.5,4.3,0.8c0.1,0,0.2,0,0.4,0.1c0.199,0,0.5,0.101,0.699,0.101c17.5,2.8,36,2.8,55.7-0.101
			c0.2-0.1,0.4-0.1,0.7-0.1c7-1.8,11.3-4.2,13-7.2c0.2-0.399,0.3-0.899,0.4-1.3c0,0,0-0.1,0.1-0.1V461.3l-0.1-0.1l0.1,0.1
			c-0.4-0.6-0.9-1.2-1.6-1.7c-1.801-1.1-3.101-2.6-4-4.6c-0.101-0.2-0.2-0.5-0.2-0.7C701.4,454.3,698.9,452.9,694.1,450z"/>
	</g>
	<g>
		<g>
			<path d="M685.5,443.7c0,0-0.1-0.101-0.2-0.101h11c6.101,3.2,9.4,5.7,9.8,7.301c0.5,1.3,1.301,2.399,2.4,3.3
				c1.9,1.5,3.2,3.1,3.7,5c0.1,0.3,0.1,0.6,0.1,0.899c-0.3,7.7-9,11.9-26.1,12.5c-15.601,0.601-37-3.1-64-11.1
				c-26.4-7.8-55.7-7.7-87.9,0.1c-0.7,0.2-1.3,0.101-1.899-0.3c-0.601-0.399-0.9-0.899-1.101-1.5c-0.2-0.7-0.1-1.3,0.3-1.899
				c0.4-0.601,0.9-0.9,1.5-1.101c33.101-8.1,63.301-8.1,90.4-0.1c26.3,7.7,47.1,11.399,62.4,10.899c13.1-0.399,20.3-3,21.399-7.6
				c-0.399-0.7-0.899-1.4-1.7-1.9l-0.1-0.1c-1.9-1.4-3.2-3.2-4.1-5.5C700.7,451.3,695.4,448.3,685.5,443.7z"/>
		</g>
		<g>
			<path fill="#FFFFFF" d="M663.6,468.3h0.101c6.399,1.2,13,1.7,19.7,1.7c5.5,0,10.8-0.4,15.899-1.2c-4,0.9-8.2,1.5-12.6,1.601
				C678.7,470.6,671,469.9,663.6,468.3z M700.3,448.8h0.101l0.1,0.101C700.5,448.8,700.4,448.8,700.3,448.8z M702.5,450.2
				c0-0.101-0.1-0.2-0.1-0.2c0.699,0.6,1.199,1.3,1.5,2.1c0.199,0.7,0.5,1.301,0.8,1.801c-0.2-0.301-0.4-0.601-0.7-0.9
				C703.2,451.8,702.7,450.9,702.5,450.2z M704.5,465.8c2.6-1.6,4.2-3.5,4.8-5.8c0.101-0.3,0.101-0.5,0.2-0.8
				c0-0.101,0.1-0.101,0.2-0.101c0.6,2.301-0.601,4.301-3.5,6.101C705.5,465.6,705,465.8,704.5,465.8z M638.2,463.7
				c-14.3-4.5-25.7-7.5-34.3-9.2C612,455.5,623.4,458.6,638.2,463.7z"/>
		</g>
	</g>
	<g>
		<g>
			<path fill-opacity="0.2471" d="M634.1,469.5c4.101,0.9,6.801,2.7,8.2,5.3l36.5,90.101c0.8,4-1.6,6.6-7.2,8L613.3,588H582.4
				c13.699,3.2,25.6,9,35.699,17.3c16.9,14.9,26,36.3,27.301,64.4H661.3V720.1h-14.5v-48.8h-16L624.4,634.4
				c-1.101-1.9-2.301-4-3.601-6.2c-9.3-15.601-33.6-29-72.8-40.2H47c-10.7,0.5-14.9-2.2-12.7-8.1l30.6-110.4l556.4-0.8
				C626.8,468.7,631,468.9,634.1,469.5z"/>
		</g>
		<g>
			<polygon fill-opacity="0.7176" points="570.6,469.9 596.2,570.2 40.9,570.2 67.8,469.9 			"/>
		</g>
		<g>
			<rect x="49.5" y="509.7" fill="#161616" width="13.9" height="39.899"/>
			
				<linearGradient id="SVGID_1_" gradientUnits="userSpaceOnUse" x1="-256.6509" y1="547.0283" x2="-256.6509" y2="534.0791" gradientTransform="matrix(1.2153 0 0 -1.2153 368.3079 1214.3035)">
				<stop  offset="0" style="stop-color:#161616"/>
				<stop  offset="0.4392" style="stop-color:#161616"/>
				<stop  offset="0.4941" style="stop-color:#282828"/>
				<stop  offset="1" style="stop-color:#282828"/>
			</linearGradient>
			<polygon fill="url(#SVGID_1_)" points="63.3,549.5 63.3,555.8 63.3,565.3 49.5,565.3 49.5,549.5 			"/>
			<polygon points="63.3,509.7 68.3,509.7 68.3,537.2 63.3,565.3 63.3,555.8 63.3,549.5 			"/>
		</g>
		<g>
			<rect x="565.6" y="509.7" fill="#161616" width="13.9" height="38.8"/>
			
				<linearGradient id="SVGID_2_" gradientUnits="userSpaceOnUse" x1="168.0591" y1="547.8652" x2="168.0591" y2="534.0659" gradientTransform="matrix(1.2153 0 0 -1.2153 368.3079 1214.3035)">
				<stop  offset="0" style="stop-color:#161616"/>
				<stop  offset="0.4392" style="stop-color:#161616"/>
				<stop  offset="0.4941" style="stop-color:#282828"/>
				<stop  offset="1" style="stop-color:#282828"/>
			</linearGradient>
			<polygon fill="url(#SVGID_2_)" points="579.5,548.5 579.5,565.3 565.6,565.3 565.6,555.8 565.6,548.5 			"/>
			<polygon points="565.6,565.3 560.6,537.2 560.6,509.7 565.6,509.7 565.6,548.5 565.6,555.8 			"/>
		</g>
		<g>
			
				<linearGradient id="SVGID_3_" gradientUnits="userSpaceOnUse" x1="-45.2217" y1="620.166" x2="-45.2217" y2="675.066" gradientTransform="matrix(1.2153 0 0 -1.2153 368.3079 1214.3035)">
				<stop  offset="0" style="stop-color:#87856C"/>
				<stop  offset="1" style="stop-color:#2C2C26"/>
			</linearGradient>
			<polygon fill="url(#SVGID_3_)" points="53,468.6 53,303.8 573.7,303.8 573.7,468.6 406.2,468.6 54.2,468.6 			"/>
			
				<radialGradient id="SVGID_4_" cx="-47.0107" cy="590.0156" r="238.9001" gradientTransform="matrix(1.2153 0 0 -1.2153 368.3079 1214.3035)" gradientUnits="userSpaceOnUse">
				<stop  offset="0" style="stop-color:#2A2925"/>
				<stop  offset="0.4706" style="stop-color:#34322B"/>
				<stop  offset="0.6784" style="stop-color:#434135"/>
				<stop  offset="1" style="stop-color:#4C4A3B"/>
			</radialGradient>
			<polygon fill="url(#SVGID_4_)" points="573.7,468.6 597.3,546.9 33,546.9 33,546.8 37.7,528.3 51.6,473.9 53,468.6 54.2,468.6 
				406.2,468.6 			"/>
			<polygon fill="#353428" points="33,546.9 597.3,546.9 597.3,547 597.3,547 597.3,552.6 597.3,552.7 597.3,552.9 37.7,552.9 
				33,552.9 			"/>
			<path fill="#7D6A5B" d="M33,546.9L33,546.9l0.1,6H33V546.9z M597.3,552.6L597.3,552.6L597.3,552.6L597.3,552.6L597.3,552.6z"/>
			<polygon fill="#4C4A3B" points="33,546.9 33,546.9 33,546.8 			"/>
		</g>
		<g>
			
				<line fill="none" stroke="#FFFFFF" stroke-width="0.1" stroke-linecap="round" stroke-linejoin="round" stroke-miterlimit="3" stroke-opacity="0.2471" x1="33" y1="546.9" x2="596.8" y2="546.9"/>
		</g>
		<g>
			
				<radialGradient id="SVGID_5_" cx="153.6494" cy="491.5986" r="2.0501" gradientTransform="matrix(1.1708 -0.326 -0.2816 -1.0819 553.8676 1128.9893)" gradientUnits="userSpaceOnUse">
				<stop  offset="0" style="stop-color:#FFFFFF"/>
				<stop  offset="0.1765" style="stop-color:#FFFFFF"/>
				<stop  offset="0.3059" style="stop-color:#FFFFFF;stop-opacity:0.4235"/>
				<stop  offset="0.4902" style="stop-color:#FFFFFF;stop-opacity:0.2314"/>
				<stop  offset="0.651" style="stop-color:#FFFFFF;stop-opacity:0.0824"/>
				<stop  offset="1" style="stop-color:#FFFFFF;stop-opacity:0"/>
			</radialGradient>
			<path fill="url(#SVGID_5_)" d="M594,549c-0.6-0.3-0.9-0.7-1.1-1.3c-0.2-0.601-0.101-1.2,0.3-1.7c0.399-0.6,0.899-0.9,1.5-1.1
				c0.6-0.2,1.3-0.101,1.899,0.1c0.5,0.3,0.9,0.7,1,1.3c0.2,0.601,0.101,1.2-0.199,1.7c-0.4,0.6-0.9,1-1.601,1.2
				C595.2,549.4,594.6,549.3,594,549z"/>
		</g>
		<g>
			
				<radialGradient id="SVGID_6_" cx="149.7446" cy="467.2627" r="2.2909" gradientTransform="matrix(1.1147 -0.4843 -11.1399 -37.3939 5626.3218 18066.3613)" gradientUnits="userSpaceOnUse">
				<stop  offset="0" style="stop-color:#FFFFFF;stop-opacity:0.4784"/>
				<stop  offset="0.0431" style="stop-color:#FFFFFF;stop-opacity:0.5882"/>
				<stop  offset="0.3569" style="stop-color:#FFFFFF;stop-opacity:0.1294"/>
				<stop  offset="0.6863" style="stop-color:#FFFFFF;stop-opacity:0"/>
				<stop  offset="1" style="stop-color:#FFFFFF;stop-opacity:0"/>
			</radialGradient>
			<path fill="url(#SVGID_6_)" d="M576,485.1c-2.8-10.699-4-16.199-3.6-16.399c0.399-0.2,2.399,4.899,5.8,15.399
				c3.2,9.7,7,21.801,11.3,36.2c2.8,9.601,5,18.101,6.4,25.601H593.8c-2.3-7.101-4.8-15.2-7.5-24.301
				C582.2,507.3,578.7,495.1,576,485.1z"/>
		</g>
	</g>
	<g>
		<g>
			<path fill="#302F25" d="M528.4,491.6c7.399,3.4,11.1,7.5,11.1,12.301c0,4.899-3.7,9-11.1,12.399c-4.301,2-9,3.4-14.301,4.3
				c-2.6,0.4-5.3,0.7-8.199,0.9c-1.4,0-2.801,0.1-4.301,0.1c-1.399,0-2.8,0-4.1-0.1c-3-0.1-5.8-0.4-8.5-0.9
				c-5.3-0.899-10.1-2.3-14.3-4.3c-1-0.5-2-1-2.9-1.399c-5.5-3.101-8.2-6.801-8.2-11c0-4.801,3.7-8.9,11.101-12.301
				c7.399-3.399,16.399-5,26.899-5c1.5,0,3.101,0,4.601,0.101c2,0.1,3.899,0.3,5.8,0.5C518.1,488,523.6,489.4,528.4,491.6z"/>
		</g>
		<g>
			<path fill-opacity="0.3451" d="M562.9,513.4l-0.5,2.399h-16.2L546,513.4h-12.5v-9.2h10.6v-2.4H560.7l0.5,2.4h21l2.399,9.2H562.9z
				 M467.8,476.8c-0.3,0-0.6,0.101-1,0.101c1.5,0.1,2.8,0.399,3.9,0.8c4.3,0.7,6.3,2.8,6,6.399c3.3,1.2,6.1,3.2,8.399,5.801
				c0.801,0.899,0.301,1.399-1.3,1.6c-2.6,0.4-5.1,0.7-7.7,0.9c1.7,1.899,3,4.3,4,7.199c3.801,2.101,7.301,5.4,10.301,9.9
				c0.3,0.5,0.699,1.2,1.199,2.1c0.601,1.2,1,2.301,1.2,3.4c4.101,0.3,8.2,0.5,12.2,0.5c2.1,0,2.5,0.9,0.9,2.7
				c-0.4,0.399-0.801,0.899-1.2,1.2h-9c-1.8-1-4.3-2.2-7.4-3.7c-3.3-1.601-6.1-2-8.399-1.2c-14.801-2.8-25.2-9.8-31.2-20.9
				c-8.5-0.199-16.101-0.3-23-0.399l7.5,47.8c0.399,2.7-0.5,4.2-2.5,4.6l-0.4,0.301H321.6H39.4l12.2-35h347.8v-18.4
				c-1.2,0-2.301-0.1-3.301-0.1V481.8c25.4,0,42.801,0.101,52,0.2c0.101-0.2,0.2-0.3,0.2-0.5c-0.2-1-0.399-2-0.5-3
				c-0.1-1.1,0.5-1.7,1.9-1.7c0.5,0.2,4.1,0.3,10.899,0.101c2.301-0.301,4.301-0.301,6.101-0.2C467,476.9,467.4,476.8,467.8,476.8z"
				/>
		</g>
		<g>
			<polygon points="415.6,495.4 420.7,544 39.4,544 56.5,495.4 			"/>
		</g>
		<g>
			<path fill="none" d="M465.5,510c-1.4-1.9-2.1-3.8-2.1-6c0-4.9,3.699-9.1,11.1-12.5c7.5-3.4,16.5-5.2,27.1-5.2
				c1.5,0,3.101,0,4.7,0.101c2,0.1,3.9,0.3,5.8,0.6c6.101,0.7,11.601,2.2,16.5,4.4c7.5,3.399,11.2,7.6,11.2,12.5c0,2.1-0.7,4.1-2,6"
				/>
		</g>
		<g>
			
				<linearGradient id="SVGID_7_" gradientUnits="userSpaceOnUse" x1="81.5894" y1="638.5273" x2="129.4897" y2="638.5273" gradientTransform="matrix(1.2153 0 0 -1.2153 368.3079 1214.3035)">
				<stop  offset="0" style="stop-color:#000000"/>
				<stop  offset="1" style="stop-color:#11100B"/>
			</linearGradient>
			<path fill="url(#SVGID_7_)" d="M525.7,437.6L521.1,440.4C515.3,434.6,508.2,431.6,499.9,431.6c-8.301,0-15.301,2.9-21.2,8.801
				c-4.4,4.399-7.101,9.5-8.3,15.3c-0.2,1-0.301,1.899-0.301,2.899c-0.1,1-0.199,2-0.199,3c0,0.5,0,1.101,0,1.601l-2.4-18.101
				c0-0.3-0.1-0.699-0.1-1c0-0.5-0.101-1-0.101-1.5c0-1.1,0.101-2,0.2-3c0.6-6.8,3.4-12.699,8.4-17.699
				c5.699-5.7,12.6-8.5,20.699-8.5c8.101,0,15,2.8,20.7,8.5c2.4,2.399,4.4,5.1,5.8,8c0.601,1.199,1.101,2.399,1.4,3.6
				c0,0.1,0.1,0.2,0.2,0.4C525.2,435.1,525.4,436.4,525.7,437.6z"/>
			<path fill="#10110C" d="M521.1,440.4c1.801,1.899,3.4,3.8,4.7,6c0.5,0.699,0.9,1.5,1.3,2.199c0.7,1.5,1.301,3.2,1.801,4.9
				c0.199,0.8,0.399,1.6,0.6,2.4c0.3,1.8,0.4,3.699,0.4,5.699c0,8.301-2.9,15.4-8.801,21.301c-5.8,5.8-12.899,8.8-21.199,8.8
				c-8.301,0-15.301-2.9-21.2-8.8c-3.7-3.7-6.2-7.9-7.601-12.5c-0.6-2.301-1-4.7-1.199-7.2c0-0.5,0-1.101,0-1.601
				c0-1.1,0.1-2.1,0.199-3c0-1,0.101-1.899,0.301-2.899c1.1-5.8,3.899-10.8,8.3-15.3c5.899-5.801,12.899-8.801,21.2-8.801
				C508.2,431.7,515.3,434.6,521.1,440.4z"/>
			<path fill="#0C0C0A" d="M525.7,437.6l3.2,15.9c-0.5-1.7-1.101-3.3-1.801-4.9c-0.399-0.8-0.8-1.5-1.3-2.199
				c-1.3-2.101-2.899-4.101-4.7-6L525.7,437.6z"/>
		</g>
		<g>
			<path d="M505.9,521.8l5.8-31.8c5.8,0.7,10.899,2,15.399,4.1c7,3.2,10.5,7,10.5,11.5s-3.5,8.4-10.5,11.5
				C521.2,519.8,514.1,521.4,505.9,521.8z"/>
			
				<radialGradient id="SVGID_8_" cx="102.916" cy="536.2334" r="4.0268" gradientTransform="matrix(0.3171 -1.1732 -4.9386 -1.3347 3099.6672 1346.8999)" gradientUnits="userSpaceOnUse">
				<stop  offset="0" style="stop-color:#CDCDCD"/>
				<stop  offset="0.3804" style="stop-color:#4A4A4A"/>
				<stop  offset="1" style="stop-color:#000000"/>
			</radialGradient>
			<path fill="url(#SVGID_8_)" d="M511.8,490l-5.8,31.8c-1.3,0-2.6,0.101-4,0.101c-1.3,0-2.6,0-3.9-0.101
				c-8.3-0.399-15.5-1.899-21.5-4.7c-1-0.399-1.899-0.899-2.699-1.3c-5.101-2.899-7.7-6.3-7.7-10.1c0-4.5,3.5-8.3,10.5-11.5
				c7-3.101,15.399-4.7,25.399-4.7c1.5,0,2.9,0,4.301,0.1C508.1,489.6,510,489.8,511.8,490z"/>
		</g>
		<g>
			
				<linearGradient id="SVGID_9_" gradientUnits="userSpaceOnUse" x1="76.4443" y1="620.7158" x2="130.922" y2="635.3091" gradientTransform="matrix(1.2153 0 0 -1.2153 368.3079 1214.3035)">
				<stop  offset="0" style="stop-color:#000000"/>
				<stop  offset="0.2431" style="stop-color:#131210"/>
				<stop  offset="0.5843" style="stop-color:#13120F"/>
				<stop  offset="0.8157" style="stop-color:#544A48"/>
				<stop  offset="1" style="stop-color:#11100C"/>
			</linearGradient>
			<path fill="url(#SVGID_9_)" d="M536,466.5c-0.2-0.4-0.3-0.7-0.5-1.1c-0.4-0.9-0.9-1.801-1.5-2.7c-1.5-2.5-3.3-4.8-5.5-7
				c-6.8-6.8-15.1-10.2-24.9-10.2c-9.8,0-18,3.4-24.899,10.2c-0.8,0.899-1.601,1.8-2.4,2.7L475,460c-3.3,4.3-5.5,9.1-6.5,14.3
				c-0.2,1.101-0.4,2.2-0.5,3.4c-0.1,1.1-0.1,2.3-0.1,3.5c0,0.6,0,1.2,0,1.8l-2.801-21.1c0-0.4-0.1-0.801-0.1-1.301
				c0-0.6,0-1.199,0-1.8c0-1.3,0-2.399,0.1-3.5c0.7-8,4-14.899,9.9-20.8c6.6-6.7,14.7-10,24.2-10c9.399,0,17.5,3.3,24.2,10
				c2.899,2.9,5.1,6.1,6.699,9.4c0.7,1.399,1.301,2.8,1.7,4.3c0,0.1,0.101,0.3,0.2,0.399c0.4,1.5,0.7,2.9,0.9,4.4L536,466.5z"/>
			
				<linearGradient id="SVGID_10_" gradientUnits="userSpaceOnUse" x1="111.1187" y1="650.166" x2="111.1187" y2="582.166" gradientTransform="matrix(1.2153 0 0 -1.2153 368.3079 1214.3035)">
				<stop  offset="0" style="stop-color:#525252"/>
				<stop  offset="1" style="stop-color:#111111"/>
			</linearGradient>
			<path fill="url(#SVGID_10_)" d="M537,471.8c0.2,0.9,0.4,1.9,0.6,2.8c0.4,2.101,0.601,4.4,0.601,6.7c0,7.7-2.2,14.601-6.5,20.5
				l-0.7,1c-0.8,0.9-1.6,1.8-2.5,2.7c-6.8,6.8-15.1,10.2-24.9,10.2c-9.8,0-18-3.4-24.899-10.2c-4.3-4.3-7.2-9.2-8.8-14.6
				c-0.801-2.7-1.301-5.5-1.4-8.5c0-0.601,0-1.2,0-1.801c0-1.199,0-2.399,0.1-3.5c0.101-1.199,0.301-2.3,0.5-3.399
				c0.9-5,2.9-9.5,6-13.601l1.301-1.6c0.6-0.7,1.199-1.3,1.8-2c6.899-6.8,15.2-10.2,24.899-10.2c9.7,0,18,3.4,24.9,10.2
				c2.1,2.2,4,4.5,5.5,7c0.5,0.9,1,1.7,1.5,2.7C535.8,467.9,536.5,469.8,537,471.8z"/>
			
				<radialGradient id="SVGID_11_" cx="96.2891" cy="591.7676" r="30.8999" gradientTransform="matrix(1.2153 0 0 -1.2153 368.3079 1214.3035)" gradientUnits="userSpaceOnUse">
				<stop  offset="0" style="stop-color:#4D4D4D"/>
				<stop  offset="1" style="stop-color:#111111"/>
			</radialGradient>
			<path fill="url(#SVGID_11_)" d="M475.1,460c-3,4.1-5,8.6-6,13.6c-0.199,1.101-0.399,2.2-0.5,3.4c-0.1,1.1-0.1,2.3-0.1,3.5
				c0,0.6,0,1.2,0,1.8c0.1,3,0.6,5.8,1.4,8.5c1.6,5.4,4.5,10.2,8.8,14.601c6.899,6.8,15.2,10.199,24.899,10.199
				c9.7,0,18-3.399,24.9-10.199c0.9-0.9,1.7-1.801,2.5-2.7c-0.9,1.1-1.9,2.3-3,3.399c-6.8,6.801-15.1,10.2-24.9,10.2
				c-9.8,0-18-3.399-24.899-10.2c-4.3-4.3-7.2-9.199-8.8-14.6c-0.801-2.7-1.301-5.5-1.4-8.5c0-0.6,0-1.2,0-1.8c0-1.2,0-2.4,0.1-3.5
				c0.101-1.2,0.301-2.3,0.5-3.4C469.6,469.1,471.8,464.3,475.1,460z"/>
			
				<linearGradient id="SVGID_12_" gradientUnits="userSpaceOnUse" x1="79.3003" y1="610.0537" x2="133.7772" y2="624.6468" gradientTransform="matrix(1.2153 0 0 -1.2153 368.3079 1214.3035)">
				<stop  offset="0.0078" style="stop-color:#201F1D"/>
				<stop  offset="0.1176" style="stop-color:#131210"/>
				<stop  offset="0.5843" style="stop-color:#13120F"/>
				<stop  offset="0.8157" style="stop-color:#544A48"/>
				<stop  offset="1" style="stop-color:#11100C"/>
			</linearGradient>
			<path fill="url(#SVGID_12_)" d="M536,466.5l1.1,5.3c-0.6-2-1.3-3.899-2.1-5.7c-0.4-0.899-0.9-1.8-1.5-2.699
				c-1.5-2.5-3.3-4.801-5.5-7c-6.8-6.801-15.1-10.2-24.9-10.2c-9.8,0-18,3.399-24.899,10.2c-0.601,0.6-1.2,1.3-1.8,2
				c0.699-0.9,1.5-1.801,2.399-2.7c6.9-6.8,15.2-10.2,24.9-10.2s18,3.4,24.899,10.2c2.101,2.2,4,4.5,5.5,7c0.5,0.899,1,1.7,1.5,2.7
				C535.6,465.7,535.8,466.1,536,466.5z"/>
			<path fill="none" d="M475.1,460l1.301-1.6c0.699-0.9,1.5-1.801,2.399-2.7c6.9-6.8,15.2-10.2,24.9-10.2s18,3.4,24.899,10.2
				c2.101,2.2,4,4.5,5.5,7c0.5,0.899,1,1.7,1.5,2.7c0.2,0.399,0.301,0.699,0.5,1.1 M531.8,501.8c4.7-6.1,7-13.2,7-21.3
				c0-2.3-0.2-4.5-0.6-6.7c-0.2-0.899-0.4-1.899-0.601-2.8c-0.399-1.6-1-3.2-1.6-4.6"/>
		</g>
		<g>
			
				<radialGradient id="SVGID_13_" cx="115.8594" cy="612.4326" r="6.2917" gradientTransform="matrix(1.212 -0.0893 -0.4008 -2.1488 618.8072 1763.199)" gradientUnits="userSpaceOnUse">
				<stop  offset="0" style="stop-color:#FFFFFF;stop-opacity:0.498"/>
				<stop  offset="0.1765" style="stop-color:#FFFFFF;stop-opacity:0.498"/>
				<stop  offset="0.3059" style="stop-color:#FFFFFF;stop-opacity:0.251"/>
				<stop  offset="0.4902" style="stop-color:#FFFFFF;stop-opacity:0.0863"/>
				<stop  offset="0.651" style="stop-color:#FFFFFF;stop-opacity:0.0667"/>
				<stop  offset="1" style="stop-color:#FFFFFF;stop-opacity:0"/>
			</radialGradient>
			<path fill="url(#SVGID_13_)" d="M521.4,436.3c0.699,3.8,0.6,7-0.5,9.601c-1.101,2.8-2.601,4.199-4.601,4.399s-4.1-1.1-6.1-3.6
				c-1.8-2.4-3.101-5.4-3.8-9.2c-0.7-3.6-0.601-6.7,0.399-9.4c1.101-2.8,2.601-4.199,4.601-4.399s4.1,1.1,6.1,3.6
				C519.4,429.7,520.7,432.7,521.4,436.3z"/>
		</g>
		<g>
			<path d="M488.2,481.8c0-0.5,0-1,0.1-1.5c0-0.5,0.101-1,0.2-1.399c0.6-2.801,2-5.301,4.2-7.5c3-2.801,6.7-4.2,10.899-4.2
				c4.301,0,7.9,1.399,10.9,4.2c0.9,0.899,1.7,1.899,2.4,2.899c0.199,0.4,0.5,0.7,0.699,1.101c0.4,0.8,0.7,1.6,0.9,2.399
				c0.1,0.4,0.2,0.8,0.3,1.2c0.2,0.9,0.2,1.8,0.2,2.8c0,4.101-1.5,7.5-4.5,10.3c-3,2.801-6.6,4.301-10.899,4.301
				c-4.2,0-7.801-1.4-10.9-4.301c-1.9-1.8-3.1-3.8-3.8-6c-0.4-1.1-0.601-2.3-0.601-3.5C488.2,482.3,488.2,482.1,488.2,481.8z"/>
		</g>
		<g>
			<g>
				
					<radialGradient id="SVGID_14_" cx="166.0396" cy="537.8164" r="127.6745" gradientTransform="matrix(1.2153 0 0 -1.2153 368.3079 1214.3035)" gradientUnits="userSpaceOnUse">
					<stop  offset="0" style="stop-color:#5B6767"/>
					<stop  offset="0.3961" style="stop-color:#626F6E"/>
					<stop  offset="0.502" style="stop-color:#7A8584"/>
					<stop  offset="0.6" style="stop-color:#5D6A69"/>
					<stop  offset="1" style="stop-color:#6A7575"/>
				</radialGradient>
				<path fill="url(#SVGID_14_)" d="M651.3,542c1.2,39.5-3.5,41.1-14.1,4.9L637,545.1c-1.2-9.399-3.6-17.699-7.3-24.699
					c-12.2-21.4-37.2-30.801-75-28.301c-2,0.2-3.7-0.399-5.2-1.8c-1.5-1.3-2.4-2.899-2.5-4.899c-0.1-1.9,0.5-3.7,1.8-5.2
					s3-2.4,5-2.5c45.101-3.101,74.7,8.899,88.7,35.8C647,521.7,649.9,531.1,651.3,542z"/>
				
					<radialGradient id="SVGID_15_" cx="166.6396" cy="515.0049" r="115.25" gradientTransform="matrix(1.2153 0 0 -1.816 368.3079 1508.9495)" gradientUnits="userSpaceOnUse">
					<stop  offset="0" style="stop-color:#5B6767"/>
					<stop  offset="0.3961" style="stop-color:#626F6E"/>
					<stop  offset="0.502" style="stop-color:#7A8584"/>
					<stop  offset="0.6" style="stop-color:#5D6A69"/>
					<stop  offset="1" style="stop-color:#6A7575"/>
				</radialGradient>
				<path fill="url(#SVGID_15_)" d="M637.2,547c10.6,36.2,15.3,34.6,14.1-4.9c3.101,23.4-0.899,53.4-11.8,90.101
					c-0.9,2.899-1.7,5.7-2.4,8.399c-0.1,0.301-0.199,0.601-0.3,1c-2.7,6.101-6.899,3.101-12.5-8.899c0.4-1.5,0.9-3.101,1.4-4.7
					c0.5-1.8,1.1-3.6,1.6-5.3C636,592.2,639.3,567,637.2,547z"/>
				
					<radialGradient id="SVGID_16_" cx="259.5396" cy="414.3467" r="108.3625" gradientTransform="matrix(1.2153 0 0 -1.6125 368.3079 1367.9292)" gradientUnits="userSpaceOnUse">
					<stop  offset="0" style="stop-color:#5B6767"/>
					<stop  offset="0.3961" style="stop-color:#626F6E"/>
					<stop  offset="0.502" style="stop-color:#7A8584"/>
					<stop  offset="0.6" style="stop-color:#5D6A69"/>
					<stop  offset="1" style="stop-color:#6A7575"/>
				</radialGradient>
				<path fill="url(#SVGID_16_)" d="M624.3,632.6c5.601,12,9.7,15,12.5,8.9c-7.3,25.9-11.6,48.6-12.899,68.1
					c-0.2,2.601-0.301,5.101-0.4,7.601L609,717.6c0.1-2.6,0.2-5.199,0.4-8c1.3-19.699,5.399-42.5,12.5-68.399l2.3-8.3
					C624.2,632.9,624.3,632.7,624.3,632.6z"/>
				<g>
					<path fill-opacity="0.0863" d="M637.2,547l-0.2-1.8c-1.2-9.4-3.6-17.7-7.3-24.7c-12.2-21.4-37.2-30.8-75-28.3
						c-2,0.2-3.7-0.4-5.2-1.8c-1.5-1.301-2.4-2.9-2.5-4.9c-0.1-1.9,0.5-3.7,1.8-5.2s3-2.399,5-2.5c45.101-3.1,74.7,8.9,88.7,35.8
						c4.5,8.101,7.5,17.5,8.9,28.4c3.1,23.4-0.9,53.4-11.801,90.1c-0.899,2.9-1.699,5.7-2.399,8.4c-0.101,0.3-0.2,0.6-0.3,1
						c-8.301,29.3-12.7,54.5-13.301,75.7c0,0.7,0,1.399,0,2H609c0-0.5,0-1.101,0-1.601c0.5-21.5,4.8-47,12.9-76.3l2.3-8.3
						c0-0.1,0.1-0.2,0.1-0.4c0.4-1.5,0.9-3.1,1.4-4.699c0.5-1.801,1.1-3.601,1.6-5.301C636,592.2,639.3,567,637.2,547z"/>
				</g>
			</g>
			<g>
				
					<linearGradient id="SVGID_17_" gradientUnits="userSpaceOnUse" x1="151.9312" y1="607.0293" x2="151.9312" y2="594.4034" gradientTransform="matrix(1.2153 0 0 -1.2153 368.3079 1214.3035)">
					<stop  offset="0" style="stop-color:#171717"/>
					<stop  offset="0.4706" style="stop-color:#585858"/>
					<stop  offset="1" style="stop-color:#000000"/>
				</linearGradient>
				<path fill="url(#SVGID_17_)" d="M560.3,478.4h-14.5c-0.2-1.5-0.3-2.2-0.5-2.2c6.101,0,10.8,0,14.101,0v0.1
					c0.3,0,0.5,0.601,0.699,1.7c0,0.1,0.101,0.2,0.101,0.2C560.2,478.3,560.2,478.3,560.3,478.4z M545.3,492.3
					c0.2,0,0.3-0.7,0.5-2.1h14.5c0,0.1-0.1,0.1-0.1,0.2c-0.2,1-0.4,1.6-0.7,1.899H545.3z M560.6,483.2H546c0-0.9,0-1.7-0.1-2.4h14.5
					c0,0.5,0,1,0.1,1.601v0.1C560.6,482.7,560.6,482.9,560.6,483.2z M545.9,488.2c0-0.8,0-1.601,0.1-2.4h14.6c0,0.3,0,0.5,0,0.8
					v0.101c-0.1,0.5-0.1,1-0.199,1.5H545.9z"/>
				
					<linearGradient id="SVGID_18_" gradientUnits="userSpaceOnUse" x1="158.3911" y1="607.9912" x2="158.3911" y2="593.5412" gradientTransform="matrix(1.2153 0 0 -1.2153 368.3079 1214.3035)">
					<stop  offset="0" style="stop-color:#000000"/>
					<stop  offset="0.349" style="stop-color:#333030"/>
					<stop  offset="1" style="stop-color:#000000"/>
				</linearGradient>
				<path fill="url(#SVGID_18_)" d="M559.5,492.3c0.2-0.2,0.5-0.899,0.7-1.899c0,0,0-0.101,0.1-0.2c0-0.101,0-0.2,0-0.4
					c0-0.399,0.101-0.7,0.101-1.1c0-0.101,0-0.101,0-0.2s0-0.2,0-0.4V488c0-0.5,0.1-1,0.199-1.5v-0.1c0-0.2,0-0.5,0-0.801
					c0-0.399,0-0.8,0-1.199c0-0.101,0-0.101,0-0.2V484.1c0-0.1,0-0.199,0-0.3c0-0.3,0-0.5,0-0.8s0-0.5,0-0.7v-0.1
					c-0.1-0.601-0.1-1.101-0.1-1.601c0-0.1,0-0.199,0-0.3v-0.1c-0.1-0.601-0.1-1.2-0.2-1.8V478.3v-0.1c0,0-0.1-0.101-0.1-0.2
					s0-0.2-0.101-0.2c-0.199-1.1-0.399-1.7-0.699-1.7V476c0.1,0,0.3,0,0.399,0h1.601l0.1,0.1c0.2,0.2,0.3,0.9,0.5,1.9
					c0,0.1,0,0.1,0,0.2v0.1v0.101c0.1,0.5,0.1,1.1,0.1,1.8v0.1c0,0.101,0,0.2,0,0.3v0.101c0,0.5,0.101,1,0.101,1.5v0.1
					c0,0.2,0,0.5,0,0.7s0,0.5,0,0.8c0,0.101,0,0.2,0,0.3v0.101c0,0,0,0.1,0,0.2c0,0.399,0,0.8,0,1.199c0,0.301,0,0.5,0,0.801v0.1
					c0,0.5-0.101,1-0.101,1.5v0.1c0,0.2,0,0.301,0,0.4c0,0,0,0.1,0,0.2c0,0.399-0.1,0.8-0.1,1.2c0,0.1,0,0.199,0,0.199
					c0,0.101-0.1,0.101-0.1,0.2c-0.2,1.3-0.4,1.9-0.601,1.9h-1.8V492.3z"/>
				
					<linearGradient id="SVGID_19_" gradientUnits="userSpaceOnUse" x1="152.0962" y1="605.1299" x2="152.0962" y2="603.7042" gradientTransform="matrix(1.2153 0 0 -1.2153 368.3079 1214.3035)">
					<stop  offset="0" style="stop-color:#000000"/>
					<stop  offset="0.6549" style="stop-color:#353131"/>
					<stop  offset="1" style="stop-color:#2E2A2A"/>
				</linearGradient>
				<path fill="url(#SVGID_19_)" d="M545.9,480.7c0-0.8-0.101-1.601-0.101-2.2v-0.1h14.5v0.1v0.1c0,0.5,0.101,1.101,0.2,1.801v0.1
					c0,0.1,0,0.2,0,0.3h-14.6V480.7z"/>
				
					<linearGradient id="SVGID_20_" gradientUnits="userSpaceOnUse" x1="152.2192" y1="601.2539" x2="152.2192" y2="599.4789" gradientTransform="matrix(1.2153 0 0 -1.2153 368.3079 1214.3035)">
					<stop  offset="0" style="stop-color:#000000"/>
					<stop  offset="0.6549" style="stop-color:#272525"/>
					<stop  offset="1" style="stop-color:#1C1919"/>
				</linearGradient>
				<path fill="url(#SVGID_20_)" d="M546,485.8c0-0.5,0-1,0-1.5c0-0.399,0-0.8,0-1.1h14.6c0,0.2,0,0.5,0,0.8c0,0.1,0,0.2,0,0.3
					v0.101c0,0,0,0.1,0,0.199c0,0.4,0,0.801,0,1.2H546z"/>
				
					<linearGradient id="SVGID_21_" gradientUnits="userSpaceOnUse" x1="152.0552" y1="597.0039" x2="152.0552" y2="595.5289" gradientTransform="matrix(1.2153 0 0 -1.2153 368.3079 1214.3035)">
					<stop  offset="0" style="stop-color:#000000"/>
					<stop  offset="0.6549" style="stop-color:#232222"/>
					<stop  offset="1" style="stop-color:#151313"/>
				</linearGradient>
				<path fill="url(#SVGID_21_)" d="M560.3,490.3h-14.5c0-0.1,0-0.2,0-0.399c0-0.5,0.101-1.101,0.101-1.7h14.5v0.1
					c0,0.2,0,0.3,0,0.4c0,0,0,0.1,0,0.2c0,0.399-0.101,0.699-0.101,1.1C560.3,490.1,560.3,490.2,560.3,490.3z"/>
				<path d="M545.8,490.3c-0.2,1.4-0.3,2.101-0.5,2.101h-0.1c-0.101-0.2-0.3-1-0.4-2.4c-0.1-1.6-0.2-3.5-0.2-5.7s0.101-4.2,0.2-5.8
					c0.2-1.3,0.3-2.1,0.4-2.2v-0.1h0.1c0.2,0,0.3,0.7,0.5,2.2v0.1c0,0.7,0.101,1.4,0.101,2.2s0.1,1.6,0.1,2.399
					c0,0.301,0,0.7,0,1.101c0,0.5,0,1,0,1.5c0,0.899-0.1,1.7-0.1,2.399c0,0.601-0.101,1.2-0.101,1.7
					C545.8,490.1,545.8,490.2,545.8,490.3z"/>
			</g>
			<g>
				
					<linearGradient id="SVGID_22_" gradientUnits="userSpaceOnUse" x1="111.6357" y1="596.7383" x2="109.8986" y2="613.4423" gradientTransform="matrix(1.2153 0 0 -1.2153 368.3079 1214.3035)">
					<stop  offset="0" style="stop-color:#000000"/>
					<stop  offset="0.3882" style="stop-color:#2E2E2E"/>
					<stop  offset="0.7098" style="stop-color:#060606"/>
					<stop  offset="1" style="stop-color:#000000"/>
				</linearGradient>
				<path fill="url(#SVGID_22_)" d="M503.6,478.1c0.101,0,0.2,0.601,0.301,1.9c0,0.2,0.1,0.4,0.1,0.7c0,1.1,0.1,2.3,0.1,3.6
					c0,0.101,0,0.2,0,0.4c0,1.2,0,2.3-0.1,3.3c0,0.3,0,0.5-0.1,0.8c-0.101,1.3-0.2,1.9-0.301,1.9c-0.199,0-0.399-0.601-0.5-1.9
					c-0.1-0.2-0.1-0.5-0.1-0.8c0-1-0.1-2.1-0.1-3.3c0-0.101,0-0.2,0-0.4c0-1.399,0-2.6,0.1-3.6c0-0.3,0-0.5,0.1-0.7
					C503.3,478.7,503.4,478.1,503.6,478.1z"/>
				
					<linearGradient id="SVGID_23_" gradientUnits="userSpaceOnUse" x1="128.5625" y1="605.4414" x2="128.5625" y2="595.4914" gradientTransform="matrix(1.2153 0 0 -1.2153 368.3079 1214.3035)">
					<stop  offset="0" style="stop-color:#000000"/>
					<stop  offset="0.3882" style="stop-color:#2E2E2E"/>
					<stop  offset="0.7098" style="stop-color:#060606"/>
					<stop  offset="1" style="stop-color:#000000"/>
				</linearGradient>
				<path fill="url(#SVGID_23_)" d="M503.6,478.1H545c0.1,0,0.2,0.601,0.4,1.9c0,0.2,0,0.4,0,0.7c0.1,1.1,0.1,2.3,0.1,3.6
					c0,0.101,0,0.2,0,0.4c0,1.2,0,2.3-0.1,3.3c0,0.3,0,0.5,0,0.8c-0.101,1.3-0.2,1.9-0.4,1.9h-41.4c0.101,0,0.2-0.601,0.301-1.9
					c0-0.2,0.1-0.5,0.1-0.8c0-1,0.1-2.1,0.1-3.3c0-0.101,0-0.2,0-0.4c0-1.399,0-2.6-0.1-3.6c0-0.3,0-0.5-0.1-0.7
					C503.8,478.7,503.7,478.1,503.6,478.1z"/>
			</g>
			<g>
				
					<radialGradient id="SVGID_24_" cx="196.8423" cy="574.1074" r="41.8479" gradientTransform="matrix(1.2153 0 0 -1.2153 368.3079 1214.3035)" gradientUnits="userSpaceOnUse">
					<stop  offset="0" style="stop-color:#FFFFFF"/>
					<stop  offset="1" style="stop-color:#FAFAFA;stop-opacity:0"/>
				</radialGradient>
				<path fill="url(#SVGID_24_)" d="M568.8,482.8c0.101-0.2,0.2-0.2,0.5-0.2c46.3-2.3,72,20.2,77.2,67.4c0,0.2,0,0.4-0.1,0.5
					c-0.2,0.1-0.301,0.2-0.5,0.2c-0.2,0.1-0.301,0-0.5-0.101c-0.2-0.1-0.301-0.3-0.301-0.5C640,503.8,614.8,481.7,569.4,483.9
					c-0.2,0-0.4,0-0.5-0.101c-0.2-0.2-0.301-0.3-0.301-0.5C568.5,483.1,568.6,482.9,568.8,482.8z"/>
				
					<radialGradient id="SVGID_25_" cx="221.8877" cy="393.2148" r="53.8881" gradientTransform="matrix(1.2153 0 0 -1.2153 368.3079 1214.3035)" gradientUnits="userSpaceOnUse">
					<stop  offset="0" style="stop-color:#FFFFFF"/>
					<stop  offset="1" style="stop-color:#FAFAFA;stop-opacity:0"/>
				</radialGradient>
				<path fill="url(#SVGID_25_)" d="M621.8,669.2c0.101,0.1,0.101,0.3,0.101,0.5c-3.801,18.7-5.601,35.399-5.5,50.3h-1.5
					c-0.2-14.9,1.699-31.8,5.5-50.6c0-0.2,0.199-0.301,0.399-0.4s0.3-0.2,0.5-0.1C621.5,668.9,621.7,669,621.8,669.2z"/>
			</g>
			<g>
				
					<radialGradient id="SVGID_26_" cx="180.6152" cy="698.959" r="4.6491" gradientTransform="matrix(1.0677 0.5805 0.2058 -0.3786 277.9043 651.6916)" gradientUnits="userSpaceOnUse">
					<stop  offset="0" style="stop-color:#FFFFFF"/>
					<stop  offset="0.1922" style="stop-color:#FFFFFF"/>
					<stop  offset="0.2824" style="stop-color:#FFFFFF;stop-opacity:0.7059"/>
					<stop  offset="0.4157" style="stop-color:#FFFFFF;stop-opacity:0.6"/>
					<stop  offset="0.5882" style="stop-color:#FEFEFE;stop-opacity:0.3137"/>
					<stop  offset="0.8157" style="stop-color:#FCFCFC;stop-opacity:0.0863"/>
					<stop  offset="1" style="stop-color:#F9F9F9;stop-opacity:0"/>
				</radialGradient>
				<path fill="url(#SVGID_26_)" d="M610.6,491.2c-0.8-0.9-1-1.5-0.8-2c0.2-0.4,0.9-0.601,2.101-0.4c1.1,0.101,2.399,0.5,3.699,1.3
					c1.301,0.7,2.4,1.601,3.2,2.5c0.7,0.801,1,1.4,0.7,1.801c-0.2,0.5-0.9,0.699-2.1,0.5c-1.101-0.2-2.301-0.7-3.601-1.4
					C612.4,492.8,611.3,492.1,610.6,491.2z"/>
			</g>
			<g>
				
					<radialGradient id="SVGID_27_" cx="141.042" cy="687.4844" r="16.9753" gradientTransform="matrix(-0.257 1.1878 0.1513 0.0327 570.587 419.505)" gradientUnits="userSpaceOnUse">
					<stop  offset="0" style="stop-color:#FFFFFF"/>
					<stop  offset="0.1922" style="stop-color:#FFFFFF"/>
					<stop  offset="0.2824" style="stop-color:#FFFFFF;stop-opacity:0.7059"/>
					<stop  offset="0.4157" style="stop-color:#FFFFFF;stop-opacity:0.6"/>
					<stop  offset="0.5882" style="stop-color:#FEFEFE;stop-opacity:0.3137"/>
					<stop  offset="0.8157" style="stop-color:#FCFCFC;stop-opacity:0.0863"/>
					<stop  offset="1" style="stop-color:#F9F9F9;stop-opacity:0"/>
				</radialGradient>
				<path fill="url(#SVGID_27_)" d="M639.5,595.3c1.4-3.8,2.4-5.7,3.1-5.6c0.7,0.2,0.801,2.2,0.4,6.3c-0.2,3.8-1,8.5-2.1,14
					c-1.2,5.4-2.4,10-3.801,13.8c-1.3,3.601-2.3,5.4-3,5.2c-0.6-0.2-0.8-2.1-0.5-6c0.4-4,1.101-8.7,2.301-14
					C637.1,603.5,638.3,598.9,639.5,595.3z"/>
			</g>
		</g>
		<g>
			<g>
				
					<linearGradient id="SVGID_28_" gradientUnits="userSpaceOnUse" x1="99.1167" y1="604.8564" x2="123.8673" y2="608.002" gradientTransform="matrix(1.2153 0 0 -1.2153 368.3079 1214.3035)">
					<stop  offset="0" style="stop-color:#626262"/>
					<stop  offset="0.2275" style="stop-color:#949494"/>
					<stop  offset="0.3922" style="stop-color:#B8B8B8"/>
					<stop  offset="0.4745" style="stop-color:#8C8C8C"/>
					<stop  offset="0.5529" style="stop-color:#FFFFFF"/>
					<stop  offset="0.6078" style="stop-color:#FFFFFF"/>
					<stop  offset="0.6706" style="stop-color:#989898"/>
					<stop  offset="1" style="stop-color:#383838"/>
				</linearGradient>
				<path fill="url(#SVGID_28_)" d="M489.5,488.3c0-0.399-0.1-0.8-0.1-1.3c-0.2-1.2-0.301-2.5-0.5-4c0-0.2,0-0.4,0-0.5
					c0-0.2-0.101-0.5-0.101-0.7c0-0.5,0-0.899,0.101-1.3c0.3-3.2,1.699-6,4.3-8.3c2.899-2.601,6.399-3.9,10.5-3.9
					c4.1,0,7.5,1.3,10.399,3.9c1.301,1.1,2.2,2.399,2.9,3.8c0.2,0.2,0.8,2.3,1.8,6.1h-0.1c-0.101-0.3-0.3-0.6-0.4-0.899
					c-0.2-0.3-0.399-0.7-0.6-1.101c-0.601-0.899-1.4-1.8-2.4-2.699c-3-2.7-6.5-4.101-10.7-4.101c-3.1,0-5.899,0.8-8.3,2.3
					c-0.899,0.5-1.7,1.101-2.399,1.801c-2.2,2.1-3.601,4.399-4.101,7.1c-0.1,0.4-0.1,0.8-0.1,1.2c0,0.1-0.101,0.2-0.101,0.2
					c0,0.399-0.1,0.699-0.1,1.199c0,0,0,0.101,0,0.2v0.101c0,0.199,0,0.399,0,0.699C489.5,488,489.5,488.1,489.5,488.3z"/>
				
					<linearGradient id="SVGID_29_" gradientUnits="userSpaceOnUse" x1="110.8125" y1="632.249" x2="112.6771" y2="586.1246" gradientTransform="matrix(1.2153 0 0 -1.2153 368.3079 1214.3035)">
					<stop  offset="0" style="stop-color:#CDCDCD"/>
					<stop  offset="1" style="stop-color:#383838"/>
				</linearGradient>
				<path fill="url(#SVGID_29_)" d="M519.7,486.5v0.1v0.101c0,0.1,0,0.2,0,0.3s0,0.1,0,0.2c0,3.899-1.5,7.2-4.4,9.899
					c-3,2.7-6.5,4.101-10.7,4.101c-4.1,0-7.699-1.4-10.699-4.101c-1.9-1.699-3.101-3.6-3.801-5.8v-0.1c0-0.101-0.1-0.2-0.1-0.2
					c-0.1-0.4-0.2-0.9-0.2-1.3V489.6c-0.1-0.199-0.1-0.5-0.2-0.8c0-0.2-0.1-0.3-0.1-0.5s0-0.3,0-0.399c0-0.2,0-0.5,0-0.7V487.1
					c0-0.1,0-0.1,0-0.199c0-0.4,0-0.801,0.1-1.2c0-0.101,0-0.2,0.101-0.2c0-0.4,0-0.8,0.1-1.2c0.601-2.7,1.9-5,4.101-7.1
					c0.8-0.601,1.6-1.2,2.399-1.8c2.4-1.5,5.101-2.301,8.3-2.301c4.2,0,7.7,1.4,10.7,4.101c0.9,0.899,1.7,1.8,2.4,2.7
					c0.2,0.399,0.399,0.8,0.6,1.1s0.3,0.6,0.4,0.9l0.1,0.1c0.101,0.4,0.2,0.8,0.4,1.1l0.1,0.4c0.101,0.3,0.2,0.6,0.2,0.9
					c0,0.199,0.1,0.399,0.1,0.6c0.101,0.4,0.101,0.8,0.2,1.3C519.7,486.4,519.7,486.5,519.7,486.5z"/>
				<path fill="#191813" d="M519.7,486.7L519.7,486.7c0-0.101,0-0.101,0-0.2l0.1,0.4C519.7,486.9,519.7,486.8,519.7,486.7z"/>
			</g>
			<g>
				<path d="M500.6,484.7c1-0.8,2.2-1.2,3.601-1.2c1.399,0,2.6,0.4,3.6,1.2c0.3,0.3,0.5,0.6,0.7,0.899c0.1,0.101,0.2,0.2,0.2,0.301
					c0.1,0.199,0.2,0.5,0.3,0.699c0,0.101,0.1,0.2,0.1,0.4s0.101,0.5,0.101,0.9c0,1.199-0.5,2.199-1.5,3.1
					c-1.101,0.9-2.3,1.3-3.601,1.3c-1.399,0-2.6-0.399-3.6-1.3c-0.6-0.5-1-1.1-1.3-1.8c-0.101-0.3-0.2-0.7-0.2-1
					c0-0.101,0-0.2,0-0.2c0-0.2,0-0.3,0.1-0.5c0-0.1,0-0.3,0.101-0.4C499.4,486.1,499.9,485.3,500.6,484.7z"/>
			</g>
			<g>
				
					<linearGradient id="SVGID_30_" gradientUnits="userSpaceOnUse" x1="97.9111" y1="576.9023" x2="107.4273" y2="576.9023" gradientTransform="matrix(1.2068 -0.1437 -0.1656 -1.2042 475.6102 1199.9692)">
					<stop  offset="0" style="stop-color:#626262"/>
					<stop  offset="0.2275" style="stop-color:#949494"/>
					<stop  offset="0.298" style="stop-color:#B8B8B8"/>
					<stop  offset="0.4039" style="stop-color:#8C8C8C"/>
					<stop  offset="0.5529" style="stop-color:#FFFFFF"/>
					<stop  offset="0.6078" style="stop-color:#FFFFFF"/>
					<stop  offset="0.7294" style="stop-color:#989898"/>
					<stop  offset="1" style="stop-color:#383838"/>
				</linearGradient>
				<path fill="url(#SVGID_30_)" d="M510.9,495.9c0-0.101-0.101-0.2-0.101-0.4c-0.1-0.2-0.2-0.3-0.2-0.4c0-0.199-0.1-0.3-0.3-0.399
					c-0.2-0.4-0.5-0.7-0.8-1c-1.2-1.101-2.6-1.601-4.1-1.601c-1.2,0-2.2,0.301-3.101,0.9c-0.2,0.2-0.5,0.4-0.899,0.7
					c-0.7,0.8-1.101,1.7-1.301,2.7c0,0.199,0,0.3,0,0.399L500,496.9l-0.5-9V487.8c0.1-1,0.6-1.899,1.5-2.7
					c0.8-0.899,1.9-1.3,3.2-1.3s2.399,0.4,3.399,1.3c0.4,0.4,0.801,0.801,1,1.2c0.101,0.2,0.2,0.4,0.2,0.601l2.2,9.5
					C510.9,496.2,510.9,496,510.9,495.9z"/>
				<path fill="#10110C" d="M510.7,495.6c0,0.101,0.1,0.2,0.1,0.4v0.1C510.8,495.9,510.8,495.7,510.7,495.6z"/>
			</g>
			<g>
				
					<linearGradient id="SVGID_31_" gradientUnits="userSpaceOnUse" x1="106.0898" y1="591.585" x2="120.0899" y2="591.585" gradientTransform="matrix(1.2153 0 0 -1.2153 368.3079 1214.3035)">
					<stop  offset="0" style="stop-color:#3A3220"/>
					<stop  offset="0.4549" style="stop-color:#776348"/>
					<stop  offset="1" style="stop-color:#312B1A"/>
				</linearGradient>
				<path fill="url(#SVGID_31_)" d="M514.3,498.2L514.3,498.2c-0.1-0.101-0.1-0.101-0.1-0.2c0,0-0.101-0.1-0.101-0.2l-0.1-0.1
					c-0.1-0.2-0.2-0.4-0.3-0.601c-0.101-0.199-0.2-0.5-0.4-0.699c-0.3-0.601-0.8-1.101-1.3-1.601c-1.7-1.7-3.7-2.5-6.1-2.5
					c-1.7,0-3.301,0.5-4.601,1.4c-0.5,0.3-0.899,0.7-1.3,1.1c-1.3,1.3-2,2.7-2.4,4.4c0,0.2-0.1,0.399-0.1,0.7l-0.1,0.1
					c0,0.2-0.101,0.5-0.101,0.8v0.101c0,0.1,0,0.3,0,0.399c0,0.101,0,0.2,0,0.2c-0.1-0.9-0.2-2-0.3-3.2c0-0.1,0-0.2,0-0.399
					c0-0.101,0-0.2,0-0.4c0-0.3,0-0.6,0-0.9c0.2-1.899,1-3.6,2.4-5c1.6-1.6,3.6-2.399,5.8-2.399c2.3,0,4.2,0.8,5.899,2.399
					c0.7,0.7,1.301,1.5,1.601,2.301c0.2,0.3,0.3,0.699,0.5,1.3l-0.101-0.3L514.3,498.2L514.3,498.2z"/>
				
					<linearGradient id="SVGID_32_" gradientUnits="userSpaceOnUse" x1="113.4224" y1="595.0908" x2="113.4224" y2="581.0399" gradientTransform="matrix(1.2153 0 0 -1.2153 368.3079 1214.3035)">
					<stop  offset="0.0196" style="stop-color:#776348"/>
					<stop  offset="0.4235" style="stop-color:#776348"/>
					<stop  offset="1" style="stop-color:#5A5132"/>
				</linearGradient>
				<path fill="url(#SVGID_32_)" d="M514.3,498.2c0,0.1,0,0.2,0.101,0.2c0,0.199,0.1,0.3,0.1,0.5v0.1c0,0.1,0.1,0.2,0.1,0.3
					c0,0.3,0,0.601,0.101,0.9v0.2v0.1c0,2.4-0.8,4.4-2.5,6.1c-0.7,0.7-1.4,1.2-2.2,1.601c-0.3,0.2-0.6,0.3-1,0.399
					c-1.8,0.7-3.601,0.7-5.5,0c-0.3-0.1-0.601-0.3-1-0.399c-2.7-1.3-4.4-3.601-4.9-7c0-0.101,0-0.2,0-0.2c0-0.2,0-0.3,0-0.4v-0.1
					c0-0.3,0-0.5,0.101-0.8c0,0,0-0.101,0.1-0.101c0-0.199,0-0.5,0.101-0.699c0.3-1.7,1.1-3.101,2.399-4.4c0.4-0.4,0.9-0.8,1.3-1.1
					c1.3-0.9,2.9-1.4,4.601-1.4c2.399,0,4.399,0.8,6.1,2.5c0.5,0.5,1,1.1,1.3,1.6c0.101,0.2,0.2,0.5,0.4,0.7
					c0.1,0.2,0.2,0.4,0.3,0.601l0.1,0.1c0,0.1,0,0.1,0.101,0.2C514.2,498.1,514.2,498.1,514.3,498.2L514.3,498.2z"/>
			</g>
		</g>
		<g>
			
				<radialGradient id="SVGID_33_" cx="113.2524" cy="591.4658" r="7.0885" gradientTransform="matrix(1.2153 0 0 -1.2153 368.3079 1214.3035)" gradientUnits="userSpaceOnUse">
				<stop  offset="0" style="stop-color:#FFFFFF"/>
				<stop  offset="1" style="stop-color:#FFFFFF;stop-opacity:0.0078"/>
			</radialGradient>
			<path fill="url(#SVGID_33_)" d="M500.2,495c-1.101,1-1.8,2.2-2.101,3.6c0,0-0.1,0-0.1,0.101l-0.1,0.1l-0.101-0.1V498.6
				c0.4-1.399,1.101-2.699,2.2-3.8c0.4-0.399,0.9-0.8,1.4-1.1c1.3-0.9,2.899-1.4,4.699-1.4c2.4,0,4.5,0.8,6.2,2.5
				c0.5,0.5,1,1.101,1.3,1.7c0.101,0.2,0.2,0.5,0.4,0.7c0.1,0.2,0.2,0.399,0.3,0.6l0.101,0.101L514.3,498l-0.1,0.1L514.1,498
				c-0.1-0.2-0.199-0.4-0.3-0.6c-0.1-0.2-0.2-0.5-0.399-0.7c-0.301-0.5-0.801-1.101-1.301-1.601h0.101c-1.7-1.6-3.7-2.399-6-2.399
				c-1.7,0-3.2,0.399-4.5,1.3C501,494.2,500.6,494.6,500.2,495z"/>
		</g>
		<g>
			
				<radialGradient id="SVGID_34_" cx="112.1064" cy="605.918" r="10.2494" gradientTransform="matrix(1.2153 0 0 -1.2153 368.3079 1214.3035)" gradientUnits="userSpaceOnUse">
				<stop  offset="0" style="stop-color:#FFFFFF"/>
				<stop  offset="0.3294" style="stop-color:#FFFFFF"/>
				<stop  offset="1" style="stop-color:#FFFFFF;stop-opacity:0.0078"/>
			</radialGradient>
			<path fill="url(#SVGID_34_)" d="M494,477.4c-1.7,1.6-2.8,3.3-3.5,5.199l-0.1,0.101H490.3l-0.1-0.101v-0.1
				c0.7-1.9,1.899-3.7,3.6-5.3c0.7-0.601,1.5-1.2,2.4-1.8c2.399-1.5,5.2-2.301,8.3-2.301c4.2,0,7.8,1.301,10.8,4.101
				c0.9,0.899,1.7,1.8,2.4,2.8c0.2,0.4,0.399,0.8,0.6,1.1c0.2,0.301,0.3,0.601,0.4,0.9c0,0,0.1,0.1,0.1,0.2
				c0,0.1,0.101,0.2,0.101,0.399c0,0,0,0.101-0.101,0.101c0,0,0,0.1-0.1,0.1c0,0-0.101,0-0.101-0.1c0,0-0.1,0-0.1-0.101
				c0-0.1-0.1-0.199-0.1-0.399V482.1H518.3V482c-0.1-0.3-0.3-0.6-0.399-0.9v0.101c-0.2-0.4-0.4-0.7-0.601-1.2v0.1
				c-0.6-0.899-1.399-1.8-2.3-2.699c-3-2.7-6.5-4-10.6-4c-3.101,0-5.8,0.699-8.101,2.199C495.5,476.2,494.7,476.8,494,477.4z"/>
		</g>
		<g>
			
				<radialGradient id="SVGID_35_" cx="95.8325" cy="712.165" r="3.2587" gradientTransform="matrix(1.0551 0.6031 0.2155 -0.377 258.2661 686.3206)" gradientUnits="userSpaceOnUse">
				<stop  offset="0" style="stop-color:#FFFFFF"/>
				<stop  offset="0.1922" style="stop-color:#FFFFFF"/>
				<stop  offset="0.2824" style="stop-color:#FFFFFF;stop-opacity:0.7098"/>
				<stop  offset="0.4157" style="stop-color:#FFFFFF;stop-opacity:0.6"/>
				<stop  offset="0.5882" style="stop-color:#FEFEFE;stop-opacity:0.3216"/>
				<stop  offset="0.8157" style="stop-color:#FCFCFC;stop-opacity:0.0863"/>
				<stop  offset="1" style="stop-color:#F9F9F9;stop-opacity:0"/>
			</radialGradient>
			<path fill="url(#SVGID_35_)" d="M514.8,477.8c-0.8-0.2-1.7-0.5-2.6-1c-1-0.5-1.7-1.1-2.2-1.6c-0.6-0.601-0.8-1.101-0.6-1.5
				c0.199-0.3,0.699-0.4,1.5-0.2c0.8,0.1,1.6,0.4,2.6,1c0.9,0.5,1.6,1.1,2.1,1.7c0.5,0.6,0.601,1.1,0.4,1.399
				C516,477.8,515.5,477.9,514.8,477.8z"/>
		</g>
		<g>
			
				<radialGradient id="SVGID_36_" cx="93.0244" cy="699.001" r="1.9598" gradientTransform="matrix(1.052 0.6085 0.2157 -0.3729 261.1201 697.3006)" gradientUnits="userSpaceOnUse">
				<stop  offset="0" style="stop-color:#FFFFFF"/>
				<stop  offset="0.1922" style="stop-color:#FFFFFF"/>
				<stop  offset="0.2824" style="stop-color:#FFFFFF;stop-opacity:0.7098"/>
				<stop  offset="0.4157" style="stop-color:#FFFFFF;stop-opacity:0.6"/>
				<stop  offset="0.5882" style="stop-color:#FEFEFE;stop-opacity:0.3216"/>
				<stop  offset="0.8157" style="stop-color:#FCFCFC;stop-opacity:0.0863"/>
				<stop  offset="1" style="stop-color:#F9F9F9;stop-opacity:0"/>
			</radialGradient>
			<path fill="url(#SVGID_36_)" d="M510.9,494.6c-0.5-0.1-1-0.3-1.5-0.6c-0.601-0.3-1-0.7-1.301-1c-0.3-0.4-0.399-0.6-0.3-0.9
				c0.101-0.199,0.4-0.199,0.9-0.199c0.5,0.1,1.1,0.3,1.6,0.6s0.9,0.7,1.2,1c0.3,0.4,0.4,0.7,0.3,0.9
				C511.6,494.6,511.3,494.7,510.9,494.6z"/>
		</g>
		<g>
			<path fill="none" d="M468.9,473.7c1.3-6.601,4.5-12.3,9.6-17.3c6.8-6.7,15.1-10.101,24.7-10.101c9.7,0,17.899,3.4,24.8,10.101
				c5.1,5,8.2,10.8,9.5,17.3"/>
		</g>
		<g>
			<g>
				
					<linearGradient id="SVGID_37_" gradientUnits="userSpaceOnUse" x1="80.8784" y1="628.9414" x2="80.8784" y2="614.4914" gradientTransform="matrix(1.2153 0 0 -1.2153 368.3079 1214.3035)">
					<stop  offset="0" style="stop-color:#000000"/>
					<stop  offset="0.349" style="stop-color:#333030"/>
					<stop  offset="1" style="stop-color:#000000"/>
				</linearGradient>
				<path fill="url(#SVGID_37_)" d="M465.2,466.9c0.3-0.2,0.5-0.9,0.7-1.9c0,0,0-0.1,0.1-0.1c0-0.101,0-0.2,0-0.4
					c0-0.4,0.1-0.8,0.2-1.2v-0.1c0-0.101,0-0.3,0-0.4c0-0.5,0.1-1,0.1-1.5v-0.1c0-0.3,0-0.601,0-0.9c0-0.399,0-0.7,0-1.2
					c0-0.1,0-0.1,0-0.199c0,0,0-0.101,0-0.2c0-0.101,0-0.2,0-0.3c0-0.2,0-0.5,0-0.801c0-0.199,0-0.399,0-0.699V456.8
					c0-0.6-0.1-1.1-0.1-1.6c0-0.101,0-0.2,0-0.4v-0.1c-0.101-0.601-0.2-1.2-0.2-1.7v-0.1c0-0.101,0-0.101,0-0.2l-0.1-0.101
					c0-0.1,0-0.199-0.101-0.3c-0.2-1.1-0.399-1.6-0.7-1.6V450.6c0.2,0,0.301,0,0.4,0h1.6l0.2,0.101c0.101,0.2,0.3,0.899,0.5,1.899
					v0.101c0,0,0,0.1,0,0.2v0.1c0.101,0.5,0.101,1.1,0.101,1.7v0.1c0,0.101,0,0.2,0,0.4v0.1c0,0.5,0.1,1,0.199,1.5
					c-0.1,0-0.1,0.101,0,0.101c0,0.199,0,0.5,0,0.699c0,0.301,0,0.5,0,0.801c0,0.1,0,0.199,0,0.3c0,0.1,0,0.1,0,0.2
					c0,0,0,0.1,0,0.199c0,0.4,0,0.801,0,1.2c0,0.3,0,0.601,0,0.9v0.1c-0.1,0.5-0.1,1-0.199,1.5c0,0.2,0,0.3,0,0.4v0.1
					c0,0.4-0.101,0.8-0.101,1.2c0,0.1,0,0.2,0,0.3l-0.1,0.101c-0.2,1.3-0.4,1.899-0.601,1.899H465.2V466.9z"/>
				
					<linearGradient id="SVGID_38_" gradientUnits="userSpaceOnUse" x1="74.3374" y1="627.9795" x2="74.3374" y2="615.3536" gradientTransform="matrix(1.2153 0 0 -1.2153 368.3079 1214.3035)">
					<stop  offset="0" style="stop-color:#171717"/>
					<stop  offset="0.4706" style="stop-color:#585858"/>
					<stop  offset="1" style="stop-color:#000000"/>
				</linearGradient>
				<path fill="url(#SVGID_38_)" d="M451,450.8c6.1,0,10.8,0,14.1,0v0.101c0.301,0,0.5,0.5,0.7,1.6c0,0.1,0.101,0.2,0.101,0.3
					c0,0,0,0.101,0.1,0.101h-14.5C451.3,451.5,451.2,450.8,451,450.8z M451.7,455.3h14.5c0,0.4,0,1,0.1,1.601v0.1c0,0.2,0,0.5,0,0.7
					h-14.5C451.7,456.8,451.7,456.1,451.7,455.3z M451.7,460.3h14.5c0,0.3,0,0.601,0,0.9v0.1c0,0.5-0.101,1-0.101,1.5h-14.5
					C451.7,462,451.7,461.2,451.7,460.3z M451.5,464.9H466l-0.1,0.1c-0.2,1-0.4,1.6-0.7,1.9H451
					C451.2,466.9,451.3,466.2,451.5,464.9z"/>
				
					<linearGradient id="SVGID_39_" gradientUnits="userSpaceOnUse" x1="74.5024" y1="626.0303" x2="74.5024" y2="624.6046" gradientTransform="matrix(1.2153 0 0 -1.2153 368.3079 1214.3035)">
					<stop  offset="0" style="stop-color:#000000"/>
					<stop  offset="0.6549" style="stop-color:#353131"/>
					<stop  offset="1" style="stop-color:#2E2A2A"/>
				</linearGradient>
				<path fill="url(#SVGID_39_)" d="M451.5,452.9H466c0,0,0,0.1,0,0.199v0.101c0,0.5,0.1,1.1,0.2,1.7v0.1c0,0.1,0,0.2,0,0.4h-14.5
					c-0.101-0.801-0.101-1.601-0.2-2.2C451.5,453,451.5,452.9,451.5,452.9z"/>
				
					<linearGradient id="SVGID_40_" gradientUnits="userSpaceOnUse" x1="74.5845" y1="622.2041" x2="74.5845" y2="620.4291" gradientTransform="matrix(1.2153 0 0 -1.2153 368.3079 1214.3035)">
					<stop  offset="0" style="stop-color:#000000"/>
					<stop  offset="0.6549" style="stop-color:#272525"/>
					<stop  offset="1" style="stop-color:#1C1919"/>
				</linearGradient>
				<path fill="url(#SVGID_40_)" d="M451.7,457.7h14.5c0,0.3,0,0.5,0,0.8c0,0.1,0,0.2,0,0.3c0,0.101,0,0.101,0,0.2c0,0,0,0.1,0,0.2
					c0,0.399,0,0.8,0,1.2h-14.5c0-0.4,0-1,0-1.5S451.7,458.1,451.7,457.7z"/>
				
					<linearGradient id="SVGID_41_" gradientUnits="userSpaceOnUse" x1="74.5024" y1="617.9043" x2="74.5024" y2="616.4293" gradientTransform="matrix(1.2153 0 0 -1.2153 368.3079 1214.3035)">
					<stop  offset="0" style="stop-color:#000000"/>
					<stop  offset="0.6549" style="stop-color:#232222"/>
					<stop  offset="1" style="stop-color:#151313"/>
				</linearGradient>
				<path fill="url(#SVGID_41_)" d="M451.7,462.8h14.5c0,0.2,0,0.3,0,0.4v0.1c-0.101,0.4-0.101,0.8-0.2,1.2c0,0.2,0,0.3,0,0.4h-14.5
					c0-0.101,0-0.2,0-0.4C451.5,464,451.6,463.4,451.7,462.8z"/>
				<path d="M451.5,452.9c0,0,0,0.1,0,0.199c0,0.7,0.1,1.4,0.2,2.2c0,0.7,0.1,1.5,0.1,2.4c0,0.399,0,0.7,0,1.1
					c0,0.601,0,1.101,0,1.5c0,0.9-0.1,1.7-0.1,2.5c-0.101,0.601-0.101,1.2-0.2,1.7c0,0.2,0,0.3,0,0.4c-0.2,1.3-0.3,2-0.5,2h-0.1
					c-0.2-0.2-0.301-1-0.5-2.4c-0.101-1.6-0.2-3.5-0.2-5.7s0.1-4.1,0.2-5.7c0.199-1.3,0.3-2.1,0.5-2.199V450.8h0.1
					C451.2,450.8,451.3,451.5,451.5,452.9z"/>
			</g>
			<g>
				<g>
					
						<radialGradient id="SVGID_42_" cx="53.106" cy="696.7686" r="68.7519" gradientTransform="matrix(1.2116 -0.0958 -0.0263 -0.333 383.4895 708.4832)" gradientUnits="userSpaceOnUse">
						<stop  offset="0.1294" style="stop-color:#3F4645"/>
						<stop  offset="0.5725" style="stop-color:#9EAAA9"/>
						<stop  offset="1" style="stop-color:#4B5151"/>
					</radialGradient>
					<path fill="url(#SVGID_42_)" d="M405.8,470.3v-15.5c12.601-3.399,27.4-4.5,44.7-3.3c1,4.9,1,9.7-0.1,14.5
						c-0.2,0-0.4-0.1-0.7-0.1C432.3,464.8,417.7,466.2,405.8,470.3z"/>
				</g>
				<g>
					
						<linearGradient id="SVGID_43_" gradientUnits="userSpaceOnUse" x1="-18.1831" y1="744.3975" x2="-1.1562" y2="744.3975" gradientTransform="matrix(0.1526 1.2057 1.2057 -0.1526 -468.6031 582.6993)">
						<stop  offset="0" style="stop-color:#0A0A0A;stop-opacity:0"/>
						<stop  offset="0.6471" style="stop-color:#030303;stop-opacity:0.2706"/>
						<stop  offset="1" style="stop-color:#020202;stop-opacity:0.4431"/>
						<stop  offset="1" style="stop-color:#000000"/>
					</linearGradient>
					<path fill="url(#SVGID_43_)" d="M449.7,466c-14.3-1-26.8-0.3-37.4,2.2c-2.7,0.6-4.8,1.2-6.5,1.899V465.7
						c15.8-4.9,30.9-5.8,45.601-2.601L450.8,466C450.5,466,450.1,466,449.7,466z"/>
				</g>
				<g>
					
						<linearGradient id="SVGID_44_" gradientUnits="userSpaceOnUse" x1="-181.9771" y1="680.957" x2="-77.5007" y2="680.957" gradientTransform="matrix(-1.2153 0 0 1.2153 247.9949 -366.8025)">
						<stop  offset="0" style="stop-color:#0A0A0A;stop-opacity:0"/>
						<stop  offset="0.6471" style="stop-color:#030303;stop-opacity:0.2706"/>
						<stop  offset="1" style="stop-color:#020202;stop-opacity:0.4431"/>
						<stop  offset="1" style="stop-color:#000000"/>
					</linearGradient>
					<path fill="url(#SVGID_44_)" d="M449.5,466c-17.4-1.2-32,0.3-43.8,4.4v-15.5c12.6-3.4,27.5-4.5,44.8-3.301h0.1
						c0.801,4.4,0.801,9.2,0,14.4C450.3,466,449.9,466,449.5,466z"/>
				</g>
			</g>
			<g>
				
					<radialGradient id="SVGID_45_" cx="56.2134" cy="224.5547" r="12.9673" gradientTransform="matrix(1.2149 -0.034 -0.0035 0.1195 368.0627 429.7359)" gradientUnits="userSpaceOnUse">
					<stop  offset="0" style="stop-color:#FFFFFF"/>
					<stop  offset="0.1922" style="stop-color:#FFFFFF"/>
					<stop  offset="0.2824" style="stop-color:#FFFFFF;stop-opacity:0.7059"/>
					<stop  offset="0.4157" style="stop-color:#FFFFFF;stop-opacity:0.6"/>
					<stop  offset="0.5882" style="stop-color:#FEFEFE;stop-opacity:0.3176"/>
					<stop  offset="0.8157" style="stop-color:#FCFCFC;stop-opacity:0.0863"/>
					<stop  offset="1" style="stop-color:#F9F9F9;stop-opacity:0"/>
				</radialGradient>
				<path fill="url(#SVGID_45_)" d="M435.5,453.1c4.1-0.199,7.7-0.1,10.8,0.101c2.9,0.2,4.4,0.5,4.4,1c0,0.399-1.5,0.8-4.5,1.2
					c-3,0.399-6.601,0.699-10.8,0.8c-4.4,0.1-8,0-10.9-0.2c-3-0.2-4.6-0.4-4.6-0.9c0-0.399,1.5-0.899,4.699-1.3
					C427.4,453.5,431,453.3,435.5,453.1z"/>
			</g>
		</g>
		<g>
			<path fill-opacity="0.3098" d="M526.2,466.9c0.3,0.1,0.6,0.3,0.899,0.399c0.4,0.2,0.801,0.4,1.2,0.7l0.2,0.4v8.699l0.1,0.301
				c0.101,0.3,0.2,1,0.5,2.199c0.2,1.2,0.301,2.801,0.4,4.9c0.1,2,0,4.5-0.1,7.4v6.899c-2.101,1.8-4.101,2.4-5.801,1.8
				c-1.1-0.199-2.1-0.899-3-1.899V492.1c0.4-0.899,0.601-1.8,0.7-2.6c0.2-1.5,0.2-3.2,0.101-5.1c-0.101-1.9-0.2-3.5-0.5-4.801v-0.1
				l-0.101-0.1l-0.8-2.7V468c0.1-0.1,0.2-0.2,0.2-0.2c0.2-0.2,0.4-0.3,0.6-0.399C522.5,466.2,524.3,466.1,526.2,466.9z"/>
		</g>
		<g>
			<path fill="#434242" d="M522.1,477c0.101,0,0.2,0.2,0.2,0.4c0.2,0.399,0.3,1,0.5,1.8c0.3,1.399,0.5,3.2,0.5,5.3
				c0.101,2.1,0,3.8-0.1,5.3c-0.2,1.101-0.3,1.8-0.5,2.101l-0.4,0.199v6.7c0.8,0.9,1.7,1.5,2.601,1.8
				c-1.101-0.199-2.101-0.899-3-1.899V492.1c0.399-0.899,0.6-1.8,0.699-2.6c0.2-1.5,0.2-3.2,0.101-5.1c-0.101-1.9-0.2-3.5-0.5-4.801
				v-0.1l-0.101-0.1l-0.8-2.7V468c0.101-0.1,0.2-0.2,0.2-0.2c0.2-0.2,0.4-0.3,0.6-0.399c1.601-1.101,3.301-1.2,5.301-0.4
				c0.3,0.1,0.6,0.3,0.899,0.4c0.4,0.199,0.8,0.399,1.2,0.699l0.2,0.4c-0.2-0.2-0.3-0.3-0.4-0.3c-0.2-0.2-0.399-0.3-0.7-0.4
				c-0.3-0.2-0.6-0.3-0.899-0.399c-1.9-0.801-3.601-0.7-5.101,0.399c-0.199,0.101-0.399,0.3-0.6,0.4c-0.1,0-0.2,0.1-0.2,0.2v8.699
				C522,477,522,477,522.1,477z"/>
			
				<linearGradient id="SVGID_46_" gradientUnits="userSpaceOnUse" x1="129.6738" y1="615.166" x2="129.6738" y2="606.6709" gradientTransform="matrix(1.2153 0 0 -1.2153 368.3079 1214.3035)">
				<stop  offset="0" style="stop-color:#FFFFFF"/>
				<stop  offset="0.4549" style="stop-color:#888888"/>
				<stop  offset="1" style="stop-color:#171717"/>
			</linearGradient>
			<path fill="url(#SVGID_46_)" d="M529.9,477H522.1c-0.1,0-0.1-0.1-0.199-0.1v-8.7c0.1-0.101,0.199-0.2,0.199-0.2
				c0.2-0.2,0.4-0.3,0.601-0.4c1.5-1.1,3.2-1.199,5.1-0.399c0.3,0.1,0.601,0.3,0.9,0.399c0.2,0.101,0.5,0.2,0.7,0.4
				c0.1,0,0.199,0.1,0.399,0.3v8.7H529.9z"/>
			
				<linearGradient id="SVGID_47_" gradientUnits="userSpaceOnUse" x1="130.1841" y1="606.5674" x2="130.1841" y2="594.1674" gradientTransform="matrix(1.2153 0 0 -1.2153 368.3079 1214.3035)">
				<stop  offset="0" style="stop-color:#333333"/>
				<stop  offset="0.1647" style="stop-color:#A4A4A4"/>
				<stop  offset="0.3451" style="stop-color:#CDCDCD"/>
				<stop  offset="0.4039" style="stop-color:#FFFFFF"/>
				<stop  offset="0.5098" style="stop-color:#FFFFFF"/>
				<stop  offset="0.5569" style="stop-color:#C5C5C5"/>
				<stop  offset="0.7176" style="stop-color:#888888"/>
				<stop  offset="1" style="stop-color:#171717"/>
			</linearGradient>
			<path fill="url(#SVGID_47_)" d="M530.8,491.9h-8.1c0.2-0.301,0.399-1,0.5-2.101c0.2-1.5,0.2-3.3,0.1-5.3
				c-0.1-2.1-0.3-3.9-0.5-5.3c-0.2-0.8-0.3-1.4-0.5-1.8c-0.1-0.2-0.2-0.4-0.2-0.4h7.801l0.1,0.3c0.1,0.3,0.2,1,0.5,2.2
				c0.2,1.2,0.3,2.8,0.4,4.9C531,486.5,530.9,489,530.8,491.9z"/>
			
				<linearGradient id="SVGID_48_" gradientUnits="userSpaceOnUse" x1="130.2495" y1="587.1162" x2="130.2495" y2="594.4162" gradientTransform="matrix(1.2153 0 0 -1.2153 368.3079 1214.3035)">
				<stop  offset="0" style="stop-color:#FFF3F3"/>
				<stop  offset="0.2039" style="stop-color:#D4CBCB"/>
				<stop  offset="0.7176" style="stop-color:#888888"/>
				<stop  offset="1" style="stop-color:#171717"/>
			</linearGradient>
			<path fill="url(#SVGID_48_)" d="M522.7,491.9h8.1v6.899c-2.1,1.8-4.1,2.4-5.8,1.8c-0.9-0.3-1.8-0.899-2.6-1.8v-6.7L522.7,491.9z"
				/>
		</g>
		<g>
			
				<radialGradient id="SVGID_49_" cx="107.1826" cy="744.8535" r="10.4143" gradientTransform="matrix(1.137 0.4293 0.1343 -0.3555 295.3381 667.9014)" gradientUnits="userSpaceOnUse">
				<stop  offset="0" style="stop-color:#FFFFFF"/>
				<stop  offset="0.1765" style="stop-color:#FFFFFF"/>
				<stop  offset="0.3059" style="stop-color:#FFFFFF;stop-opacity:0.4235"/>
				<stop  offset="0.4902" style="stop-color:#FFFFFF;stop-opacity:0.2314"/>
				<stop  offset="0.651" style="stop-color:#FFFFFF;stop-opacity:0.0824"/>
				<stop  offset="1" style="stop-color:#FFFFFF;stop-opacity:0"/>
			</radialGradient>
			<path fill="url(#SVGID_49_)" d="M515.8,452.8c-3.2-1.2-5.8-2.6-7.8-4.3c-1.9-1.5-2.7-2.8-2.3-3.8c0.399-1,1.8-1.4,4.3-1.3
				c2.6,0.1,5.5,0.8,8.6,2c3.2,1.199,5.801,2.699,7.9,4.3c2.1,1.5,2.9,2.8,2.6,3.8c-0.399,1.1-1.899,1.5-4.5,1.3
				C521.9,454.7,519,454.1,515.8,452.8z"/>
		</g>
		<g>
			
				<radialGradient id="SVGID_50_" cx="138.2578" cy="610.417" r="2.8503" gradientTransform="matrix(1.1877 0 0 -1.2153 361.7902 1214.2039)" gradientUnits="userSpaceOnUse">
				<stop  offset="0" style="stop-color:#FFFFFF"/>
				<stop  offset="1" style="stop-color:#000000"/>
			</radialGradient>
			<path fill="url(#SVGID_50_)" d="M527.8,474.2c-0.5,0.5-1.1,0.8-1.8,0.8s-1.3-0.3-1.8-0.8s-0.8-1.101-0.8-1.8
				c0-0.7,0.3-1.4,0.8-1.9s1.1-0.8,1.8-0.8s1.3,0.3,1.8,0.8s0.8,1.2,0.8,1.9C528.6,473.1,528.4,473.7,527.8,474.2z"/>
			<g>
				<polygon points="525.7,470.6 526.6,470.6 526.6,471.9 527.7,471.9 527.7,472.8 526.6,472.8 526.6,474.1 525.7,474.1 
					525.7,472.8 524.5,472.8 524.5,471.9 525.7,471.9 				"/>
			</g>
		</g>
		<g>
			
				<radialGradient id="SVGID_51_" cx="100.5483" cy="626.1719" r="2.85" gradientTransform="matrix(0.8397 0.8397 0.8592 -0.8593 -95.7945 950.2399)" gradientUnits="userSpaceOnUse">
				<stop  offset="0" style="stop-color:#FFFFFF"/>
				<stop  offset="1" style="stop-color:#000000"/>
			</radialGradient>
			<path fill="url(#SVGID_51_)" d="M526.7,499.2c-0.7,0-1.4-0.2-1.9-0.7s-0.8-1.1-0.7-1.9c0-0.699,0.2-1.3,0.7-1.8
				s1.101-0.8,1.9-0.8c0.7,0,1.399,0.2,1.899,0.7s0.801,1.1,0.7,1.899c0,0.7-0.3,1.4-0.8,1.9S527.4,499.2,526.7,499.2z"/>
			<g>
				<polygon points="527.9,495.1 528.5,495.8 527.6,496.7 528.5,497.5 527.7,498.2 526.9,497.4 526,498.3 525.4,497.6 526.3,496.7 
					525.4,495.9 526.1,495.2 527,496 				"/>
			</g>
		</g>
	</g>
	<g>
		
			<radialGradient id="SVGID_52_" cx="-259.4604" cy="661.0166" r="126.6247" fx="-365.2293" fy="661.0166" gradientTransform="matrix(1.2153 0 0 -1.2153 368.3079 1214.3035)" gradientUnits="userSpaceOnUse">
			<stop  offset="0" style="stop-color:#97816F"/>
			<stop  offset="0.4118" style="stop-color:#95806E;stop-opacity:0.7059"/>
			<stop  offset="1" style="stop-color:#8E7968;stop-opacity:0.0078"/>
		</radialGradient>
		<path fill="url(#SVGID_52_)" d="M447.4,267.6c-41.801,54.8-41.801,105.9,0,153.1v2.6c-0.801,0.9-2.4,1.8-4.9,2.7h-19
			c-3.7,0-5.8,1.5-6.3,4.7l2.899,39.8l1,13.3c-166.5,70-295,76.8-385.3,20.7l-1.3-12.8c-1.5-0.7-0.9-22.8,1.9-66.2l5.7-134.9
			l0.7-15.4l0.2-4.1v-0.4l0.1-1.1c5-0.2,8-0.2,8.9-0.1c1.9-0.4,3.4-0.3,4.6,0.4l6.7-2.4l-0.7-0.3c12.1-2.1,16.7-3.8,13.9-5.3
			c-0.3-0.2-0.6-0.3-1.1-0.5h372V267.6L447.4,267.6z"/>
		
			<radialGradient id="SVGID_53_" cx="189.439" cy="662.2666" r="74.35" fx="208.391" fy="662.2666" gradientTransform="matrix(1.2153 0 0 -1.2153 368.3079 1214.3035)" gradientUnits="userSpaceOnUse">
			<stop  offset="0" style="stop-color:#97816F;stop-opacity:0.498"/>
			<stop  offset="1" style="stop-color:#8E7968;stop-opacity:0.0078"/>
		</radialGradient>
		<path fill="url(#SVGID_53_)" d="M447.4,423.4c0.8-0.9,0.8-1.801,0-2.601c-41.801-47.3-41.801-98.3,0-153.1
			c1.6-2.1,3.199-4.1,4.899-6.2h126.2l1.2,5.6c0.6,0.2,1,0.6,1.399,1.2l8.301-0.2l0.3,0.9c0.2,0.4,0.3,0.7,0.3,1l-0.1-0.1l0.1,0.4
			l1.3,20.4l3,44.6l5,84.9c-0.2,3.8-3,5.8-8.399,6H447.4h-4.9C444.9,425.1,446.5,424.3,447.4,423.4z"/>
	</g>
	<g>
		<path fill="#BDB9A8" d="M42.1,290.6h549.1l3,44.6l3.8,63.6l1.3,21.3c-0.2,3.801-3,5.801-8.399,6H423.5c-3.7,0-5.8,1.5-6.3,4.7
			l3,39.8H34.7l2.9-71.699L42.1,290.6z"/>
		<path fill="#BDB9A8" d="M42.1,290.6h549.1l3,44.6l3.8,63.6l1.3,21.3c-0.2,3.801-3,5.801-8.399,6H423.5c-3.7,0-5.8,1.5-6.3,4.7
			l3,39.8H34.7l2.9-71.699L42.1,290.6z"/>
		<path fill="#928D74" d="M35.6,503.3H420l-2.3,34.4c-0.601,4-3.101,5.8-7.4,5.5H44.9c-3.9-0.9-6-2.9-6.3-6l-0.9-9.601L35.6,503.3z"
			/>
		<path fill="#928D74" d="M35.6,503.3H420l-2.3,34.4c-0.601,4-3.101,5.8-7.4,5.5H44.9c-3.9-0.9-6-2.9-6.3-6l-0.9-9.601L35.6,503.3z"
			/>
		
			<linearGradient id="SVGID_54_" gradientUnits="userSpaceOnUse" x1="574.8838" y1="463.7197" x2="537.6631" y2="448.859" gradientTransform="matrix(1 0 0 -1 4 695)">
			<stop  offset="0" style="stop-color:#383330"/>
			<stop  offset="0.2196" style="stop-color:#97816F"/>
			<stop  offset="1" style="stop-color:#97816F"/>
		</linearGradient>
		<path fill="url(#SVGID_54_)" d="M540.2,261.4l-12.4-50.6h32.7c3.7-0.1,6.5,1.4,8.3,4.6c0.101,0.2,0.2,0.4,0.3,0.6l17.7,45.4
			l2.2,5.6l0.3,1l-8.3,0.3c-0.4-0.7-0.8-1.1-1.4-1.3l-1.1-5.6H540.2z"/>
		
			<linearGradient id="SVGID_55_" gradientUnits="userSpaceOnUse" x1="574.8838" y1="463.7197" x2="537.6631" y2="448.859" gradientTransform="matrix(1 0 0 -1 4 695)">
			<stop  offset="0" style="stop-color:#383330"/>
			<stop  offset="0.2196" style="stop-color:#97816F"/>
			<stop  offset="1" style="stop-color:#97816F"/>
		</linearGradient>
		<path fill="url(#SVGID_55_)" d="M540.2,261.4l-12.4-50.6h32.7c3.7-0.1,6.5,1.4,8.3,4.6c0.101,0.2,0.2,0.4,0.3,0.6l17.7,45.4
			l2.2,5.6l0.3,1l-8.3,0.3c-0.4-0.7-0.8-1.1-1.4-1.3l-1.1-5.6H540.2z"/>
		
			<linearGradient id="SVGID_56_" gradientUnits="userSpaceOnUse" x1="41.3999" y1="458.9004" x2="582.6999" y2="458.9004" gradientTransform="matrix(1 0 0 -1 4 695)">
			<stop  offset="0" style="stop-color:#97816F"/>
			<stop  offset="1" style="stop-color:#97816F"/>
		</linearGradient>
		<polygon fill="url(#SVGID_56_)" points="540.2,261.4 100.5,261.4 112.1,210.8 370.7,210.8 527.8,210.8 		"/>
		
			<linearGradient id="SVGID_57_" gradientUnits="userSpaceOnUse" x1="41.3999" y1="458.9004" x2="582.6999" y2="458.9004" gradientTransform="matrix(1 0 0 -1 4 695)">
			<stop  offset="0" style="stop-color:#97816F"/>
			<stop  offset="1" style="stop-color:#97816F"/>
		</linearGradient>
		<polygon fill="url(#SVGID_57_)" points="540.2,261.4 100.5,261.4 112.1,210.8 370.7,210.8 527.8,210.8 		"/>
		
			<linearGradient id="SVGID_58_" gradientUnits="userSpaceOnUse" x1="312.6504" y1="435.4375" x2="312.6504" y2="412.2625" gradientTransform="matrix(1 0 0 -1 4 695)">
			<stop  offset="0" style="stop-color:#97816F"/>
			<stop  offset="0.3804" style="stop-color:#97816F"/>
			<stop  offset="0.5412" style="stop-color:#CDC4BC"/>
			<stop  offset="0.702" style="stop-color:#BCB3A3"/>
			<stop  offset="1" style="stop-color:#BDB9A8"/>
		</linearGradient>
		<path fill="url(#SVGID_58_)" d="M591.2,290.6H42.1l0.7-15.5l0.1-4l0,0v-0.5v-0.5c0.3,1,2.1,1.3,5.4,0.8c1.8-1,3-1.5,3.6-1.5
			c1.9-0.4,3.4-0.3,4.6,0.5l6.7-2.5l-0.6-0.3c12.1-2.1,16.7-3.8,13.9-5.3c-0.3-0.2-0.7-0.3-1.1-0.5h25.1h439.8h38.3l1.101,5.6
			c0.6,0.2,1,0.6,1.399,1.3l8.301-0.3l0.3,0.9c0.2,0.4,0.3,0.7,0.3,1v-0.1v0.5L591.2,290.6z M43.4,267.7l-0.3,1.3
			c-0.1,0-0.1,0.1-0.1,0.1v-0.2l0.1,0.1v-0.1c-0.1,0-0.1,0,0,0l0,0c0-0.1,0-0.2,0-0.3s0-0.2,0.1-0.2v-0.1v-0.1l0,0
			c0-0.1,0-0.1,0-0.1v-0.2C43.3,267.8,43.3,267.7,43.4,267.7z"/>
		
			<linearGradient id="SVGID_59_" gradientUnits="userSpaceOnUse" x1="312.6504" y1="435.4375" x2="312.6504" y2="412.2625" gradientTransform="matrix(1 0 0 -1 4 695)">
			<stop  offset="0" style="stop-color:#97816F"/>
			<stop  offset="0.3804" style="stop-color:#97816F"/>
			<stop  offset="0.5412" style="stop-color:#CDC4BC"/>
			<stop  offset="0.702" style="stop-color:#BCB3A3"/>
			<stop  offset="1" style="stop-color:#BDB9A8"/>
		</linearGradient>
		<path fill="url(#SVGID_59_)" d="M591.2,290.6H42.1l0.7-15.5l0.1-4l0,0v-0.5v-0.5c0.3,1,2.1,1.3,5.4,0.8c1.8-1,3-1.5,3.6-1.5
			c1.9-0.4,3.4-0.3,4.6,0.5l6.7-2.5l-0.6-0.3c12.1-2.1,16.7-3.8,13.9-5.3c-0.3-0.2-0.7-0.3-1.1-0.5h25.1h439.8h38.3l1.101,5.6
			c0.6,0.2,1,0.6,1.399,1.3l8.301-0.3l0.3,0.9c0.2,0.4,0.3,0.7,0.3,1v-0.1v0.5L591.2,290.6z M43.4,267.7l-0.3,1.3
			c-0.1,0-0.1,0.1-0.1,0.1v-0.2l0.1,0.1v-0.1c-0.1,0-0.1,0,0,0l0,0c0-0.1,0-0.2,0-0.3s0-0.2,0.1-0.2v-0.1v-0.1l0,0
			c0-0.1,0-0.1,0-0.1v-0.2C43.3,267.8,43.3,267.7,43.4,267.7z"/>
		
			<linearGradient id="SVGID_60_" gradientUnits="userSpaceOnUse" x1="50.6113" y1="461.8047" x2="90.707" y2="448.7665" gradientTransform="matrix(1 0 0 -1 4 695)">
			<stop  offset="0" style="stop-color:#6B5C4F"/>
			<stop  offset="0.0549" style="stop-color:#97816F"/>
			<stop  offset="0.1176" style="stop-color:#BBA18B"/>
			<stop  offset="0.349" style="stop-color:#97816F"/>
			<stop  offset="1" style="stop-color:#97816F"/>
		</linearGradient>
		<path fill="url(#SVGID_60_)" d="M43,269.1c0-0.1,0-0.1,0.1-0.1l0.3-1.3c0-0.1,0-0.2,0-0.2s0,0,0.1,0c0-0.1,0-0.2,0.1-0.3V267
			l0.2-0.4l0.2-0.8l0.3-0.8l0.3-0.9V264l0.3-0.9l0.6-1.9l0.6-1.6L61.3,213c0.9-1.4,2.3-2.1,4.1-2.1c1.8-0.1,2.8-0.2,3-0.2h43.8
			l-11.7,50.6H75.4c0.4,0.2,0.8,0.3,1.1,0.5c2.8,1.5-1.8,3.2-13.9,5.3l0.6,0.3l-6.7,2.5c-1.2-0.7-2.7-0.9-4.6-0.5
			c-0.6-0.1-1.8,0.4-3.6,1.5c-3.3,0.5-5.1,0.2-5.4-0.8v-0.6v-0.4H43z"/>
		
			<linearGradient id="SVGID_61_" gradientUnits="userSpaceOnUse" x1="50.6113" y1="461.8047" x2="90.707" y2="448.7665" gradientTransform="matrix(1 0 0 -1 4 695)">
			<stop  offset="0" style="stop-color:#6B5C4F"/>
			<stop  offset="0.0549" style="stop-color:#97816F"/>
			<stop  offset="0.1176" style="stop-color:#BBA18B"/>
			<stop  offset="0.349" style="stop-color:#97816F"/>
			<stop  offset="1" style="stop-color:#97816F"/>
		</linearGradient>
		<path fill="url(#SVGID_61_)" d="M43,269.1c0-0.1,0-0.1,0.1-0.1l0.3-1.3c0-0.1,0-0.2,0-0.2s0,0,0.1,0c0-0.1,0-0.2,0.1-0.3V267
			l0.2-0.4l0.2-0.8l0.3-0.8l0.3-0.9V264l0.3-0.9l0.6-1.9l0.6-1.6L61.3,213c0.9-1.4,2.3-2.1,4.1-2.1c1.8-0.1,2.8-0.2,3-0.2h43.8
			l-11.7,50.6H75.4c0.4,0.2,0.8,0.3,1.1,0.5c2.8,1.5-1.8,3.2-13.9,5.3l0.6,0.3l-6.7,2.5c-1.2-0.7-2.7-0.9-4.6-0.5
			c-0.6-0.1-1.8,0.4-3.6,1.5c-3.3,0.5-5.1,0.2-5.4-0.8v-0.6v-0.4H43z"/>
		
			<linearGradient id="SVGID_62_" gradientUnits="userSpaceOnUse" x1="38.6826" y1="425.1191" x2="78.7448" y2="412.0917" gradientTransform="matrix(1 0 0 -1 4 695)">
			<stop  offset="0" style="stop-color:#6B5C4F"/>
			<stop  offset="0.0353" style="stop-color:#97816F"/>
			<stop  offset="0.0706" style="stop-color:#BFAC9C"/>
			<stop  offset="0.1529" style="stop-color:#97816F"/>
			<stop  offset="1" style="stop-color:#97816F"/>
		</linearGradient>
		<path fill="url(#SVGID_62_)" d="M43,271.1L43,271.1L43,271.1L43,271.1z M43.1,268.9L43.1,268.9L43.1,268.9L43.1,268.9z"/>
		
			<linearGradient id="SVGID_63_" gradientUnits="userSpaceOnUse" x1="38.6826" y1="425.1191" x2="78.7448" y2="412.0917" gradientTransform="matrix(1 0 0 -1 4 695)">
			<stop  offset="0" style="stop-color:#6B5C4F"/>
			<stop  offset="0.0353" style="stop-color:#97816F"/>
			<stop  offset="0.0706" style="stop-color:#BFAC9C"/>
			<stop  offset="0.1529" style="stop-color:#97816F"/>
			<stop  offset="1" style="stop-color:#97816F"/>
		</linearGradient>
		<path fill="url(#SVGID_63_)" d="M43,271.1L43,271.1L43,271.1L43,271.1z M43.1,268.9L43.1,268.9L43.1,268.9L43.1,268.9z"/>
		
			<linearGradient id="SVGID_64_" gradientUnits="userSpaceOnUse" x1="223.6499" y1="222.6377" x2="223.6499" y2="193.4627" gradientTransform="matrix(1 0 0 -1 4 695)">
			<stop  offset="0" style="stop-color:#BDB9A8"/>
			<stop  offset="0.2745" style="stop-color:#BDB9A8"/>
			<stop  offset="0.3804" style="stop-color:#CBC8B8"/>
			<stop  offset="0.4471" style="stop-color:#ABA791"/>
			<stop  offset="0.5529" style="stop-color:#928D74"/>
			<stop  offset="1" style="stop-color:#928D74"/>
		</linearGradient>
		<polygon fill="url(#SVGID_64_)" points="34.7,470.5 420.2,470.5 421.3,486.1 420,503.3 35.6,503.3 34.2,488.2 34.1,486.6 
			34,486.1 		"/>
		
			<linearGradient id="SVGID_65_" gradientUnits="userSpaceOnUse" x1="223.6499" y1="222.6377" x2="223.6499" y2="193.4627" gradientTransform="matrix(1 0 0 -1 4 695)">
			<stop  offset="0" style="stop-color:#BDB9A8"/>
			<stop  offset="0.2745" style="stop-color:#BDB9A8"/>
			<stop  offset="0.3804" style="stop-color:#CBC8B8"/>
			<stop  offset="0.4471" style="stop-color:#ABA791"/>
			<stop  offset="0.5529" style="stop-color:#928D74"/>
			<stop  offset="1" style="stop-color:#928D74"/>
		</linearGradient>
		<polygon fill="url(#SVGID_65_)" points="34.7,470.5 420.2,470.5 421.3,486.1 420,503.3 35.6,503.3 34.2,488.2 34.1,486.6 
			34,486.1 		"/>
	</g>
	<g>
		<g>
			<path fill="#533D2C" d="M62.5,290.6h330.7l9.7,178.1H401.3l-9.7-176.8H85.4C77.8,291.5,70.1,291.1,62.5,290.6z"/>
			
				<radialGradient id="SVGID_66_" cx="-255.0605" cy="628.0166" r="305.65" gradientTransform="matrix(1.2153 0 0 -1.2153 368.3079 1214.3035)" gradientUnits="userSpaceOnUse">
				<stop  offset="0" style="stop-color:#3E2C20"/>
				<stop  offset="1" style="stop-color:#70543D"/>
			</radialGradient>
			<path fill="url(#SVGID_66_)" d="M59.6,290.4c1,0.1,1.9,0.1,2.9,0.2c7.6,0.5,15.2,0.9,22.8,1.3h306.3l9.7,176.8H54.6l1.2-41.601
				l3.8-135.2v-1.3V290.4z"/>
			
				<linearGradient id="SVGID_67_" gradientUnits="userSpaceOnUse" x1="-253.7402" y1="751.1865" x2="-51.0902" y2="548.5365" gradientTransform="matrix(1.2153 0 0 -1.2153 368.3079 1214.3035)">
				<stop  offset="0" style="stop-color:#BDB6AF"/>
				<stop  offset="0.3922" style="stop-color:#5B5650"/>
				<stop  offset="0.6392" style="stop-color:#DBD3C9"/>
				<stop  offset="1" style="stop-color:#E7E1DB"/>
			</linearGradient>
			<polygon fill="url(#SVGID_67_)" points="402.9,468.7 402.9,470.5 53.1,470.2 54.3,428.7 58.1,291.9 59.6,290.4 59.6,290.6 
				59.6,291.9 55.8,427.1 54.6,468.7 401.4,468.7 			"/>
		</g>
		<g>
			<line fill="none" x1="394.2" y1="294.9" x2="403.4" y2="462.7"/>
			<line fill="none" x1="389.6" y1="289.4" x2="70.5" y2="289.4"/>
		</g>
	</g>
	
		<radialGradient id="SVGID_68_" cx="-204.624" cy="826.2988" r="35.8879" gradientTransform="matrix(1.2082 -0.131 -0.2473 -2.2805 568.0236 2085.7505)" gradientUnits="userSpaceOnUse">
		<stop  offset="0" style="stop-color:#FFFFFF;stop-opacity:0.3333"/>
		<stop  offset="0.3882" style="stop-color:#FFFFFF;stop-opacity:0.1255"/>
		<stop  offset="0.7137" style="stop-color:#FFFFFF;stop-opacity:0.0627"/>
		<stop  offset="1" style="stop-color:#FFFFFF;stop-opacity:0"/>
	</radialGradient>
	<path fill="url(#SVGID_68_)" d="M73.5,210.4h83.1c0.8,4.3,1.5,8.7,2,13.2c2.1,19,0.8,35.9-3.8,50.8H85.3c-5.6-12-9.2-25.9-11-41.7
		C73.5,224.9,73.2,217.5,73.5,210.4z"/>
	
		<radialGradient id="SVGID_69_" cx="-165.3784" cy="846.1768" r="30.2513" gradientTransform="matrix(1.2082 -0.1311 -0.1892 -1.7436 524.0508 1664.1472)" gradientUnits="userSpaceOnUse">
		<stop  offset="0" style="stop-color:#FFFFFF;stop-opacity:0.3294"/>
		<stop  offset="0.3882" style="stop-color:#FFFFFF;stop-opacity:0.1216"/>
		<stop  offset="0.7137" style="stop-color:#FFFFFF;stop-opacity:0.0627"/>
		<stop  offset="1" style="stop-color:#FFFFFF;stop-opacity:0"/>
	</radialGradient>
	<path fill="url(#SVGID_69_)" d="M128.3,211.2H200c0.6,12.3-1.6,23.2-6.9,32.8c-5.8,10.8-13.7,16.8-23.5,17.8
		c-9.8,1.1-18.7-3.1-26.7-12.3c-8-9.3-12.8-21-14.3-35.2C128.5,213.3,128.4,212.2,128.3,211.2z"/>
	
		<radialGradient id="SVGID_70_" cx="-106.1846" cy="839.2158" r="18.6635" gradientTransform="matrix(1.1077 -0.1311 -1.797 -2.0528 1829.548 1921.4564)" gradientUnits="userSpaceOnUse">
		<stop  offset="0" style="stop-color:#FFFFFF;stop-opacity:0.3255"/>
		<stop  offset="0.3882" style="stop-color:#FFFFFF;stop-opacity:0.1176"/>
		<stop  offset="0.7137" style="stop-color:#FFFFFF;stop-opacity:0.0627"/>
		<stop  offset="1" style="stop-color:#FFFFFF;stop-opacity:0"/>
	</radialGradient>
	<path fill="url(#SVGID_70_)" d="M241.1,237.3c2.5,7.8,1,12-4.6,12.6s-13.5-2.4-23.9-9.2c-10.3-6.8-19.9-15.4-28.9-25.7
		c-1.4-1.6-2.7-3.1-3.9-4.6H224C233,220.6,238.7,229.6,241.1,237.3z"/>
	<g>
		<g>
			
				<linearGradient id="SVGID_71_" gradientUnits="userSpaceOnUse" x1="141.5264" y1="712.3477" x2="119.6729" y2="725.3919" gradientTransform="matrix(1.2153 0 0 -1.2153 368.3079 1214.3035)">
				<stop  offset="0" style="stop-color:#B8B7A2"/>
				<stop  offset="0.4706" style="stop-color:#FFFFFF"/>
				<stop  offset="1" style="stop-color:#B8B7A2"/>
			</linearGradient>
			<path fill="url(#SVGID_71_)" d="M534.2,371.7l-3.601-53.8h-60.5l1.801-1.2h59.8c0,0.3,0,0.7,0.1,1v0.1l4,51.8L534.2,371.7z"/>
			<path fill="#57503E" d="M470.1,317.9h60.5l3.601,53.8H473.1L470.1,317.9z M473.7,321.2l2.6,47.1h54.3l-3.199-47.1H473.7z"/>
			<polygon fill="#B8B7A2" points="473.7,321.2 527.4,321.2 530.6,368.3 476.3,368.3 			"/>
		</g>
		<g>
			
				<radialGradient id="SVGID_72_" cx="132.9395" cy="735.3008" r="2.7998" gradientTransform="matrix(1.2153 0 0 -1.2642 368.3079 1248.5356)" gradientUnits="userSpaceOnUse">
				<stop  offset="0" style="stop-color:#FFFFFF"/>
				<stop  offset="0.1765" style="stop-color:#FFFFFF"/>
				<stop  offset="0.3059" style="stop-color:#FFFFFF;stop-opacity:0.4235"/>
				<stop  offset="0.4902" style="stop-color:#FFFFFF;stop-opacity:0.2314"/>
				<stop  offset="0.651" style="stop-color:#FFFFFF;stop-opacity:0.0824"/>
				<stop  offset="1" style="stop-color:#FFFFFF;stop-opacity:0"/>
			</radialGradient>
			<path fill="url(#SVGID_72_)" d="M529.9,315.5c0.899,0,1.699,0.4,2.399,1.1c0.7,0.601,1,1.4,1,2.4s-0.3,1.8-1,2.5s-1.5,1-2.399,1
				c-0.9,0-1.7-0.3-2.4-1c-0.6-0.6-0.9-1.5-0.9-2.5c0-0.9,0.301-1.7,0.9-2.4C528.2,315.9,529,315.5,529.9,315.5z"/>
		</g>
		<g>
			<path fill="#1A1B15" d="M501.6,327.9c5.101,0,9.601,1.8,13.4,5.399c1.1,1,2,2,2.8,3.2c2.101,2.9,3.2,6.2,3.4,9.8
				c0.3,5.101-1.2,9.5-4.601,13.101c-1.5,1.5-3,2.8-4.699,3.6c-2.4,1.2-5.101,1.8-8,1.8c-5.101,0-9.601-1.8-13.4-5.5
				c-3.8-3.6-5.9-8-6.1-13.1c-0.2-3.601,0.5-6.9,2.199-9.8c0.601-1.2,1.5-2.2,2.4-3.2c1.8-1.9,3.8-3.3,6-4.101
				C496.9,328.3,499.1,327.9,501.6,327.9z"/>
			
				<linearGradient id="SVGID_73_" gradientUnits="userSpaceOnUse" x1="127.7295" y1="711.0938" x2="106.1831" y2="723.9747" gradientTransform="matrix(1.2153 0 0 -1.2153 368.3079 1214.3035)">
				<stop  offset="0" style="stop-color:#B8B7A2"/>
				<stop  offset="0.4706" style="stop-color:#FFFFFF"/>
				<stop  offset="1" style="stop-color:#B8B7A2"/>
			</linearGradient>
			<path fill="url(#SVGID_73_)" d="M516.9,359.8L516.6,359.4c3.4-3.601,4.9-8,4.601-13.101c-0.2-3.6-1.3-6.899-3.4-9.8
				c-0.8-1.2-1.7-2.2-2.8-3.2c-3.8-3.6-8.3-5.399-13.4-5.399v-0.5c0.4,0,0.801-0.101,1.2-0.101c5.101,0,9.601,1.8,13.4,5.3
				c1.3,1.2,2.3,2.5,3.2,3.801c1.8,2.8,2.8,5.899,3,9.3c0.3,5.1-1.301,9.5-4.7,13.1C517.5,359.2,517.2,359.5,516.9,359.8z"/>
			
				<linearGradient id="SVGID_74_" gradientUnits="userSpaceOnUse" x1="109.6641" y1="703.2441" x2="126.8301" y2="703.2441" gradientTransform="matrix(1.2153 0 0 -1.2153 368.3079 1214.3035)">
				<stop  offset="0" style="stop-color:#B8B7A2"/>
				<stop  offset="0.4706" style="stop-color:#FFFFFF"/>
				<stop  offset="1" style="stop-color:#B8B7A2"/>
			</linearGradient>
			<polygon fill="url(#SVGID_74_)" points="516.6,359.4 516.9,359.8 516.9,359.9 			"/>
		</g>
		<g>
			<path fill="#22221A" fill-opacity="0.6431" d="M497.8,323.2L497.4,326h-0.7l-1-2.8l0.399,2.8H495.4l-0.5-3.6h1.1l1,2.399
				l0.3-2.399h1.101l0.5,3.6h-0.7L497.8,323.2z M500.6,325.4h2v0.6H499.9l-0.5-3.6h2.699l0.101,0.6h-1.9l0.101,0.8h1.8l0.1,0.601
				h-1.8L500.6,325.4z M491.1,326l0.9-3.6h0.7l1.899,3.6h-0.8l-0.399-0.8h-1.5l-0.2,0.8H491.1z M490.6,326H488l-0.5-3.5h0.7l0.5,2.9
				h1.8v0.6H490.6z M493.2,324.6l-0.7-1.3l-0.3,1.3H493.2z M484.7,326l-0.5-3.6h2.399l0.101,0.6H485l0.1,0.9h1.5l0.101,0.6h-1.5
				l0.2,1.5H484.7z M518,322.4l-0.4,3.6H516.9l-1-2.7l-0.4,2.7h-0.8l-1.3-3.6h0.699l0.9,2.5l0.3-2.5h0.9l1,2.5l0.2-2.5H518z
				 M509,322.4l0.5,3.6h-0.7l-0.5-3.6H509z M513.2,326h-2.7l-0.5-3.6h2.7l0.1,0.6H510.9l0.1,0.8h1.8l0.101,0.601H511l0.2,1h2V326z
				 M506.9,322.4h0.8l-0.8,3.6H506.1l-1.8-3.6h0.8l1.301,2.699L506.9,322.4z"/>
		</g>
	</g>
	<g>
		<path fill-opacity="0.298" d="M596.5,424.5c-1.6,1.3-3.9,1.8-6.8,1.6h-81.5h-61.7h-4.9h-19c-0.199,0-0.399,0-0.5,0
			c-2.8,0.2-4.399,1.801-4.8,4.7c0,0.101,0.2,3,0.7,8.8c4.3,51,3.3,49.2-2.9-5.3c-0.3-2.8,0.2-5.1,1.4-6.8s2.6-2.7,4.4-3H596.5
			L596.5,424.5z"/>
		
			<radialGradient id="SVGID_75_" cx="-260.4604" cy="660.4658" r="126.6249" fx="-367.7191" fy="660.4658" gradientTransform="matrix(1.2153 0 0 -1.2153 368.3079 1214.3035)" gradientUnits="userSpaceOnUse">
			<stop  offset="0" style="stop-color:#97816F"/>
			<stop  offset="0.4118" style="stop-color:#95806E;stop-opacity:0.7059"/>
			<stop  offset="1" style="stop-color:#8E7968;stop-opacity:0.0078"/>
		</radialGradient>
		<polygon fill="url(#SVGID_75_)" points="397.3,544.1 379.3,504 409.3,544.1 		"/>
	</g>
	<g>
		
			<linearGradient id="SVGID_76_" gradientUnits="userSpaceOnUse" x1="-271.8057" y1="691.4229" x2="-266.2555" y2="691.1993" gradientTransform="matrix(1.2153 0 0 -1.2153 368.3079 1214.3035)">
			<stop  offset="0" style="stop-color:#000000;stop-opacity:0.0667"/>
			<stop  offset="0.2588" style="stop-color:#BEBEBE;stop-opacity:0.1333"/>
			<stop  offset="0.4706" style="stop-color:#FFFFFF;stop-opacity:0.298"/>
			<stop  offset="1" style="stop-color:#FFFFFF;stop-opacity:0"/>
		</linearGradient>
		<path fill="url(#SVGID_76_)" d="M41.6,290.6l0.7-15.4l0.2-4.1v-0.4l0.1-1.1c5-0.2,8-0.2,8.9-0.1c1.9-0.4,3.4-0.3,4.6,0.4l6.7-2.4
			l-0.7-0.3c2.6-0.4,4.8-0.9,6.7-1.3v213.7c-24.1,4.7-35.6,5.101-34.4,1.2L41.6,290.6z"/>
	</g>
	<g>
		
			<radialGradient id="SVGID_77_" cx="-140.5293" cy="2293.9971" r="133.5184" gradientTransform="matrix(1.2153 -0.0111 -2.330856e-004 -0.0255 368.4333 540.7338)" gradientUnits="userSpaceOnUse">
			<stop  offset="0" style="stop-color:#FFFFFF"/>
			<stop  offset="0.1765" style="stop-color:#FFFFFF"/>
			<stop  offset="0.3059" style="stop-color:#FFFFFF;stop-opacity:0.4235"/>
			<stop  offset="0.4902" style="stop-color:#FFFFFF;stop-opacity:0.2314"/>
			<stop  offset="0.651" style="stop-color:#FFFFFF;stop-opacity:0.0824"/>
			<stop  offset="1" style="stop-color:#FFFFFF;stop-opacity:0"/>
		</radialGradient>
		<path fill="url(#SVGID_77_)" d="M197.2,487.2c-43.5,0.399-81.3,0.399-113.4,0c-29.7-0.3-44.6-1-44.6-1.9
			c0-0.899,14.9-1.8,44.6-2.7c32-1,69.8-1.699,113.3-2.1s81.3-0.4,113.4,0c32,0.3,48.1,0.9,48.1,1.8c0,1-16,1.9-48.1,2.9
			C278.4,486.1,240.7,486.8,197.2,487.2z"/>
	</g>
	<g>
		
			<radialGradient id="SVGID_78_" cx="-49.0811" cy="521.7637" r="2.1356" gradientTransform="matrix(0.1209 -1.2093 -38.9679 -2.845413e-004 20843.1621 364.0386)" gradientUnits="userSpaceOnUse">
			<stop  offset="0" style="stop-color:#FFFFFF"/>
			<stop  offset="0.1765" style="stop-color:#FFFFFF"/>
			<stop  offset="0.3059" style="stop-color:#FFFFFF;stop-opacity:0.4235"/>
			<stop  offset="0.4902" style="stop-color:#FFFFFF;stop-opacity:0.2314"/>
			<stop  offset="0.651" style="stop-color:#FFFFFF;stop-opacity:0.0824"/>
			<stop  offset="1" style="stop-color:#FFFFFF;stop-opacity:0"/>
		</radialGradient>
		<path fill="url(#SVGID_78_)" d="M563.2,425.1c-15.3,0.4-34.7,0.7-58.2,0.7c-22.3,0-41.1-0.2-56.3-0.7c-16.4-0.5-24.5-1.1-24.4-1.8
			c0.101-0.7,8.3-1.3,24.8-1.8c15.301-0.5,34.101-0.7,56.5-0.7c23.5,0,42.9,0.2,58.101,0.7c16.399,0.5,24.5,1.1,24.399,1.8
			C587.9,423.9,579.6,424.5,563.2,425.1z"/>
	</g>
	<g>
		
			<radialGradient id="SVGID_79_" cx="77.1885" cy="438.5186" r="2.0103" gradientTransform="matrix(0.1209 -1.2093 -1.436 -3.023251e-004 1208.8817 364.0769)" gradientUnits="userSpaceOnUse">
			<stop  offset="0" style="stop-color:#FFFFFF"/>
			<stop  offset="0.1765" style="stop-color:#FFFFFF"/>
			<stop  offset="0.3059" style="stop-color:#FFFFFF;stop-opacity:0.4235"/>
			<stop  offset="0.4902" style="stop-color:#FFFFFF;stop-opacity:0.2314"/>
			<stop  offset="0.651" style="stop-color:#FFFFFF;stop-opacity:0.0824"/>
			<stop  offset="1" style="stop-color:#FFFFFF;stop-opacity:0"/>
		</radialGradient>
		<path fill="url(#SVGID_79_)" d="M590.7,268.9c0.5,0.5,0.7,1.1,0.7,1.7c-0.101,0.6-0.4,1.2-1,1.7c-0.601,0.4-1.301,0.7-2.101,0.7
			s-1.399-0.2-1.899-0.7s-0.801-1.1-0.7-1.7c0.1-0.6,0.399-1.2,1-1.7c0.6-0.5,1.2-0.7,2-0.7C589.6,268.2,590.2,268.4,590.7,268.9z"
			/>
	</g>
	
		<radialGradient id="SVGID_80_" cx="38.2891" cy="635.5166" r="3.1501" gradientTransform="matrix(1.2153 0 0 -1.2153 372.1575 1257.7039)" gradientUnits="userSpaceOnUse">
		<stop  offset="0" style="stop-color:#FFFFFF;stop-opacity:0.902"/>
		<stop  offset="0.4784" style="stop-color:#FFFFFF;stop-opacity:0.2314"/>
		<stop  offset="0.7137" style="stop-color:#FFFFFF;stop-opacity:0.0627"/>
		<stop  offset="1" style="stop-color:#FFFFFF;stop-opacity:0"/>
	</radialGradient>
	<path fill="url(#SVGID_80_)" d="M418.7,481.6c1.1,0,1.899,0.4,2.7,1.101c0.8,0.8,1.199,1.7,1.199,2.7S422.2,487.3,421.4,488
		c-0.7,0.8-1.601,1.2-2.7,1.2c-1,0-1.9-0.4-2.7-1.2c-0.7-0.7-1.1-1.6-1.1-2.7c0-1,0.399-1.899,1.1-2.7
		C416.8,482,417.7,481.6,418.7,481.6z"/>
	
		<radialGradient id="SVGID_81_" cx="38.2896" cy="635.5156" r="3.1499" gradientTransform="matrix(1.2153 0 0 -1.2153 -10.9919 1255.9539)" gradientUnits="userSpaceOnUse">
		<stop  offset="0" style="stop-color:#FFFFFF;stop-opacity:0.902"/>
		<stop  offset="0.4784" style="stop-color:#FFFFFF;stop-opacity:0.2314"/>
		<stop  offset="0.7137" style="stop-color:#FFFFFF;stop-opacity:0.0627"/>
		<stop  offset="1" style="stop-color:#FFFFFF;stop-opacity:0"/>
	</radialGradient>
	<path fill="url(#SVGID_81_)" d="M35.5,479.8c1.1,0,1.9,0.4,2.7,1.101c0.8,0.8,1.2,1.699,1.2,2.699s-0.4,1.9-1.2,2.601
		c-0.7,0.8-1.6,1.2-2.7,1.2c-1,0-1.9-0.4-2.7-1.2c-0.7-0.7-1.1-1.601-1.1-2.7c0-1,0.4-1.9,1.1-2.7C33.6,480.2,34.5,479.8,35.5,479.8
		z"/>
	
		<radialGradient id="SVGID_82_" cx="42.1235" cy="1632.4863" r="132.3822" gradientTransform="matrix(1.2153 0 0 -0.0517 369.6575 357.1479)" gradientUnits="userSpaceOnUse">
		<stop  offset="0" style="stop-color:#FFFFFF"/>
		<stop  offset="0" style="stop-color:#FFFFFF"/>
		<stop  offset="0.0039" style="stop-color:#FFFFFF"/>
		<stop  offset="0.2784" style="stop-color:#FFFFFF;stop-opacity:0.4902"/>
		<stop  offset="0.5412" style="stop-color:#FFFFFF;stop-opacity:0.1059"/>
		<stop  offset="0.7961" style="stop-color:#FFFFFF;stop-opacity:0.0863"/>
		<stop  offset="1" style="stop-color:#FFFFFF;stop-opacity:0"/>
	</radialGradient>
	<path fill="url(#SVGID_82_)" d="M530.6,268c30.4,1.3,45.601,2.9,45.601,4.7c0,1.8-15.2,3.4-45.601,4.7
		c-30.1,1.3-66.699,1.9-109.699,1.9s-79.7-0.6-110.2-1.9c-30.1-1.3-45.2-2.9-45.2-4.7c0-1.8,15.1-3.4,45.2-4.7
		c30.4-1.3,67.1-1.9,110.2-1.9C463.9,266,500.5,266.7,530.6,268z"/>
</g>
<g>
	<g>
		<g>
			
				<linearGradient id="SVGID_83_" gradientUnits="userSpaceOnUse" x1="112.7944" y1="591.8633" x2="112.7944" y2="581.2575" gradientTransform="matrix(1.2153 0 0 -1.2153 368.3079 1214.3035)">
				<stop  offset="0" style="stop-color:#000000"/>
				<stop  offset="0.7098" style="stop-color:#000000"/>
				<stop  offset="1" style="stop-color:#000000;stop-opacity:0"/>
			</linearGradient>
			<path fill="url(#SVGID_83_)" d="M502.505,497.365c0.792-1.296,1.807-1.944,2.938-1.944c1.243,0,2.147,0.648,3.05,1.944
				c0.792,1.134,1.244,2.591,1.244,4.372c0,1.458-0.226,2.59-0.791,3.724c0,0-0.113,0-0.113,0.163
				c-0.113,0.161-0.226,0.322-0.452,0.647c-0.79,1.133-1.808,1.781-3.051,1.781c-1.242,0-2.147-0.648-2.938-1.781
				c-0.226-0.325-0.451-0.647-0.563-1.135l-0.115-0.161l-0.111-0.161c0,0-0.113-0.163-0.113-0.324
				c-0.227-0.811-0.451-1.783-0.451-2.593C501.148,499.956,501.602,498.499,502.505,497.365z M508.267,497.851
				c-0.904-0.972-1.808-1.457-2.824-1.457s-1.808,0.485-2.485,1.457c-0.339,0.486-0.679,1.942-0.904,4.047
				c-0.112,0.649,0,1.62,0.226,3.239c1.583,2.916,3.616,3.238,5.988,0.81c0.452-0.646,0.679-1.456,0.679-2.429v-0.162
				C509.284,500.441,509.059,498.66,508.267,497.851z"/>
		</g>
	</g>
	<g>
		
			<path fill="none" stroke="#000000" stroke-width="0.1" stroke-linecap="round" stroke-linejoin="round" stroke-miterlimit="3" stroke-opacity="0.298" d="
			M501.94,501.089c0,0.163,0,0.487,0,0.809c0,0.488,0.112,2.107,0.338,4.858c0.227,3.401,0.34,6.477,0.113,9.393
			c-0.226,2.915-1.13,10.363-2.712,22.346c-1.582,11.822-2.371,22.347-2.371,31.252c0,5.992,0.112,11.822,0.45,17.327"/>
		<path fill="none" d="M497.759,587.234c0.114-0.484,0.339-0.971,0.791-1.455c0.678-0.648,1.469-0.811,2.487-0.811
			c1.016,0,1.807,0.323,2.485,0.811c0.451,0.484,0.789,0.971,0.903,1.619c-0.227-11.66-0.339-20.079-0.227-25.424
			c0.112-6.64,1.243-16.032,3.391-27.853c2.032-11.983,2.712-20.726,2.146-26.393l-0.904-8.098l-0.34-1.133 M504.426,587.398
			c0,0.322,0.113,0.484,0.113,0.81c0,0.161,0,0.322-0.113,0.646c-0.114,0.648-0.339,1.133-0.903,1.62
			c-0.679,0.648-1.47,0.971-2.485,0.971c-1.019,0-1.81-0.322-2.487-0.971c-0.338-0.325-0.564-0.487-0.791-0.811
			c-0.227-0.325-0.227-0.81-0.227-1.295c0-0.324,0.115-0.648,0.227-0.971 M504.426,588.854c0-0.485,0-0.972,0-1.456"/>
	</g>
	<g>
		
			<linearGradient id="SVGID_84_" gradientUnits="userSpaceOnUse" x1="-217.0713" y1="736.7891" x2="-211.0374" y2="736.7891" gradientTransform="matrix(-1.2117 -0.0936 -0.0814 1.2127 301.1309 -369.7448)">
			<stop  offset="0" style="stop-color:#000000;stop-opacity:0.0471"/>
			<stop  offset="1" style="stop-color:#FFFFFF"/>
		</linearGradient>
		<path fill="url(#SVGID_84_)" d="M504.539,496.555c1.017-0.324,1.808-0.161,2.598,0.648c0.68,0.486,1.13,0.971,1.355,1.457
			l0.34,1.133l0.904,8.097c0.565,5.668-0.114,14.413-2.146,26.394c-2.147,11.823-3.278,21.215-3.391,27.854
			c-0.112,5.344-0.112,13.926,0.227,25.424c0,0.484,0,0.97,0,1.458c-0.114,0.646-0.339,1.131-0.903,1.617
			c-0.679,0.648-1.47,0.972-2.485,0.972c-1.019,0-1.81-0.323-2.487-0.972c-0.338-0.323-0.564-0.486-0.791-0.809
			c0-0.163-0.111-0.324-0.111-0.488c-0.339-6.8-0.453-13.114-0.453-19.105c0-9.068,0.791-19.432,2.373-31.252
			c1.581-11.984,2.485-19.432,2.711-22.347c0.227-2.914,0.113-6.152-0.112-9.393c-0.226-2.752-0.338-4.372-0.338-4.856
			c0-0.488,0-0.81,0-0.81v-0.163c0-0.81,0.225-1.62,0.563-2.267C502.844,497.689,503.635,496.879,504.539,496.555z"/>
	</g>
	<g>
		
			<radialGradient id="SVGID_85_" cx="113.4072" cy="573.9365" r="8.7228" gradientTransform="matrix(0.848 0 0 -1.2858 408.5304 1252.6104)" gradientUnits="userSpaceOnUse">
			<stop  offset="0" style="stop-color:#FFFFFF"/>
			<stop  offset="1" style="stop-color:#FFFFFF;stop-opacity:0.0275"/>
		</radialGradient>
		<path fill="url(#SVGID_85_)" d="M505.782,500.928v-0.162c0,0,0-0.162,0.112-0.162h0.112l0.114,0.162
			c1.695,7.609,1.695,16.029-0.114,25.423l-0.112,0.162l-0.112-0.162v-0.162C507.476,516.635,507.476,508.375,505.782,500.928z"/>
	</g>
	<g>
		
			<radialGradient id="SVGID_86_" cx="122.5327" cy="568.6504" r="3.5248" gradientTransform="matrix(0.8424 0.1396 0.3409 -4.7454 209.7148 3194.7446)" gradientUnits="userSpaceOnUse">
			<stop  offset="0" style="stop-color:#FFFFFF"/>
			<stop  offset="0.1765" style="stop-color:#FFFFFF"/>
			<stop  offset="0.3059" style="stop-color:#FFFFFF;stop-opacity:0.4235"/>
			<stop  offset="0.4902" style="stop-color:#FFFFFF;stop-opacity:0.2314"/>
			<stop  offset="0.651" style="stop-color:#FFFFFF;stop-opacity:0.0824"/>
			<stop  offset="1" style="stop-color:#FFFFFF;stop-opacity:0"/>
		</radialGradient>
		<path fill="url(#SVGID_86_)" d="M503.861,524.568c-0.339-3.075-0.339-6.964,0-11.658c0.338-4.535,0.903-8.259,1.694-11.173
			c0.791-3.077,1.581-4.696,2.372-4.534s1.47,1.943,1.809,5.183c0.339,3.075,0.339,6.961,0.112,11.495
			c-0.338,4.697-0.903,8.583-1.694,11.497c-0.792,3.238-1.695,4.697-2.486,4.697C504.765,529.913,504.199,528.131,503.861,524.568z"
			/>
	</g>
	<g>
		
			<radialGradient id="SVGID_87_" cx="119.3101" cy="519.6143" r="2.1052" gradientTransform="matrix(0.8478 -0.0234 0.424 -8.0034 180.7051 4723.2686)" gradientUnits="userSpaceOnUse">
			<stop  offset="0" style="stop-color:#FFFFFF"/>
			<stop  offset="0.1765" style="stop-color:#FFFFFF"/>
			<stop  offset="0.3059" style="stop-color:#FFFFFF;stop-opacity:0.4235"/>
			<stop  offset="0.4902" style="stop-color:#FFFFFF;stop-opacity:0.2314"/>
			<stop  offset="0.651" style="stop-color:#FFFFFF;stop-opacity:0.0824"/>
			<stop  offset="1" style="stop-color:#FFFFFF;stop-opacity:0"/>
		</radialGradient>
		<path fill="url(#SVGID_87_)" d="M500.358,573.471c-0.114-3.075-0.114-6.962,0.113-11.659c0.226-4.533,0.677-8.257,1.13-11.335
			c0.564-3.237,1.017-4.857,1.468-4.857c0.453,0,0.792,1.62,1.018,4.857c0.225,3.078,0.112,6.965-0.113,11.335
			c-0.227,4.697-0.677,8.584-1.13,11.659c-0.565,3.401-1.016,5.021-1.469,5.021C500.923,578.492,500.472,576.872,500.358,573.471z"
			/>
	</g>
	<g>
		
			<radialGradient id="SVGID_88_" cx="120.6763" cy="516.3389" r="3.5211" gradientTransform="matrix(0.8479 -0.021 0.039 -0.7333 379.3751 971.0868)" gradientUnits="userSpaceOnUse">
			<stop  offset="0" style="stop-color:#FFFFFF"/>
			<stop  offset="0.1765" style="stop-color:#FFFFFF"/>
			<stop  offset="0.3059" style="stop-color:#FFFFFF;stop-opacity:0.4235"/>
			<stop  offset="0.4902" style="stop-color:#FFFFFF;stop-opacity:0.2314"/>
			<stop  offset="0.651" style="stop-color:#FFFFFF;stop-opacity:0.0824"/>
			<stop  offset="1" style="stop-color:#FFFFFF;stop-opacity:0"/>
		</radialGradient>
		<path fill="url(#SVGID_88_)" d="M504.765,589.827c0,0.647-0.339,1.457-1.018,1.941c-0.678,0.487-1.355,0.811-2.146,0.811
			c-0.791,0-1.469-0.323-2.034-0.811c-0.565-0.484-0.791-0.972-0.791-1.781c0-0.648,0.339-1.294,0.903-1.779
			c0.679-0.487,1.357-0.81,2.148-0.81c0.79,0,1.469,0.322,2.033,0.81C504.539,588.53,504.765,589.178,504.765,589.827z"/>
	</g>
</g>
</svg>
