<?xml version="1.0" encoding="utf-8"?>
<!-- Generator: Adobe Illustrator 16.0.0, SVG Export Plug-In . SVG Version: 6.00 Build 0)  -->
<!DOCTYPE svg PUBLIC "-//W3C//DTD SVG 1.1//EN" "http://www.w3.org/Graphics/SVG/1.1/DTD/svg11.dtd">
<svg version="1.1" id="Layer_2" xmlns="http://www.w3.org/2000/svg" xmlns:xlink="http://www.w3.org/1999/xlink" x="0px" y="0px"
	 width="343px" height="159px" viewBox="0 0 343 159" enable-background="new 0 0 343 159" xml:space="preserve">
<g>
	<g>
		<g>
			<path fill-rule="evenodd" clip-rule="evenodd" fill="#A6A68E" d="M322.5,38.5c3.7,0,5.6,1.9,5.6,5.6l4.5,83.5
				c0,3.8-1.9,5.7-5.6,5.7h-72.4c-3.7,0-5.5-1.9-5.5-5.7L247.4,44c0-3.7,1.9-5.6,5.6-5.6H322.5z"/>
		</g>
		<g>
			<g>
				
					<radialGradient id="SVGID_1_" cx="260.9297" cy="50.8501" r="15.7762" gradientTransform="matrix(1 0 2.216944e-002 0.6405 10.8083 18.2787)" gradientUnits="userSpaceOnUse">
					<stop  offset="0" style="stop-color:#296C87"/>
					<stop  offset="0.7216" style="stop-color:#25627B"/>
					<stop  offset="1" style="stop-color:#1D5166"/>
				</radialGradient>
				<path fill-rule="evenodd" clip-rule="evenodd" fill="url(#SVGID_1_)" d="M282.3,47.9c2.7,1.5,4.1,3.3,4.2,5.4
					c0.1,2.1-1.2,3.9-3.8,5.4c-2.6,1.5-5.8,2.3-9.5,2.3c-3.7,0-6.9-0.8-9.6-2.3c-2.7-1.5-4.1-3.3-4.1-5.4c-0.1-2.1,1.2-3.9,3.8-5.4
					c2.6-1.5,5.7-2.3,9.5-2.3C276.4,45.6,279.6,46.4,282.3,47.9z"/>
				
					<path fill-rule="evenodd" clip-rule="evenodd" fill="none" stroke="#26657D" stroke-width="0.1" stroke-linecap="round" stroke-linejoin="round" stroke-miterlimit="3" d="
					M282.3,47.9c2.7,1.5,4.1,3.3,4.2,5.4c0.1,2.1-1.2,3.9-3.8,5.4c-2.6,1.5-5.8,2.3-9.5,2.3c-3.7,0-6.9-0.8-9.6-2.3
					c-2.7-1.5-4.1-3.3-4.1-5.4c-0.1-2.1,1.2-3.9,3.8-5.4c2.6-1.5,5.7-2.3,9.5-2.3C276.4,45.6,279.6,46.4,282.3,47.9z"/>
			</g>
			<g>
				<path fill-rule="evenodd" clip-rule="evenodd" fill="#A4D2E3" d="M266,51c0.5,0,0.8,0.1,1,0.3c0.2,0.2,0.3,0.5,0.3,0.8h-0.6
					c0-0.1-0.1-0.3-0.2-0.3c-0.1-0.1-0.2-0.1-0.5-0.1c-0.1,0-0.3,0-0.4,0.1c-0.1,0.1-0.1,0.2-0.1,0.3c0,0,0.1,0.1,0.1,0.2
					c0.1,0.1,0.3,0.1,0.6,0.3c0.4,0.1,0.6,0.1,0.8,0.2c0.2,0.1,0.3,0.3,0.4,0.4c0.1,0.1,0.1,0.3,0.1,0.5c0,0.2,0,0.4-0.1,0.6
					c-0.1,0.2-0.3,0.3-0.5,0.4c-0.2,0-0.4,0.1-0.8,0.1c-0.4,0-0.7-0.1-0.9-0.3c-0.3-0.1-0.4-0.4-0.5-0.8l0.6-0.1
					c0,0.2,0.1,0.4,0.3,0.5c0.1,0.1,0.3,0.2,0.5,0.2c0.2,0,0.4-0.1,0.5-0.2c0.1-0.1,0.1-0.2,0.1-0.4c0-0.1,0-0.1,0-0.2
					c0,0-0.1-0.1-0.3-0.2c0,0-0.2,0-0.6-0.1c-0.4-0.1-0.6-0.2-0.7-0.3c-0.3-0.2-0.4-0.4-0.4-0.8c0-0.2,0-0.3,0.1-0.5
					c0.1-0.2,0.3-0.3,0.5-0.4C265.5,51,265.7,51,266,51z M268.6,52.5h1.6l0.1,0.6h-1.6v1h1.9l0,0.6h-2.5L268,51h2.5v0.6h-1.8V52.5z
					 M273.5,51v0.6h-1l0.1,3H272l-0.1-3h-1V51H273.5z M279.4,51.6l0.1,1h0.3c0.3,0,0.5,0,0.5-0.1c0.1,0,0.2-0.1,0.2-0.1
					c0-0.1,0-0.2,0-0.3c0-0.1,0-0.2,0-0.3c-0.1-0.1-0.2-0.2-0.3-0.2c-0.1,0-0.3,0-0.5,0H279.4z M278,51l0,1.9c0,0.4,0,0.8,0,1
					c0,0.2-0.1,0.3-0.2,0.4c0,0.1-0.1,0.2-0.3,0.3c-0.2,0-0.4,0.1-0.7,0.1c-0.3,0-0.5,0-0.8-0.1c-0.2-0.1-0.3-0.2-0.3-0.3
					c-0.1-0.1-0.2-0.2-0.3-0.4c0-0.2-0.1-0.5-0.1-0.9l0-2h0.6l0,2c0,0.3,0,0.5,0,0.5c0,0.1,0.1,0.3,0.3,0.4c0.1,0.1,0.2,0.2,0.4,0.2
					c0.2,0,0.4-0.1,0.4-0.1c0.1-0.1,0.2-0.3,0.3-0.4c0-0.1,0-0.3,0-0.6l0-2H278z M279.8,51c0.4,0,0.7,0,0.8,0.1
					c0.2,0,0.4,0.1,0.6,0.3c0.1,0.2,0.2,0.5,0.2,0.8c0,0.2,0,0.4-0.1,0.6c-0.1,0.1-0.1,0.3-0.2,0.3c-0.2,0.1-0.3,0.1-0.4,0.2
					c-0.2,0-0.4,0-0.7,0h-0.4l0,1.4h-0.6l-0.1-3.6H279.8z"/>
			</g>
		</g>
		<g>
			<g>
				
					<radialGradient id="SVGID_2_" cx="282.1343" cy="50.8501" r="15.7875" gradientTransform="matrix(1 0 4.117182e-002 0.6405 20.0722 18.2787)" gradientUnits="userSpaceOnUse">
					<stop  offset="0" style="stop-color:#296C87"/>
					<stop  offset="0.7216" style="stop-color:#25627B"/>
					<stop  offset="1" style="stop-color:#1D5166"/>
				</radialGradient>
				<path fill-rule="evenodd" clip-rule="evenodd" fill="url(#SVGID_2_)" d="M304,45.6c3.7,0,7,0.8,9.7,2.3s4.2,3.3,4.3,5.4
					c0.1,2.1-1.1,3.9-3.6,5.4S308.8,61,305,61s-7-0.8-9.6-2.3c-2.8-1.5-4.2-3.3-4.4-5.4c-0.1-2.1,1.1-3.9,3.6-5.4
					C297.2,46.4,300.3,45.6,304,45.6z"/>
				
					<path fill-rule="evenodd" clip-rule="evenodd" fill="none" stroke="#26657D" stroke-width="0.1" stroke-linecap="round" stroke-linejoin="round" stroke-miterlimit="3" d="
					M304,45.6c3.7,0,7,0.8,9.7,2.3s4.2,3.3,4.3,5.4c0.1,2.1-1.1,3.9-3.6,5.4S308.8,61,305,61s-7-0.8-9.6-2.3
					c-2.8-1.5-4.2-3.3-4.4-5.4c-0.1-2.1,1.1-3.9,3.6-5.4C297.2,46.4,300.3,45.6,304,45.6z"/>
			</g>
			<g>
				<path fill-rule="evenodd" clip-rule="evenodd" fill="#A4D2E3" d="M308,51.3l0.3,3.5h-0.7l-1.5-2.3l0.2,2.3h-0.6l-0.3-3.5h0.7
					l1.5,2.3l-0.1-2.3H308z M311.3,51.3l0.2,1.8c0,0.4,0,0.8,0,1c0,0.1-0.1,0.3-0.3,0.4c-0.1,0.1-0.2,0.1-0.3,0.3
					c-0.2,0.1-0.4,0.1-0.7,0.1c-0.3,0-0.6,0-0.8-0.1c-0.2-0.1-0.4-0.2-0.5-0.3c0-0.1-0.1-0.3-0.1-0.4c0-0.2-0.1-0.6-0.2-1l-0.1-1.9
					h0.7l0.1,1.9c0,0.3,0,0.5,0,0.6c0,0.2,0.1,0.3,0.2,0.4c0.1,0.1,0.3,0.1,0.5,0.1c0.2,0,0.3,0,0.5-0.1c0.1-0.1,0.1-0.2,0.1-0.3
					c0-0.1,0-0.3,0-0.6l-0.1-2H311.3z M299.3,51.3l0.8,2.4l0.5-2.4h1l0.3,3.5h-0.6l-0.2-2.8l-0.5,2.8h-0.7L299,52l0.2,2.8h-0.8
					l-0.3-3.5H299.3z M304.8,51.9h-1.8v0.7h1.7l0.1,0.6H303l0,1h1.9l0.1,0.6h-2.5l-0.3-3.5h2.5L304.8,51.9z"/>
			</g>
		</g>
		<g>
			<g>
				
					<radialGradient id="SVGID_3_" cx="282.0039" cy="73.0996" r="15.7875" gradientTransform="matrix(1 0 4.117182e-002 0.6405 20.5863 26.2765)" gradientUnits="userSpaceOnUse">
					<stop  offset="0" style="stop-color:#296C87"/>
					<stop  offset="0.7216" style="stop-color:#25627B"/>
					<stop  offset="1" style="stop-color:#1D5166"/>
				</radialGradient>
				<path fill-rule="evenodd" clip-rule="evenodd" fill="url(#SVGID_3_)" d="M296,70.1c2.5-1.5,5.7-2.3,9.4-2.3s7,0.8,9.7,2.3
					c2.8,1.5,4.2,3.3,4.3,5.5c0.1,2.1-1,3.9-3.5,5.4c-2.6,1.5-5.7,2.3-9.5,2.3c-3.7,0-6.9-0.8-9.6-2.3c-2.8-1.5-4.2-3.3-4.3-5.4
					C292.2,73.4,293.4,71.6,296,70.1z"/>
				
					<path fill-rule="evenodd" clip-rule="evenodd" fill="none" stroke="#26657D" stroke-width="0.1" stroke-linecap="round" stroke-linejoin="round" stroke-miterlimit="3" d="
					M296,70.1c2.5-1.5,5.7-2.3,9.4-2.3s7,0.8,9.7,2.3c2.8,1.5,4.2,3.3,4.3,5.5c0.1,2.1-1,3.9-3.5,5.4c-2.6,1.5-5.7,2.3-9.5,2.3
					c-3.7,0-6.9-0.8-9.6-2.3c-2.8-1.5-4.2-3.3-4.3-5.4C292.2,73.4,293.4,71.6,296,70.1z"/>
			</g>
			<g>
				<path fill-rule="evenodd" clip-rule="evenodd" fill="#A4D2E3" d="M300,73.2c0.1-0.1,0.3-0.1,0.5-0.1c0.5,0,0.8,0.1,1.1,0.3
					c0.2,0.2,0.3,0.5,0.4,0.8h-0.7c-0.1-0.2-0.1-0.3-0.2-0.4c-0.1-0.1-0.3-0.1-0.5-0.1c-0.2,0-0.3,0-0.5,0.1C300,73.9,300,74,300,74
					c0,0.1,0.1,0.2,0.2,0.2c0.1,0.1,0.3,0.2,0.6,0.3c0.4,0.1,0.6,0.2,0.7,0.3c0.2,0.1,0.3,0.2,0.5,0.4c0,0.1,0.1,0.3,0.1,0.5
					c0.1,0.2,0.1,0.4,0,0.6c-0.1,0.1-0.3,0.3-0.5,0.4c-0.2,0.1-0.4,0.1-0.8,0.1c-0.4,0-0.7-0.1-0.9-0.3c-0.2-0.2-0.4-0.5-0.5-0.9
					l0.6,0c0,0.2,0.1,0.4,0.3,0.5c0.1,0.1,0.3,0.2,0.5,0.2c0.2,0,0.4-0.1,0.6-0.2c0-0.1,0-0.2,0-0.3c0-0.1,0-0.2,0-0.3
					c-0.1,0-0.2-0.1-0.3-0.2c0,0-0.2,0-0.5-0.1c-0.4-0.1-0.7-0.2-0.8-0.4c-0.2-0.2-0.3-0.4-0.3-0.6c0-0.2,0-0.4,0-0.5
					C299.6,73.5,299.8,73.3,300,73.2z M304.8,73.3c0.2,0,0.3,0.2,0.4,0.4c0.1,0.1,0.2,0.3,0.2,0.5c0,0.3-0.1,0.5-0.2,0.6
					c-0.2,0.2-0.4,0.3-0.6,0.4c0.1,0.1,0.3,0.2,0.4,0.3c0.1,0.1,0.3,0.3,0.4,0.5l0.4,0.8H305l-0.5-0.8c-0.2-0.3-0.3-0.5-0.4-0.5
					c-0.1-0.1-0.2-0.1-0.2-0.1c-0.1,0-0.2,0-0.4,0h-0.1l0.1,1.5h-0.7l-0.3-3.6h1.4C304.3,73.2,304.6,73.2,304.8,73.3z M304.3,73.8
					c-0.1,0-0.2,0-0.5,0h-0.5l0.1,1h0.5c0.3,0,0.5,0,0.6,0c0.1-0.1,0.2-0.1,0.2-0.2c0-0.1,0-0.2,0-0.3c0-0.1-0.1-0.2-0.1-0.3
					S304.4,73.8,304.3,73.8z M310,73.2l0.1,1.4h1.3l0-1.4h0.8l0.2,3.6h-0.7l-0.1-1.5h-1.3l0.1,1.5h-0.7l-0.3-3.6H310z M307.3,73.7
					c-0.2,0-0.4,0.1-0.6,0.3c-0.1,0.2-0.2,0.5-0.2,0.9c0.1,0.5,0.2,0.8,0.3,1c0.2,0.2,0.5,0.3,0.7,0.3c0.2,0,0.3-0.1,0.5-0.2
					c0.1-0.2,0.1-0.4,0.2-0.6l0.7,0.3c-0.1,0.4-0.2,0.7-0.5,0.8c-0.2,0.2-0.5,0.3-0.9,0.3c-0.5,0-0.8-0.2-1.1-0.5
					c-0.3-0.4-0.5-0.8-0.6-1.3c0-0.6,0.1-1,0.3-1.3c0.2-0.4,0.6-0.6,1.1-0.6c0.4,0,0.8,0.1,1.1,0.4c0.2,0.1,0.3,0.4,0.4,0.7
					l-0.6,0.1c-0.1-0.2-0.2-0.3-0.3-0.4C307.7,73.8,307.5,73.7,307.3,73.7z"/>
			</g>
		</g>
		<g>
			<g>
				<path fill-rule="evenodd" clip-rule="evenodd" fill="#296C87" d="M286.5,73.2l-20.4,8.6c-0.2,0-0.3-0.1-0.4-0.1
					c-0.5-0.2-1-0.5-1.4-0.7c-2.7-1.5-4.1-3.3-4.1-5.4c-0.1-2.1,1.1-4,3.8-5.5c2.6-1.5,5.8-2.3,9.5-2.3c3.7,0,6.9,0.8,9.6,2.3
					C284.7,71,285.9,72,286.5,73.2z"/>
				<path fill-rule="evenodd" clip-rule="evenodd" fill="#211217" d="M266.1,81.8l20.4-8.6c0.4,0.7,0.6,1.5,0.7,2.3
					c0.1,2.1-1.2,3.9-3.8,5.4s-5.8,2.3-9.4,2.3C271,83.2,268.4,82.7,266.1,81.8z"/>
				
					<path fill-rule="evenodd" clip-rule="evenodd" fill="none" stroke="#26657D" stroke-width="0.1" stroke-linecap="round" stroke-linejoin="round" stroke-miterlimit="3" d="
					M286.5,73.2c0.4,0.7,0.6,1.5,0.7,2.3c0.1,2.1-1.2,3.9-3.8,5.4s-5.8,2.3-9.4,2.3c-3,0-5.6-0.5-7.8-1.4 M265.8,81.7
					c-0.5-0.2-1-0.5-1.4-0.7c-2.7-1.5-4.1-3.3-4.1-5.4c-0.1-2.1,1.1-4,3.8-5.5c2.6-1.5,5.8-2.3,9.5-2.3c3.7,0,6.9,0.8,9.6,2.3
					c1.7,0.9,2.8,1.9,3.5,3.1"/>
				
					<path fill-rule="evenodd" clip-rule="evenodd" fill="none" stroke="#9E3A21" stroke-width="0.1" stroke-linecap="round" stroke-linejoin="round" stroke-miterlimit="3" d="
					M266.1,81.8c-0.2,0-0.3-0.1-0.4-0.1"/>
			</g>
			<g>
				
					<radialGradient id="SVGID_4_" cx="259.9668" cy="71.4004" r="15.425" gradientTransform="matrix(1 0 2.674230e-002 0.7674 10.8237 16.6061)" gradientUnits="userSpaceOnUse">
					<stop  offset="0" style="stop-color:#296C87;stop-opacity:8.627451e-002"/>
					<stop  offset="0.6196" style="stop-color:#26647E;stop-opacity:0.3333"/>
					<stop  offset="0.7804" style="stop-color:#20586F;stop-opacity:0.7333"/>
					<stop  offset="1" style="stop-color:#1D5166"/>
				</radialGradient>
				<path fill-rule="evenodd" clip-rule="evenodd" fill="url(#SVGID_4_)" d="M286.5,73.2l-20.4,8.6c-0.2,0-0.3-0.1-0.4-0.1
					c-0.5-0.2-1-0.5-1.4-0.7c-2.7-1.5-4.1-3.3-4.1-5.4c-0.1-2.1,1.1-4,3.8-5.5c2.6-1.5,5.8-2.3,9.5-2.3c3.7,0,6.9,0.8,9.6,2.3
					C284.7,71,285.9,72,286.5,73.2z"/>
				<path fill-rule="evenodd" clip-rule="evenodd" fill="#211217" d="M266.1,81.8l20.4-8.6c0.4,0.7,0.6,1.5,0.7,2.3
					c0.1,2.1-1.2,3.9-3.8,5.4s-5.8,2.3-9.4,2.3C271,83.2,268.4,82.7,266.1,81.8z"/>
			</g>
			<g>
				<polygon fill-rule="evenodd" clip-rule="evenodd" fill="#DCBEC8" points="278.3,78.3 280,81.3 276.5,81.3 				"/>
			</g>
			<g>
				<path fill-rule="evenodd" clip-rule="evenodd" fill="#A4D2E3" d="M268,72.8c-0.1-0.1-0.3-0.1-0.4-0.1c-0.2,0-0.4,0-0.5,0.1
					c0,0.1-0.1,0.2-0.1,0.3c0,0,0.1,0.1,0.2,0.2c0.1,0.1,0.3,0.1,0.6,0.2c0.4,0.1,0.6,0.2,0.7,0.3c0.2,0.1,0.4,0.3,0.5,0.5
					c0.1,0.1,0.1,0.3,0.2,0.5c0,0.2-0.1,0.4-0.2,0.5c-0.1,0.2-0.3,0.3-0.5,0.4c-0.2,0-0.4,0-0.7,0c-0.5,0-0.8-0.1-1-0.3
					c-0.2-0.2-0.3-0.5-0.4-0.9l0.6,0c0.1,0.2,0.2,0.4,0.3,0.5c0.1,0.1,0.3,0.2,0.5,0.2c0.2,0,0.4,0,0.5-0.2c0.1-0.1,0.2-0.2,0.2-0.3
					c0-0.1-0.1-0.2-0.1-0.3c-0.1,0-0.2-0.1-0.3-0.2c-0.1,0-0.3,0-0.6-0.1c-0.3-0.1-0.6-0.2-0.8-0.4c-0.2-0.2-0.3-0.4-0.3-0.8
					c0-0.2,0-0.3,0-0.5c0.1-0.2,0.3-0.3,0.5-0.3c0.2-0.1,0.4-0.2,0.6-0.2c0.5,0,0.8,0.1,1,0.4c0.2,0.2,0.3,0.5,0.4,0.8h-0.7
					C268.2,73.1,268.1,73,268,72.8z M269.8,72.5c0.2-0.2,0.5-0.3,0.8-0.3c0.3,0,0.5,0.1,0.7,0.3c0.2,0.2,0.4,0.4,0.5,0.7
					c0,0.2-0.1,0.3-0.2,0.5c0,0.1-0.1,0.3-0.3,0.4c-0.1,0.1-0.2,0.3-0.4,0.5c-0.2,0.2-0.3,0.3-0.3,0.4c-0.1,0.1-0.2,0.2-0.2,0.2h1.4
					v0.7h-2.3c0-0.3,0.1-0.5,0.2-0.7c0.1-0.2,0.4-0.5,0.7-0.9c0.3-0.3,0.4-0.5,0.5-0.5c0-0.2,0.1-0.3,0.1-0.5c0-0.1,0-0.2-0.1-0.4
					c-0.1-0.1-0.2-0.1-0.3-0.1c-0.2,0-0.3,0-0.4,0.1c0,0.1,0,0.3,0,0.5l-0.6-0.1C269.5,72.8,269.6,72.6,269.8,72.5z M265.6,72.6
					c0.1,0.2,0.2,0.4,0.3,0.6c0,0.3-0.1,0.6-0.3,0.7c-0.2,0.2-0.4,0.3-0.6,0.4c0.2,0.1,0.3,0.2,0.3,0.3c0.1,0.1,0.2,0.3,0.5,0.5
					l0.4,0.7h-0.9l-0.4-0.8c-0.2-0.3-0.3-0.5-0.4-0.5c-0.1-0.1-0.2-0.2-0.3-0.2c0,0-0.2,0-0.4,0h-0.1l0.1,1.5h-0.7l-0.1-3.5h1.4
					c0.4,0,0.6,0,0.8,0.1C265.4,72.3,265.5,72.4,265.6,72.6z M265.1,73.2c0-0.1,0-0.1-0.1-0.2c-0.1-0.1-0.2-0.2-0.3-0.2
					c-0.1,0-0.3,0-0.5,0h-0.5l0.1,0.9h0.4c0.4,0,0.6,0,0.6,0c0.1,0,0.2-0.1,0.2-0.2C265.1,73.4,265.1,73.3,265.1,73.2z M273.8,72.5
					c0.2,0.1,0.3,0.3,0.4,0.5c0,0.3-0.2,0.6-0.5,0.8c0.2,0,0.4,0.1,0.5,0.3c0.1,0.1,0.2,0.3,0.2,0.5c0,0.3-0.1,0.5-0.3,0.8
					c-0.2,0.2-0.5,0.3-0.8,0.3c-0.3,0-0.6-0.1-0.8-0.2c-0.2-0.2-0.3-0.4-0.3-0.8l0.6,0c0,0.2,0.1,0.3,0.2,0.3
					c0.1,0.1,0.2,0.2,0.3,0.2c0.2,0,0.3-0.1,0.3-0.2c0.1-0.1,0.2-0.3,0.1-0.4c0-0.2-0.1-0.4-0.1-0.5c0-0.1-0.1-0.1-0.3-0.1
					c0,0-0.1,0-0.3,0l0.1-0.5c0.2,0,0.3-0.1,0.4-0.2c0-0.1,0.1-0.2,0.1-0.4c0-0.1-0.1-0.1-0.2-0.3c-0.1-0.1-0.2-0.1-0.3-0.1
					c-0.1,0-0.1,0-0.3,0.1c0,0.1,0,0.2,0,0.4l-0.7-0.1c0-0.2,0.1-0.4,0.2-0.5c0-0.1,0.1-0.1,0.4-0.3c0.1-0.1,0.2-0.1,0.4-0.1
					C273.4,72.2,273.6,72.3,273.8,72.5z M275,72.5c0.2-0.2,0.5-0.3,0.8-0.3c0.3,0,0.6,0.1,0.8,0.3c0.2,0.2,0.3,0.4,0.4,0.7
					c0,0.2,0,0.3-0.1,0.5c-0.1,0.1-0.1,0.3-0.3,0.4c-0.1,0.1-0.3,0.3-0.4,0.5c-0.2,0.2-0.3,0.3-0.3,0.4c-0.1,0.1-0.1,0.2-0.1,0.2
					h1.3v0.7h-2.3c0-0.3,0.1-0.5,0.3-0.7c0.1-0.2,0.3-0.5,0.6-0.9c0.3-0.3,0.5-0.5,0.6-0.5c0.1-0.2,0.1-0.3,0.1-0.5
					c0-0.1-0.1-0.2-0.2-0.4c-0.1-0.1-0.2-0.1-0.3-0.1c-0.2,0-0.3,0-0.3,0.1c-0.1,0.1-0.1,0.3-0.1,0.5l-0.6-0.1
					C274.7,72.8,274.8,72.6,275,72.5z"/>
			</g>
		</g>
		<g>
			<g>
				<path fill-rule="evenodd" clip-rule="evenodd" fill="#296C87" d="M287.3,95.4l-20.4,8.5c-0.2,0-0.3-0.1-0.4-0.1
					c-0.5-0.2-0.9-0.5-1.4-0.8c-2.7-1.5-4-3.3-4.1-5.4c-0.1-2.1,1.2-3.9,3.8-5.4c2.6-1.5,5.8-2.3,9.4-2.3c3.7,0,6.9,0.8,9.6,2.3
					C285.4,93.2,286.6,94.2,287.3,95.4z"/>
				<path fill-rule="evenodd" clip-rule="evenodd" fill="#211217" d="M266.9,104l20.4-8.5c0.4,0.7,0.6,1.5,0.6,2.3
					c0.1,2.1-1.1,3.9-3.8,5.4s-5.8,2.3-9.5,2.3C271.7,105.3,269.1,104.9,266.9,104z"/>
				
					<path fill-rule="evenodd" clip-rule="evenodd" fill="none" stroke="#26657D" stroke-width="0.1" stroke-linecap="round" stroke-linejoin="round" stroke-miterlimit="3" d="
					M287.3,95.4c0.4,0.7,0.6,1.5,0.6,2.3c0.1,2.1-1.1,3.9-3.8,5.4s-5.8,2.3-9.5,2.3c-3,0-5.5-0.5-7.8-1.4 M266.5,103.8
					c-0.5-0.2-0.9-0.5-1.4-0.8c-2.7-1.5-4-3.3-4.1-5.4c-0.1-2.1,1.2-3.9,3.8-5.4c2.6-1.5,5.8-2.3,9.4-2.3c3.7,0,6.9,0.8,9.6,2.3
					c1.7,0.9,2.9,1.9,3.5,3.1"/>
				
					<path fill-rule="evenodd" clip-rule="evenodd" fill="none" stroke="#9E3A21" stroke-width="0.1" stroke-linecap="round" stroke-linejoin="round" stroke-miterlimit="3" d="
					M266.9,104c-0.2,0-0.3-0.1-0.4-0.1"/>
			</g>
			<g>
				
					<radialGradient id="SVGID_5_" cx="259.9434" cy="93.5996" r="15.425" gradientTransform="matrix(1 0 2.674230e-002 0.7674 11.0036 21.7691)" gradientUnits="userSpaceOnUse">
					<stop  offset="0" style="stop-color:#296C87;stop-opacity:8.627451e-002"/>
					<stop  offset="0.6196" style="stop-color:#26647E;stop-opacity:0.3294"/>
					<stop  offset="0.7804" style="stop-color:#20586F;stop-opacity:0.7294"/>
					<stop  offset="1" style="stop-color:#1D5166"/>
				</radialGradient>
				<path fill-rule="evenodd" clip-rule="evenodd" fill="url(#SVGID_5_)" d="M287.3,95.4l-20.4,8.5c-0.2,0-0.3-0.1-0.4-0.1
					c-0.5-0.2-0.9-0.5-1.4-0.8c-2.7-1.5-4-3.3-4.1-5.4c-0.1-2.1,1.2-3.9,3.8-5.4c2.6-1.5,5.8-2.3,9.4-2.3c3.7,0,6.9,0.8,9.6,2.3
					C285.4,93.2,286.6,94.2,287.3,95.4z"/>
				<path fill-rule="evenodd" clip-rule="evenodd" fill="#211217" d="M266.9,104l20.4-8.5c0.4,0.7,0.6,1.5,0.6,2.3
					c0.1,2.1-1.1,3.9-3.8,5.4s-5.8,2.3-9.5,2.3C271.7,105.3,269.1,104.9,266.9,104z"/>
			</g>
			<g>
				<polygon fill-rule="evenodd" clip-rule="evenodd" fill="#DCBEC8" points="277.2,100.8 280.6,100.8 279.1,103.8 				"/>
			</g>
			<g>
				<path fill-rule="evenodd" clip-rule="evenodd" fill="#A4D2E3" d="M272.3,94.2c0.2-0.1,0.4-0.1,0.6-0.1c0.4,0,0.8,0.1,1,0.3
					c0.2,0.3,0.3,0.6,0.4,0.9h-0.7c-0.1-0.2-0.1-0.3-0.1-0.4c-0.1,0-0.3,0-0.5,0c-0.2,0-0.3,0-0.5,0c0,0.1,0,0.2,0,0.3
					c0,0.1,0.1,0.2,0.1,0.3c0.1,0,0.3,0.1,0.6,0.2c0.3,0.1,0.6,0.2,0.7,0.3c0.2,0.1,0.4,0.2,0.5,0.4c0.1,0.1,0.1,0.3,0.1,0.5
					c0,0.2,0,0.4-0.1,0.6c-0.1,0.1-0.3,0.2-0.5,0.4c-0.2,0.1-0.4,0.1-0.7,0.1c-0.4,0-0.8-0.1-1-0.3s-0.4-0.5-0.5-0.9l0.7,0
					c0,0.2,0.1,0.4,0.3,0.5c0.1,0.1,0.3,0.2,0.5,0.2s0.4-0.1,0.4-0.2c0.1-0.1,0.2-0.2,0.2-0.3c0-0.1,0-0.1-0.1-0.2
					c-0.1-0.1-0.1-0.1-0.2-0.2c-0.1,0-0.3,0-0.6-0.1c-0.3-0.1-0.5-0.3-0.7-0.4c-0.2-0.2-0.3-0.4-0.3-0.7c0-0.2,0-0.4,0.1-0.5
					C271.9,94.4,272.1,94.3,272.3,94.2z M274.6,94.2h2.7v0.5h-1.1l0.1,3h-0.6l-0.1-3h-1V94.2z M266.3,94.6c0.1,0.1,0.2,0.3,0.2,0.6
					c0,0.3-0.1,0.5-0.2,0.6c-0.2,0.2-0.4,0.3-0.6,0.4c0.1,0.1,0.3,0.2,0.4,0.3c0.1,0.1,0.2,0.3,0.4,0.5l0.4,0.7H266l-0.5-0.8
					c-0.2-0.3-0.4-0.5-0.5-0.6c-0.1,0-0.1,0-0.2,0c-0.1,0-0.2,0-0.4,0h-0.1l0.1,1.5h-0.7l-0.1-3.5h1.4c0.4,0,0.6,0,0.8,0
					C266,94.3,266.1,94.4,266.3,94.6z M265.6,95.5c0.1-0.1,0.1-0.2,0.1-0.3c-0.1-0.1-0.1-0.2-0.1-0.3c0-0.1-0.1-0.1-0.3-0.2
					c-0.1,0-0.2,0-0.5,0h-0.5l0,0.9h0.5c0.3,0,0.5,0,0.6,0C265.6,95.6,265.6,95.5,265.6,95.5z M269.5,94.8h-1.8l0,0.8h1.7v0.7h-1.7
					l0.1,0.9h1.9v0.6h-2.5l-0.2-3.5h2.5V94.8z M271.5,96v0.8h-1.3V96H271.5z M279.2,94.1c0.5,0,0.9,0.2,1.3,0.5
					c0.3,0.3,0.4,0.8,0.4,1.4c0,0.6-0.1,1-0.4,1.3c-0.3,0.3-0.6,0.5-1.1,0.5c-0.5,0-0.9-0.2-1.2-0.5c-0.3-0.3-0.5-0.8-0.5-1.3
					c0-0.4,0-0.7,0-0.9c0.1-0.2,0.2-0.4,0.3-0.5c0.2-0.2,0.3-0.3,0.5-0.3C278.7,94.1,278.9,94.1,279.2,94.1z M279.3,94.8
					c-0.3,0-0.6,0.1-0.8,0.3c-0.1,0.2-0.2,0.5-0.2,0.9c0,0.4,0.1,0.7,0.3,0.9c0.2,0.2,0.5,0.3,0.8,0.3c0.2,0,0.4-0.1,0.6-0.3
					c0.2-0.2,0.3-0.5,0.3-0.9c0-0.4-0.1-0.7-0.3-0.9C279.8,94.8,279.6,94.8,279.3,94.8z"/>
			</g>
		</g>
		<g>
			<g>
				
					<radialGradient id="SVGID_6_" cx="282.0269" cy="95.2998" r="15.7875" gradientTransform="matrix(1 0 4.117182e-002 0.6405 21.0992 34.2566)" gradientUnits="userSpaceOnUse">
					<stop  offset="0" style="stop-color:#296C87"/>
					<stop  offset="0.7216" style="stop-color:#25627B"/>
					<stop  offset="1" style="stop-color:#1D5166"/>
				</radialGradient>
				<path fill-rule="evenodd" clip-rule="evenodd" fill="url(#SVGID_6_)" d="M297.4,92.3c2.5-1.5,5.7-2.3,9.4-2.3s7,0.8,9.7,2.3
					c2.8,1.5,4.2,3.3,4.3,5.4c0.1,2.1-1.1,3.9-3.6,5.4c-2.6,1.5-5.7,2.3-9.4,2.3c-3.7,0-7-0.8-9.7-2.3s-4.2-3.3-4.3-5.4
					C293.7,95.6,294.9,93.8,297.4,92.3z"/>
				
					<path fill-rule="evenodd" clip-rule="evenodd" fill="none" stroke="#26657D" stroke-width="0.1" stroke-linecap="round" stroke-linejoin="round" stroke-miterlimit="3" d="
					M297.4,92.3c2.5-1.5,5.7-2.3,9.4-2.3s7,0.8,9.7,2.3c2.8,1.5,4.2,3.3,4.3,5.4c0.1,2.1-1.1,3.9-3.6,5.4c-2.6,1.5-5.7,2.3-9.4,2.3
					c-3.7,0-7-0.8-9.7-2.3s-4.2-3.3-4.3-5.4C293.7,95.6,294.9,93.8,297.4,92.3z"/>
			</g>
			<g>
				<path fill-rule="evenodd" clip-rule="evenodd" fill="#A4D2E3" d="M305,95.3V96h-1.8l0,0.8h1.7l0.1,0.6h-1.7l0.1,1h1.9v0.6h-2.5
					l-0.3-3.6H305z M311.4,95.8c0.1,0.2,0.3,0.4,0.4,0.6c0.1,0.2,0.1,0.5,0.1,0.8c0.1,0.3,0.1,0.6,0,0.8c0,0.2-0.1,0.4-0.3,0.5
					c-0.1,0.2-0.3,0.3-0.5,0.3c-0.1,0-0.3,0.1-0.6,0.1h-1.2l-0.3-3.6h1.2c0.3,0,0.5,0,0.7,0.1C311.2,95.5,311.3,95.6,311.4,95.8z
					 M308.3,95.3l0.3,3.6h-0.7l-1.5-2.3l0.2,2.3h-0.6l-0.3-3.6h0.7l1.6,2.4l-0.2-2.4H308.3z M309.7,96l0.3,2.3h0.5
					c0.2,0,0.4,0,0.4,0c0.2,0,0.3,0,0.3-0.1c0.1-0.1,0.2-0.2,0.2-0.4c0-0.2,0-0.4,0-0.6c0-0.3,0-0.5-0.1-0.7c0-0.1-0.1-0.2-0.3-0.3
					c-0.1-0.1-0.2-0.2-0.3-0.2c-0.1,0-0.3,0-0.5,0H309.7z"/>
			</g>
		</g>
		<g>
			<g>
				
					<radialGradient id="SVGID_7_" cx="282.4746" cy="117.6504" r="16.4875" gradientTransform="matrix(1 0 3.411676e-002 0.5345 22.2618 54.7668)" gradientUnits="userSpaceOnUse">
					<stop  offset="0" style="stop-color:#600B0E"/>
					<stop  offset="0.7176" style="stop-color:#600B0E"/>
					<stop  offset="1" style="stop-color:#3A0507"/>
				</radialGradient>
				<path fill-rule="evenodd" clip-rule="evenodd" fill="url(#SVGID_7_)" d="M318.7,125.4c-2.5,1.5-5.7,2.3-9.4,2.3s-7-0.8-9.6-2.3
					c-2.8-1.5-4.2-3.3-4.4-5.4c-0.1-2.1,1.1-3.9,3.6-5.4c2.6-1.5,5.7-2.3,9.4-2.3c3.7,0,7,0.8,9.7,2.3s4.2,3.3,4.3,5.4
					C322.4,122.1,321.2,123.9,318.7,125.4z"/>
				
					<path fill-rule="evenodd" clip-rule="evenodd" fill="none" stroke="#540A0C" stroke-width="0.1" stroke-linecap="round" stroke-linejoin="round" stroke-miterlimit="3" d="
					M318.7,125.4c-2.5,1.5-5.7,2.3-9.4,2.3s-7-0.8-9.6-2.3c-2.8-1.5-4.2-3.3-4.4-5.4c-0.1-2.1,1.1-3.9,3.6-5.4
					c2.6-1.5,5.7-2.3,9.4-2.3c3.7,0,7,0.8,9.7,2.3s4.2,3.3,4.3,5.4C322.4,122.1,321.2,123.9,318.7,125.4z"/>
			</g>
			<g>
				<path fill-rule="evenodd" clip-rule="evenodd" fill="#ED6366" d="M313,118.3h-1.8l0,0.8h1.7l0,0.6h-1.7l0.2,0.9h1.8v0.6h-2.5
					l-0.3-3.5h2.5V118.3z M314.9,118.3h-0.6l0.1,0.9h0.5c0.3,0,0.5,0,0.6,0c0.1,0,0.2-0.1,0.2-0.2c0-0.1,0-0.2,0-0.3
					c0-0.1-0.1-0.1-0.2-0.2c0-0.1-0.1-0.2-0.3-0.2C315.3,118.3,315.1,118.3,314.9,118.3z M314.6,119.8h-0.1l0.1,1.5h-0.7l-0.3-3.5
					h1.4c0.4,0,0.6,0,0.8,0.1c0.2,0,0.3,0.2,0.5,0.3c0.1,0.1,0.1,0.3,0.2,0.6c0,0.3,0,0.5-0.2,0.6c-0.1,0.2-0.3,0.3-0.6,0.4
					c0.1,0.1,0.2,0.2,0.4,0.3c0,0.1,0.2,0.3,0.5,0.5l0.4,0.7h-0.8l-0.5-0.8c-0.2-0.3-0.3-0.5-0.3-0.5c-0.1-0.1-0.2-0.2-0.3-0.2
					C314.8,119.8,314.7,119.8,314.6,119.8z M307.4,118.3v-0.6h2.7v0.6h-1l0.3,3h-0.6l-0.3-3H307.4z M306.3,117.7h0.6l0.3,3.5h-0.6
					l-1.5-2.3l0.2,2.3h-0.6l-0.2-3.5h0.7l1.5,2.3L306.3,117.7z M301.8,118.3l0,0.8h1.7l0.1,0.6h-1.7l0.1,0.9h1.9v0.6h-2.6l-0.3-3.5
					h2.5v0.6H301.8z"/>
			</g>
			<g>
				<path fill-rule="evenodd" clip-rule="evenodd" fill="#ED6366" d="M311.8,125.2l-3.6-1.2l3.3-1.5l0.1,1.1h6.2l-0.2-2.1h0.5
					l0.2,2.3c0,0,0,0.1,0,0.2c-0.1,0-0.1,0.1-0.2,0.1c0,0-0.1,0-0.1,0h-6.4L311.8,125.2z"/>
			</g>
		</g>
		<g>
			<g>
				
					<radialGradient id="SVGID_8_" cx="260.5933" cy="118.75" r="15.45" gradientTransform="matrix(1 0 1.941748e-002 0.5583 12.0507 52.4575)" gradientUnits="userSpaceOnUse">
					<stop  offset="0" style="stop-color:#AA3F24"/>
					<stop  offset="0.7765" style="stop-color:#AA3F24"/>
					<stop  offset="1" style="stop-color:#772611"/>
				</radialGradient>
				<path fill-rule="evenodd" clip-rule="evenodd" fill="url(#SVGID_8_)" d="M284.6,114.6c2.7,1.5,4.1,3.3,4.1,5.4
					c0.1,2.1-1.1,3.9-3.8,5.4s-5.8,2.3-9.5,2.3s-6.9-0.8-9.6-2.3c-2.7-1.5-4-3.3-4.1-5.4c-0.1-2.1,1.2-3.9,3.8-5.4
					c2.6-1.5,5.8-2.3,9.5-2.3C278.7,112.3,281.9,113.1,284.6,114.6z"/>
				
					<path fill-rule="evenodd" clip-rule="evenodd" fill="none" stroke="#9E3A21" stroke-width="0.1" stroke-linecap="round" stroke-linejoin="round" stroke-miterlimit="3" d="
					M284.6,114.6c2.7,1.5,4.1,3.3,4.1,5.4c0.1,2.1-1.1,3.9-3.8,5.4s-5.8,2.3-9.5,2.3s-6.9-0.8-9.6-2.3c-2.7-1.5-4-3.3-4.1-5.4
					c-0.1-2.1,1.2-3.9,3.8-5.4c2.6-1.5,5.8-2.3,9.5-2.3C278.7,112.3,281.9,113.1,284.6,114.6z"/>
			</g>
			<g>
				<path fill-rule="evenodd" clip-rule="evenodd" fill="#F8E0DA" d="M271,118c0.2,0,0.4,0.1,0.5,0.3c0.1,0.2,0.2,0.5,0.1,0.8
					c0.1,0.2,0,0.4-0.1,0.5c0,0.1-0.1,0.2-0.3,0.3c-0.1,0.1-0.2,0.2-0.3,0.3c-0.2,0-0.4,0-0.8,0h-0.4v1.3h-0.6V118h1.1
					C270.6,118,270.9,118,271,118z M270.6,118.5c-0.1,0-0.3,0-0.5,0h-0.3v1h0.4c0.3,0,0.5,0,0.6,0c0.1,0,0.2-0.1,0.2-0.2
					c0.1-0.1,0.1-0.1,0.1-0.3c0-0.1,0-0.3-0.1-0.4C270.8,118.6,270.7,118.6,270.6,118.5z M274,118.5c-0.1,0-0.2,0-0.5,0h-0.6
					l0.1,0.9h0.4c0.4,0,0.6,0,0.6,0c0.1,0,0.2-0.1,0.3-0.2c0,0,0-0.1,0-0.2c0-0.1,0-0.3,0-0.3C274.1,118.6,274,118.6,274,118.5z
					 M274.9,118.3c0.1,0.2,0.1,0.4,0.1,0.6c0,0.3,0,0.5-0.2,0.7c-0.2,0.2-0.4,0.3-0.7,0.3c0.2,0.1,0.3,0.2,0.4,0.3
					c0.1,0.1,0.2,0.3,0.3,0.5l0.5,0.7h-0.9l-0.4-0.7c-0.2-0.3-0.3-0.5-0.4-0.5c-0.1-0.1-0.1-0.2-0.2-0.2c-0.1,0-0.2,0-0.4,0h0v1.5
					h-0.7l0-3.5h1.4c0.4,0,0.7,0,0.8,0.1C274.6,118.1,274.7,118.2,274.9,118.3z M281.8,118.5l0.1,2.9h-0.7l0-2.9h-1V118h2.7v0.6
					H281.8z M276.3,118v3.5h-0.6V118H276.3z M277.6,118l1.4,2.3L279,118h0.7v3.5H279l-1.4-2.3l0.1,2.3H277V118H277.6z"/>
			</g>
			<g>
				<path fill-rule="evenodd" clip-rule="evenodd" fill="#ED6366" d="M264.3,120.5v1.9h3l0-1.9H264.3z M264.7,118l-0.5,0.7l0.8,0.5
					l0.4-0.8L264.7,118z M263.9,120.2c0-0.1,0.1-0.2,0.1-0.2h3.5c0,0,0.1,0,0.1,0c0,0,0.1,0,0.1,0.2v2.4c0,0.1,0,0.2-0.1,0.3
					c-0.1,0.1-0.1,0.1-0.2,0.1H264c0,0-0.1,0-0.1,0c-0.1-0.1-0.1-0.1-0.1-0.2c0-0.1,0-0.1,0-0.2l-0.1-2.3
					C263.7,120.2,263.8,120.2,263.9,120.2z M264.5,117.3c0.1,0,0.1,0,0.2,0.1l1.3,0.7c0.1,0,0.1,0,0.1,0c0,0.1,0,0.1,0,0.2
					s0,0.1-0.1,0.2l-0.7,1.2c0,0-0.1,0.1-0.1,0.1c-0.1,0-0.1,0-0.2,0l-1.3-0.8c-0.1-0.1-0.1-0.1-0.1-0.2c0-0.1,0-0.1,0-0.2
					c0,0,0-0.1,0-0.1l0.6-1.1C264.3,117.3,264.4,117.3,264.5,117.3z"/>
			</g>
		</g>
	</g>
	<g>
		<g>
			<path fill-rule="evenodd" clip-rule="evenodd" fill="#A6A68E" d="M155.5,44c0-3.7,1.9-5.6,5.6-5.6h69.5c3.8,0,5.6,1.9,5.6,5.6
				l1.6,83.5c0,3.8-1.9,5.7-5.6,5.7h-71.2c-3.8,0-5.6-1.9-5.6-5.7V44z"/>
		</g>
		<g>
			<g>
				
					<radialGradient id="SVGID_9_" cx="173.6001" cy="53" r="10.625" gradientTransform="matrix(1 2.352922e-003 -2.352948e-003 1 0.1253 -0.4089)" gradientUnits="userSpaceOnUse">
					<stop  offset="0" style="stop-color:#858B81"/>
					<stop  offset="0.5843" style="stop-color:#858B81"/>
					<stop  offset="1" style="stop-color:#6D6C6C"/>
				</radialGradient>
				<path fill-rule="evenodd" clip-rule="evenodd" fill="url(#SVGID_9_)" d="M179.6,49.5c1.6,1.6,2.4,3.5,2.4,5.8
					c0,2.2-0.8,4.1-2.4,5.7c-1.6,1.6-3.5,2.3-5.7,2.3s-4.1-0.8-5.7-2.3c-1.6-1.6-2.4-3.5-2.4-5.7c0-2.2,0.8-4.1,2.4-5.8
					c1.6-1.6,3.5-2.4,5.7-2.4S178,47.9,179.6,49.5z"/>
				
					<path fill-rule="evenodd" clip-rule="evenodd" fill="none" stroke="#7E857A" stroke-width="0.1" stroke-linecap="round" stroke-linejoin="round" stroke-miterlimit="3" d="
					M179.6,49.5c1.6,1.6,2.4,3.5,2.4,5.8c0,2.2-0.8,4.1-2.4,5.7c-1.6,1.6-3.5,2.3-5.7,2.3s-4.1-0.8-5.7-2.3
					c-1.6-1.6-2.4-3.5-2.4-5.7c0-2.2,0.8-4.1,2.4-5.8c1.6-1.6,3.5-2.4,5.7-2.4S178,47.9,179.6,49.5z"/>
			</g>
			<g>
				<path fill-rule="evenodd" clip-rule="evenodd" fill="#DDDEDC" d="M175.8,53.5c-0.3,0.3-0.6,0.7-1,1.3c-0.3,0.6-0.5,1.3-0.8,1.9
					c-0.2,0.7-0.3,1.3-0.3,1.8h-1.1c0-0.8,0.2-1.6,0.5-2.4c0.3-0.9,0.7-1.7,1.3-2.4h-2.6v-1h3.9V53.5z"/>
			</g>
		</g>
		<g>
			<g>
				
					<radialGradient id="SVGID_10_" cx="188.4683" cy="53" r="10.625" gradientTransform="matrix(1 0 1.882353e-002 1 5.5342 0)" gradientUnits="userSpaceOnUse">
					<stop  offset="0" style="stop-color:#858B81"/>
					<stop  offset="0.5843" style="stop-color:#858B81"/>
					<stop  offset="1" style="stop-color:#6D6C6C"/>
				</radialGradient>
				<path fill-rule="evenodd" clip-rule="evenodd" fill="url(#SVGID_10_)" d="M195.3,47.1c2.2,0,4.1,0.8,5.7,2.4
					c1.6,1.6,2.5,3.5,2.5,5.8c0,2.2-0.7,4.1-2.3,5.7c-1.6,1.6-3.5,2.3-5.7,2.3c-2.2,0-4.1-0.8-5.8-2.3c-1.6-1.6-2.4-3.5-2.5-5.7
					c-0.1-2.2,0.7-4.1,2.2-5.8C191.1,47.9,193,47.1,195.3,47.1z"/>
				
					<path fill-rule="evenodd" clip-rule="evenodd" fill="none" stroke="#7E857A" stroke-width="0.1" stroke-linecap="round" stroke-linejoin="round" stroke-miterlimit="3" d="
					M195.3,47.1c2.2,0,4.1,0.8,5.7,2.4c1.6,1.6,2.5,3.5,2.5,5.8c0,2.2-0.7,4.1-2.3,5.7c-1.6,1.6-3.5,2.3-5.7,2.3
					c-2.2,0-4.1-0.8-5.8-2.3c-1.6-1.6-2.4-3.5-2.5-5.7c-0.1-2.2,0.7-4.1,2.2-5.8C191.1,47.9,193,47.1,195.3,47.1z"/>
			</g>
			<g>
				<path fill-rule="evenodd" clip-rule="evenodd" fill="#DDDEDC" d="M195.6,53.5c-0.2-0.1-0.4-0.2-0.6-0.2c-0.2,0-0.4,0.1-0.5,0.2
					c-0.1,0.2-0.1,0.3-0.1,0.5c0,0.3,0.1,0.5,0.1,0.5c0.1,0.1,0.3,0.2,0.5,0.2c0.2,0,0.4-0.1,0.6-0.2c0.2-0.1,0.3-0.3,0.3-0.5
					C195.9,53.8,195.8,53.6,195.6,53.5z M196,55.1c0.3,0.2,0.6,0.4,0.8,0.6c0.2,0.3,0.3,0.6,0.3,0.9c0,0.6-0.1,1-0.4,1.3
					c-0.4,0.3-0.9,0.5-1.4,0.5c-0.5,0-1-0.1-1.4-0.4c-0.5-0.3-0.7-0.8-0.8-1.3c0-0.3,0.1-0.6,0.3-0.9c0.2-0.3,0.5-0.5,0.8-0.7
					c-0.3-0.1-0.5-0.3-0.6-0.5c-0.2-0.2-0.3-0.4-0.3-0.6c0-0.5,0.1-0.9,0.4-1.2c0.3-0.2,0.8-0.3,1.3-0.3c0.6,0,1.1,0.1,1.4,0.3
					c0.3,0.3,0.4,0.7,0.5,1.2c0,0.3-0.1,0.5-0.3,0.8C196.5,54.9,196.3,55,196,55.1z M195.6,55.9c-0.1-0.2-0.3-0.3-0.5-0.3
					s-0.5,0.1-0.6,0.3c-0.2,0.2-0.3,0.5-0.3,0.6c0,0.3,0.1,0.6,0.3,0.8c0.2,0.2,0.4,0.3,0.7,0.3c0.2,0,0.4-0.1,0.6-0.3
					c0.2-0.2,0.2-0.4,0.2-0.8C196,56.3,195.9,56.1,195.6,55.9z"/>
			</g>
		</g>
		<g>
			<g>
				
					<radialGradient id="SVGID_11_" cx="203.8447" cy="53" r="10.625" gradientTransform="matrix(1 0 3.647059e-002 1 10.7224 0)" gradientUnits="userSpaceOnUse">
					<stop  offset="0" style="stop-color:#858B81"/>
					<stop  offset="0.5843" style="stop-color:#858B81"/>
					<stop  offset="1" style="stop-color:#6D6C6C"/>
				</radialGradient>
				<path fill-rule="evenodd" clip-rule="evenodd" fill="url(#SVGID_11_)" d="M222.4,49.5c1.6,1.6,2.5,3.5,2.6,5.8
					c0.1,2.2-0.7,4.1-2.2,5.7c-1.5,1.6-3.4,2.3-5.6,2.3c-2.2,0-4.1-0.8-5.8-2.3c-1.6-1.6-2.5-3.5-2.6-5.7c-0.1-2.2,0.6-4.1,2.2-5.8
					c1.5-1.6,3.4-2.4,5.6-2.4C218.8,47.1,220.7,47.9,222.4,49.5z"/>
				
					<path fill-rule="evenodd" clip-rule="evenodd" fill="none" stroke="#7E857A" stroke-width="0.1" stroke-linecap="round" stroke-linejoin="round" stroke-miterlimit="3" d="
					M222.4,49.5c1.6,1.6,2.5,3.5,2.6,5.8c0.1,2.2-0.7,4.1-2.2,5.7c-1.5,1.6-3.4,2.3-5.6,2.3c-2.2,0-4.1-0.8-5.8-2.3
					c-1.6-1.6-2.5-3.5-2.6-5.7c-0.1-2.2,0.6-4.1,2.2-5.8c1.5-1.6,3.4-2.4,5.6-2.4C218.8,47.1,220.7,47.9,222.4,49.5z"/>
			</g>
			<g>
				<path fill-rule="evenodd" clip-rule="evenodd" fill="#DDDEDC" d="M216.5,51.9c0.6,0,1.1,0.2,1.4,0.7c0.4,0.5,0.7,1.2,0.8,2.3
					c0,1.1-0.1,1.9-0.5,2.4c-0.4,0.4-0.9,0.7-1.6,0.7c-0.5,0-0.9-0.1-1.2-0.4c-0.3-0.2-0.5-0.6-0.6-1.1l1.1-0.1
					c0,0.2,0.1,0.4,0.3,0.4c0.1,0.1,0.2,0.2,0.4,0.2c0.3,0,0.5-0.1,0.6-0.3c0.2-0.2,0.3-0.7,0.3-1.4c-0.3,0.3-0.6,0.4-1,0.4
					c-0.5,0-0.9-0.2-1.3-0.5c-0.4-0.4-0.6-0.8-0.6-1.4c0-0.6,0.2-1,0.5-1.4C215.4,52,215.9,51.9,216.5,51.9z M217.3,54
					c0-0.4-0.1-0.7-0.3-0.9c-0.2-0.2-0.4-0.3-0.6-0.3c-0.2,0-0.4,0.1-0.5,0.3c-0.2,0.2-0.3,0.4-0.3,0.8c0,0.4,0.1,0.7,0.3,0.9
					c0.1,0.1,0.3,0.2,0.5,0.2c0.2,0,0.4-0.1,0.6-0.2C217.3,54.5,217.3,54.3,217.3,54z"/>
			</g>
		</g>
		<g>
			<g>
				
					<radialGradient id="SVGID_12_" cx="203.7925" cy="72.25" r="10.625" gradientTransform="matrix(1 0 3.647059e-002 1 10.7224 0)" gradientUnits="userSpaceOnUse">
					<stop  offset="0" style="stop-color:#858B81"/>
					<stop  offset="0.5843" style="stop-color:#858B81"/>
					<stop  offset="1" style="stop-color:#6D6C6C"/>
				</radialGradient>
				<path fill-rule="evenodd" clip-rule="evenodd" fill="url(#SVGID_12_)" d="M212,80.2c-1.6-1.6-2.5-3.5-2.5-5.7
					c-0.1-2.2,0.7-4.1,2.2-5.7c1.5-1.6,3.4-2.4,5.6-2.4s4.2,0.8,5.8,2.4c1.6,1.6,2.5,3.5,2.6,5.7c0.1,2.2-0.6,4.1-2.1,5.7
					c-1.5,1.6-3.4,2.4-5.6,2.4S213.7,81.8,212,80.2z"/>
				
					<path fill-rule="evenodd" clip-rule="evenodd" fill="none" stroke="#7E857A" stroke-width="0.1" stroke-linecap="round" stroke-linejoin="round" stroke-miterlimit="3" d="
					M212,80.2c-1.6-1.6-2.5-3.5-2.5-5.7c-0.1-2.2,0.7-4.1,2.2-5.7c1.5-1.6,3.4-2.4,5.6-2.4s4.2,0.8,5.8,2.4c1.6,1.6,2.5,3.5,2.6,5.7
					c0.1,2.2-0.6,4.1-2.1,5.7c-1.5,1.6-3.4,2.4-5.6,2.4S213.7,81.8,212,80.2z"/>
			</g>
			<g>
				<path fill-rule="evenodd" clip-rule="evenodd" fill="#DDDEDC" d="M218.5,72c0.3,0.2,0.5,0.6,0.6,1.1l-1.1,0.1
					c0-0.2-0.1-0.4-0.2-0.5c-0.1-0.1-0.3-0.2-0.5-0.2c-0.2,0-0.4,0.1-0.6,0.3c-0.2,0.2-0.3,0.7-0.3,1.4c0.2-0.4,0.5-0.5,0.9-0.5
					c0.5,0,1,0.2,1.4,0.5c0.3,0.4,0.5,0.9,0.5,1.5c0,0.6-0.2,1.1-0.5,1.4c-0.4,0.4-0.8,0.6-1.4,0.6c-0.6,0-1.1-0.3-1.5-0.8
					c-0.4-0.4-0.6-1.2-0.6-2.3c0-1,0.2-1.8,0.6-2.3c0.3-0.4,0.8-0.7,1.4-0.7C217.7,71.6,218.1,71.7,218.5,72z M216.5,75.6
					c0,0.4,0.1,0.6,0.3,0.8c0.2,0.2,0.4,0.3,0.6,0.3c0.1,0,0.3-0.1,0.5-0.3c0.2-0.2,0.3-0.4,0.3-0.8c0-0.4-0.1-0.7-0.3-0.9
					c-0.2-0.2-0.4-0.3-0.6-0.3c-0.2,0-0.4,0.1-0.5,0.3C216.6,75,216.5,75.2,216.5,75.6z"/>
			</g>
		</g>
		<g>
			<g>
				
					<radialGradient id="SVGID_13_" cx="188.4561" cy="72.25" r="10.625" gradientTransform="matrix(1 0 1.882353e-002 1 5.5342 0)" gradientUnits="userSpaceOnUse">
					<stop  offset="0" style="stop-color:#858B81"/>
					<stop  offset="0.5843" style="stop-color:#858B81"/>
					<stop  offset="1" style="stop-color:#6D6C6C"/>
				</radialGradient>
				<path fill-rule="evenodd" clip-rule="evenodd" fill="url(#SVGID_13_)" d="M203.8,74.5c0,2.2-0.7,4.1-2.3,5.7
					c-1.6,1.6-3.5,2.4-5.7,2.4s-4.1-0.8-5.7-2.4c-1.6-1.6-2.5-3.5-2.5-5.7s0.7-4.1,2.3-5.7c1.6-1.6,3.5-2.4,5.7-2.4s4.1,0.8,5.7,2.4
					C202.9,70.4,203.8,72.3,203.8,74.5z"/>
				
					<path fill-rule="evenodd" clip-rule="evenodd" fill="none" stroke="#7E857A" stroke-width="0.1" stroke-linecap="round" stroke-linejoin="round" stroke-miterlimit="3" d="
					M203.8,74.5c0,2.2-0.7,4.1-2.3,5.7c-1.6,1.6-3.5,2.4-5.7,2.4s-4.1-0.8-5.7-2.4c-1.6-1.6-2.5-3.5-2.5-5.7s0.7-4.1,2.3-5.7
					c1.6-1.6,3.5-2.4,5.7-2.4s4.1,0.8,5.7,2.4C202.9,70.4,203.8,72.3,203.8,74.5z"/>
			</g>
			<g>
				<path fill-rule="evenodd" clip-rule="evenodd" fill="#DDDEDC" d="M197.4,72.8h-2.1l-0.1,1c0.3-0.1,0.6-0.2,0.8-0.2
					c0.5,0,1,0.2,1.3,0.6c0.4,0.4,0.6,0.8,0.6,1.4c0,0.5-0.1,0.9-0.4,1.3c-0.4,0.5-0.9,0.8-1.6,0.8c-0.6,0-1-0.1-1.4-0.4
					c-0.3-0.3-0.6-0.8-0.7-1.3l1.1-0.1c0.1,0.3,0.2,0.5,0.4,0.6c0.2,0.1,0.4,0.2,0.5,0.2c0.2,0,0.4-0.1,0.6-0.3
					c0.2-0.2,0.2-0.5,0.1-0.9c0-0.4-0.1-0.7-0.2-0.8c-0.2-0.2-0.4-0.3-0.7-0.3c-0.3,0-0.6,0.1-0.9,0.5l-0.9-0.1l0.5-3.1h3V72.8z"/>
			</g>
		</g>
		<g>
			<g>
				
					<radialGradient id="SVGID_14_" cx="173.5498" cy="72.25" r="10.625" gradientTransform="matrix(1 2.352922e-003 -2.352948e-003 1 0.1706 -0.409)" gradientUnits="userSpaceOnUse">
					<stop  offset="0" style="stop-color:#858B81"/>
					<stop  offset="0.5843" style="stop-color:#858B81"/>
					<stop  offset="1" style="stop-color:#6D6C6C"/>
				</radialGradient>
				<path fill-rule="evenodd" clip-rule="evenodd" fill="url(#SVGID_14_)" d="M168.1,80.2c-1.6-1.6-2.4-3.5-2.4-5.7s0.8-4.1,2.4-5.7
					c1.6-1.6,3.5-2.4,5.7-2.4s4.1,0.8,5.7,2.4c1.6,1.6,2.4,3.5,2.4,5.7s-0.8,4.1-2.4,5.7c-1.6,1.6-3.5,2.4-5.7,2.4
					S169.7,81.8,168.1,80.2z"/>
				
					<path fill-rule="evenodd" clip-rule="evenodd" fill="none" stroke="#7E857A" stroke-width="0.1" stroke-linecap="round" stroke-linejoin="round" stroke-miterlimit="3" d="
					M168.1,80.2c-1.6-1.6-2.4-3.5-2.4-5.7s0.8-4.1,2.4-5.7c1.6-1.6,3.5-2.4,5.7-2.4s4.1,0.8,5.7,2.4c1.6,1.6,2.4,3.5,2.4,5.7
					s-0.8,4.1-2.4,5.7c-1.6,1.6-3.5,2.4-5.7,2.4S169.7,81.8,168.1,80.2z"/>
			</g>
			<g>
				<path fill-rule="evenodd" clip-rule="evenodd" fill="#DDDEDC" d="M172.4,75.3h1.3v-2L172.4,75.3z M171.3,76.3v-1l2.6-3.8h1v3.8
					h0.7v1h-0.7v1.3h-1.2v-1.3H171.3z"/>
			</g>
		</g>
		<g>
			<g>
				
					<radialGradient id="SVGID_15_" cx="173.3999" cy="92.9502" r="10.625" gradientTransform="matrix(1 2.352922e-003 -2.352948e-003 1 0.2194 -0.4088)" gradientUnits="userSpaceOnUse">
					<stop  offset="0" style="stop-color:#858B81"/>
					<stop  offset="0.5843" style="stop-color:#858B81"/>
					<stop  offset="1" style="stop-color:#6D6C6C"/>
				</radialGradient>
				<path fill-rule="evenodd" clip-rule="evenodd" fill="url(#SVGID_15_)" d="M179.5,101c-1.6,1.6-3.5,2.3-5.8,2.3
					c-2.2,0-4.1-0.8-5.7-2.3c-1.6-1.6-2.4-3.5-2.4-5.8s0.8-4.1,2.4-5.7c1.6-1.6,3.5-2.3,5.7-2.3c2.2,0,4.1,0.8,5.8,2.3
					c1.6,1.6,2.3,3.5,2.3,5.7S181,99.3,179.5,101z"/>
				
					<path fill-rule="evenodd" clip-rule="evenodd" fill="none" stroke="#7E857A" stroke-width="0.1" stroke-linecap="round" stroke-linejoin="round" stroke-miterlimit="3" d="
					M179.5,101c-1.6,1.6-3.5,2.3-5.8,2.3c-2.2,0-4.1-0.8-5.7-2.3c-1.6-1.6-2.4-3.5-2.4-5.8s0.8-4.1,2.4-5.7c1.6-1.6,3.5-2.3,5.7-2.3
					c2.2,0,4.1,0.8,5.8,2.3c1.6,1.6,2.3,3.5,2.3,5.7S181,99.3,179.5,101z"/>
			</g>
			<g>
				<path fill-rule="evenodd" clip-rule="evenodd" fill="#DDDEDC" d="M174.4,92.1v6h-1.1v-4.3c-0.4,0.4-0.9,0.7-1.5,0.9v-1.1
					c0.3-0.1,0.7-0.3,1-0.5c0.4-0.3,0.6-0.6,0.7-1H174.4z"/>
			</g>
		</g>
		<g>
			<g>
				
					<radialGradient id="SVGID_16_" cx="187.5664" cy="92.9502" r="10.625" gradientTransform="matrix(1 0 1.882353e-002 1 5.5342 0)" gradientUnits="userSpaceOnUse">
					<stop  offset="0" style="stop-color:#858B81"/>
					<stop  offset="0.5843" style="stop-color:#858B81"/>
					<stop  offset="1" style="stop-color:#6D6C6C"/>
				</radialGradient>
				<path fill-rule="evenodd" clip-rule="evenodd" fill="url(#SVGID_16_)" d="M203.3,95.2c0.1,2.2-0.7,4.1-2.3,5.8
					c-1.6,1.6-3.5,2.3-5.7,2.3s-4.1-0.8-5.7-2.3c-1.6-1.6-2.5-3.5-2.5-5.8s0.7-4.1,2.3-5.7c1.6-1.6,3.5-2.3,5.7-2.3s4.1,0.8,5.8,2.3
					S203.3,93,203.3,95.2z"/>
				
					<path fill-rule="evenodd" clip-rule="evenodd" fill="none" stroke="#7E857A" stroke-width="0.1" stroke-linecap="round" stroke-linejoin="round" stroke-miterlimit="3" d="
					M203.3,95.2c0.1,2.2-0.7,4.1-2.3,5.8c-1.6,1.6-3.5,2.3-5.7,2.3s-4.1-0.8-5.7-2.3c-1.6-1.6-2.5-3.5-2.5-5.8s0.7-4.1,2.3-5.7
					c1.6-1.6,3.5-2.3,5.7-2.3s4.1,0.8,5.8,2.3S203.3,93,203.3,95.2z"/>
			</g>
			<g>
				<path fill-rule="evenodd" clip-rule="evenodd" fill="#DDDEDC" d="M193.5,97.1c0.2-0.3,0.6-0.8,1.2-1.4c0.5-0.5,0.9-0.8,1-1
					c0.1-0.3,0.2-0.5,0.2-0.8s-0.1-0.4-0.3-0.5c-0.1-0.2-0.3-0.3-0.5-0.3c-0.2,0-0.4,0.1-0.6,0.3c-0.1,0.1-0.1,0.3-0.1,0.6l-1.3,0
					c0.1-0.6,0.3-1.1,0.6-1.3c0.3-0.3,0.8-0.4,1.3-0.4c0.6,0,1.1,0.2,1.4,0.5c0.3,0.3,0.5,0.7,0.5,1.2c0,0.3,0,0.5-0.1,0.8
					c-0.1,0.2-0.3,0.5-0.5,0.8c-0.1,0.1-0.4,0.4-0.8,0.8c-0.3,0.3-0.5,0.5-0.6,0.6c-0.1,0.1-0.1,0.3-0.3,0.4h2.3v1h-4
					C193.2,97.8,193.4,97.5,193.5,97.1z"/>
			</g>
		</g>
		<g>
			<g>
				
					<radialGradient id="SVGID_17_" cx="203.7876" cy="92.9502" r="10.625" gradientTransform="matrix(1 0 3.647059e-002 1 10.7224 0)" gradientUnits="userSpaceOnUse">
					<stop  offset="0" style="stop-color:#858B81"/>
					<stop  offset="0.5843" style="stop-color:#858B81"/>
					<stop  offset="1" style="stop-color:#6D6C6C"/>
				</radialGradient>
				<path fill-rule="evenodd" clip-rule="evenodd" fill="url(#SVGID_17_)" d="M212.4,89.5c1.5-1.6,3.4-2.3,5.6-2.3
					c2.2,0,4.2,0.8,5.8,2.3c1.6,1.6,2.5,3.5,2.6,5.7c0.1,2.2-0.7,4.1-2.2,5.8c-1.5,1.6-3.4,2.3-5.6,2.3c-2.2,0-4.1-0.8-5.8-2.3
					c-1.6-1.6-2.5-3.5-2.5-5.8C210.1,93,210.8,91.1,212.4,89.5z"/>
				
					<path fill-rule="evenodd" clip-rule="evenodd" fill="none" stroke="#7E857A" stroke-width="0.1" stroke-linecap="round" stroke-linejoin="round" stroke-miterlimit="3" d="
					M212.4,89.5c1.5-1.6,3.4-2.3,5.6-2.3c2.2,0,4.2,0.8,5.8,2.3c1.6,1.6,2.5,3.5,2.6,5.7c0.1,2.2-0.7,4.1-2.2,5.8
					c-1.5,1.6-3.4,2.3-5.6,2.3c-2.2,0-4.1-0.8-5.8-2.3c-1.6-1.6-2.5-3.5-2.5-5.8C210.1,93,210.8,91.1,212.4,89.5z"/>
			</g>
			<g>
				<path fill-rule="evenodd" clip-rule="evenodd" fill="#DDDEDC" d="M219.9,93.8c0,0.5-0.2,1-0.8,1.3c0.3,0,0.6,0.2,0.9,0.4
					c0.2,0.3,0.3,0.6,0.3,1c0,0.5-0.2,1-0.5,1.3c-0.3,0.4-0.8,0.6-1.5,0.6c-0.5,0-0.9-0.2-1.3-0.5c-0.4-0.3-0.6-0.7-0.7-1.3l1.1-0.1
					c0.1,0.3,0.1,0.5,0.3,0.7c0.2,0.2,0.4,0.3,0.6,0.3c0.3,0,0.5-0.1,0.6-0.3c0.2-0.2,0.3-0.4,0.3-0.7c0-0.3-0.1-0.5-0.3-0.7
					c-0.1-0.2-0.3-0.3-0.5-0.3c-0.2,0-0.4,0-0.6,0.1l0.1-0.9c0.3,0,0.6-0.1,0.8-0.2c0.1-0.1,0.2-0.3,0.2-0.5c0-0.2-0.1-0.4-0.2-0.5
					c-0.1-0.1-0.2-0.2-0.4-0.2c-0.3,0-0.5,0.1-0.6,0.2c-0.1,0.2-0.2,0.4-0.3,0.6l-1-0.2c0.1-0.3,0.2-0.6,0.3-0.8
					c0.1-0.2,0.3-0.4,0.6-0.5c0.3-0.1,0.6-0.2,0.9-0.2c0.6,0,1.1,0.2,1.5,0.5C219.7,93.1,219.9,93.4,219.9,93.8z"/>
			</g>
		</g>
		<g>
			<g>
				
					<radialGradient id="SVGID_18_" cx="203.8027" cy="113.0996" r="10.625" gradientTransform="matrix(1 0 3.647059e-002 1 10.7224 0)" gradientUnits="userSpaceOnUse">
					<stop  offset="0" style="stop-color:#858B81"/>
					<stop  offset="0.5843" style="stop-color:#858B81"/>
					<stop  offset="1" style="stop-color:#6D6C6C"/>
				</radialGradient>
				<path fill-rule="evenodd" clip-rule="evenodd" fill="url(#SVGID_18_)" d="M224.9,121c-1.5,1.6-3.4,2.4-5.6,2.4
					c-2.2,0-4.2-0.8-5.8-2.4c-1.6-1.6-2.5-3.5-2.6-5.7c-0.1-2.2,0.7-4.1,2.2-5.8c1.5-1.6,3.4-2.3,5.6-2.3c2.2,0,4.2,0.8,5.8,2.3
					c1.6,1.6,2.5,3.5,2.6,5.8C227.2,117.5,226.4,119.5,224.9,121z"/>
				
					<path fill-rule="evenodd" clip-rule="evenodd" fill="none" stroke="#7E857A" stroke-width="0.1" stroke-linecap="round" stroke-linejoin="round" stroke-miterlimit="3" d="
					M224.9,121c-1.5,1.6-3.4,2.4-5.6,2.4c-2.2,0-4.2-0.8-5.8-2.4c-1.6-1.6-2.5-3.5-2.6-5.7c-0.1-2.2,0.7-4.1,2.2-5.8
					c1.5-1.6,3.4-2.3,5.6-2.3c2.2,0,4.2,0.8,5.8,2.3c1.6,1.6,2.5,3.5,2.6,5.8C227.2,117.5,226.4,119.5,224.9,121z"/>
			</g>
			<g>
				<path fill-rule="evenodd" clip-rule="evenodd" fill="#DDDEDC" d="M216.3,113.3c0.2,0.2,0.4,0.4,0.5,0.8l-0.8,0.2
					c0-0.3-0.1-0.5-0.3-0.5c-0.2-0.1-0.4-0.2-0.6-0.2c-0.3,0-0.5,0.1-0.7,0.3c-0.2,0.2-0.2,0.6-0.2,1.1c0,0.5,0.1,0.9,0.2,1.1
					c0.2,0.2,0.5,0.3,0.8,0.3c0.2,0,0.4-0.1,0.5-0.3c0.2-0.1,0.3-0.3,0.4-0.6l0.8,0.3c-0.1,0.4-0.3,0.8-0.6,1
					c-0.3,0.2-0.6,0.3-1,0.3c-0.5,0-1-0.2-1.3-0.5c-0.4-0.3-0.6-0.8-0.6-1.5c0-0.7,0.1-1.2,0.5-1.5c0.4-0.4,0.8-0.5,1.3-0.5
					C215.7,112.9,216.1,113,216.3,113.3z M218.4,113l0.1,3.3h2v0.7h-2.9l-0.1-4H218.4z M223.5,113c0.2,0.1,0.3,0.3,0.4,0.5
					c0.1,0.2,0.2,0.4,0.2,0.6c0,0.3-0.1,0.5-0.2,0.8c-0.2,0.2-0.4,0.3-0.8,0.4c0.1,0.1,0.3,0.2,0.4,0.3c0.1,0.1,0.3,0.3,0.5,0.6
					l0.6,0.8h-1L223,116c-0.2-0.3-0.3-0.5-0.4-0.5c-0.1-0.1-0.2-0.1-0.3-0.2c-0.1,0-0.2,0-0.4,0h-0.1l0,1.7H221l-0.1-4h1.6
					C223,112.9,223.3,112.9,223.5,113z M221.6,113.7l0.1,0.9h0.6c0.4,0,0.6,0,0.7,0c0.1,0,0.1-0.1,0.2-0.1c0.1-0.1,0.1-0.2,0.1-0.4
					c0-0.1,0-0.2-0.1-0.3c0,0-0.1-0.1-0.3-0.1c-0.1,0-0.3,0-0.5,0H221.6z"/>
			</g>
		</g>
		<g>
			<g>
				
					<radialGradient id="SVGID_19_" cx="188.437" cy="113.0996" r="10.625" gradientTransform="matrix(1 0 1.882353e-002 1 5.5342 0)" gradientUnits="userSpaceOnUse">
					<stop  offset="0" style="stop-color:#858B81"/>
					<stop  offset="0.5843" style="stop-color:#858B81"/>
					<stop  offset="1" style="stop-color:#6D6C6C"/>
				</radialGradient>
				<path fill-rule="evenodd" clip-rule="evenodd" fill="url(#SVGID_19_)" d="M188.4,115.3c0-2.2,0.7-4.1,2.3-5.8
					c1.6-1.6,3.5-2.3,5.8-2.3c2.2,0,4.1,0.8,5.7,2.3c1.6,1.6,2.4,3.5,2.5,5.8c0,2.2-0.7,4.1-2.3,5.7c-1.6,1.6-3.5,2.4-5.8,2.4
					c-2.2,0-4.1-0.8-5.7-2.4C189.3,119.5,188.4,117.5,188.4,115.3z"/>
				
					<path fill-rule="evenodd" clip-rule="evenodd" fill="none" stroke="#7E857A" stroke-width="0.1" stroke-linecap="round" stroke-linejoin="round" stroke-miterlimit="3" d="
					M188.4,115.3c0-2.2,0.7-4.1,2.3-5.8c1.6-1.6,3.5-2.3,5.8-2.3c2.2,0,4.1,0.8,5.7,2.3c1.6,1.6,2.4,3.5,2.5,5.8
					c0,2.2-0.7,4.1-2.3,5.7c-1.6,1.6-3.5,2.4-5.8,2.4c-2.2,0-4.1-0.8-5.7-2.4C189.3,119.5,188.4,117.5,188.4,115.3z"/>
			</g>
			<g>
				<rect x="195.1" y="114" fill-rule="evenodd" clip-rule="evenodd" fill="#DDDEDC" width="2.4" height="2.4"/>
			</g>
		</g>
		<g>
			<g>
				
					<radialGradient id="SVGID_20_" cx="173.3501" cy="113.0996" r="10.625" gradientTransform="matrix(1 2.352922e-003 -2.352948e-003 1 0.2668 -0.4088)" gradientUnits="userSpaceOnUse">
					<stop  offset="0" style="stop-color:#858B81"/>
					<stop  offset="0.5843" style="stop-color:#858B81"/>
					<stop  offset="1" style="stop-color:#6D6C6C"/>
				</radialGradient>
				<path fill-rule="evenodd" clip-rule="evenodd" fill="url(#SVGID_20_)" d="M179.4,121c-1.6,1.6-3.5,2.4-5.8,2.4s-4.1-0.8-5.7-2.4
					c-1.6-1.6-2.4-3.5-2.4-5.7c0-2.2,0.8-4.1,2.4-5.8c1.6-1.6,3.5-2.3,5.7-2.3s4.1,0.8,5.8,2.3c1.6,1.6,2.4,3.5,2.4,5.8
					C181.8,117.5,181,119.5,179.4,121z"/>
				
					<path fill-rule="evenodd" clip-rule="evenodd" fill="none" stroke="#7E857A" stroke-width="0.1" stroke-linecap="round" stroke-linejoin="round" stroke-miterlimit="3" d="
					M179.4,121c-1.6,1.6-3.5,2.4-5.8,2.4s-4.1-0.8-5.7-2.4c-1.6-1.6-2.4-3.5-2.4-5.7c0-2.2,0.8-4.1,2.4-5.8c1.6-1.6,3.5-2.3,5.7-2.3
					s4.1,0.8,5.8,2.3c1.6,1.6,2.4,3.5,2.4,5.8C181.8,117.5,181,119.5,179.4,121z"/>
			</g>
			<g>
				<path fill-rule="evenodd" clip-rule="evenodd" fill="#DDDEDC" d="M174,113.5c-0.1-0.1-0.2-0.2-0.4-0.2c-0.1,0-0.3,0.1-0.3,0.2
					c-0.1,0.1-0.2,0.3-0.2,0.5c-0.1,0.3-0.2,0.8-0.2,1.5s0.1,1.2,0.2,1.5c0,0.2,0.1,0.4,0.2,0.5c0.1,0.1,0.2,0.2,0.3,0.2
					c0.2,0,0.3-0.1,0.4-0.2c0.1-0.1,0.2-0.3,0.3-0.5c0.1-0.3,0.1-0.8,0.1-1.5s-0.1-1.2-0.1-1.5C174.2,113.8,174.1,113.6,174,113.5z
					 M173.5,112.4c0.6,0,1.1,0.2,1.4,0.6c0.4,0.5,0.5,1.3,0.5,2.5c0,1.1-0.2,2-0.5,2.5c-0.3,0.4-0.8,0.6-1.4,0.6
					c-0.5,0-1-0.2-1.3-0.7c-0.4-0.4-0.6-1.2-0.6-2.3c0-1.1,0.2-2,0.6-2.5C172.6,112.6,173,112.4,173.5,112.4z"/>
			</g>
		</g>
	</g>
	<g>
		<g>
			<path fill-rule="evenodd" clip-rule="evenodd" fill="#A6A68E" d="M7.5,44c0-3.7,1.9-5.6,5.6-5.6h125.7c3.7,0,5.6,1.9,5.6,5.6
				l1.1,83.5c0,3.8-1.9,5.7-5.6,5.7H12c-3.7,0-5.6-1.9-5.6-5.7L7.5,44z"/>
		</g>
		<g>
			<radialGradient id="SVGID_21_" cx="17.5498" cy="61" r="101.6" fx="13.1671" fy="61" gradientUnits="userSpaceOnUse">
				<stop  offset="0" style="stop-color:#D7E2D4"/>
				<stop  offset="0.1176" style="stop-color:#B7C1B0"/>
				<stop  offset="0.298" style="stop-color:#848E77"/>
				<stop  offset="0.4627" style="stop-color:#5C6848"/>
				<stop  offset="1" style="stop-color:#374217"/>
			</radialGradient>
			<path fill-rule="evenodd" clip-rule="evenodd" fill="url(#SVGID_21_)" d="M29.4,101.8c-3.7,0-5.6-1.9-5.6-5.6V71.6
				c0-3.7,1.9-5.6,5.6-5.6h93c3.8,0,5.6,1.9,5.6,5.6v24.7c0,3.7-1.9,5.6-5.6,5.6H29.4z"/>
			
				<path fill-rule="evenodd" clip-rule="evenodd" fill="none" stroke="#515F50" stroke-width="2" stroke-linecap="round" stroke-linejoin="round" stroke-miterlimit="3" d="
				M29.4,101.8h93c3.8,0,5.6-1.9,5.6-5.6V71.6c0-3.7-1.9-5.6-5.6-5.6h-93c-3.7,0-5.6,1.9-5.6,5.6v24.7
				C23.8,100,25.6,101.8,29.4,101.8z"/>
		</g>
		<g>
			<path fill-rule="evenodd" clip-rule="evenodd" fill="#66614E" d="M41.8,47c-0.2,0-0.3-0.1-0.5-0.2c-0.1-0.1-0.1-0.3-0.1-0.5
				c0-0.1,0.1-0.3,0.1-0.4c0.1-0.1,0.3-0.2,0.5-0.2h68c0.2,0,0.3,0.1,0.4,0.2c0.1,0.1,0.2,0.3,0.2,0.4c0,0.2-0.1,0.3-0.2,0.5
				c-0.1,0.1-0.2,0.2-0.4,0.2H41.8z M110.4,120.8c0,0.2-0.1,0.3-0.2,0.5c-0.1,0.1-0.2,0.2-0.4,0.2h-68c-0.2,0-0.3,0-0.5-0.2
				c-0.1-0.1-0.1-0.3-0.1-0.5c0-0.2,0.1-0.3,0.1-0.4c0.1-0.1,0.3-0.2,0.5-0.2h68c0.2,0,0.3,0.1,0.4,0.2
				C110.3,120.5,110.4,120.7,110.4,120.8z"/>
			<path fill-rule="evenodd" clip-rule="evenodd" fill="#678C94" d="M121.5,110.8c0,0.2-0.1,0.3-0.2,0.4c-0.1,0.1-0.3,0.2-0.5,0.2
				h-89c-0.2,0-0.3-0.1-0.4-0.2c-0.1-0.1-0.2-0.2-0.2-0.4c0-0.2,0.1-0.3,0.2-0.4c0.1-0.1,0.3-0.2,0.4-0.2h89c0.2,0,0.3,0,0.5,0.2
				C121.5,110.5,121.5,110.7,121.5,110.8z M31.5,55.4c0.1-0.1,0.3-0.1,0.4-0.1h89c0.2,0,0.3,0,0.5,0.1c0.1,0.1,0.2,0.3,0.2,0.5
				c0,0.2-0.1,0.3-0.2,0.4c-0.1,0.1-0.3,0.2-0.5,0.2h-89c-0.2,0-0.3-0.1-0.4-0.2c-0.1-0.1-0.2-0.2-0.2-0.4
				C31.3,55.7,31.4,55.5,31.5,55.4z"/>
		</g>
	</g>
	<g>
		<polygon fill-rule="evenodd" clip-rule="evenodd" fill="#A6A68E" points="5.5,150 333.3,150 333.5,153.5 5.2,153.5 		"/>
	</g>
	<g>
		<polygon fill-rule="evenodd" clip-rule="evenodd" fill="#A6A68E" points="10.8,12.1 93.8,12.1 93.5,15.5 10.5,15.5 		"/>
	</g>
	<g>
		<polygon fill-rule="evenodd" clip-rule="evenodd" fill="#A6A68E" points="323.9,12.1 324.1,15.5 241.2,15.5 240.9,12.1 		"/>
	</g>
	<g>
		<path fill-rule="evenodd" clip-rule="evenodd" fill="#A6A68E" d="M102.8,9.1c0.2-0.2,0.5-0.5,0.9-0.9c0.2-0.1,0.5-0.3,0.7-0.5
			c0.4-0.3,0.6-0.5,0.6-0.6c0.5-0.4,1.2-0.7,2-0.9c0.9-0.2,1.7-0.3,2.5-0.3c0.9,0,1.9,0.1,2.9,0.1c1,0.1,2.1,0.2,3.1,0.3
			c1.1,0.1,2,0.2,2.8,0.2c0.4,0,0.7,0,0.9,0c0.2-0.1,0.3-0.1,0.5-0.2c0.2,0,0.3,0.1,0.3,0.2c0.1,0.1,0.1,0.2,0.1,0.4
			c0,0.1,0,0.2-0.1,0.4l-0.2,0.4c-0.1,0.4-0.3,0.6-0.4,0.6c-0.2,0.1-0.6,0.2-1.4,0.2c-0.2,0-0.4,0.2-0.6,0.6
			c-0.1,0.2-0.4,0.8-0.6,1.8c-0.3,0.9-0.7,1.8-1,2.7c0.2,0,0.6,0,1.1,0c0.5,0,0.8,0.1,0.8,0.1c0.6,0,1.1,0,1.4-0.1
			c0.3-0.1,0.5-0.2,0.8-0.3c0.1,0,0.2,0,0.3,0.1c0.1,0,0.2,0.1,0.2,0.2c0,0.2-0.1,0.5-0.3,0.9c-0.2,0.4-0.4,0.6-0.6,0.7
			c-0.3,0.1-0.6,0.1-1.1,0.1c-0.5,0-1.1,0.1-1.9,0.1H115c-0.6,1.9-1.7,3.5-3.2,4.9c-1.4,1.2-2.6,1.9-3.9,1.9c-0.7,0-1.3-0.1-1.5-0.3
			c-0.3-0.2-0.5-0.4-0.5-0.6c0-0.3,0-0.6,0.1-1c0.1-0.1,0.1-0.3,0.1-0.5c0.2-0.2,0.5-0.6,1.1-1.1c0.6-0.4,1-0.7,1.2-0.7
			c0.2,0,0.3,0.1,0.4,0.3c0.1,0.2,0.2,0.3,0.2,0.4c0,0.2-0.1,0.4-0.3,0.6c-0.2,0.3-0.3,0.5-0.3,0.8c0,0.2,0,0.3,0.1,0.5
			c0.1,0.2,0.3,0.3,0.5,0.3c0.6,0,1.2-0.4,1.8-1.1c0.5-0.6,1-1.3,1.5-2.3c0.4-0.7,0.7-1.5,0.9-2.2c-0.1,0-0.3,0-0.4,0
			c-0.7-0.1-1.4-0.1-2.1-0.1c-0.6,0-1.1,0-1.4,0c0,0-0.1,0-0.1,0c-0.1,0-0.2,0.1-0.3,0.2c-0.2,0.2-0.3,0.3-0.4,0.3
			c-0.1,0-0.2,0-0.2-0.1c-0.1-0.1-0.1-0.1-0.1-0.1c0-0.8,0.4-1.3,1.3-1.7c0.7-0.3,1.5-0.4,2.3-0.4c0.2,0,0.5,0,1,0c0.4,0,0.8,0,1,0
			c0.1-0.3,0.5-1.3,1.1-2.9c0.4-1,0.7-1.7,0.8-2c-0.1-0.1-1-0.2-2.6-0.4C111.4,8,110.3,8,109.8,8c-1.8,0-3.1,0.1-4,0.3
			c-1.2,0.4-1.9,0.9-1.9,1.6c0,0.5,0.2,0.9,0.6,1.1c0.4,0.2,0.8,0.5,1.3,0.8c0,0,0.1,0.1,0.1,0.2c0.1,0.3,0.1,0.6,0.1,0.8
			c0,0.2-0.1,0.3-0.2,0.4c-0.2,0.1-0.4,0.2-0.5,0.2s-0.2,0-0.3,0c-0.2-0.1-0.4-0.2-0.5-0.2c-0.3-0.2-0.6-0.3-0.8-0.5
			c-0.2-0.1-0.4-0.4-0.6-0.9c-0.2-0.3-0.3-0.4-0.4-0.5c-0.1-0.2-0.2-0.5-0.2-0.7C102.5,9.8,102.6,9.4,102.8,9.1z M175.3,6
			c0.4-0.2,0.7-0.3,0.8-0.3c0.1,0,0.2,0,0.3,0.1c0.1,0.1,0.1,0.2,0.1,0.3c0,0.3-0.4,1.5-1.2,3.5c-0.7,1.8-1.3,3.1-1.8,3.9
			c0.6-0.6,1-1,1.4-1.3c0.7-0.7,1.2-1,1.5-1c0.2,0,0.3,0.1,0.4,0.3c0.1,0.2,0.2,0.4,0.2,0.6c0,0.4-0.1,0.9-0.3,1.6
			c-0.3,1.3-0.4,2.2-0.4,2.6c0,0.1,0.1,0.2,0.2,0.3c0.2,0,0.4,0.1,0.4,0.4c0,0.2,0,0.3-0.1,0.4c-0.4,0.2-0.8,0.4-1.1,0.6
			c-0.4,0-0.8-0.1-1-0.3c-0.2-0.2-0.3-0.5-0.3-0.9c0-0.4,0.1-0.9,0.3-1.4c0.4-1.3,0.5-2,0.5-2.3l-0.1,0c-0.6,0-1.2,0.5-1.8,1.6
			c-0.3,0.7-0.6,1.3-1,2c0,0-0.1,0.1-0.4,0.3c-0.5,0.3-0.8,0.4-0.9,0.4s-0.2,0-0.2-0.1c-0.1-0.1-0.1-0.2-0.1-0.3
			c0-0.3,0.1-0.8,0.3-1.3c0.3-0.7,0.5-1.1,0.5-1.1c0.1-0.4,0.3-1.3,0.8-2.5c0.4-1.1,0.9-2.3,1.4-3.5c0.5-1.2,0.9-1.9,1.1-2
			C174.6,6.3,174.9,6.1,175.3,6z M182.8,10.8c0.3,0.3,0.5,0.5,0.6,0.6c0.2,0.3,0.3,0.6,0.3,1.1c0,1.3-0.5,2.5-1.4,3.5
			s-2,1.6-3.1,1.6c-0.4,0-0.7-0.1-1-0.5c-0.3-0.3-0.4-0.6-0.4-0.9c0-0.2,0-0.4,0.1-0.8c0-0.3,0.1-0.5,0.1-0.6c0-0.6,0.4-1.3,1.2-2.1
			c0.7-0.8,1.3-1.3,1.9-1.5c0.2-0.3,0.4-0.5,0.5-0.5c0.2-0.2,0.5-0.3,0.8-0.3c0,0,0.1,0,0.2,0C182.6,10.5,182.7,10.6,182.8,10.8z
			 M180.5,14c-0.3,0.9-0.5,1.5-0.5,1.8c0,0.2,0,0.3,0,0.4c0,0.1,0.1,0.2,0.3,0.2c0.3,0,0.7-0.3,1.2-0.9c0.5-0.6,0.8-1.1,0.8-1.4
			c-0.2-0.1-0.4-0.4-0.6-0.7c-0.2-0.2-0.3-0.5-0.5-0.9C181,12.5,180.8,13,180.5,14z M165.6,9c0,0.9-0.2,2-0.6,3.3
			c-0.5,1.3-1,2.6-1.4,3.9c0,0,0,0.1,0.1,0.1c1-0.2,1.9-0.9,2.8-2c0.9-1.1,1.3-2.2,1.3-3.2c0-1.2-0.6-2.1-1.6-2.8
			c-1-0.6-2.1-0.9-3.3-0.9c-0.9,0-1.7,0.1-2.4,0.2c-0.7,0.2-1.2,0.4-1.5,0.7c0,0.1-0.2,0.3-0.5,0.7c-0.2,0.3-0.4,0.5-0.5,0.5
			c-0.3,0-0.4-0.1-0.5-0.3v-1c0.4-0.6,1.3-1.2,2.5-1.7c1.4-0.6,2.6-0.9,3.8-0.9c1.7,0,3.1,0.4,4.3,1.3C169.3,8,170,9.3,170,11
			c0,1.4-0.5,2.7-1.4,3.8c-0.9,1.1-2.1,1.9-3.5,2.2c-0.4,0.1-0.7,0.2-1.1,0.3c-0.5,0.2-0.9,0.4-1,0.6c-0.1,0.2-0.3,0.7-0.6,1.4
			c-0.2,0.7-0.4,1.2-0.4,1.4l0.1,0.1c0.1,0.1,0.1,0.2,0.1,0.2c0,0.1,0,0.2-0.1,0.3c0,0.1-0.1,0.2-0.1,0.2c0,0-0.3,0.1-0.9,0.3
			s-0.8,0.3-0.9,0.3c-0.1,0-0.2,0-0.3-0.1c-0.1-0.1-0.1-0.2-0.1-0.3c0-0.2,0.2-0.8,0.5-1.8c0.4-0.9,0.6-1.6,0.6-1.9
			c0,0-0.1-0.2-0.3-0.6c-0.1-0.2-0.1-0.3-0.1-0.3c0-0.1,0.1-0.1,0.3-0.3c0.5-0.2,0.8-0.4,0.9-0.5c0.3-0.8,0.8-1.9,1.4-3.5
			c0.6-1.6,1-2.6,1.2-3.1c0.4-0.9,0.8-1.3,1.1-1.3c0.1,0,0.2,0.1,0.3,0.2C165.6,8.8,165.6,8.9,165.6,9z M145.1,12.4
			c0,0.3-0.1,0.7-0.3,1.2c-0.3,1.1-0.4,1.7-0.4,2c0,0.1,0,0.3,0.1,0.5c0.1,0.1,0.2,0.3,0.2,0.4c0,0.2-0.1,0.3-0.4,0.4
			c-0.2,0.1-0.4,0.2-0.6,0.3c-0.1,0-0.3,0.1-0.4,0.3c-0.1,0.2-0.3,0.3-0.6,0.3c-0.2,0-0.4-0.1-0.5-0.3c-0.2-0.2-0.3-0.3-0.3-0.5
			c0-0.2,0.1-0.7,0.4-1.4c0.3-0.6,0.4-1.1,0.4-1.4c-0.1,0-0.3,0.2-0.6,0.6c-0.4,0.6-0.9,1.1-1.4,1.7c-0.1,0.1-0.3,0.2-0.7,0.5
			c-0.5,0.3-0.7,0.4-0.8,0.4c-0.1,0-0.3-0.1-0.5-0.3c-0.1-0.2-0.2-0.3-0.2-0.5c0-0.2,0.2-0.7,0.5-1.6c0.3-0.8,0.5-1.3,0.5-1.4
			c-0.1,0.2-0.2,0.4-0.3,0.4c-0.1,0.1-0.3,0.3-0.5,0.6c-0.5,0.7-0.9,1.2-1.3,1.6c-0.3,0.4-0.6,0.6-0.7,0.7c-0.2,0.1-0.5,0.3-0.9,0.4
			c-0.3,0.1-0.5,0.2-0.6,0.2c-0.2,0-0.3-0.1-0.4-0.4c-0.1-0.2-0.2-0.4-0.2-0.5c0-0.1,0.1-0.3,0.3-0.7c0.2-0.4,0.3-0.6,0.3-0.8
			c0.2-0.3,0.4-0.7,0.6-1.2c0.3-0.7,0.5-1.4,0.8-2.1c0-0.2,0.1-0.4,0.5-0.6c0.3-0.2,0.5-0.3,0.8-0.3c0.2,0,0.3,0.1,0.5,0.3
			c0.2,0.2,0.3,0.3,0.3,0.5c0,0.1-0.2,0.6-0.6,1.5c-0.4,0.9-0.7,1.5-0.8,1.7c0.2-0.2,1.1-1.2,2.6-2.9c0.6-0.7,1.1-1.1,1.5-1.1
			c0.1,0,0.3,0.1,0.4,0.3c0.1,0.2,0.1,0.4,0.1,0.6c0,0.2-0.1,0.7-0.4,1.5c-0.3,0.7-0.5,1.1-0.5,1.3c0.6-0.5,1.4-1.3,2.5-2.5
			c0.6-0.6,1-0.9,1.3-0.9c0.2,0,0.4,0.1,0.4,0.4C145.1,11.7,145.1,12,145.1,12.4z M151.9,11.1c0.2,0.2,0.3,0.4,0.3,0.8
			c0,0.3-0.1,0.7-0.2,1c-0.2,0.3-0.3,0.5-0.3,0.6c-0.2,0.5-0.5,0.9-0.9,1.4c-0.5,0.4-1,0.7-1.6,0.9c-0.1,0-0.1,0-0.1,0.1
			c0.1,0.2,0.3,0.3,0.5,0.5c0.3,0.2,0.5,0.3,0.7,0.3s0.4,0,0.6-0.1c0.2-0.1,0.4-0.1,0.6-0.2c0.1,0,0.1,0,0.3,0.1c0,0.1,0,0.1,0,0.3
			c0,0.3-0.3,0.5-0.8,0.7c-0.5,0.2-0.9,0.3-1.2,0.3c-0.2,0-0.4,0-0.7-0.1c-0.4-0.1-0.6-0.2-0.6-0.2c-0.9-0.2-1.4-0.3-1.5-0.4
			c-0.4-0.2-0.6-0.7-0.6-1.4c0-1.1,0.5-2.1,1.6-3.1c1.1-1.1,2.2-1.6,3.3-1.6C151.5,10.8,151.7,10.9,151.9,11.1z M151,12.5
			c0-0.2-0.1-0.4-0.4-0.4c-0.4,0-0.8,0.3-1.2,0.9c-0.4,0.7-0.6,1.2-0.6,1.7c0,0.1,0,0.1,0,0.1c0.1,0,0.2,0,0.2,0
			c0.3,0,0.7-0.3,1.2-0.9C150.7,13.3,151,12.8,151,12.5z M134,11.4c0,0.5-0.2,1.3-0.5,2.5c-0.4,1.1-0.5,1.9-0.5,2.5c0,0,0,0.1,0,0.4
			c0,0.2,0.1,0.3,0.1,0.3c-0.1,0.2-0.1,0.3-0.3,0.4c-0.1,0.1-0.2,0.1-0.4,0.1c0,0-0.1,0-0.1,0c-0.1,0-0.2,0-0.3,0l-0.4,0
			c-0.2,0-0.4-0.2-0.4-0.6c-0.1-0.5-0.2-1.1-0.2-1.8c-0.2,0.6-0.9,1.1-2.1,1.6c-1,0.4-1.7,0.6-2,0.6c-0.3,0-0.5-0.2-0.6-0.5
			c-0.1-0.2-0.2-0.5-0.2-0.8c0-0.2,0-0.5,0.1-0.6c0.1-0.1,0.2-0.3,0.3-0.5c0.3-0.9,1.2-1.8,2.5-2.8c1.3-1.1,2.5-1.6,3.4-1.6
			c0.3,0,0.7,0.1,1.1,0.3C133.9,11,134,11.2,134,11.4z M123.9,8.4c0.2-0.1,0.5-0.4,1.1-0.6c0.6-0.2,1-0.4,1.1-0.4
			c0.2,0,0.3,0.1,0.3,0.5c0,0.3-0.2,0.9-0.7,2c-0.4,1-0.9,2-1.3,3c-0.5,1.1-0.8,1.9-0.8,2.3c0,0.2,0,0.4,0.1,0.5
			c0.1,0.1,0.2,0.1,0.4,0.1c0.3,0,0.7-0.1,1.1-0.4c0.3-0.3,0.5-0.5,0.6-0.6c0.2,0,0.4,0.1,0.4,0.3c0,0.4-0.4,0.9-1.3,1.5
			c-0.9,0.6-1.6,1-2.1,1c-0.1-0.2-0.3-0.3-0.6-0.5c-0.5-0.2-0.7-0.4-0.7-0.6c0-0.2,0.1-0.3,0.1-0.4c0-0.1,0-0.1-0.1-0.3
			c0-0.1,0-0.2,0-0.3c0-0.4,0.2-1.1,0.5-2c0.4-0.9,0.8-1.8,1.2-2.8c0.4-0.9,0.6-1.7,0.6-2.3C123.9,8.5,123.9,8.4,123.9,8.4z
			 M132.4,11.6c-0.5,0-1.3,0.5-2.3,1.6c-1,1-1.6,1.8-1.6,2.4c0,0.1,0.1,0.1,0.2,0.1c0.5,0,1.3-0.6,2.3-1.7c1-1.1,1.5-1.9,1.5-2.3
			c0,0,0-0.1,0-0.1C132.4,11.6,132.4,11.6,132.4,11.6z M228.6,10.5c0.1-0.1,0.2-0.2,0.3-0.2c0.1,0,0.2,0,0.2,0
			c0,0.1,0.1,0.1,0.1,0.2c0.1,0.2,0.2,0.3,0.3,0.5c0.1,0.2,0.1,0.3,0.1,0.3c0,0.1-0.1,0.4-0.3,0.8c-0.1,0.2-0.1,0.4-0.1,0.5
			s0.1,0.3,0.2,0.5c0.1,0.2,0.1,0.4,0.1,0.6s-0.1,0.5-0.4,0.6c-0.3,0.1-0.6,0.2-0.8,0.2c-0.1,0-0.2,0-0.3-0.1
			c-0.1-0.1-0.2-0.1-0.3-0.1c-0.1,0-0.3,0.3-0.6,0.8c-0.6,1.2-1,1.9-1.2,2.1c-0.2,0.2-0.4,0.3-0.6,0.4c-0.3,0.2-0.4,0.3-0.5,0.3
			c-0.2,0-0.4-0.1-0.7-0.4c-0.3-0.3-0.4-0.6-0.4-0.8c0-0.1,0.1-0.2,0.2-0.3c0.2-0.1,0.3-0.1,0.3-0.1c0.2-0.2,0.4-0.6,0.6-1.3
			c0.1-0.4,0.1-0.9,0.1-1.4c0-0.2-0.1-0.3-0.2-0.3c-0.2,0-0.3,0-0.5-0.1c-0.1,0-0.2-0.1-0.2-0.3c0-0.2,0.2-0.4,0.5-0.6
			c0.4-0.2,0.7-0.3,0.9-0.3c0.1,0,0.2-0.1,0.4-0.1c0.2-0.1,0.3-0.1,0.4-0.1c0.2,0,0.3,0.1,0.4,0.3c0.1,0.2,0.1,0.4,0.1,0.6
			c0,0.3-0.1,0.6-0.1,0.9c0,0.3-0.1,0.6-0.2,0.9c0,0.1,0,0.1,0.1,0.1h0c0,0,0.1-0.1,0.1-0.2c0.2-0.4,0.5-0.8,0.7-1.1
			c0,0,0-0.1,0-0.1c-0.1-0.3-0.2-0.6-0.2-0.8c0-0.5,0.1-0.8,0.3-1c0.1-0.1,0.4-0.3,0.8-0.5C228.5,10.6,228.6,10.5,228.6,10.5z
			 M217.7,9c0.1,0.2,0.1,0.4,0.1,0.6c0,0.1-0.2,0.5-0.5,1.1c-0.4,0.7-0.6,1.1-0.6,1.3c0.7,0,1.1,0.1,1.1,0.4c0,0.1-0.1,0.3-0.4,0.6
			c-0.2,0.3-0.4,0.5-0.4,0.5h-1c-0.2,0.1-0.4,0.3-0.5,0.7c-0.1,0.4-0.2,0.7-0.2,0.9c0,0.3,0.1,0.5,0.2,0.6c0.1,0.2,0.3,0.3,0.6,0.3
			c0.1,0,0.4-0.1,0.8-0.3c0.2-0.1,0.4-0.1,0.5-0.1c0.2,0,0.3,0.1,0.3,0.4c0,0.1,0,0.1-0.1,0.2c0,0.1-0.1,0.2-0.4,0.3
			c-0.4,0.3-0.8,0.6-1.1,0.8c-0.4,0.2-0.8,0.3-1.3,0.3c-0.5,0-0.9-0.2-1.2-0.6c-0.3-0.4-0.5-0.8-0.5-1.4c0-0.2,0.1-0.5,0.3-0.8
			c0.1-0.4,0.3-0.7,0.4-1c0-0.1,0-0.1,0-0.1c0,0,0-0.1-0.1-0.1c-0.3,0-0.5-0.1-0.5-0.3c0-0.2,0.2-0.4,0.5-0.6
			c0.5-0.4,0.7-0.6,0.8-0.6c0.4-0.9,0.8-1.5,1-2c0.3-0.5,0.5-0.8,0.6-0.8c0.2,0,0.4-0.1,0.6-0.3c0.2-0.1,0.4-0.2,0.6-0.2
			C217.5,8.9,217.6,8.9,217.7,9z M223.5,11.1c0.1,0.2,0.2,0.4,0.2,0.8c0,0.3,0,0.7-0.1,1c-0.2,0.3-0.3,0.5-0.3,0.6
			c-0.2,0.5-0.5,0.9-1,1.4c-0.5,0.4-1,0.7-1.5,0.9c-0.1,0-0.1,0-0.1,0.1c0.1,0.2,0.2,0.3,0.5,0.5c0.3,0.2,0.5,0.3,0.8,0.3
			c0.2,0,0.4,0,0.6-0.1c0.2-0.1,0.4-0.1,0.6-0.2c0.1,0,0.2,0,0.3,0.1c0,0.1,0.1,0.1,0.1,0.3c0,0.3-0.3,0.5-0.9,0.7
			c-0.4,0.2-0.8,0.3-1.1,0.3c-0.2,0-0.4,0-0.6-0.1c-0.4-0.1-0.6-0.2-0.7-0.2c-0.9-0.2-1.4-0.3-1.5-0.4c-0.4-0.2-0.5-0.7-0.5-1.4
			c0-1.1,0.5-2.1,1.6-3.1c1.1-1.1,2.2-1.6,3.2-1.6C223.1,10.8,223.3,10.9,223.5,11.1z M220.4,14.8c0.1,0,0.1,0,0.2,0
			c0.3,0,0.7-0.3,1.2-0.9c0.5-0.6,0.7-1.1,0.7-1.4c0-0.2-0.1-0.4-0.4-0.4c-0.4,0-0.8,0.3-1.2,0.9C220.5,13.7,220.4,14.3,220.4,14.8
			C220.4,14.8,220.4,14.8,220.4,14.8z M205.8,11.5c0.1,0.2,0.1,0.5,0.1,0.9c0,0.3-0.1,0.7-0.2,1.2c-0.3,1.1-0.5,1.7-0.5,2
			c0,0.1,0,0.3,0.1,0.5c0.1,0.1,0.1,0.3,0.1,0.4c0,0.2-0.1,0.3-0.4,0.4c-0.2,0.1-0.5,0.2-0.6,0.3c-0.1,0-0.2,0.1-0.4,0.3
			c-0.2,0.2-0.4,0.3-0.6,0.3c-0.2,0-0.4-0.1-0.5-0.3c-0.2-0.2-0.3-0.3-0.3-0.5c0-0.2,0.1-0.7,0.4-1.4c0.3-0.6,0.4-1.1,0.4-1.4
			c-0.1,0-0.3,0.2-0.7,0.6c-0.4,0.6-0.9,1.1-1.4,1.7c-0.1,0.1-0.3,0.2-0.7,0.5c-0.4,0.3-0.7,0.4-0.8,0.4c-0.1,0-0.3-0.1-0.4-0.3
			c-0.2-0.2-0.3-0.3-0.3-0.5c0-0.2,0.2-0.7,0.5-1.6c0.4-0.8,0.5-1.3,0.5-1.4c-0.1,0.2-0.2,0.4-0.3,0.4c-0.1,0.1-0.3,0.3-0.5,0.6
			c-0.5,0.7-1,1.2-1.4,1.6c-0.3,0.4-0.6,0.6-0.7,0.7c-0.2,0.1-0.5,0.3-0.9,0.4c-0.3,0.1-0.5,0.2-0.6,0.2c-0.2,0-0.3-0.1-0.4-0.4
			c-0.1-0.2-0.2-0.4-0.2-0.5c0-0.1,0.1-0.3,0.3-0.7c0.2-0.4,0.3-0.6,0.4-0.8c0.1-0.3,0.3-0.7,0.5-1.2c0.3-0.7,0.5-1.4,0.8-2.1
			c0-0.2,0.1-0.4,0.4-0.6c0.3-0.2,0.5-0.3,0.8-0.3c0.1,0,0.3,0.1,0.4,0.3c0.2,0.2,0.3,0.3,0.3,0.5c0,0.1-0.2,0.6-0.6,1.5
			c-0.4,0.9-0.7,1.5-0.8,1.7c0.2-0.2,1.1-1.2,2.6-2.9c0.6-0.7,1.1-1.1,1.5-1.1c0.1,0,0.3,0.1,0.4,0.3c0.1,0.2,0.1,0.4,0.1,0.6
			c0,0.2-0.2,0.7-0.5,1.5c-0.3,0.7-0.4,1.1-0.4,1.3c0.6-0.5,1.4-1.3,2.4-2.5c0.6-0.6,1-0.9,1.3-0.9
			C205.5,11.1,205.7,11.2,205.8,11.5z M212.8,11.9c0,0.3-0.1,0.7-0.2,1c-0.2,0.3-0.3,0.5-0.3,0.6c-0.1,0.5-0.5,0.9-1,1.4
			c-0.5,0.4-1,0.7-1.5,0.9c-0.1,0-0.2,0-0.2,0.1c0.1,0.2,0.3,0.3,0.5,0.5c0.3,0.2,0.5,0.3,0.7,0.3c0.2,0,0.4,0,0.6-0.1
			c0.2-0.1,0.4-0.1,0.6-0.2c0.1,0,0.1,0,0.3,0.1c0,0.1,0,0.1,0,0.3c0,0.3-0.3,0.5-0.9,0.7c-0.5,0.2-0.9,0.3-1.1,0.3
			c-0.2,0-0.4,0-0.7-0.1c-0.4-0.1-0.6-0.2-0.6-0.2c-0.9-0.2-1.4-0.3-1.5-0.4c-0.4-0.2-0.5-0.7-0.5-1.4c0-1.1,0.5-2.1,1.6-3.1
			c1.1-1.1,2.1-1.6,3.2-1.6c0.3,0,0.5,0.1,0.6,0.4C212.7,11.3,212.8,11.5,212.8,11.9z M210.9,13.9c0.5-0.6,0.8-1.1,0.8-1.4
			c0-0.2-0.1-0.4-0.4-0.4c-0.4,0-0.8,0.3-1.3,0.9c-0.4,0.7-0.6,1.2-0.6,1.7c0,0.1,0,0.1,0,0.1c0.1,0,0.2,0,0.2,0
			C210,14.8,210.4,14.5,210.9,13.9z M194.9,12.5c0,1.3-0.4,2.5-1.3,3.5c-0.9,1.1-2,1.6-3.2,1.6c-0.3,0-0.6-0.1-1-0.5
			c-0.3-0.3-0.4-0.6-0.4-0.9c0-0.2,0-0.4,0-0.8c0-0.3,0.1-0.5,0.1-0.6c0-0.6,0.4-1.3,1.2-2.1c0.7-0.8,1.3-1.3,1.9-1.5
			c0.2-0.3,0.4-0.5,0.5-0.5c0.2-0.2,0.5-0.3,0.8-0.3c0,0,0.1,0,0.2,0c0.1,0,0.1,0.1,0.3,0.3c0.3,0.3,0.5,0.5,0.6,0.6
			C194.8,11.7,194.9,12,194.9,12.5z M188.8,9c0,0.2,0.1,0.4,0.1,0.6c0,0.1-0.2,0.5-0.5,1.1c-0.4,0.7-0.6,1.1-0.6,1.3
			c0.7,0,1.1,0.1,1.1,0.4c0,0.1-0.1,0.3-0.4,0.6c-0.2,0.3-0.4,0.5-0.5,0.5h-0.9c-0.2,0.1-0.4,0.3-0.5,0.7c-0.1,0.4-0.2,0.7-0.2,0.9
			c0,0.3,0.1,0.5,0.2,0.6c0.1,0.2,0.3,0.3,0.5,0.3c0.1,0,0.4-0.1,0.8-0.3c0.2-0.1,0.4-0.1,0.5-0.1c0.2,0,0.3,0.1,0.3,0.4
			c0,0.1,0,0.1,0,0.2c-0.1,0.1-0.2,0.2-0.4,0.3c-0.4,0.3-0.8,0.6-1.1,0.8c-0.4,0.2-0.8,0.3-1.2,0.3c-0.5,0-0.9-0.2-1.2-0.6
			c-0.3-0.4-0.5-0.8-0.5-1.4c0-0.2,0.1-0.5,0.3-0.8c0.1-0.4,0.2-0.7,0.4-1c0-0.1,0-0.1-0.1-0.1c0,0,0-0.1,0-0.1
			c-0.3,0-0.5-0.1-0.5-0.3c0-0.2,0.2-0.4,0.5-0.6c0.4-0.4,0.7-0.6,0.7-0.6c0.5-0.9,0.8-1.5,1.1-2c0.3-0.5,0.5-0.8,0.6-0.8
			c0.2,0,0.4-0.1,0.7-0.3c0.2-0.1,0.4-0.2,0.6-0.2S188.7,8.9,188.8,9z M192.5,12.5c-0.2,0-0.5,0.5-0.8,1.4c-0.3,0.9-0.5,1.5-0.5,1.8
			c0,0.2,0,0.3,0.1,0.4c0,0.1,0.1,0.2,0.3,0.2c0.3,0,0.7-0.3,1.2-0.9c0.5-0.6,0.8-1.1,0.8-1.4c-0.2-0.1-0.4-0.4-0.6-0.7
			C192.8,13.2,192.6,12.9,192.5,12.5z"/>
	</g>
</g>
</svg>
