<?xml version="1.0" encoding="utf-8"?>
<!-- Generator: Adobe Illustrator 16.0.0, SVG Export Plug-In . SVG Version: 6.00 Build 0)  -->
<!DOCTYPE svg PUBLIC "-//W3C//DTD SVG 1.1//EN" "http://www.w3.org/Graphics/SVG/1.1/DTD/svg11.dtd">
<svg version="1.1" id="Layer_1" xmlns="http://www.w3.org/2000/svg" xmlns:xlink="http://www.w3.org/1999/xlink" x="0px" y="0px"
	 width="324.7px" height="152px" viewBox="0 0 324.7 152" enable-background="new 0 0 324.7 152" xml:space="preserve">
<g>
	<g>
		<polygon fill-rule="evenodd" clip-rule="evenodd" points="178.7,120.3 172.1,90.6 310,90.6 318.5,120.3 		"/>
	</g>
	<g>
		
			<linearGradient id="SVGID_1_" gradientUnits="userSpaceOnUse" x1="-130.8496" y1="-226.6499" x2="-130.8496" y2="-235.5499" gradientTransform="matrix(1.2153 0 0 1.2153 406.6221 407.0283)">
			<stop  offset="0" style="stop-color:#53402F;stop-opacity:0"/>
			<stop  offset="1" style="stop-color:#3C2B1C;stop-opacity:0.6941"/>
		</linearGradient>
		<rect x="178.4" y="121.2" fill-rule="evenodd" clip-rule="evenodd" fill="url(#SVGID_1_)" width="138.4" height="16.2"/>
	</g>
	<g>
		
			<linearGradient id="SVGID_2_" gradientUnits="userSpaceOnUse" x1="-343.623" y1="-229.5059" x2="-68.9604" y2="-229.5059" gradientTransform="matrix(1.2093 -0.1209 0.1037 1.211 418.5143 376.7291)">
			<stop  offset="0" style="stop-color:#53402F;stop-opacity:0"/>
			<stop  offset="1" style="stop-color:#3C2B1C;stop-opacity:0.3059"/>
		</linearGradient>
		<polygon fill-rule="evenodd" clip-rule="evenodd" fill="url(#SVGID_2_)" points="307.7,90.4 317.1,121.4 317.2,121.4 317.2,138.8 
			5,138.8 31.3,109 171.5,88.9 		"/>
	</g>
	<g>
		
			<linearGradient id="SVGID_3_" gradientUnits="userSpaceOnUse" x1="-192.3418" y1="-240.7104" x2="-189.2679" y2="-241.3903" gradientTransform="matrix(1.2153 0 0 1.2153 406.6221 407.0283)">
			<stop  offset="0" style="stop-color:#53402F;stop-opacity:0"/>
			<stop  offset="1" style="stop-color:#3C2B1C;stop-opacity:0.6941"/>
		</linearGradient>
		<polygon fill-rule="evenodd" clip-rule="evenodd" fill="url(#SVGID_3_)" points="172.2,92.7 178.4,121.4 178.4,135.2 172.2,106.7 
					"/>
	</g>
	
		<radialGradient id="SVGID_4_" cx="-184.6748" cy="-261.2998" r="74.5121" gradientTransform="matrix(1.2153 0 0 0.7872 407.9717 336.9091)" gradientUnits="userSpaceOnUse">
		<stop  offset="0" style="stop-color:#FFFFFF;stop-opacity:0.3176"/>
		<stop  offset="0.3882" style="stop-color:#FFFFFF;stop-opacity:0.1098"/>
		<stop  offset="0.7137" style="stop-color:#FFFFFF;stop-opacity:6.274509e-002"/>
		<stop  offset="1" style="stop-color:#FFFFFF;stop-opacity:0"/>
	</radialGradient>
	<path fill-rule="evenodd" clip-rule="evenodd" fill="url(#SVGID_4_)" d="M246.2,90.7c17.3,11.3,25.9,24.8,25.9,40.7
		c0,4.2-0.6,8.2-1.8,12H96.7c-1.2-3.8-1.8-7.9-1.8-12c0-15.8,8.6-29.4,25.9-40.7c5.2-3.3,10.7-6.2,16.5-8.5h92.5
		C235.6,84.6,241.1,87.4,246.2,90.7z"/>
	
		<radialGradient id="SVGID_5_" cx="-163.9014" cy="-290.4497" r="31.1005" gradientTransform="matrix(0.4395 0 0 0.9416 246.8593 382.9652)" gradientUnits="userSpaceOnUse">
		<stop  offset="0" style="stop-color:#000000;stop-opacity:0.3176"/>
		<stop  offset="0.3882" style="stop-color:#000000;stop-opacity:0.1098"/>
		<stop  offset="0.7137" style="stop-color:#000000;stop-opacity:6.274509e-002"/>
		<stop  offset="1" style="stop-color:#000000;stop-opacity:0"/>
	</radialGradient>
	<path fill-rule="evenodd" clip-rule="evenodd" fill="url(#SVGID_5_)" d="M184.1,89.5c2.6,5.5,3.8,12.2,3.8,20
		c0,7.8-1.3,14.5-3.8,20c-2.6,5.5-5.7,8.2-9.3,8.2c-3.6,0-6.7-2.7-9.3-8.2c-2.6-5.5-3.8-12.1-3.8-20c0-7.8,1.3-14.4,3.8-20
		c2.6-5.5,5.7-8.2,9.3-8.2C178.5,81.3,181.6,84,184.1,89.5z"/>
	<g>
		
			<linearGradient id="SVGID_6_" gradientUnits="userSpaceOnUse" x1="-162.4751" y1="-244.9873" x2="-162.4751" y2="-276.7123" gradientTransform="matrix(1.2153 0 0 1.2153 406.6221 407.0283)">
			<stop  offset="0" style="stop-color:#FFFFFF;stop-opacity:0"/>
			<stop  offset="1" style="stop-color:#FFFFFF;stop-opacity:0.2196"/>
		</linearGradient>
		<rect x="202" y="121.2" fill-rule="evenodd" clip-rule="evenodd" fill="url(#SVGID_6_)" width="14.3" height="14.7"/>
		
			<radialGradient id="SVGID_7_" cx="-148.75" cy="-275.8501" r="19.15" gradientTransform="matrix(1.2153 0 0 1.0773 407.9717 410.7017)" gradientUnits="userSpaceOnUse">
			<stop  offset="0" style="stop-color:#FFFFFF;stop-opacity:0.3294"/>
			<stop  offset="0.3882" style="stop-color:#FFFFFF;stop-opacity:0.1216"/>
			<stop  offset="0.7137" style="stop-color:#FFFFFF;stop-opacity:6.274509e-002"/>
			<stop  offset="1" style="stop-color:#FFFFFF;stop-opacity:0"/>
		</radialGradient>
		<path fill-rule="evenodd" clip-rule="evenodd" fill="url(#SVGID_7_)" d="M243.7,128.2c-4.5,4-10,6-16.5,6c-6.4,0-11.8-2-16.3-6
			c-2.4-2.1-4.2-4.5-5.3-7.2h43.5C247.9,123.6,246.2,126,243.7,128.2z"/>
		
			<radialGradient id="SVGID_8_" cx="-131.7998" cy="-259.7002" r="8.7495" gradientTransform="matrix(1.0342 0 0 2.4759 449.9233 769.3409)" gradientUnits="userSpaceOnUse">
			<stop  offset="0" style="stop-color:#FFFFFF;stop-opacity:0.3255"/>
			<stop  offset="0.3882" style="stop-color:#FFFFFF;stop-opacity:0.1176"/>
			<stop  offset="0.7137" style="stop-color:#FFFFFF;stop-opacity:6.274509e-002"/>
			<stop  offset="1" style="stop-color:#FFFFFF;stop-opacity:0"/>
		</radialGradient>
		<path fill-rule="evenodd" clip-rule="evenodd" fill="url(#SVGID_8_)" d="M313.6,148c-2.5,0-4.6-2.1-6.4-6.3
			c-1.8-4.2-2.6-9.3-2.6-15.4c0-5.9,0.9-11,2.6-15.2c1.8-4.2,3.9-6.3,6.4-6.3c2.5,0,4.7,2.1,6.4,6.3c1.8,4.2,2.6,9.3,2.6,15.4
			c0,5.9-0.9,11-2.6,15.2C318.3,145.9,316.1,148,313.6,148z"/>
		
			<radialGradient id="SVGID_9_" cx="-112.3501" cy="-272.1499" r="27.9375" gradientTransform="matrix(1.2153 0 0 1.6612 407.9717 570.1282)" gradientUnits="userSpaceOnUse">
			<stop  offset="0" style="stop-color:#FFFFFF;stop-opacity:0.3216"/>
			<stop  offset="0.3882" style="stop-color:#FFFFFF;stop-opacity:0.1137"/>
			<stop  offset="0.7137" style="stop-color:#FFFFFF;stop-opacity:6.274509e-002"/>
			<stop  offset="1" style="stop-color:#FFFFFF;stop-opacity:0"/>
		</radialGradient>
		<path fill-rule="evenodd" clip-rule="evenodd" fill="url(#SVGID_9_)" d="M237.8,121.1h67.6c0,0.4,0,0.7,0,1.1
			c-0.4,7.4-2,14.2-4.8,20.3h-57.8c-2.8-6.1-4.4-12.9-4.9-20.3C237.8,121.9,237.8,121.5,237.8,121.1z"/>
		
			<radialGradient id="SVGID_10_" cx="-131.7998" cy="-259.7002" r="8.7498" gradientTransform="matrix(0.504 0 0 2.4759 245.134 766.9425)" gradientUnits="userSpaceOnUse">
			<stop  offset="0" style="stop-color:#FFFFFF;stop-opacity:0.3216"/>
			<stop  offset="0.3882" style="stop-color:#FFFFFF;stop-opacity:0.1137"/>
			<stop  offset="0.7137" style="stop-color:#FFFFFF;stop-opacity:6.274509e-002"/>
			<stop  offset="1" style="stop-color:#FFFFFF;stop-opacity:0"/>
		</radialGradient>
		<path fill-rule="evenodd" clip-rule="evenodd" fill="url(#SVGID_10_)" d="M178.7,145.6c-1.2,0-2.2-2.1-3.1-6.3s-1.3-9.3-1.3-15.4
			c0-5.9,0.4-11,1.3-15.2c0.9-4.2,1.9-6.3,3.1-6.3c1.2,0,2.3,2.1,3.1,6.3c0.9,4.2,1.3,9.3,1.3,15.4c0,5.9-0.4,11-1.3,15.2
			C181,143.5,179.9,145.6,178.7,145.6z"/>
	</g>
	<g>
		<path fill-rule="evenodd" clip-rule="evenodd" fill="#757059" d="M318,33.9h-1.1h-10.6H180.1h-0.7l-0.1-0.5l-6.5-27.9V5.5
			l-0.1-0.6V4.8l-0.1-0.2h0.2h133.3h0.4l0.1,0.5l10.8,27.8L318,33.9z M306.2,5.3H173.7l6.5,27.9h126.1h10.6L306.2,5.3z"/>
		<polygon fill-rule="evenodd" clip-rule="evenodd" fill="#2F1C16" points="179.4,33.9 179.4,120.7 172.7,91.4 172.7,4.6 172.7,4.8 
			172.7,4.9 172.9,5.5 172.9,5.5 179.4,33.5 		"/>
		<polygon fill-rule="evenodd" clip-rule="evenodd" fill="#635E4B" points="179.4,120.7 179.4,33.9 180.1,33.9 306.2,33.9 
			316.9,33.9 318,33.9 318,120.7 		"/>
		
			<linearGradient id="SVGID_11_" gradientUnits="userSpaceOnUse" x1="-78.2388" y1="-330.5723" x2="-78.2388" y2="-307.6094" gradientTransform="matrix(1.2153 0 0 1.2153 406.6221 407.0283)">
			<stop  offset="0" style="stop-color:#272621"/>
			<stop  offset="1" style="stop-color:#2A2A24"/>
		</linearGradient>
		<polygon fill-rule="evenodd" clip-rule="evenodd" fill="url(#SVGID_11_)" points="306.2,33.2 306.2,5.3 316.9,33.2 		"/>
		
			<linearGradient id="SVGID_12_" gradientUnits="userSpaceOnUse" x1="-136.9536" y1="-326.7813" x2="-135.4561" y2="-298.6484" gradientTransform="matrix(1.2153 0 0 1.2153 406.6221 407.0283)">
			<stop  offset="0" style="stop-color:#4D4A3B"/>
			<stop  offset="1" style="stop-color:#171715"/>
		</linearGradient>
		<polygon fill-rule="evenodd" clip-rule="evenodd" fill="url(#SVGID_12_)" points="306.2,33.2 180.1,33.2 173.7,5.3 306.2,5.3 		
			"/>
	</g>
	<g>
		<rect x="190.5" y="42.7" fill-rule="evenodd" clip-rule="evenodd" fill="#9CA288" width="117.8" height="69.5"/>
		
			<rect x="190.5" y="42.7" fill-rule="evenodd" clip-rule="evenodd" fill="none" stroke="#3C3928" stroke-width="2" stroke-linecap="round" stroke-linejoin="round" stroke-miterlimit="3" width="117.8" height="69.5"/>
	</g>
	<g>
		
			<line fill-rule="evenodd" clip-rule="evenodd" fill="none" stroke="#FFFFFF" stroke-width="0.1" stroke-linecap="round" stroke-linejoin="round" stroke-miterlimit="3" stroke-opacity="0.298" x1="173.7" y1="5.3" x2="304.7" y2="5.3"/>
		
			<path fill-rule="evenodd" clip-rule="evenodd" fill="none" stroke="#FFFFFF" stroke-width="0.1" stroke-linecap="round" stroke-linejoin="round" stroke-miterlimit="3" stroke-opacity="0.498" d="
			M304.7,5.3L315,33.1 M180,33.8h136.1"/>
	</g>
	<g>
		
			<radialGradient id="SVGID_13_" cx="-75.8501" cy="-272.4502" r="1.5" gradientTransform="matrix(1.2153 0 0 26.1094 406.6221 7189.4175)" gradientUnits="userSpaceOnUse">
			<stop  offset="0" style="stop-color:#FFFFFF"/>
			<stop  offset="0.1765" style="stop-color:#FFFFFF"/>
			<stop  offset="0.3059" style="stop-color:#FFFFFF;stop-opacity:0.4235"/>
			<stop  offset="0.4902" style="stop-color:#FFFFFF;stop-opacity:0.2314"/>
			<stop  offset="0.651" style="stop-color:#FFFFFF;stop-opacity:8.235294e-002"/>
			<stop  offset="1" style="stop-color:#FFFFFF;stop-opacity:0"/>
		</radialGradient>
		<path fill-rule="evenodd" clip-rule="evenodd" fill="url(#SVGID_13_)" d="M314.4,37.7c0.4,0,0.9,3.9,1.2,11.7
			c0.4,7.1,0.5,15.9,0.5,26.4c0,11.1-0.2,20.2-0.5,27.4c-0.4,7.7-0.8,11.5-1.2,11.5c-0.5,0-0.9-3.8-1.3-11.5
			c-0.4-7.2-0.5-16.3-0.5-27.4c0-10.5,0.2-19.3,0.5-26.4C313.5,41.7,314,37.7,314.4,37.7z"/>
	</g>
	<g>
		
			<radialGradient id="SVGID_14_" cx="-185.8501" cy="-272.1001" r="1.5" gradientTransform="matrix(1.2153 0 0 62.0326 406.6221 16955.4063)" gradientUnits="userSpaceOnUse">
			<stop  offset="0" style="stop-color:#FFFFFF;stop-opacity:0.498"/>
			<stop  offset="0.1765" style="stop-color:#FFFFFF;stop-opacity:0.498"/>
			<stop  offset="0.3059" style="stop-color:#FFFFFF;stop-opacity:0.251"/>
			<stop  offset="0.4902" style="stop-color:#FFFFFF;stop-opacity:9.803922e-002"/>
			<stop  offset="0.651" style="stop-color:#FFFFFF;stop-opacity:2.745098e-002"/>
			<stop  offset="1" style="stop-color:#FFFFFF;stop-opacity:0"/>
		</radialGradient>
		<path display="none" fill-rule="evenodd" clip-rule="evenodd" fill="url(#SVGID_14_)" d="M179.2,34.2h3.2
			c0.1,12.4,0.2,26.5,0.2,42.1c0,16.2-0.1,30.7-0.2,43.4c0,0.3,0,0.5,0,0.8h-3.2c0-0.2,0-0.5,0-0.8c-0.2-12.8-0.2-27.2-0.2-43.4
			C178.9,60.7,179,46.7,179.2,34.2z"/>
	</g>
</g>
</svg>
