<?xml version="1.0" encoding="utf-8"?>
<!-- Generator: Adobe Illustrator 16.0.0, SVG Export Plug-In . SVG Version: 6.00 Build 0)  -->
<!DOCTYPE svg PUBLIC "-//W3C//DTD SVG 1.1//EN" "http://www.w3.org/Graphics/SVG/1.1/DTD/svg11.dtd">
<svg version="1.1" id="Layer_1" xmlns="http://www.w3.org/2000/svg" xmlns:xlink="http://www.w3.org/1999/xlink" x="0px" y="0px"
	 width="113px" height="55.66px" viewBox="0 0 113 55.66" enable-background="new 0 0 113 55.66" xml:space="preserve">
<g>
	<g>
		<path fill-rule="evenodd" clip-rule="evenodd" fill="#AFA794" d="M38.65,20.05c-1.1,0.37-1.67,0.43-1.7,0.2
			c-0.1,0.07-0.2,0.1-0.3,0.1L36.4,20.4c-0.67,0.1-1.27,0.2-1.8,0.3c-1.53,0.17-2.4,0.25-2.6,0.25c-0.23-0.07-1.13-0.03-2.7,0.1
			c-1.6,0.13-2.47,0.2-2.6,0.2c-1.93-0.1-3.03-0.15-3.3-0.15c-0.1,0-0.2,0.03-0.3,0.1c-1.07,0-2.12,0-3.15,0
			c-0.57,0-1.07,0.13-1.5,0.4c-0.47,0.37-0.88,0.65-1.25,0.85c-0.27,0.2-0.45,0.42-0.55,0.65c-0.07,0.17-0.1,0.47-0.1,0.9
			c0,0.33-0.13,0.7-0.4,1.1l-0.1,0.1c-0.07-1-0.13-1.63-0.2-1.9c0.07,0.27,0.13,0.9,0.2,1.9c0.07,0.17,0.1,0.35,0.1,0.55
			c0.03,0.43,0.1,0.78,0.2,1.05c-0.13-0.03-0.38-0.4-0.75-1.1c-0.53-0.53-0.77-1.13-0.7-1.8c0.03-0.17-0.02-0.28-0.15-0.35
			c-0.13-0.07-0.47-0.1-1-0.1H13.6c-0.07,0-0.18,0-0.35,0c-0.33,0-0.65,0.02-0.95,0.05c-0.3,0.1-0.77,0.2-1.4,0.3
			c-0.67,0.13-1.33,0.3-2,0.5c-0.63,0.17-1.17,0.35-1.6,0.55c-0.43,0.13-0.83,0.3-1.2,0.5c-0.37,0.17-0.55,0.47-0.55,0.9
			c-0.07,0.43,0.1,0.95,0.5,1.55c0.3,0.47,0.5,0.75,0.6,0.85c-1.53-0.53-2.23-1.6-2.1-3.2c0.03-0.47,0.15-0.98,0.35-1.55
			c0.23-0.4,1.05-0.72,2.45-0.95c0.23-0.07,0.82-0.23,1.75-0.5c0.9-0.2,2.1-0.45,3.6-0.75c0.7-0.17,1.5-0.42,2.4-0.75
			c0.9-0.37,1.77-0.6,2.6-0.7c0.47-0.07,0.75-0.13,0.85-0.2h0.25c2.13-0.03,3.97-0.12,5.5-0.25c1.53-0.17,2.33-0.25,2.4-0.25
			c0.03,0.07,0.58,0.03,1.65-0.1c3.2-0.73,6.65-1.18,10.35-1.35c3.7-0.2,4.35,0.2,1.95,1.2C39.82,19.63,39.15,19.88,38.65,20.05z"/>
		<path fill-rule="evenodd" clip-rule="evenodd" fill="#BEBBA7" d="M38.65,20.05c2.47,1.17,1.97,3.77-1.5,7.8
			c-4.6,0.33-7.57,0.4-8.9,0.2c-1.43-0.23-2.23-0.35-2.4-0.35c-0.13,0-0.57,0-1.3,0H17.5c-2.27,0.63-3.98,0.98-5.15,1.05
			c-2.07,0.3-3.73,0.33-5,0.1c-0.23-0.07-0.47-0.13-0.7-0.2c-0.1-0.1-0.3-0.38-0.6-0.85c-0.4-0.6-0.57-1.12-0.5-1.55
			c0-0.43,0.18-0.73,0.55-0.9c0.37-0.2,0.77-0.37,1.2-0.5c0.43-0.2,0.97-0.38,1.6-0.55c0.67-0.2,1.33-0.37,2-0.5
			c0.63-0.1,1.1-0.2,1.4-0.3c0.3-0.03,0.62-0.05,0.95-0.05c0.17,0,0.28,0,0.35,0h0.15c0.53,0,0.87,0.03,1,0.1
			c0.13,0.07,0.18,0.18,0.15,0.35c-0.07,0.67,0.17,1.27,0.7,1.8c0.37,0.7,0.62,1.07,0.75,1.1c-0.1-0.27-0.17-0.62-0.2-1.05
			c0-0.2-0.03-0.38-0.1-0.55l0.1-0.1c0.27-0.4,0.4-0.77,0.4-1.1c0-0.43,0.03-0.73,0.1-0.9c0.1-0.23,0.28-0.45,0.55-0.65
			c0.37-0.2,0.78-0.48,1.25-0.85c0.43-0.27,0.93-0.4,1.5-0.4c1.03,0,2.08,0,3.15,0c0.1-0.07,0.2-0.1,0.3-0.1
			c0.27,0,1.37,0.05,3.3,0.15c0.13,0,1-0.07,2.6-0.2c1.57-0.13,2.47-0.17,2.7-0.1c0.2,0,1.07-0.08,2.6-0.25
			c0.53-0.1,1.13-0.2,1.8-0.3l0.25-0.05c0.1,0,0.2-0.03,0.3-0.1C36.98,20.48,37.55,20.42,38.65,20.05z M16.35,26.8
			c0.13,0.37,0.32,0.55,0.55,0.55C16.67,27.35,16.48,27.17,16.35,26.8z M29.4,22.3c0,0.7,0.17,2.07,0.5,4.1
			C29.57,24.37,29.4,23,29.4,22.3z"/>
		
			<path fill-rule="evenodd" clip-rule="evenodd" fill="none" stroke="#A29A80" stroke-width="0.5" stroke-linecap="round" stroke-linejoin="round" stroke-miterlimit="3" d="
			M16.35,26.8c-0.1-0.27-0.17-0.62-0.2-1.05c0-0.2-0.03-0.38-0.1-0.55c-0.07-1-0.13-1.63-0.2-1.9 M38.65,20.05
			c0.5-0.17,1.17-0.42,2-0.75c2.4-1,1.75-1.4-1.95-1.2c-3.7,0.17-7.15,0.62-10.35,1.35c-1.07,0.13-1.62,0.17-1.65,0.1
			c-0.07,0-0.87,0.08-2.4,0.25c-1.53,0.13-3.37,0.22-5.5,0.25h-0.25c-0.1,0.07-0.38,0.13-0.85,0.2c-0.83,0.1-1.7,0.33-2.6,0.7
			c-0.9,0.33-1.7,0.58-2.4,0.75c-1.5,0.3-2.7,0.55-3.6,0.75c-0.93,0.27-1.52,0.43-1.75,0.5c-1.4,0.23-2.22,0.55-2.45,0.95
			c-0.2,0.57-0.32,1.08-0.35,1.55c-0.13,1.6,0.57,2.67,2.1,3.2 M37.15,27.85c-4.6,0.33-7.57,0.4-8.9,0.2
			c-1.43-0.23-2.23-0.35-2.4-0.35c-0.13,0-0.57,0-1.3,0H17.5c-2.27,0.63-3.98,0.98-5.15,1.05c-2.07,0.3-3.73,0.33-5,0.1
			c-0.23-0.07-0.47-0.13-0.7-0.2 M16.35,26.8c0.13,0.37,0.32,0.55,0.55,0.55 M29.4,22.3c0,0.7,0.17,2.07,0.5,4.1"/>
	</g>
	<g>
		<path fill-rule="evenodd" clip-rule="evenodd" fill="#AFA794" d="M27.65,17.75H27.6c-0.23-0.57-0.42-1.07-0.55-1.5
			c-0.2-0.57-0.28-1-0.25-1.3c-0.03,0.3,0.05,0.73,0.25,1.3c0.13,0.43,0.32,0.93,0.55,1.5h-0.55c-0.07-0.2-0.35-0.88-0.85-2.05
			c-0.33-0.7-0.68-1.17-1.05-1.4c-0.2-0.1-0.42-0.12-0.65-0.05c-0.83-0.07-1.55-0.05-2.15,0.05c-1.33,0.27-2.08,0.92-2.25,1.95
			c-0.07,0.57-0.22,1.13-0.45,1.7c-0.23,0.53-0.42,0.75-0.55,0.65c-0.13-0.17-0.32-0.37-0.55-0.6v-0.05c0.07-0.7,0.03-1.68-0.1-2.95
			c0.13,1.27,0.17,2.25,0.1,2.95c-0.23-0.33-0.45-0.58-0.65-0.75C17.3,16.4,16.33,16,15,16c-0.17,0-1.1,0.32-2.8,0.95
			c-1.67,0.67-3.12,1-4.35,1c-0.67,0-1.25-0.05-1.75-0.15c-0.33-0.1-0.63-0.22-0.9-0.35c-0.1,0-0.15-0.02-0.15-0.05L12,15.15
			c0.57-0.2,1.77-0.65,3.6-1.35c1.73-0.7,2.83-0.95,3.3-0.75c1.57-0.2,4.37-0.7,8.4-1.5l2.4-0.4c1.4-0.3,2.57-0.48,3.5-0.55
			c0.1-0.07,0.18-0.1,0.25-0.1v0.1c0.4,0.73,0.9,1.27,1.5,1.6c0.17,2.43-0.33,4.48-1.5,6.15c-0.4-0.7-0.62-1.6-0.65-2.7
			c0-0.07,0-0.12,0-0.15c0.03-0.47,0.05-0.87,0.05-1.2c0.07-0.43,0.05-0.72-0.05-0.85c-0.2-0.27-0.65-0.38-1.35-0.35
			c-0.7,0.07-1.65,0.33-2.85,0.8c-0.33,0.13-0.6,0.27-0.8,0.4c-0.57,0.37-0.7,0.83-0.4,1.4l0.35,1.35
			C27.75,17.15,27.72,17.38,27.65,17.75z"/>
		<path fill-rule="evenodd" clip-rule="evenodd" fill="#BEBBA7" d="M27.95,19.3c-4.7,1.1-7.7,1.3-9,0.6c0.2-0.07,0.38-0.13,0.55-0.2
			c-0.17,0.07-0.35,0.13-0.55,0.2c-0.97,0.53-1.93,1.02-2.9,1.45c-1.57,0.6-3.13,1.02-4.7,1.25c-0.5,0.03-1.02,0.08-1.55,0.15
			c-0.53,0-1.08,0-1.65,0c-0.4,0-0.78,0.02-1.15,0.05c-0.27-0.03-0.57-0.08-0.9-0.15c-0.67-0.13-1.47-0.38-2.4-0.75
			c-1.3-0.63-1.47-1.95-0.5-3.95l1.85-0.55c0,0.03,0.05,0.05,0.15,0.05c0.27,0.13,0.57,0.25,0.9,0.35c0.5,0.1,1.08,0.15,1.75,0.15
			c1.23,0,2.68-0.33,4.35-1C13.9,16.32,14.83,16,15,16c1.33,0,2.3,0.4,2.9,1.2c0.2,0.17,0.42,0.42,0.65,0.75V18
			c0.23,0.23,0.42,0.43,0.55,0.6c0.13,0.1,0.32-0.12,0.55-0.65c0.23-0.57,0.38-1.13,0.45-1.7c0.17-1.03,0.92-1.68,2.25-1.95
			c0.6-0.1,1.32-0.12,2.15-0.05c0.23-0.07,0.45-0.05,0.65,0.05c0.37,0.23,0.72,0.7,1.05,1.4c0.5,1.17,0.78,1.85,0.85,2.05h0.55h0.05
			c0.07-0.37,0.1-0.6,0.1-0.7L27.4,15.7c-0.3-0.57-0.17-1.03,0.4-1.4c0.2-0.13,0.47-0.27,0.8-0.4c1.2-0.47,2.15-0.73,2.85-0.8
			c0.7-0.03,1.15,0.08,1.35,0.35c0.1,0.13,0.12,0.42,0.05,0.85c0,0.33-0.02,0.73-0.05,1.2c0,0.03,0,0.08,0,0.15
			c0.03,1.1,0.25,2,0.65,2.7v0.15c-1.43,0.4-2.45,0.63-3.05,0.7c-0.8,0.07-1.45,0.1-1.95,0.1C28.32,19.3,28.15,19.3,27.95,19.3
			c0.1-0.37,0-0.87-0.3-1.5v-0.05v0.05C27.95,18.43,28.05,18.93,27.95,19.3z M18.55,18c0,0.2-0.03,0.37-0.1,0.5
			c-0.13,0.33-0.27,0.57-0.4,0.7c0.13-0.13,0.27-0.37,0.4-0.7C18.52,18.37,18.55,18.2,18.55,18z"/>
		
			<path fill-rule="evenodd" clip-rule="evenodd" fill="none" stroke="#A29A80" stroke-width="0.5" stroke-linecap="round" stroke-linejoin="round" stroke-miterlimit="3" d="
			M12,15.15L5.05,17.4L3.2,17.95c-0.97,2-0.8,3.32,0.5,3.95c0.93,0.37,1.73,0.62,2.4,0.75c0.33,0.07,0.63,0.12,0.9,0.15
			c0.37-0.03,0.75-0.05,1.15-0.05c0.57,0,1.12,0,1.65,0c0.53-0.07,1.05-0.12,1.55-0.15c1.57-0.23,3.13-0.65,4.7-1.25
			c0.97-0.43,1.93-0.92,2.9-1.45c0.2-0.07,0.38-0.13,0.55-0.2 M18.55,17.95c0.07-0.7,0.03-1.68-0.1-2.95 M27.6,17.75
			c-0.23-0.57-0.42-1.07-0.55-1.5c-0.2-0.57-0.28-1-0.25-1.3 M18.55,18c0,0.2-0.03,0.37-0.1,0.5c-0.13,0.33-0.27,0.57-0.4,0.7
			 M18.55,17.95V18 M27.65,17.75v0.05c0.3,0.63,0.4,1.13,0.3,1.5c0.2,0,0.37,0,0.5,0c0.5,0,1.15-0.03,1.95-0.1
			c0.6-0.07,1.62-0.3,3.05-0.7 M27.6,17.75h0.05 M18.95,19.9c1.3,0.7,4.3,0.5,9-0.6"/>
	</g>
	<g>
		<path fill-rule="evenodd" clip-rule="evenodd" fill="#BEBBA7" d="M23.8,29.35v0.35c0.23,0.13,0.85,0.25,1.85,0.35
			c0.3,0.03,0.72,0.08,1.25,0.15c1.67,0.13,2.58,0.25,2.75,0.35c0.23,0.07,0.42,0.2,0.55,0.4c0,0.1,0,0.22,0,0.35
			c0,0.03,0.02,0.08,0.05,0.15c0.1,0.63,0.18,1.22,0.25,1.75c0,0.5,0.02,0.83,0.05,1c0,0.03,0,0.07,0,0.1
			c0.23,0.3,0.45,0.05,0.65-0.75c0.13-0.8,0.25-1.27,0.35-1.4c0.07-0.13,0.15,0.5,0.25,1.9c0.13,1.4,0.25,2.22,0.35,2.45
			c-0.1-0.03-0.17-0.05-0.2-0.05c-0.2,0-0.38,0.02-0.55,0.05c-2.3,0.2-4.15,0.08-5.55-0.35c-0.1,0-0.17,0.02-0.2,0.05
			c-2.17,0.4-4.87,0.57-8.1,0.5c-1.4,0.37-3.53,0.6-6.4,0.7c-0.6,0-1.13-0.05-1.6-0.15c-1.7-0.37-2.33-1.62-1.9-3.75
			c0-0.17,0.63-0.48,1.9-0.95c1.07-0.4,2.53-0.93,4.4-1.6c0.43-0.27,1.47-0.43,3.1-0.5h0.1c0.3-0.03,0.62-0.05,0.95-0.05
			C20.5,29.97,22.4,29.62,23.8,29.35z M24.85,32c0,0.23,0.03,0.45,0.1,0.65c0.03,0.47,0.1,0.78,0.2,0.95c0,0.1,0.02,0.18,0.05,0.25
			c0.07,0.13,0.12,0.27,0.15,0.4c0.1,0.33,0.2,0.62,0.3,0.85c-0.1-0.23-0.2-0.52-0.3-0.85c-0.03-0.13-0.08-0.27-0.15-0.4
			c-0.03-0.07-0.05-0.15-0.05-0.25c-0.1-0.17-0.17-0.48-0.2-0.95C24.88,32.45,24.85,32.23,24.85,32z M30.55,34.3
			c0.03,0.23,0.15,0.47,0.35,0.7C30.7,34.77,30.58,34.53,30.55,34.3z M16.55,32.3c0.07,0.07,0.1,0.2,0.1,0.4
			c0.1,0.37,0.17,0.88,0.2,1.55c0,0.2,0.02,0.37,0.05,0.5c0,0.03,0.03,0.1,0.1,0.2c0.03,0.1,0.05,0.2,0.05,0.3
			c0.07,0,0.1,0.02,0.1,0.05c0.13,0.3,0.33,0.47,0.6,0.5c-0.27-0.03-0.47-0.2-0.6-0.5c0-0.03-0.03-0.05-0.1-0.05
			c0-0.1-0.02-0.2-0.05-0.3c-0.07-0.1-0.1-0.17-0.1-0.2c-0.03-0.13-0.05-0.3-0.05-0.5c-0.03-0.67-0.1-1.18-0.2-1.55
			C16.65,32.5,16.62,32.37,16.55,32.3z"/>
		<path fill-rule="evenodd" clip-rule="evenodd" fill="#AFA794" d="M30.2,30.95c-0.13-0.2-0.32-0.33-0.55-0.4
			c-0.17-0.1-1.08-0.22-2.75-0.35c-0.53-0.07-0.95-0.12-1.25-0.15c-1-0.1-1.62-0.22-1.85-0.35v-0.35h0.05
			c0.07-0.07,0.15-0.1,0.25-0.1c0.17-0.03,0.37-0.08,0.6-0.15c0.2,0,0.42,0,0.65,0c1.5-0.03,3.22-0.03,5.15,0
			C30.3,29.83,30.2,30.45,30.2,30.95z"/>
		
			<path fill-rule="evenodd" clip-rule="evenodd" fill="none" stroke="#A29A80" stroke-width="0.5" stroke-linecap="round" stroke-linejoin="round" stroke-miterlimit="3" d="
			M30.2,30.95c0,0.1,0,0.22,0,0.35c0,0.03,0.02,0.08,0.05,0.15c0.1,0.63,0.18,1.22,0.25,1.75c0,0.5,0.02,0.83,0.05,1
			c0,0.03,0,0.07,0,0.1c0.03,0.23,0.15,0.47,0.35,0.7 M32.15,36.5c-0.1-0.03-0.17-0.05-0.2-0.05c-0.2,0-0.38,0.02-0.55,0.05
			c-2.3,0.2-4.15,0.08-5.55-0.35c-0.1,0-0.17,0.02-0.2,0.05c-2.17,0.4-4.87,0.57-8.1,0.5c-1.4,0.37-3.53,0.6-6.4,0.7
			c-0.6,0-1.13-0.05-1.6-0.15c-1.7-0.37-2.33-1.62-1.9-3.75c0-0.17,0.63-0.48,1.9-0.95c1.07-0.4,2.53-0.93,4.4-1.6
			c0.43-0.27,1.47-0.43,3.1-0.5h0.1c0.3-0.03,0.62-0.05,0.95-0.05c2.4-0.43,4.3-0.78,5.7-1.05 M23.85,29.35
			c0.07-0.07,0.15-0.1,0.25-0.1c0.17-0.03,0.37-0.08,0.6-0.15c0.2,0,0.42,0,0.65,0c1.5-0.03,3.22-0.03,5.15,0
			c-0.2,0.73-0.3,1.35-0.3,1.85 M24.85,32c0,0.23,0.03,0.45,0.1,0.65c0.03,0.47,0.1,0.78,0.2,0.95c0,0.1,0.02,0.18,0.05,0.25
			c0.07,0.13,0.12,0.27,0.15,0.4c0.1,0.33,0.2,0.62,0.3,0.85 M16.55,32.3c0.07,0.07,0.1,0.2,0.1,0.4c0.1,0.37,0.17,0.88,0.2,1.55
			c0,0.2,0.02,0.37,0.05,0.5c0,0.03,0.03,0.1,0.1,0.2c0.03,0.1,0.05,0.2,0.05,0.3c0.07,0,0.1,0.02,0.1,0.05
			c0.13,0.3,0.33,0.47,0.6,0.5"/>
	</g>
	<g>
		<path fill-rule="evenodd" clip-rule="evenodd" fill="#EAE8E1" d="M72.15,36.8c-0.33-0.1-0.6-0.2-0.8-0.3
			c-0.63-0.2-1.82-0.42-3.55-0.65c0.03-1.17,0.15-2.05,0.35-2.65c0.27-1.07,0.5-2.33,0.7-3.8c-0.2,1.47-0.43,2.73-0.7,3.8
			c-0.2,0.6-0.32,1.48-0.35,2.65c-0.1,0-0.22,0-0.35,0c-0.1,0-0.2,0-0.3,0c-0.37,0-2.62-0.13-6.75-0.4c-0.9-0.53-1.78-1.33-2.65-2.4
			c-0.17,0.3-0.32,0.57-0.45,0.8c0,0.03,0,0.07,0,0.1c-0.33-0.63-0.77-1.23-1.3-1.8c-1.13-1.13-2.43-1.9-3.9-2.3
			c-0.97-0.3-1.73-0.57-2.3-0.8c-0.9-0.33-1.67-0.78-2.3-1.35c-0.1-0.07-0.22-0.15-0.35-0.25c-0.8-0.87-2.03-2-3.7-3.4
			c-0.77-0.63-1.15-1.17-1.15-1.6c0-0.57,0.32-1.1,0.95-1.6c0.67-0.47,1-1.2,1-2.2c0-0.33,0-0.63,0-0.9c0.5-1.57,0.97-2.43,1.4-2.6
			c0.03-0.07,0.1-0.13,0.2-0.2c0.33-0.4,0.73-0.83,1.2-1.3c1.63-1.77,2.78-2.53,3.45-2.3c0.7,0.27,1.17,0.22,1.4-0.15
			c1.4,1.07,2.8,2.1,4.2,3.1c3.8,2.63,7.58,4.82,11.35,6.55c1.5,0.63,2.98,1.23,4.45,1.8l0.25,0.1
			C74.15,27.62,74.15,32.3,72.15,36.8z M57.85,18.75c-3.17-2.7-5.02-4.12-5.55-4.25c-0.53-0.13,0.72,1.28,3.75,4.25
			c2.2,1.43,3.82,2.5,4.85,3.2C62.07,22.48,61.05,21.42,57.85,18.75z"/>
		<path fill-rule="evenodd" clip-rule="evenodd" fill="#AFA794" d="M39,31.85c0.03-0.1,0.07-0.18,0.1-0.25
			c0.33-0.93,0.37-1.92,0.1-2.95v-0.1c-0.07-0.13-0.12-0.27-0.15-0.4c0.03,0.13,0.08,0.27,0.15,0.4v0.1
			c0.27,1.03,0.23,2.02-0.1,2.95C39.07,31.67,39.03,31.75,39,31.85c-0.23-0.27-0.45-0.7-0.65-1.3c-0.23-0.8-0.52-1.35-0.85-1.65
			h-0.05c-0.17-0.17-0.37-0.25-0.6-0.25c-0.37,0-0.73,0.02-1.1,0.05c-0.13,0-0.28,0.02-0.45,0.05c-0.73,0.3-1.47,0.9-2.2,1.8
			c-0.63,0.63-1.12,1.02-1.45,1.15c0,0.33,0.03,0.83,0.1,1.5c0,0.43-0.03,0.78-0.1,1.05c-0.03,0.43-0.15,0.65-0.35,0.65l-0.05-0.1
			c-0.33-0.03-0.62-0.22-0.85-0.55l-0.05-0.05c0-0.17-0.03-0.5-0.1-1c0-0.53-0.07-1.12-0.2-1.75C30.02,31.38,30,31.33,30,31.3v-0.05
			c0-0.1,0-0.2,0-0.3V30.8c0-0.17,0.02-0.37,0.05-0.6c0-0.07,0-0.12,0-0.15h0.05c0-0.1,0-0.2,0-0.3c0-1.3,0.22-2.45,0.65-3.45
			c0.53-1.07,1.15-2.37,1.85-3.9c0.33-0.7,0.58-1.42,0.75-2.15c0-0.07,0.03-0.13,0.1-0.2V20v-0.15c0.17-2.33,0.28-3.55,0.35-3.65
			c0-0.57,0.15-1.2,0.45-1.9c0.1-0.23,0.25-0.48,0.45-0.75V13.4c-0.93-0.93-1.33-1.9-1.2-2.9c0.47-0.03,0.87-0.05,1.2-0.05v0.7
			c2.23-0.37,3.5,0.17,3.8,1.6c0.03,0.43,0.08,0.82,0.15,1.15c0.37,0.13,0.9,0.2,1.6,0.2s2.57,0.28,5.6,0.85
			c-0.1,0.07-0.17,0.13-0.2,0.2c-0.43,0.17-0.9,1.03-1.4,2.6c0,0.27,0,0.57,0,0.9c0,1-0.33,1.73-1,2.2c-0.63,0.5-0.95,1.03-0.95,1.6
			c0,0.43,0.38,0.97,1.15,1.6c1.67,1.4,2.9,2.53,3.7,3.4c0.13,0.1,0.25,0.18,0.35,0.25c-0.43-0.07-0.83-0.1-1.2-0.1
			c-0.87,0-1.42,0.13-1.65,0.4c-0.17,0.23-0.25,0.65-0.25,1.25c1.27,1.87,2.73,3.42,4.4,4.65v0.05c0.13,0.1,0.28,0.2,0.45,0.3
			c-0.1,0.03-0.18,0.05-0.25,0.05c-0.23,0.1-0.5,0.08-0.8-0.05c-0.07,0-0.12-0.02-0.15-0.05c-0.67-0.3-1.57-0.93-2.7-1.9
			c-0.3-0.33-0.67-0.68-1.1-1.05c-1.37-1.37-2.35-2.28-2.95-2.75c-0.1-0.07-0.2-0.12-0.3-0.15c-0.33-0.23-0.5-0.23-0.5,0h0.1
			c0,0.03,0,0.08,0,0.15c0.1,0.5,0.15,0.92,0.15,1.25c-0.07,0.37-0.17,0.72-0.3,1.05c-0.13,0.23-0.27,0.45-0.4,0.65
			c-0.17,0.17-0.32,0.3-0.45,0.4C39.47,31.98,39.27,31.98,39,31.85z M37.7,18.45c0.1,0.13,0.17,0.27,0.2,0.4
			C37.87,18.72,37.8,18.58,37.7,18.45z M35.05,14.65v2.05V14.65z"/>
		<path fill-rule="evenodd" clip-rule="evenodd" fill="#F8F7F5" d="M57.85,18.75c3.2,2.67,4.22,3.73,3.05,3.2
			c-1.03-0.7-2.65-1.77-4.85-3.2c-3.03-2.97-4.28-4.38-3.75-4.25C52.83,14.63,54.68,16.05,57.85,18.75z"/>
		<path fill-rule="evenodd" clip-rule="evenodd" fill="#BEBBA7" d="M47.5,27.7c0.63,0.57,1.4,1.02,2.3,1.35
			c0.57,0.23,1.33,0.5,2.3,0.8c1.47,0.4,2.77,1.17,3.9,2.3c0.53,0.57,0.97,1.17,1.3,1.8c0-0.03,0-0.07,0-0.1
			c0.13-0.23,0.28-0.5,0.45-0.8c0.87,1.07,1.75,1.87,2.65,2.4c4.13,0.27,6.38,0.4,6.75,0.4c0.1,0,0.2,0,0.3,0c0.13,0,0.25,0,0.35,0
			c1.73,0.23,2.92,0.45,3.55,0.65c0.2,0.1,0.47,0.2,0.8,0.3c2.3,2.8,2.27,5.78-0.1,8.95l-8-1.75c-3.97,0.53-7.75,0.4-11.35-0.4
			c-2.23-0.47-4.02-0.93-5.35-1.4c-0.93-0.3-1.68-0.58-2.25-0.85c-1.47-0.67-3.07-1.47-4.8-2.4c-1.07-0.6-1.78-1-2.15-1.2
			c-0.17,0-0.28,0-0.35,0c-0.93-0.13-1.85-0.3-2.75-0.5c-1.37-0.37-2.33-0.62-2.9-0.75c-0.13-0.23-0.27-0.48-0.4-0.75
			c-0.13-0.3-0.28-0.58-0.45-0.85c0.2,0,0.32-0.22,0.35-0.65c0.07-0.27,0.1-0.62,0.1-1.05c-0.07-0.67-0.1-1.17-0.1-1.5
			c0.33-0.13,0.82-0.52,1.45-1.15c0.73-0.9,1.47-1.5,2.2-1.8c0.17-0.03,0.32-0.05,0.45-0.05c0.37-0.03,0.73-0.05,1.1-0.05
			c0.23,0,0.43,0.08,0.6,0.25h0.05c0.33,0.3,0.62,0.85,0.85,1.65c0.2,0.6,0.42,1.03,0.65,1.3c0.27,0.13,0.47,0.13,0.6,0
			c0.13-0.1,0.28-0.23,0.45-0.4c0.13-0.2,0.27-0.42,0.4-0.65c0.13-0.33,0.23-0.68,0.3-1.05c0-0.33-0.05-0.75-0.15-1.25
			c0-0.07,0-0.12,0-0.15h-0.1c0-0.23,0.17-0.23,0.5,0c0.1,0.03,0.2,0.08,0.3,0.15c0.6,0.47,1.58,1.38,2.95,2.75
			c0.43,0.37,0.8,0.72,1.1,1.05c1.13,0.97,2.03,1.6,2.7,1.9c0.03,0.03,0.08,0.05,0.15,0.05c0.3,0.13,0.57,0.15,0.8,0.05
			c0.07,0,0.15-0.02,0.25-0.05c-0.17-0.1-0.32-0.2-0.45-0.3V33.9c-1.67-1.23-3.13-2.78-4.4-4.65c0-0.6,0.08-1.02,0.25-1.25
			c0.23-0.27,0.78-0.4,1.65-0.4C46.67,27.6,47.07,27.63,47.5,27.7z M67.8,35.85c0,0.17,0,0.28,0,0.35c0,1.43,0.02,2.28,0.05,2.55
			c0.03,0.7,0.22,1.27,0.55,1.7c-0.33-0.43-0.52-1-0.55-1.7c-0.03-0.27-0.05-1.12-0.05-2.55C67.8,36.13,67.8,36.02,67.8,35.85z
			 M64.05,44c0.8-0.13,1.62-0.32,2.45-0.55C65.67,43.68,64.85,43.87,64.05,44z"/>
		
			<path fill-rule="evenodd" clip-rule="evenodd" fill="none" stroke="#A29A80" stroke-width="0.5" stroke-linecap="round" stroke-linejoin="round" stroke-miterlimit="3" d="
			M51.9,11.2c1.4,1.07,2.8,2.1,4.2,3.1c3.8,2.63,7.58,4.82,11.35,6.55c1.5,0.63,2.98,1.23,4.45,1.8l0.25,0.1 M72.05,45.75l-8-1.75
			c-3.97,0.53-7.75,0.4-11.35-0.4c-2.23-0.47-4.02-0.93-5.35-1.4c-0.93-0.3-1.68-0.58-2.25-0.85c-1.47-0.67-3.07-1.47-4.8-2.4
			c-1.07-0.6-1.78-1-2.15-1.2c-0.17,0-0.28,0-0.35,0c-0.93-0.13-1.85-0.3-2.75-0.5c-1.37-0.37-2.33-0.62-2.9-0.75 M33.35,20.25
			c0-0.07,0.03-0.13,0.1-0.2 M33.45,20v-0.15c0.17-2.33,0.28-3.55,0.35-3.65c0-0.57,0.15-1.2,0.45-1.9c0.1-0.23,0.25-0.48,0.45-0.75
			 M37.7,18.45c0.1,0.13,0.17,0.27,0.2,0.4 M35.05,14.65v2.05 M67.8,35.85c0.03-1.17,0.15-2.05,0.35-2.65
			c0.27-1.07,0.5-2.33,0.7-3.8 M48.8,33.95V33.9 M39,31.85c0.03-0.1,0.07-0.18,0.1-0.25c0.33-0.93,0.37-1.92,0.1-2.95v-0.1
			c-0.07-0.13-0.12-0.27-0.15-0.4 M67.8,35.85c0,0.17,0,0.28,0,0.35c0,1.43,0.02,2.28,0.05,2.55c0.03,0.7,0.22,1.27,0.55,1.7
			 M64.05,44c0.8-0.13,1.62-0.32,2.45-0.55"/>
	</g>
	<g>
		<path fill-rule="evenodd" clip-rule="evenodd" fill="#FFFFFF" d="M21.2,7.15c0.2-0.3,0.55-0.53,1.05-0.7
			c2.4-0.67,3.77-0.93,4.1-0.8C26.65,5.78,24.93,6.28,21.2,7.15z M40.4,7.4h-1.15c-1.6-0.4-3.47-0.7-5.6-0.9
			c-2.2-0.23-3.87-0.53-5-0.9c0.37,0,0.85,0.02,1.45,0.05c1.8,0.1,3.65,0.32,5.55,0.65c1.73,0.33,3.32,0.65,4.75,0.95V7.4z"/>
		<path fill-rule="evenodd" clip-rule="evenodd" fill="#EAE8E1" d="M21.2,7.15c3.73-0.87,5.45-1.37,5.15-1.5
			c-0.33-0.13-1.7,0.13-4.1,0.8C21.75,6.62,21.4,6.85,21.2,7.15z M13.85,8.75c1.53-0.6,2.95-1.22,4.25-1.85
			c1.37-0.7,2.92-1.25,4.65-1.65c1.77-0.43,2.88-0.75,3.35-0.95c1.6-0.7,3.72-0.82,6.35-0.35l9.4,0.85c1.17,0,2.38,0.5,3.65,1.5
			c1.63,0.97,3.23,2.15,4.8,3.55c0.1,0.07,0.17,0.15,0.2,0.25c0.47,0.37,0.93,0.73,1.4,1.1c-0.23,0.37-0.48,0.65-0.75,0.85
			c-0.3,0.23-0.58,0.45-0.85,0.65c-0.1,0.03-0.2,0.1-0.3,0.2c-0.23,0.13-0.82,0.67-1.75,1.6s-1.4,1.43-1.4,1.5
			c-0.1,0-0.25,0.07-0.45,0.2c-0.17,0.13-0.55,0.35-1.15,0.65c0.5-0.9,0.75-1.53,0.75-1.9c0-0.23,0.02-0.45,0.05-0.65
			c0.1-0.27,0.22-0.5,0.35-0.7c0.3-0.27,0.45-0.53,0.45-0.8c0-0.13-0.03-0.2-0.1-0.2c-0.03-0.1-0.17-0.15-0.4-0.15
			c-0.1,0-0.22,0.03-0.35,0.1c-0.23,0.03-0.48,0.15-0.75,0.35c-0.57,0.2-0.9,0.3-1,0.3c-0.53,0-0.83-0.22-0.9-0.65
			c0-0.6,0.02-1.1,0.05-1.5c0.03-1.17-0.62-1.83-1.95-2c-0.3-0.07-0.62-0.1-0.95-0.1c-0.17,0-0.37,0.15-0.6,0.45
			c-0.23,0.27-0.5,0.4-0.8,0.4c-3.87-0.27-6.07-0.43-6.6-0.5c-0.17,0-0.6-0.13-1.3-0.4c-0.63-0.23-1.03-0.42-1.2-0.55
			c-0.47-0.23-0.82-0.55-1.05-0.95C28.72,7.13,28.57,7,28.5,7c-0.33,0-0.53,0.18-0.6,0.55c-0.17,0.8-0.25,1.22-0.25,1.25
			c-0.47,1.2-2.1,1.8-4.9,1.8c-0.6,0-1-0.22-1.2-0.65c-0.13-0.7-0.3-1.32-0.5-1.85h-0.4c0.17,0.57-0.22,1.12-1.15,1.65
			c-0.97,0.57-2.02,0.85-3.15,0.85c-0.93,0-1.57-0.1-1.9-0.3c-0.4-0.2-0.6-0.7-0.6-1.5V8.75z M40.4,7.4V7.25
			c-1.43-0.3-3.02-0.62-4.75-0.95c-1.9-0.33-3.75-0.55-5.55-0.65c-0.6-0.03-1.08-0.05-1.45-0.05c1.13,0.37,2.8,0.67,5,0.9
			c2.13,0.2,4,0.5,5.6,0.9H40.4z"/>
		<path fill-rule="evenodd" clip-rule="evenodd" fill="#BEBBA7" d="M37.3,13.65c-3.77-0.63-6.23-1.47-7.4-2.5
			c-0.1-0.2-0.22-0.37-0.35-0.5c-0.27-0.43-0.45-0.93-0.55-1.5c0.1,0.57,0.28,1.07,0.55,1.5c0.13,0.13,0.25,0.3,0.35,0.5l-2.6,1.05
			c-0.4,0.13-0.83,0.25-1.3,0.35c-0.87,0.17-1.77,0.33-2.7,0.5l-2.15,0.15c0.03-0.17,0.07-0.33,0.1-0.5c0.2-0.67,0.3-1.37,0.3-2.1
			c0,0.73-0.1,1.43-0.3,2.1c-0.03,0.17-0.07,0.33-0.1,0.5c-0.87,0.47-1.73,0.83-2.6,1.1c-1.37,0.47-2.73,0.75-4.1,0.85
			c-0.57,0.03-1.05,0.03-1.45,0c-1-0.1-1.75-0.38-2.25-0.85c-0.23-0.23-0.43-0.48-0.6-0.75c-0.6-1.27-0.6-2.22,0-2.85
			c0.67-0.6,1.8-1.23,3.4-1.9c0.1,0,0.2-0.02,0.3-0.05V8.8c0,0.8,0.2,1.3,0.6,1.5c0.33,0.2,0.97,0.3,1.9,0.3
			c1.13,0,2.18-0.28,3.15-0.85c0.93-0.53,1.32-1.08,1.15-1.65h0.4c0.2,0.53,0.37,1.15,0.5,1.85c0.2,0.43,0.6,0.65,1.2,0.65
			c2.8,0,4.43-0.6,4.9-1.8c0-0.03,0.08-0.45,0.25-1.25C27.97,7.18,28.17,7,28.5,7c0.07,0,0.22,0.13,0.45,0.4
			c0.23,0.4,0.58,0.72,1.05,0.95c0.17,0.13,0.57,0.32,1.2,0.55c0.7,0.27,1.13,0.4,1.3,0.4c0.53,0.07,2.73,0.23,6.6,0.5
			c0.3,0,0.57-0.13,0.8-0.4c0.23-0.3,0.43-0.45,0.6-0.45c0.33,0,0.65,0.03,0.95,0.1c1.33,0.17,1.98,0.83,1.95,2
			c-0.03,0.4-0.05,0.9-0.05,1.5c0.07,0.43,0.37,0.65,0.9,0.65c0.1,0,0.43-0.1,1-0.3c0.27-0.2,0.52-0.32,0.75-0.35
			c0.13-0.07,0.25-0.1,0.35-0.1c0.23,0,0.37,0.05,0.4,0.15c0.07,0,0.1,0.07,0.1,0.2c0,0.27-0.15,0.53-0.45,0.8
			c-0.13,0.2-0.25,0.43-0.35,0.7C46.02,14.5,46,14.72,46,14.95c0,0.37-0.25,1-0.75,1.9c-1.1,0.17-1.88,0.3-2.35,0.4
			c-0.5,0.1-0.73-0.2-0.7-0.9c-0.23,0-0.47,0-0.7,0c-0.13,0.03,0.05,0.32,0.55,0.85c-0.17-0.1-0.37-0.15-0.6-0.15
			c-0.3,0-0.58,0.07-0.85,0.2c-0.53,0.23-1.12-0.3-1.75-1.6C38.45,14.62,37.93,13.95,37.3,13.65z M40.65,10.45
			c0.1,0.13,0.37,0.48,0.8,1.05c0.4,0.57,0.6,0.93,0.6,1.1c0-0.17-0.2-0.53-0.6-1.1C41.02,10.93,40.75,10.58,40.65,10.45z
			 M42.2,16.35c-0.23-0.57-0.48-1.12-0.75-1.65v-0.05c-0.1-0.1-0.18-0.22-0.25-0.35c-0.63-1.17-1.28-1.85-1.95-2.05
			c0.67,0.2,1.32,0.88,1.95,2.05c0.07,0.13,0.15,0.25,0.25,0.35v0.05C41.72,15.23,41.97,15.78,42.2,16.35z M46,12.55
			c-0.1,0.37-0.38,0.82-0.85,1.35c-0.17,0.13-0.33,0.27-0.5,0.4c-0.37,0.27-0.72,0.48-1.05,0.65c0.33-0.17,0.68-0.38,1.05-0.65
			c0.17-0.13,0.33-0.27,0.5-0.4C45.62,13.37,45.9,12.92,46,12.55z"/>
		
			<path fill-rule="evenodd" clip-rule="evenodd" fill="none" stroke="#A29A80" stroke-width="0.5" stroke-linecap="round" stroke-linejoin="round" stroke-miterlimit="3" d="
			M51.9,11.2c-0.47-0.37-0.93-0.73-1.4-1.1c-0.03-0.1-0.1-0.18-0.2-0.25c-1.57-1.4-3.17-2.58-4.8-3.55c-1.27-1-2.48-1.5-3.65-1.5
			l-9.4-0.85C29.82,3.48,27.7,3.6,26.1,4.3c-0.47,0.2-1.58,0.52-3.35,0.95c-1.73,0.4-3.28,0.95-4.65,1.65
			c-1.3,0.63-2.72,1.25-4.25,1.85 M21.55,10.6c0,0.73-0.1,1.43-0.3,2.1c-0.03,0.17-0.07,0.33-0.1,0.5l2.15-0.15
			c0.93-0.17,1.83-0.33,2.7-0.5c0.47-0.1,0.9-0.22,1.3-0.35l2.6-1.05c-0.1-0.2-0.22-0.37-0.35-0.5c-0.27-0.43-0.45-0.93-0.55-1.5
			 M21.15,13.2c-0.87,0.47-1.73,0.83-2.6,1.1c-1.37,0.47-2.73,0.75-4.1,0.85c-0.57,0.03-1.05,0.03-1.45,0
			c-1-0.1-1.75-0.38-2.25-0.85c-0.23-0.23-0.43-0.48-0.6-0.75c-0.6-1.27-0.6-2.22,0-2.85c0.67-0.6,1.8-1.23,3.4-1.9
			c0.1,0,0.2-0.02,0.3-0.05 M40.65,10.45c0.1,0.13,0.37,0.48,0.8,1.05c0.4,0.57,0.6,0.93,0.6,1.1 M37.3,13.65
			c-3.77-0.63-6.23-1.47-7.4-2.5 M42.2,16.35c-0.23-0.57-0.48-1.12-0.75-1.65v-0.05c-0.1-0.1-0.18-0.22-0.25-0.35
			c-0.63-1.17-1.28-1.85-1.95-2.05 M46,12.55c-0.1,0.37-0.38,0.82-0.85,1.35c-0.17,0.13-0.33,0.27-0.5,0.4
			c-0.37,0.27-0.72,0.48-1.05,0.65"/>
	</g>
	<g>
		<g>
			<path fill-rule="evenodd" clip-rule="evenodd" fill="#FFFFFF" fill-opacity="0.251" d="M1.3,10.1v1.1
				c0.4,1.33,2.12,2.48,5.15,3.45c0.1,0.03,0.2,0.08,0.3,0.15c3.6,1.13,7.97,1.7,13.1,1.7c5.17,0,9.58-0.57,13.25-1.7
				c0.07-0.07,0.18-0.12,0.35-0.15c3.03-0.93,4.68-2.08,4.95-3.45c0.07-0.17,0.1-0.3,0.1-0.4v-0.7c-0.47,1.33-2.25,2.48-5.35,3.45
				c-3.7,1.1-8.13,1.65-13.3,1.65c-5.13,0-9.5-0.55-13.1-1.65c-3.1-1-4.88-2.13-5.35-3.4C1.33,10.15,1.3,10.13,1.3,10.1z M1.3,9.4
				c0,0.07,0,0.15,0,0.25v0.1c0,0.03,0.03,0.05,0.1,0.05c0,0.1,0.02,0.22,0.05,0.35c0.47,1.23,2.23,2.33,5.3,3.3
				c3.6,1.13,7.97,1.7,13.1,1.7c5.17,0,9.58-0.57,13.25-1.7c3.07-0.93,4.82-2.05,5.25-3.35c0.03-0.1,0.05-0.2,0.05-0.3
				c0.07-0.1,0.1-0.2,0.1-0.3V9.45c-0.07-1.6-1.87-2.95-5.4-4.05c-3.67-1.1-8.08-1.65-13.25-1.65c-5.13,0-9.55,0.57-13.25,1.7
				C3.23,6.48,1.47,7.8,1.3,9.4z M24.3,39.95v-0.1c0.43-0.27,0.73-0.68,0.9-1.25c-0.27,0.33-0.73,0.62-1.4,0.85
				c-0.1,0.03-0.2,0.08-0.3,0.15c-1.07,0.27-2.25,0.4-3.55,0.4c-0.9,0-1.72-0.07-2.45-0.2c-0.53-0.1-1.02-0.22-1.45-0.35
				c-0.7-0.23-1.17-0.48-1.4-0.75c0.17,0.47,0.43,0.83,0.8,1.1c0.03,0.03,0.08,0.05,0.15,0.05c0.03,0.07,0.07,0.12,0.1,0.15
				c0.23,0.2,0.57,0.37,1,0.5c0.9,0.23,1.98,0.35,3.25,0.35c1.2,0,2.25-0.12,3.15-0.35C23.67,40.3,24.07,40.12,24.3,39.95
				c-0.2,0.23-0.58,0.43-1.15,0.6c-0.93,0.3-2,0.45-3.2,0.45c-1.27,0-2.35-0.15-3.25-0.45c-0.47-0.13-0.8-0.28-1-0.45
				c-0.07-0.07-0.13-0.12-0.2-0.15c-0.03,0-0.08-0.03-0.15-0.1c-0.47-0.3-0.73-0.78-0.8-1.45c-0.07-0.03-0.1-0.08-0.1-0.15
				c0-0.1,0-0.17,0-0.2c0-0.07,0-0.12,0-0.15c-0.17-0.23-0.28-0.77-0.35-1.6c-0.37-1.7-0.88-3.08-1.55-4.15
				c-0.17-0.3-0.35-0.57-0.55-0.8c-0.03-0.03-0.08-0.07-0.15-0.1c-0.6-0.7-1.23-1.5-1.9-2.4v-0.1H9.9c-0.7-0.93-1.27-1.88-1.7-2.85
				c-0.37-0.8-0.65-1.67-0.85-2.6L6.4,14.7c-3.07-0.97-4.78-2.1-5.15-3.4V9.65c0-0.1,0-0.18,0-0.25c0.1-1.67,1.85-3,5.25-4
				c3.77-1.2,8.22-1.8,13.35-1.8c5.17,0,9.6,0.57,13.3,1.7c3.57,1.13,5.37,2.52,5.4,4.15v1.35c0,0.1-0.02,0.23-0.05,0.4
				c-0.23,1.37-1.9,2.53-5,3.5l-1.05,8.6c-0.23,1.27-0.65,2.43-1.25,3.5c-0.4,0.67-0.83,1.32-1.3,1.95h-0.05v0.1
				c-0.67,0.9-1.3,1.7-1.9,2.4c-0.03,0.03-0.08,0.07-0.15,0.1c-0.03,0.07-0.08,0.15-0.15,0.25c-0.83,1.1-1.47,2.67-1.9,4.7
				c-0.07,0.83-0.18,1.37-0.35,1.6c-0.03,0.03-0.05,0.1-0.05,0.2c0,0.07,0,0.12,0,0.15v0.1C25.22,39.08,24.87,39.62,24.3,39.95z
				 M12.35,5.5c-0.8,0.2-1.55,0.4-2.25,0.6C7.4,6.87,6.13,7.88,6.3,9.15c0.23,0.97,1.55,1.82,3.95,2.55c2.67,0.8,5.87,1.2,9.6,1.2
				c3.8,0,7.07-0.4,9.8-1.2c2.33-0.7,3.62-1.55,3.85-2.55c0-0.07,0-0.15,0-0.25c0-1.13-1.28-2.07-3.85-2.8
				c-0.7-0.2-1.43-0.4-2.2-0.6c-2.2-0.4-4.73-0.6-7.6-0.6C17.08,4.9,14.58,5.1,12.35,5.5z M10.1,6c0.7-0.23,1.45-0.42,2.25-0.55
				c2.23-0.43,4.73-0.65,7.5-0.65c2.87,0,5.4,0.22,7.6,0.65c0.77,0.13,1.5,0.3,2.2,0.5c2.67,0.8,4,1.78,4,2.95
				c0,0.1-0.03,0.18-0.1,0.25c-0.17,1.03-1.47,1.9-3.9,2.6c-2.73,0.8-6,1.2-9.8,1.2c-3.73,0-6.93-0.4-9.6-1.2
				c-2.5-0.73-3.83-1.6-4-2.6C6.05,7.85,7.33,6.8,10.1,6z M6.45,14.8l1,8.5c0.17,0.9,0.45,1.73,0.85,2.5c0.4,1.03,0.95,2,1.65,2.9
				c0.07,0,0.1,0.02,0.1,0.05c0.63,0.9,1.27,1.7,1.9,2.4c0.03,0.07,0.07,0.12,0.1,0.15c0.2,0.23,0.37,0.48,0.5,0.75
				c0.7,1.1,1.25,2.52,1.65,4.25c0.03,0.83,0.15,1.37,0.35,1.6c0,0.03,0,0.08,0,0.15c0,0.13,0.02,0.25,0.05,0.35
				c0.13,0.37,0.62,0.7,1.45,1c0.43,0.13,0.92,0.25,1.45,0.35c0.73,0.13,1.55,0.2,2.45,0.2c1.3,0,2.47-0.17,3.5-0.5
				c0.1,0,0.2-0.02,0.3-0.05c0.87-0.33,1.38-0.72,1.55-1.15c0-0.03,0-0.08,0-0.15v-0.05c0-0.07,0.02-0.12,0.05-0.15
				c0.13-0.23,0.25-0.77,0.35-1.6c0.43-2.07,1.07-3.67,1.9-4.8c0.03-0.03,0.1-0.1,0.2-0.2c0-0.03,0.03-0.08,0.1-0.15
				c0.6-0.7,1.22-1.5,1.85-2.4l0.1-0.05c0.47-0.6,0.88-1.25,1.25-1.95c0.6-1.1,1.02-2.25,1.25-3.45l1-8.5c-0.1,0-0.17,0.02-0.2,0.05
				c-3.7,1.13-8.13,1.7-13.3,1.7c-5.13,0-9.5-0.57-13.1-1.7C6.65,14.82,6.55,14.8,6.45,14.8z"/>
			<linearGradient id="SVGID_1_" gradientUnits="userSpaceOnUse" x1="1.3374" y1="13.2998" x2="38.5376" y2="13.2998">
				<stop  offset="0" style="stop-color:#696967"/>
				<stop  offset="0.1216" style="stop-color:#DDD9D2;stop-opacity:0.9059"/>
				<stop  offset="0.349" style="stop-color:#A09584;stop-opacity:0.8431"/>
				<stop  offset="0.749" style="stop-color:#DED8CF;stop-opacity:0.5882"/>
				<stop  offset="1" style="stop-color:#A09581;stop-opacity:0.3255"/>
			</linearGradient>
			<path fill-rule="evenodd" clip-rule="evenodd" fill="url(#SVGID_1_)" d="M1.3,10.1c0,0.03,0.03,0.05,0.1,0.05
				c0.47,1.27,2.25,2.4,5.35,3.4c3.6,1.1,7.97,1.65,13.1,1.65c5.17,0,9.6-0.55,13.3-1.65c3.1-0.97,4.88-2.12,5.35-3.45v0.7
				c0,0.1-0.03,0.23-0.1,0.4c-0.27,1.37-1.92,2.52-4.95,3.45c-0.17,0.03-0.28,0.08-0.35,0.15c-3.67,1.13-8.08,1.7-13.25,1.7
				c-5.13,0-9.5-0.57-13.1-1.7c-0.1-0.07-0.2-0.12-0.3-0.15C3.42,13.68,1.7,12.53,1.3,11.2V10.1z"/>
			<linearGradient id="SVGID_2_" gradientUnits="userSpaceOnUse" x1="38.563" y1="9.2871" x2="1.3627" y2="9.6116">
				<stop  offset="0" style="stop-color:#696967"/>
				<stop  offset="0.1216" style="stop-color:#DDD9D2;stop-opacity:0.9059"/>
				<stop  offset="0.349" style="stop-color:#A09584;stop-opacity:0.8431"/>
				<stop  offset="0.749" style="stop-color:#DED8CF;stop-opacity:0.5882"/>
				<stop  offset="1" style="stop-color:#A09581;stop-opacity:0.3255"/>
			</linearGradient>
			<path fill-rule="evenodd" clip-rule="evenodd" fill="url(#SVGID_2_)" d="M1.3,9.4c0.17-1.6,1.93-2.92,5.3-3.95
				c3.7-1.13,8.12-1.7,13.25-1.7c5.17,0,9.58,0.55,13.25,1.65c3.53,1.1,5.33,2.45,5.4,4.05V9.5c0,0.1-0.03,0.2-0.1,0.3
				c0,0.1-0.02,0.2-0.05,0.3c-0.43,1.3-2.18,2.42-5.25,3.35c-3.67,1.13-8.08,1.7-13.25,1.7c-5.13,0-9.5-0.57-13.1-1.7
				c-3.07-0.97-4.83-2.07-5.3-3.3C1.42,10.02,1.4,9.9,1.4,9.8c-0.07,0-0.1-0.02-0.1-0.05v-0.1C1.3,9.55,1.3,9.47,1.3,9.4z M10.1,6
				C7.33,6.8,6.05,7.85,6.25,9.15c0.17,1,1.5,1.87,4,2.6c2.67,0.8,5.87,1.2,9.6,1.2c3.8,0,7.07-0.4,9.8-1.2
				c2.43-0.7,3.73-1.57,3.9-2.6c0.07-0.07,0.1-0.15,0.1-0.25c0-1.17-1.33-2.15-4-2.95c-0.7-0.2-1.43-0.37-2.2-0.5
				c-2.2-0.43-4.73-0.65-7.6-0.65c-2.77,0-5.27,0.22-7.5,0.65C11.55,5.58,10.8,5.77,10.1,6z"/>
			<linearGradient id="SVGID_3_" gradientUnits="userSpaceOnUse" x1="6.7627" y1="8.8999" x2="33.5377" y2="8.8999">
				<stop  offset="0" style="stop-color:#585854;stop-opacity:0.498"/>
				<stop  offset="0.2745" style="stop-color:#F5EAD3;stop-opacity:0.498"/>
				<stop  offset="0.5765" style="stop-color:#706B61;stop-opacity:0.298"/>
				<stop  offset="0.8118" style="stop-color:#FFFFFF;stop-opacity:0.298"/>
				<stop  offset="1" style="stop-color:#A09581;stop-opacity:0.3255"/>
			</linearGradient>
			<path fill-rule="evenodd" clip-rule="evenodd" fill="url(#SVGID_3_)" d="M12.35,5.5c2.23-0.4,4.73-0.6,7.5-0.6
				c2.87,0,5.4,0.2,7.6,0.6c0.77,0.2,1.5,0.4,2.2,0.6c2.57,0.73,3.85,1.67,3.85,2.8c0,0.1,0,0.18,0,0.25
				c-0.23,1-1.52,1.85-3.85,2.55c-2.73,0.8-6,1.2-9.8,1.2c-3.73,0-6.93-0.4-9.6-1.2c-2.4-0.73-3.72-1.58-3.95-2.55
				C6.13,7.88,7.4,6.87,10.1,6.1C10.8,5.9,11.55,5.7,12.35,5.5z"/>
			<path fill-rule="evenodd" clip-rule="evenodd" fill="#817A67" fill-opacity="0.298" d="M6.45,14.8c0.1,0,0.2,0.02,0.3,0.05
				c3.6,1.13,7.97,1.7,13.1,1.7c5.17,0,9.6-0.57,13.3-1.7c0.03-0.03,0.1-0.05,0.2-0.05l-1,8.5c-0.23,1.2-0.65,2.35-1.25,3.45
				c-0.37,0.7-0.78,1.35-1.25,1.95l-0.1,0.05c-0.63,0.9-1.25,1.7-1.85,2.4c-0.07,0.07-0.1,0.12-0.1,0.15c-0.1,0.1-0.17,0.17-0.2,0.2
				c-0.83,1.13-1.47,2.73-1.9,4.8c-0.1,0.83-0.22,1.37-0.35,1.6c-0.03,0.03-0.05,0.08-0.05,0.15v0.05c0,0.07,0,0.12,0,0.15
				c-0.17,0.43-0.68,0.82-1.55,1.15c-0.1,0.03-0.2,0.05-0.3,0.05c-1.03,0.33-2.2,0.5-3.5,0.5c-0.9,0-1.72-0.07-2.45-0.2
				c-0.53-0.1-1.02-0.22-1.45-0.35c-0.83-0.3-1.32-0.63-1.45-1c-0.03-0.1-0.05-0.22-0.05-0.35c0-0.07,0-0.12,0-0.15
				c-0.2-0.23-0.32-0.77-0.35-1.6c-0.4-1.73-0.95-3.15-1.65-4.25c-0.13-0.27-0.3-0.52-0.5-0.75c-0.03-0.03-0.07-0.08-0.1-0.15
				c-0.63-0.7-1.27-1.5-1.9-2.4c0-0.03-0.03-0.05-0.1-0.05c-0.7-0.9-1.25-1.87-1.65-2.9c-0.4-0.77-0.68-1.6-0.85-2.5L6.45,14.8z"/>
			<linearGradient id="SVGID_4_" gradientUnits="userSpaceOnUse" x1="14.5752" y1="39.7246" x2="25.3252" y2="39.7246">
				<stop  offset="0" style="stop-color:#696967"/>
				<stop  offset="0.1216" style="stop-color:#DDD9D2;stop-opacity:0.9059"/>
				<stop  offset="0.349" style="stop-color:#000000;stop-opacity:0.8392"/>
				<stop  offset="0.6196" style="stop-color:#040404"/>
				<stop  offset="1" style="stop-color:#A09581;stop-opacity:0.3255"/>
			</linearGradient>
			<path fill-rule="evenodd" clip-rule="evenodd" fill="url(#SVGID_4_)" d="M24.3,39.95c-0.23,0.17-0.63,0.35-1.2,0.55
				c-0.9,0.23-1.95,0.35-3.15,0.35c-1.27,0-2.35-0.12-3.25-0.35c-0.43-0.13-0.77-0.3-1-0.5c-0.03-0.03-0.07-0.08-0.1-0.15
				c-0.07,0-0.12-0.02-0.15-0.05c-0.37-0.27-0.63-0.63-0.8-1.1c0.23,0.27,0.7,0.52,1.4,0.75c0.43,0.13,0.92,0.25,1.45,0.35
				c0.73,0.13,1.55,0.2,2.45,0.2c1.3,0,2.48-0.13,3.55-0.4c0.1-0.07,0.2-0.12,0.3-0.15c0.67-0.23,1.13-0.52,1.4-0.85
				c-0.17,0.57-0.47,0.98-0.9,1.25V39.95z"/>
		</g>
		<g>
			<radialGradient id="SVGID_5_" cx="27.5498" cy="6.5498" r="4.8625" gradientUnits="userSpaceOnUse">
				<stop  offset="0" style="stop-color:#FDFDFB"/>
				<stop  offset="1" style="stop-color:#FFFFFF;stop-opacity:0"/>
			</radialGradient>
			<path fill-rule="evenodd" clip-rule="evenodd" fill="url(#SVGID_5_)" d="M22.2,5.3c-0.07,0-0.12,0-0.15,0c0-0.03,0-0.08,0-0.15
				c0-0.03,0.02-0.07,0.05-0.1h0.1c4.97,0.27,8.52,1.15,10.65,2.65c0.07,0.03,0.1,0.08,0.1,0.15c0,0.03-0.03,0.08-0.1,0.15H32.8
				c-0.07,0.03-0.12,0.03-0.15,0C30.55,6.53,27.07,5.63,22.2,5.3z"/>
		</g>
		<g>
			<g>
				<g>
					
						<radialGradient id="SVGID_6_" cx="20.1001" cy="20.0498" r="21.5875" gradientTransform="matrix(1 0 0 0.5524 0 8.9742)" gradientUnits="userSpaceOnUse">
						<stop  offset="0" style="stop-color:#000000;stop-opacity:0"/>
						<stop  offset="0.6941" style="stop-color:#000000;stop-opacity:7.843138e-003"/>
						<stop  offset="1" style="stop-color:#000000;stop-opacity:0.4196"/>
					</radialGradient>
					<path fill-rule="evenodd" clip-rule="evenodd" fill="url(#SVGID_6_)" d="M19.8,21.8c2.63,0,4.85,0.52,6.65,1.55
						c1.83,1.1,2.75,2.42,2.75,3.95c0,1.5-0.92,2.78-2.75,3.85c-1.8,1.1-4.02,1.65-6.65,1.65c-2.57,0-4.8-0.55-6.7-1.65
						c-1.8-1.07-2.7-2.35-2.7-3.85c0-1.53,0.9-2.85,2.7-3.95C15,22.32,17.23,21.8,19.8,21.8z"/>
				</g>
			</g>
			<g>
				<radialGradient id="SVGID_7_" cx="13.3501" cy="33.2002" r="4.1125" gradientUnits="userSpaceOnUse">
					<stop  offset="0" style="stop-color:#FDFDFB"/>
					<stop  offset="1" style="stop-color:#FFFFFF;stop-opacity:7.843138e-003"/>
				</radialGradient>
				<path fill-rule="evenodd" clip-rule="evenodd" fill="url(#SVGID_7_)" d="M14.8,35.3c0.1,0.9,0.17,1.53,0.2,1.9L14.95,37v-0.1
					c-0.27-2.2-1.02-4.12-2.25-5.75c-1.17-1.73-1.65-2.48-1.45-2.25c0.17,0.2,0.28,0.32,0.35,0.35l0.05,0.1l1.4,1.75
					C13.98,32.27,14.57,33.67,14.8,35.3z"/>
			</g>
			<g>
				<path fill-rule="evenodd" clip-rule="evenodd" fill="#817A67" fill-opacity="0.2392" d="M26.7,31.85c0.13-0.33,0.27-0.7,0.4-1.1
					c-4.3,2.47-8.98,2.65-14.05,0.55c0.1,0.27,0.17,0.52,0.2,0.75c-0.1-0.13-0.22-0.32-0.35-0.55c-0.17-0.27-0.35-0.52-0.55-0.75
					c-0.03,0-0.05-0.03-0.05-0.1c-0.63-0.63-1.27-1.4-1.9-2.3V28.3c-0.7-0.87-1.27-1.78-1.7-2.75c-0.33-0.8-0.58-1.62-0.75-2.45
					l-1-8.25c0.13,0.07,0.25,0.1,0.35,0.1c3.47,1.07,7.65,1.6,12.55,1.6c4.93,0,9.15-0.53,12.65-1.6c0.13,0,0.25-0.03,0.35-0.1
					L31.9,23.1c-0.23,1.17-0.63,2.27-1.2,3.3c-0.4,0.63-0.83,1.27-1.3,1.9v0.05c-0.6,0.9-1.22,1.67-1.85,2.3
					c0,0.07-0.03,0.1-0.1,0.1c-0.03,0.1-0.08,0.17-0.15,0.2c-0.4,0.6-0.53,0.88-0.4,0.85C26.8,31.83,26.73,31.85,26.7,31.85z"/>
				<linearGradient id="SVGID_8_" gradientUnits="userSpaceOnUse" x1="13.2002" y1="34.9004" x2="26.4002" y2="34.9004">
					<stop  offset="0" style="stop-color:#000000;stop-opacity:0.4196"/>
					<stop  offset="0.9922" style="stop-color:#000000;stop-opacity:0"/>
				</linearGradient>
				<path fill-rule="evenodd" clip-rule="evenodd" fill="url(#SVGID_8_)" d="M26.7,31.85c-0.53,1.27-0.88,2.32-1.05,3.15
					c-0.07,0.97-0.18,1.58-0.35,1.85c0,0.03,0,0.08,0,0.15c0,0.1,0,0.17,0,0.2c-0.17,0.47-0.68,0.87-1.55,1.2
					c-0.1,0.03-0.22,0.08-0.35,0.15c-1.03,0.33-2.23,0.5-3.6,0.5c-0.9,0-1.72-0.08-2.45-0.25c-0.53-0.07-1-0.2-1.4-0.4
					c-0.87-0.3-1.38-0.65-1.55-1.05c0-0.13,0-0.28,0-0.45l-0.1-0.05c-0.13-0.27-0.25-0.88-0.35-1.85c-0.13-0.87-0.37-1.85-0.7-2.95
					c-0.03-0.23-0.1-0.48-0.2-0.75c5.07,2.1,9.75,1.92,14.05-0.55C26.97,31.15,26.83,31.52,26.7,31.85z"/>
			</g>
		</g>
		<g>
			
				<radialGradient id="SVGID_9_" cx="-507.8511" cy="1.6323" r="2.4807" gradientTransform="matrix(-0.1209 -0.9927 1.3958 -0.1965 -54.7947 -494.5034)" gradientUnits="userSpaceOnUse">
				<stop  offset="0" style="stop-color:#FFFFFF"/>
				<stop  offset="0.1765" style="stop-color:#FFFFFF"/>
				<stop  offset="0.3059" style="stop-color:#FFFFFF;stop-opacity:0.4235"/>
				<stop  offset="0.4902" style="stop-color:#FFFFFF;stop-opacity:0.2314"/>
				<stop  offset="0.651" style="stop-color:#FFFFFF;stop-opacity:0.0824"/>
				<stop  offset="1" style="stop-color:#FFFFFF;stop-opacity:0"/>
			</radialGradient>
			<path fill-rule="evenodd" clip-rule="evenodd" fill="url(#SVGID_9_)" d="M11.6,10.7c-0.63,0.53-1.43,0.87-2.4,1
				c-0.9,0.13-1.7,0.02-2.4-0.35c-0.73-0.37-1.15-0.88-1.25-1.55C5.45,9.13,5.73,8.5,6.4,7.9c0.53-0.57,1.28-0.92,2.25-1.05
				s1.8,0,2.5,0.4c0.77,0.4,1.17,0.92,1.2,1.55C12.45,9.47,12.2,10.1,11.6,10.7z"/>
		</g>
		<g>
			
				<radialGradient id="SVGID_10_" cx="-510.894" cy="-49.3257" r="0.7315" gradientTransform="matrix(-0.3417 -0.9398 8.6119 -0.7006 275.3441 -499.841)" gradientUnits="userSpaceOnUse">
				<stop  offset="0" style="stop-color:#FFFFFF"/>
				<stop  offset="0.1765" style="stop-color:#FFFFFF"/>
				<stop  offset="0.3059" style="stop-color:#FFFFFF;stop-opacity:0.4235"/>
				<stop  offset="0.4902" style="stop-color:#FFFFFF;stop-opacity:0.2314"/>
				<stop  offset="0.651" style="stop-color:#FFFFFF;stop-opacity:0.0824"/>
				<stop  offset="1" style="stop-color:#FFFFFF;stop-opacity:0"/>
			</radialGradient>
			<path fill-rule="evenodd" clip-rule="evenodd" fill="url(#SVGID_10_)" d="M19,15.35c-0.03-0.2,0.53-0.42,1.7-0.65
				c1.13-0.23,2.55-0.42,4.25-0.55c1.77-0.13,3.25-0.18,4.45-0.15c1.27,0.07,1.93,0.18,2,0.35c0.1,0.2-0.47,0.42-1.7,0.65
				c-1.07,0.2-2.5,0.37-4.3,0.5c-1.67,0.13-3.12,0.2-4.35,0.2C19.78,15.67,19.1,15.55,19,15.35z"/>
		</g>
		<g>
			
				<radialGradient id="SVGID_11_" cx="-522.6006" cy="-55.8281" r="0.5112" gradientTransform="matrix(-0.3672 -0.9302 12.2878 -1.5911 521.8699 -559.2242)" gradientUnits="userSpaceOnUse">
				<stop  offset="0" style="stop-color:#FFFFFF"/>
				<stop  offset="0.1765" style="stop-color:#FFFFFF"/>
				<stop  offset="0.3059" style="stop-color:#FFFFFF;stop-opacity:0.4235"/>
				<stop  offset="0.4902" style="stop-color:#FFFFFF;stop-opacity:0.2314"/>
				<stop  offset="0.651" style="stop-color:#FFFFFF;stop-opacity:0.0824"/>
				<stop  offset="1" style="stop-color:#FFFFFF;stop-opacity:0"/>
			</radialGradient>
			<path fill-rule="evenodd" clip-rule="evenodd" fill="url(#SVGID_11_)" d="M23.3,15.9c1.13-0.23,2.55-0.47,4.25-0.7
				c1.77-0.17,3.23-0.3,4.4-0.4c1.27-0.07,1.92-0.02,1.95,0.15c0.1,0.07-0.45,0.25-1.65,0.55c-1.13,0.23-2.58,0.47-4.35,0.7
				c-1.7,0.2-3.13,0.33-4.3,0.4c-1.27,0.07-1.93,0.03-2-0.1C21.57,16.4,22.13,16.2,23.3,15.9z"/>
		</g>
		<g>
			
				<radialGradient id="SVGID_12_" cx="-536.8032" cy="13.5176" r="2.529" gradientTransform="matrix(-0.1186 -0.9929 1.9908 -0.2865 -67.1517 -493.3946)" gradientUnits="userSpaceOnUse">
				<stop  offset="0" style="stop-color:#FFFFFF"/>
				<stop  offset="0.1765" style="stop-color:#FFFFFF"/>
				<stop  offset="0.3059" style="stop-color:#FFFFFF;stop-opacity:0.4235"/>
				<stop  offset="0.4902" style="stop-color:#FFFFFF;stop-opacity:0.2314"/>
				<stop  offset="0.651" style="stop-color:#FFFFFF;stop-opacity:0.0824"/>
				<stop  offset="1" style="stop-color:#FFFFFF;stop-opacity:0"/>
			</radialGradient>
			<path fill-rule="evenodd" clip-rule="evenodd" fill="url(#SVGID_12_)" d="M28.35,35c0.1,0.73-0.32,1.4-1.25,2
				c-0.9,0.6-2.05,1-3.45,1.2c-1.37,0.17-2.53,0.08-3.5-0.25c-1.03-0.3-1.6-0.8-1.7-1.5c-0.1-0.67,0.33-1.33,1.3-2
				c0.87-0.6,1.98-1,3.35-1.2c1.4-0.17,2.6-0.08,3.6,0.25C27.73,33.87,28.28,34.37,28.35,35z"/>
		</g>
		<g>
			
				<radialGradient id="SVGID_13_" cx="-536.4189" cy="12.501" r="1.4966" gradientTransform="matrix(-0.1168 -0.9932 1.9946 -0.2838 -65.7078 -493.2486)" gradientUnits="userSpaceOnUse">
				<stop  offset="0" style="stop-color:#FFFFFF"/>
				<stop  offset="0.1765" style="stop-color:#FFFFFF"/>
				<stop  offset="0.3059" style="stop-color:#FFFFFF;stop-opacity:0.4235"/>
				<stop  offset="0.4902" style="stop-color:#FFFFFF;stop-opacity:0.2314"/>
				<stop  offset="0.651" style="stop-color:#FFFFFF;stop-opacity:0.0824"/>
				<stop  offset="1" style="stop-color:#FFFFFF;stop-opacity:0"/>
			</radialGradient>
			<path fill-rule="evenodd" clip-rule="evenodd" fill="url(#SVGID_13_)" d="M24.85,35.5c0.07,0.43-0.18,0.83-0.75,1.2
				c-0.53,0.33-1.22,0.57-2.05,0.7c-0.8,0.1-1.48,0.05-2.05-0.15c-0.67-0.17-1.02-0.47-1.05-0.9c0-0.37,0.27-0.73,0.8-1.1
				c0.5-0.4,1.15-0.67,1.95-0.8c0.83-0.1,1.55-0.05,2.15,0.15C24.48,34.83,24.82,35.13,24.85,35.5z"/>
		</g>
		<g>
			
				<radialGradient id="SVGID_14_" cx="-121.8804" cy="117.7783" r="0.8276" gradientTransform="matrix(0.9062 -0.4229 1.5858 3.2925 -62.429 -406.7723)" gradientUnits="userSpaceOnUse">
				<stop  offset="0" style="stop-color:#FFFFFF"/>
				<stop  offset="0.1765" style="stop-color:#FFFFFF"/>
				<stop  offset="0.3059" style="stop-color:#FFFFFF;stop-opacity:0.4235"/>
				<stop  offset="0.4902" style="stop-color:#FFFFFF;stop-opacity:0.2314"/>
				<stop  offset="0.651" style="stop-color:#FFFFFF;stop-opacity:0.0824"/>
				<stop  offset="1" style="stop-color:#FFFFFF;stop-opacity:0"/>
			</radialGradient>
			<path fill-rule="evenodd" clip-rule="evenodd" fill="url(#SVGID_14_)" d="M13.55,30.55c0.37,0.4,0.73,0.95,1.1,1.65
				c0.33,0.8,0.55,1.48,0.65,2.05c0.13,0.6,0.08,0.95-0.15,1.05c-0.17,0.1-0.45-0.12-0.85-0.65c-0.4-0.4-0.8-0.98-1.2-1.75
				c-0.3-0.7-0.5-1.35-0.6-1.95c-0.13-0.6-0.08-0.93,0.15-1C12.82,29.88,13.12,30.08,13.55,30.55z"/>
		</g>
		<g>
			
				<radialGradient id="SVGID_15_" cx="28" cy="26.1001" r="0.8232" gradientTransform="matrix(-0.7466 -0.6652 2.4402 -2.7389 -14.7843 116.2128)" gradientUnits="userSpaceOnUse">
				<stop  offset="0" style="stop-color:#FFFFFF"/>
				<stop  offset="0.1765" style="stop-color:#FFFFFF"/>
				<stop  offset="0.3059" style="stop-color:#FFFFFF;stop-opacity:0.4235"/>
				<stop  offset="0.4902" style="stop-color:#FFFFFF;stop-opacity:0.2314"/>
				<stop  offset="0.651" style="stop-color:#FFFFFF;stop-opacity:0.0824"/>
				<stop  offset="1" style="stop-color:#FFFFFF;stop-opacity:0"/>
			</radialGradient>
			<path fill-rule="evenodd" clip-rule="evenodd" fill="url(#SVGID_15_)" d="M29,24.15c0.5-0.4,0.85-0.5,1.05-0.3
				c0.13,0.13,0.07,0.48-0.2,1.05c-0.23,0.53-0.63,1.12-1.2,1.75c-0.57,0.63-1.08,1.08-1.55,1.35c-0.5,0.37-0.83,0.47-1,0.3
				c-0.17-0.17-0.12-0.52,0.15-1.05c0.23-0.53,0.63-1.1,1.2-1.7C28.02,24.88,28.53,24.42,29,24.15z"/>
		</g>
		<g>
			
				<radialGradient id="SVGID_16_" cx="-25.7549" cy="46.5508" r="1.974" gradientTransform="matrix(0.9942 -0.1077 0.4876 3.6221 11.6573 -150.6361)" gradientUnits="userSpaceOnUse">
				<stop  offset="0" style="stop-color:#FFFFFF"/>
				<stop  offset="0.1765" style="stop-color:#FFFFFF"/>
				<stop  offset="0.3059" style="stop-color:#FFFFFF;stop-opacity:0.4235"/>
				<stop  offset="0.4902" style="stop-color:#FFFFFF;stop-opacity:0.2314"/>
				<stop  offset="0.651" style="stop-color:#FFFFFF;stop-opacity:0.0824"/>
				<stop  offset="1" style="stop-color:#FFFFFF;stop-opacity:0"/>
			</radialGradient>
			<path fill-rule="evenodd" clip-rule="evenodd" fill="url(#SVGID_16_)" d="M6.85,20.95c-0.23-1.9-0.25-3.53-0.05-4.9
				c0.2-1.43,0.55-2.18,1.05-2.25c0.53-0.03,1.1,0.63,1.7,2c0.57,1.23,0.97,2.82,1.2,4.75c0.27,2,0.28,3.68,0.05,5.05
				c-0.2,1.47-0.55,2.25-1.05,2.35c-0.5,0.03-1.07-0.63-1.7-2C7.55,24.65,7.15,22.98,6.85,20.95z"/>
		</g>
		<g>
			
				<radialGradient id="SVGID_17_" cx="-495.395" cy="59.7373" r="0.6893" gradientTransform="matrix(0.0725 -0.9974 4.3884 0.1813 -207.318 -464.0727)" gradientUnits="userSpaceOnUse">
				<stop  offset="0" style="stop-color:#FFFFFF"/>
				<stop  offset="0.1765" style="stop-color:#FFFFFF"/>
				<stop  offset="0.3059" style="stop-color:#FFFFFF;stop-opacity:0.4235"/>
				<stop  offset="0.4902" style="stop-color:#FFFFFF;stop-opacity:0.2314"/>
				<stop  offset="0.651" style="stop-color:#FFFFFF;stop-opacity:0.0824"/>
				<stop  offset="1" style="stop-color:#FFFFFF;stop-opacity:0"/>
			</radialGradient>
			<path fill-rule="evenodd" clip-rule="evenodd" fill="url(#SVGID_17_)" d="M16.85,40.3c0.57-0.13,1.27-0.18,2.1-0.15
				c0.83,0.03,1.53,0.13,2.1,0.3c0.57,0.17,0.85,0.35,0.85,0.55s-0.3,0.33-0.9,0.4c-0.57,0.1-1.3,0.13-2.2,0.1
				c-0.8-0.07-1.47-0.17-2-0.3c-0.57-0.13-0.85-0.3-0.85-0.5C15.95,40.53,16.25,40.4,16.85,40.3z"/>
		</g>
		<g>
			
				<radialGradient id="SVGID_18_" cx="17.1499" cy="39.4004" r="0.918" gradientTransform="matrix(0.1109 -0.9938 2.5197 0.2811 -84.0291 45.3701)" gradientUnits="userSpaceOnUse">
				<stop  offset="0" style="stop-color:#FFFFFF"/>
				<stop  offset="0.1765" style="stop-color:#FFFFFF"/>
				<stop  offset="0.3059" style="stop-color:#FFFFFF;stop-opacity:0.4235"/>
				<stop  offset="0.4902" style="stop-color:#FFFFFF;stop-opacity:0.2314"/>
				<stop  offset="0.651" style="stop-color:#FFFFFF;stop-opacity:0.0824"/>
				<stop  offset="1" style="stop-color:#FFFFFF;stop-opacity:0"/>
			</radialGradient>
			<path fill-rule="evenodd" clip-rule="evenodd" fill="url(#SVGID_18_)" d="M15.45,39.85c-0.43-0.23-0.65-0.48-0.65-0.75
				c0.07-0.23,0.33-0.4,0.8-0.5c0.47-0.13,1-0.18,1.6-0.15c0.67,0.1,1.2,0.27,1.6,0.5c0.43,0.23,0.63,0.47,0.6,0.7
				c0,0.23-0.25,0.42-0.75,0.55c-0.47,0.1-1.02,0.13-1.65,0.1C16.37,40.2,15.85,40.05,15.45,39.85z"/>
		</g>
	</g>
	<g>
		<path fill-rule="evenodd" clip-rule="evenodd" fill="#EAE8E1" d="M83.8,29.55c-0.1,0.2-0.17,0.38-0.2,0.55
			c-0.9,2.03-1.57,4.92-2,8.65c-0.03,0.33-0.05,0.63-0.05,0.9c-1.3,1.6-1.82-0.3-1.55-5.7V33.9c0.2-0.83,0.3-1.33,0.3-1.5
			c0,0.17-0.1,0.67-0.3,1.5v0.05c-0.27,0.1-0.4,1.83-0.4,5.2v0.45c-0.1,0.47-0.18,0.92-0.25,1.35c-0.17,1-0.4,1.77-0.7,2.3
			c-0.4,0.73-0.82-0.67-1.25-4.2c-0.7-0.67-1.58-1.17-2.65-1.5c-1-0.27-1.82-0.5-2.45-0.7c-0.07,0-0.12-0.02-0.15-0.05V22.75
			l8.5,0.9c1.43-0.9,2.82-0.88,4.15,0.05c0.07,0.07,0.13,0.13,0.2,0.2l0.55-0.2c0.43-0.17,0.7-0.25,0.8-0.25
			c0.73,0.07,1.23,0.47,1.5,1.2l-0.75-0.1c-1.17,1.3-2.25,2.92-3.25,4.85C83.85,29.43,83.83,29.48,83.8,29.55z M82.55,24.9
			c-0.43,0.23-0.82,0.53-1.15,0.9c-0.03,0.1-0.1,0.2-0.2,0.3c-0.47,0.6-0.97,1.48-1.5,2.65c-0.13,0.2-0.25,0.4-0.35,0.6v0.05
			c-0.73,1.63-1.2,2.83-1.4,3.6c0.2-0.77,0.67-1.97,1.4-3.6v-0.05c0.1-0.2,0.22-0.4,0.35-0.6c0.53-1.17,1.03-2.05,1.5-2.65
			c0.1-0.1,0.17-0.2,0.2-0.3C81.73,25.43,82.12,25.13,82.55,24.9z M80.65,23.65c-0.17,0.1-0.32,0.17-0.45,0.2v0.05
			c-0.6,0.33-1.13,0.77-1.6,1.3c0.47-0.53,1-0.97,1.6-1.3v-0.05C80.33,23.82,80.48,23.75,80.65,23.65z M85,23.9
			c-0.1,0-0.2,0.03-0.3,0.1c-0.37,0.03-0.68-0.07-0.95-0.3c0.27,0.23,0.58,0.33,0.95,0.3C84.8,23.93,84.9,23.9,85,23.9z"/>
		<path fill-rule="evenodd" clip-rule="evenodd" fill="#DEA47E" d="M87.85,24.65l23.2,2.15c0,0.07,0.02,0.12,0.05,0.15
			c0.9,5.9,0.72,11.82-0.55,17.75c-0.5-0.03-1.08-0.1-1.75-0.2c-2.57-0.23-4.58-0.4-6.05-0.5c-1.77-0.13-3.87-0.48-6.3-1.05
			c-1.13-0.23-2.15-0.43-3.05-0.6c-0.73-0.2-1.4-0.37-2-0.5c-0.33-0.07-0.65-0.13-0.95-0.2c-2.13-0.43-4-0.82-5.6-1.15
			c-1.27-0.27-2.37-0.55-3.3-0.85c0-0.27,0.02-0.57,0.05-0.9c0.43-3.73,1.1-6.62,2-8.65h3.3c-0.67-0.1-1.35-0.22-2.05-0.35
			c-0.33-0.03-0.68-0.1-1.05-0.2c0.03-0.07,0.05-0.12,0.05-0.15c1-1.93,2.08-3.55,3.25-4.85L87.85,24.65z"/>
		<path fill-rule="evenodd" clip-rule="evenodd" fill="#D8966B" d="M84.8,48.3c0-0.03,0-0.08,0-0.15c0,0.07-0.04,0.1-0.1,0.1
			c-0.63,0.03-1.22-0.02-1.75-0.15c-0.57-0.13-0.97-0.3-1.2-0.5c-0.13-0.5-0.18-1-0.15-1.5c-0.4-0.6-0.42-2.75-0.05-6.45
			c0.93,0.3,2.03,0.58,3.3,0.85c1.6,0.33,3.47,0.72,5.6,1.15c0.3,0.07,0.62,0.13,0.95,0.2c0.6,0.13,1.27,0.3,2,0.5
			c0.9,0.17,1.92,0.37,3.05,0.6c2.43,0.57,4.53,0.92,6.3,1.05c1.47,0.1,3.48,0.27,6.05,0.5c0.67,0.1,1.25,0.17,1.75,0.2
			c-0.6,2.9-1.47,5.78-2.6,8.65L84.8,48.3z M81.75,47.6l2.95,0.65L81.75,47.6z"/>
		<path fill-rule="evenodd" clip-rule="evenodd" fill="#E4B789" d="M83.6,30.1c0.03-0.17,0.1-0.35,0.2-0.55
			c0.37,0.1,0.72,0.17,1.05,0.2c0.7,0.13,1.38,0.25,2.05,0.35H83.6z"/>
		<path fill-rule="evenodd" clip-rule="evenodd" fill="#BEBBA7" d="M70.75,45.5c0-1.47,0.47-4.37,1.4-8.7
			c0.03,0.03,0.08,0.05,0.15,0.05c0.63,0.2,1.45,0.43,2.45,0.7c1.07,0.33,1.95,0.83,2.65,1.5c0.43,3.53,0.85,4.93,1.25,4.2
			c0.3-0.53,0.53-1.3,0.7-2.3c0.07-0.43,0.15-0.88,0.25-1.35v-0.45c0-3.37,0.13-5.1,0.4-5.2c-0.27,5.4,0.25,7.3,1.55,5.7
			c-0.37,3.7-0.35,5.85,0.05,6.45c-0.03,0.5,0.02,1,0.15,1.5c0.23,0.2,0.63,0.37,1.2,0.5c0.53,0.13,1.12,0.18,1.75,0.15l0.1,0.05
			c-0.87,0.9-1.47,1.35-1.8,1.35c-0.6-0.1-1.1-0.3-1.5-0.6c-0.4-0.23-0.88-0.37-1.45-0.4c-0.53,0.03-0.88,0.05-1.05,0.05
			c-0.4-0.03-0.72-0.33-0.95-0.9c-0.07-0.13-0.12-0.32-0.15-0.55L70.75,45.5z M77.9,47.25c-0.03-0.13-0.05-0.3-0.05-0.5
			c-0.07-0.27-0.07-0.55,0-0.85c-0.07,0.3-0.07,0.58,0,0.85C77.85,46.95,77.87,47.12,77.9,47.25z"/>
		
			<path fill-rule="evenodd" clip-rule="evenodd" fill="none" stroke="#A29A80" stroke-width="0.5" stroke-linecap="round" stroke-linejoin="round" stroke-miterlimit="3" d="
			M80.65,23.65l-8.5-0.9L71.5,22.6 M79.35,40.95c0.07-0.43,0.15-0.88,0.25-1.35v-0.45c0-3.37,0.13-5.1,0.4-5.2V33.9
			c0.2-0.83,0.3-1.33,0.3-1.5 M82.55,24.9c-0.43,0.23-0.82,0.53-1.15,0.9c-0.03,0.1-0.1,0.2-0.2,0.3c-0.47,0.6-0.97,1.48-1.5,2.65
			c-0.13,0.2-0.25,0.4-0.35,0.6v0.05c-0.73,1.63-1.2,2.83-1.4,3.6 M80.65,23.65c-0.17,0.1-0.32,0.17-0.45,0.2v0.05
			c-0.6,0.33-1.13,0.77-1.6,1.3 M87.85,24.65c-0.27-0.73-0.77-1.13-1.5-1.2c-0.1,0-0.37,0.08-0.8,0.25L85,23.9
			c-0.1,0-0.2,0.03-0.3,0.1c-0.37,0.03-0.68-0.07-0.95-0.3 M85,23.9c-0.07-0.07-0.13-0.13-0.2-0.2c-1.33-0.93-2.72-0.95-4.15-0.05
			 M87.1,24.55c-1.17,1.3-2.25,2.92-3.25,4.85c0,0.03-0.02,0.08-0.05,0.15c-0.1,0.2-0.17,0.38-0.2,0.55c-0.9,2.03-1.57,4.92-2,8.65
			c-0.03,0.33-0.05,0.63-0.05,0.9 M84.7,48.25c-0.63,0.03-1.22-0.02-1.75-0.15c-0.57-0.13-0.97-0.3-1.2-0.5
			c-0.13-0.5-0.18-1-0.15-1.5c-0.4-0.6-0.42-2.75-0.05-6.45 M84.7,48.25c0.06,0,0.1-0.03,0.1-0.1c0,0.07,0,0.12,0,0.15
			c-0.87,0.9-1.47,1.35-1.8,1.35c-0.6-0.1-1.1-0.3-1.5-0.6c-0.4-0.23-0.88-0.37-1.45-0.4c-0.53,0.03-0.88,0.05-1.05,0.05
			c-0.4-0.03-0.72-0.33-0.95-0.9c-0.07-0.13-0.12-0.32-0.15-0.55l-7.15-1.75 M77.9,47.25c-0.03-0.13-0.05-0.3-0.05-0.5
			c-0.07-0.27-0.07-0.55,0-0.85"/>
		
			<path fill-rule="evenodd" clip-rule="evenodd" fill="none" stroke="#BA6934" stroke-width="0.5" stroke-linecap="round" stroke-linejoin="round" stroke-miterlimit="3" d="
			M87.85,24.65l-0.75-0.1 M110.55,44.7c1.27-5.93,1.45-11.85,0.55-17.75c-0.03-0.03-0.05-0.08-0.05-0.15l-23.2-2.15 M84.8,48.3
			l23.15,5.05c1.13-2.87,2-5.75,2.6-8.65 M84.8,48.3l-0.1-0.05 M81.75,47.6l2.95,0.65"/>
	</g>
	<g>
		<path fill-rule="evenodd" clip-rule="evenodd" fill="#EAE8E1" d="M48.25,14.8c0.13,0.03,0.3,0.08,0.5,0.15
			c0.9,0.3,2.33,1.13,4.3,2.5c1.77,1,3.1,2.33,4,4c0.87,1.73,1.17,3.55,0.9,5.45c0.13,0.13,0.32,0.8,0.55,2
			c0.3,1.27,0.13,2.57-0.5,3.9c-0.03,0.07-0.1,0.15-0.2,0.25c-0.13-0.17-0.25-0.35-0.35-0.55c-0.33-0.47-0.92-1.67-1.75-3.6
			c-1.7-3.87-3.5-5.92-5.4-6.15c-0.47-0.07-1.45-0.47-2.95-1.2c-1.17-0.57-2.08-1.03-2.75-1.4c-0.43-0.3-0.7-0.73-0.8-1.3
			c-0.13-0.5-0.27-0.78-0.4-0.85c-0.27,0-0.43,0.15-0.5,0.45c-0.03,0.2-0.1,0.55-0.2,1.05c-0.5-0.13-0.87-0.75-1.1-1.85
			c-0.07-0.23-0.12-0.42-0.15-0.55c0-0.03,0-0.08,0-0.15c-0.1-0.53-0.18-0.83-0.25-0.9c-0.13,0-0.28,0.1-0.45,0.3
			c-0.07,0.03-0.12,0.08-0.15,0.15c-0.07,0.07-0.1,0.13-0.1,0.2c-0.07,0.17-0.1,0.35-0.1,0.55l-0.1,2.25c-1.67,1.97-3.63,3-5.9,3.1
			c-2.23,0.03-4.02-0.12-5.35-0.45c-1.27-0.37-2.25-1.13-2.95-2.3c-0.68-1.13-0.12-2.07,1.67-2.83c0.06-0.02,0.11-0.04,0.18-0.07
			c0.67-0.13,1.32-0.27,1.95-0.4c0.2-0.03,0.37-0.08,0.5-0.15c0.83-0.13,1.7-0.32,2.6-0.55c0.07,0,0.13,0,0.2,0
			c0.47-0.13,0.9-0.25,1.3-0.35c0.07-0.07,0.15-0.1,0.25-0.1c0.2-0.03,0.38-0.07,0.55-0.1c0.07,0,0.12,0,0.15,0
			c0.13-0.07,0.25-0.12,0.35-0.15c0.43-0.07,0.77-0.12,1-0.15c0.33-0.1,0.78-0.15,1.35-0.15c0.33-0.03,0.68-0.05,1.05-0.05
			c0.37-0.07,0.8-0.07,1.3,0c0.73-0.07,1.53-0.05,2.4,0.05c0.13,0,0.28,0,0.45,0c0.23,0,0.47,0.03,0.7,0.1
			c1.3,0.03,2.28,0.03,2.95,0c0.33,0,0.63-0.03,0.9-0.1c0.1,0,0.17-0.02,0.2-0.05C48.17,14.8,48.22,14.8,48.25,14.8z"/>
		<path fill-rule="evenodd" clip-rule="evenodd" fill="#BEBBA7" d="M55.7,36.85c-2.5-0.73-4.65-1.88-6.45-3.45
			c-0.17-0.13-0.32-0.25-0.45-0.35c-1.77-1.63-3.27-3.67-4.5-6.1V26.9c-0.17-0.4-0.33-0.78-0.5-1.15c3.43,2,6.23,2.87,8.4,2.6
			c-2.17,0.27-4.97-0.6-8.4-2.6c-0.37-0.2-0.73-0.43-1.1-0.7l-4,0.15c0.7-0.23,1.5-0.45,2.4-0.65c-0.9,0.2-1.7,0.42-2.4,0.65
			c-0.33,0.1-0.85,0.18-1.55,0.25l-1.85,0.1c-1.4,0-2.88-0.15-4.45-0.45c-1.57-0.27-2.92-0.78-4.05-1.55C25.7,22.78,25.1,21.6,25,20
			c0-0.23,0.05-0.58,0.15-1.05c0-0.07,0-0.12,0-0.15c0.13-0.37,0.33-0.67,0.6-0.9c0.17-0.1,0.28-0.2,0.35-0.3
			c0.23-0.13,0.47-0.25,0.7-0.35c0.2-0.1,0.47-0.17,0.8-0.2c0.05,0,0.11-0.01,0.17-0.02c-1.8,0.75-2.35,1.69-1.67,2.83
			c0.7,1.17,1.68,1.93,2.95,2.3c1.33,0.33,3.12,0.48,5.35,0.45c2.27-0.1,4.23-1.13,5.9-3.1l0.1-2.25c0-0.2,0.03-0.38,0.1-0.55
			c0-0.07,0.03-0.13,0.1-0.2c0.03-0.07,0.08-0.12,0.15-0.15c0.17-0.2,0.32-0.3,0.45-0.3c0.07,0.07,0.15,0.37,0.25,0.9
			c0,0.07,0,0.12,0,0.15c0.03,0.13,0.08,0.32,0.15,0.55c0.23,1.1,0.6,1.72,1.1,1.85c0.1-0.5,0.17-0.85,0.2-1.05
			c0.07-0.3,0.23-0.45,0.5-0.45c0.13,0.07,0.27,0.35,0.4,0.85c0.1,0.57,0.37,1,0.8,1.3c0.67,0.37,1.58,0.83,2.75,1.4
			c1.5,0.73,2.48,1.13,2.95,1.2c1.9,0.23,3.7,2.28,5.4,6.15c0.83,1.93,1.42,3.13,1.75,3.6c0.1,0.2,0.22,0.38,0.35,0.55
			c-0.2,0.23-0.37,0.5-0.5,0.8c-0.57,0.93-1.1,1.88-1.6,2.85V36.85z M41.45,17.1c-0.07,0.3-0.05,0.53,0.05,0.7
			c0.1,0.13,0.13,0.4,0.1,0.8c-0.07,0.6-0.12,0.95-0.15,1.05c-0.1,0.33-0.22,0.63-0.35,0.9c0.13-0.27,0.25-0.57,0.35-0.9
			c0.03-0.1,0.08-0.45,0.15-1.05c0.03-0.4,0-0.67-0.1-0.8C41.4,17.63,41.38,17.4,41.45,17.1z M42.7,25.05L45,25L42.7,25.05z"/>
		
			<path fill-rule="evenodd" clip-rule="evenodd" fill="none" stroke="#A29A80" stroke-width="0.5" stroke-linecap="round" stroke-linejoin="round" stroke-miterlimit="3" d="
			M48.25,14.8c-0.03,0-0.08,0-0.15,0c-0.03,0.03-0.1,0.05-0.2,0.05c-0.27,0.07-0.57,0.1-0.9,0.1c-0.67,0.03-1.65,0.03-2.95,0
			c-0.23-0.07-0.47-0.1-0.7-0.1c-0.17,0-0.32,0-0.45,0c-0.87-0.1-1.67-0.12-2.4-0.05c-0.5-0.07-0.93-0.07-1.3,0
			c-0.37,0-0.72,0.02-1.05,0.05c-0.57,0-1.02,0.05-1.35,0.15c-0.23,0.03-0.57,0.08-1,0.15c-0.1,0.03-0.22,0.08-0.35,0.15
			c-0.03,0-0.08,0-0.15,0c-0.17,0.03-0.35,0.07-0.55,0.1c-0.1,0-0.18,0.03-0.25,0.1c-0.4,0.1-0.83,0.22-1.3,0.35
			c-0.07,0-0.13,0-0.2,0c-0.9,0.23-1.77,0.42-2.6,0.55c-0.13,0.07-0.3,0.12-0.5,0.15c-0.63,0.13-1.28,0.27-1.95,0.4
			c-0.06,0.03-0.12,0.06-0.18,0.07c-0.06,0.02-0.12,0.02-0.17,0.02c-0.33,0.03-0.6,0.1-0.8,0.2c-0.23,0.1-0.47,0.22-0.7,0.35
			c-0.07,0.1-0.18,0.2-0.35,0.3c-0.27,0.23-0.47,0.53-0.6,0.9c0,0.03,0,0.08,0,0.15C25.05,19.42,25,19.77,25,20
			c0.1,1.6,0.7,2.78,1.8,3.55c1.13,0.77,2.48,1.28,4.05,1.55c1.57,0.3,3.05,0.45,4.45,0.45l1.85-0.1c0.7-0.07,1.22-0.15,1.55-0.25
			c0.7-0.23,1.5-0.45,2.4-0.65 M41.45,17.1c-0.07,0.3-0.05,0.53,0.05,0.7c0.1,0.13,0.13,0.4,0.1,0.8c-0.07,0.6-0.12,0.95-0.15,1.05
			c-0.1,0.33-0.22,0.63-0.35,0.9 M42.7,25.05c0.37,0.27,0.73,0.5,1.1,0.7c3.43,2,6.23,2.87,8.4,2.6 M38.7,25.2l4-0.15L45,25
			 M43.8,25.75c0.17,0.37,0.33,0.75,0.5,1.15v0.05c1.23,2.43,2.73,4.47,4.5,6.1c0.13,0.1,0.28,0.22,0.45,0.35
			c1.8,1.57,3.95,2.72,6.45,3.45"/>
	</g>
</g>
</svg>
