<?xml version="1.0" encoding="utf-8"?>
<!-- Generator: Adobe Illustrator 16.0.0, SVG Export Plug-In . SVG Version: 6.00 Build 0)  -->
<!DOCTYPE svg PUBLIC "-//W3C//DTD SVG 1.1//EN" "http://www.w3.org/Graphics/SVG/1.1/DTD/svg11.dtd">
<svg version="1.1" id="Layer_1" xmlns="http://www.w3.org/2000/svg" xmlns:xlink="http://www.w3.org/1999/xlink" x="0px" y="0px"
	 width="56px" height="123px" viewBox="0 0 56 123" enable-background="new 0 0 56 123" xml:space="preserve">
<g>
	<g>
		<g>
			
				<linearGradient id="SVGID_1_" gradientUnits="userSpaceOnUse" x1="-4.5625" y1="-43.2251" x2="-1.2375" y2="-43.2251" gradientTransform="matrix(0.8101 0 0 1.1687 40.5001 84.7498)">
				<stop  offset="0" style="stop-color:#313131"/>
				<stop  offset="0.3333" style="stop-color:#777777"/>
				<stop  offset="0.5176" style="stop-color:#FBFBFB"/>
				<stop  offset="0.6588" style="stop-color:#9A9A9A"/>
				<stop  offset="1" style="stop-color:#000000"/>
			</linearGradient>
			<path fill-rule="evenodd" clip-rule="evenodd" fill="url(#SVGID_1_)" d="M39.4,9.8c0.4,0.5,0.5,1.1,0.5,1.8v35.9
				c0,0.7,0,1.3,0,1.8c0,1.2-0.1,2.3-0.1,3.4c-0.1,1.5,0.9,2.5,3.1,3c-1.1,0.3-2.2,1.5-3.3,3.7c-1.8-0.4-2.8-1.7-3-4
				c-0.1-1.7-0.2-3.6-0.2-5.7c0-0.7,0-1.4,0-2.1V11.6c0-0.7,0.2-1.3,0.5-1.8c0.4-0.5,0.8-0.7,1.3-0.7C38.6,9.1,39,9.3,39.4,9.8z"/>
		</g>
		<g>
			<g>
				<g>
					<g>
						
							<radialGradient id="SVGID_2_" cx="4" cy="4" r="16.0371" fx="3.434" fy="4" gradientTransform="matrix(0.7825 -0.3024 4.497458e-002 0.2423 40.4305 89.665)" gradientUnits="userSpaceOnUse">
							<stop  offset="0" style="stop-color:#A7A7A7"/>
							<stop  offset="0.698" style="stop-color:#808080"/>
							<stop  offset="1" style="stop-color:#595959"/>
						</radialGradient>
						<path fill-rule="evenodd" clip-rule="evenodd" fill="url(#SVGID_2_)" d="M53.1,84.6c0-0.1,0-0.1,0-0.1c0,0,0.1,0,0.1,0.1
							C53.2,84.6,53.1,84.6,53.1,84.6z"/>
						
							<linearGradient id="SVGID_3_" gradientUnits="userSpaceOnUse" x1="4.4546" y1="1.1494" x2="5.5365" y2="6.273" gradientTransform="matrix(0.8101 0 0 1.1687 40.5001 84.7498)">
							<stop  offset="0" style="stop-color:#000000"/>
							<stop  offset="0.2588" style="stop-color:#3A3A3A"/>
							<stop  offset="0.4784" style="stop-color:#EAEAEA"/>
							<stop  offset="0.5529" style="stop-color:#A6A6A6"/>
							<stop  offset="0.6314" style="stop-color:#616161"/>
							<stop  offset="0.7294" style="stop-color:#6A6A6A"/>
							<stop  offset="0.8353" style="stop-color:#2C2C2C"/>
							<stop  offset="1" style="stop-color:#000000"/>
						</linearGradient>
						<path fill-rule="evenodd" clip-rule="evenodd" fill="url(#SVGID_3_)" d="M53.2,84.6c0.3,0.2,0.6,0.4,0.7,0.7
							c0.2,0.5,0.4,1,0.4,1.6c0,0.3,0,0.5,0,0.8c-0.1,0.4-0.3,0.7-0.4,0.9c-0.3,0.5-0.7,0.8-1.2,1.1h0l-11,3.3
							c-0.6,0.2-1.2,0.4-1.7,0.6c-0.6,0.2-1.1,0.4-1.5,0.6c-0.1,0.1-0.2,0.2-0.3,0.3c-0.8,0.7-0.6,1.7,0.5,3c-0.7-0.3-1.3-0.6-1.8-1
							c-0.5-0.4-0.9-0.7-1.1-1.1c-0.7-1-0.9-2.1-0.4-3.3c0.3-0.9,0.8-1.5,1.4-2c0.2-0.2,0.4-0.4,0.7-0.5c0.6-0.3,1.3-0.6,2.1-0.9
							c0.2-0.1,0.4-0.1,0.6-0.2c4.2-1.1,6.3-1.6,6.4-1.6c0,0,0.1,0,0.1,0c0.1,0,0.2-0.1,0.3-0.1c1.1-0.3,2.2-0.6,3.1-1h0
							c0.4-0.2,1-0.4,1.6-0.6c0.6-0.3,1-0.4,1.1-0.4s0.1,0,0.2-0.1c0.1,0,0.1-0.1,0.1-0.1C53.1,84.6,53.2,84.6,53.2,84.6z"/>
						
							<linearGradient id="SVGID_4_" gradientUnits="userSpaceOnUse" x1="6.207" y1="-3.4448" x2="5.4819" y2="1.2052" gradientTransform="matrix(0.8101 0 0 1.1687 40.5001 84.7498)">
							<stop  offset="0" style="stop-color:#000000"/>
							<stop  offset="0.2588" style="stop-color:#3A3A3A"/>
							<stop  offset="0.4784" style="stop-color:#EAEAEA"/>
							<stop  offset="0.5529" style="stop-color:#A6A6A6"/>
							<stop  offset="0.6314" style="stop-color:#616161"/>
							<stop  offset="0.7294" style="stop-color:#6A6A6A"/>
							<stop  offset="0.8353" style="stop-color:#2C2C2C"/>
							<stop  offset="1" style="stop-color:#000000"/>
						</linearGradient>
						<path fill-rule="evenodd" clip-rule="evenodd" fill="url(#SVGID_4_)" d="M53.1,84.6c0,0-0.1,0-0.1,0.1
							c-0.1,0.1-0.1,0.1-0.2,0.1s-0.4,0.2-1.1,0.4c-0.6,0.3-1.2,0.5-1.6,0.6h0c-0.9,0.4-2,0.7-3.1,1c-0.1,0-0.2,0.1-0.3,0.1l-6-1.5
							c-0.5-0.2-1-0.3-1.5-0.5c-0.3-0.2-0.6-0.3-0.9-0.5c-1.2-1.5-1.3-2.6-0.2-3.3c0.4-0.2,0.8-0.4,1.4-0.6l5.5,1.4
							c2.1,0.5,3.8,1,5.2,1.4c1.4,0.4,2.4,0.8,2.9,1.2C53.1,84.5,53.1,84.6,53.1,84.6z"/>
					</g>
				</g>
				<g>
					
						<linearGradient id="SVGID_5_" gradientUnits="userSpaceOnUse" x1="-1.1831" y1="-1.8823" x2="3.3432" y2="-0.6872" gradientTransform="matrix(0.8101 0 0 1.1687 40.5001 84.7498)">
						<stop  offset="0" style="stop-color:#060606"/>
						<stop  offset="1" style="stop-color:#000000;stop-opacity:0"/>
					</linearGradient>
					<path fill-rule="evenodd" clip-rule="evenodd" fill="url(#SVGID_5_)" d="M38.1,81.2c0.4-0.2,0.8-0.4,1.4-0.6l4.7,1.2v4.6
						l-3.6-0.9c-0.5-0.2-1-0.3-1.5-0.5c-0.3-0.2-0.6-0.3-0.9-0.5C37.1,83,37,81.9,38.1,81.2z"/>
				</g>
			</g>
			<g>
				<g>
					<g>
						
							<linearGradient id="SVGID_6_" gradientUnits="userSpaceOnUse" x1="6.2065" y1="-14.4448" x2="5.4814" y2="-9.7948" gradientTransform="matrix(0.8101 0 0 1.1687 40.5001 84.7498)">
							<stop  offset="0" style="stop-color:#000000"/>
							<stop  offset="0.2588" style="stop-color:#3A3A3A"/>
							<stop  offset="0.4784" style="stop-color:#EAEAEA"/>
							<stop  offset="0.5529" style="stop-color:#A6A6A6"/>
							<stop  offset="0.6314" style="stop-color:#616161"/>
							<stop  offset="0.7294" style="stop-color:#6A6A6A"/>
							<stop  offset="0.8353" style="stop-color:#2C2C2C"/>
							<stop  offset="1" style="stop-color:#000000"/>
						</linearGradient>
						<path fill-rule="evenodd" clip-rule="evenodd" fill="url(#SVGID_6_)" d="M46.7,74.1l-6-1.5c-0.5-0.2-1-0.4-1.5-0.5
							c-0.3-0.1-0.6-0.3-0.9-0.4c-1.2-1.5-1.3-2.6-0.2-3.3c0.4-0.3,0.8-0.5,1.4-0.7l5.5,1.5c2.1,0.5,3.8,0.9,5.2,1.4
							c1.4,0.4,2.4,0.8,2.9,1.2c0,0,0,0,0,0.1c0,0-0.1,0-0.1,0c-0.4,0.2-0.8,0.4-1.3,0.6c-0.1,0-0.3,0.1-0.4,0.1
							c-0.4,0.2-0.8,0.4-1.3,0.5h0c-0.9,0.4-2,0.7-3.1,1C46.9,74,46.8,74.1,46.7,74.1z"/>
						
							<linearGradient id="SVGID_7_" gradientUnits="userSpaceOnUse" x1="4.4585" y1="-9.8511" x2="5.5404" y2="-4.7275" gradientTransform="matrix(0.8101 0 0 1.1687 40.5001 84.7498)">
							<stop  offset="0" style="stop-color:#000000"/>
							<stop  offset="0.2588" style="stop-color:#3A3A3A"/>
							<stop  offset="0.4784" style="stop-color:#EAEAEA"/>
							<stop  offset="0.5529" style="stop-color:#A6A6A6"/>
							<stop  offset="0.6314" style="stop-color:#616161"/>
							<stop  offset="0.7294" style="stop-color:#6A6A6A"/>
							<stop  offset="0.8353" style="stop-color:#2C2C2C"/>
							<stop  offset="1" style="stop-color:#000000"/>
						</linearGradient>
						<path fill-rule="evenodd" clip-rule="evenodd" fill="url(#SVGID_7_)" d="M53.1,71.8c0,0,0.1,0,0.1,0c0.3,0.2,0.6,0.4,0.7,0.7
							c0.2,0.4,0.4,1,0.4,1.6c0,0.2,0,0.5,0,0.8c-0.1,0.4-0.3,0.7-0.4,0.9c-0.3,0.4-0.7,0.8-1.2,1.1h0l-11,3.2
							c-0.6,0.2-1.2,0.4-1.7,0.6c-0.6,0.2-1.1,0.4-1.5,0.6c-0.1,0.1-0.2,0.2-0.3,0.3c-0.8,0.7-0.6,1.7,0.5,3c-0.7-0.3-1.3-0.6-1.8-1
							c-0.5-0.4-0.9-0.8-1.1-1.1c-0.7-1.1-0.9-2.1-0.4-3.3c0.3-0.9,0.8-1.5,1.4-2c0.2-0.2,0.4-0.4,0.7-0.5c1.1-0.6,2.7-1.2,4.7-1.8
							c0.2-0.1,0.5-0.2,0.7-0.2h0c0.5-0.1,1.1-0.2,1.6-0.4c0.6-0.2,1.3-0.3,1.9-0.4c0,0,0.1,0,0.1,0c0,0,0.1,0,0.1,0
							c0.1,0,0.2-0.1,0.3-0.1c1.1-0.3,2.2-0.6,3.1-1h0c0.4-0.2,0.9-0.3,1.3-0.5c0.1,0,0.2-0.1,0.4-0.1C52.2,72.2,52.6,72,53.1,71.8
							C53,71.8,53.1,71.8,53.1,71.8z"/>
						
							<radialGradient id="SVGID_8_" cx="4" cy="-7.0498" r="16.0371" fx="3.434" fy="-7.0498" gradientTransform="matrix(0.7825 -0.3024 4.497458e-002 0.2423 40.9274 79.4279)" gradientUnits="userSpaceOnUse">
							<stop  offset="0" style="stop-color:#A7A7A7"/>
							<stop  offset="0.698" style="stop-color:#808080"/>
							<stop  offset="1" style="stop-color:#595959"/>
						</radialGradient>
						<path fill-rule="evenodd" clip-rule="evenodd" fill="url(#SVGID_8_)" d="M53.1,71.7c0,0,0.1,0,0.1,0.1c-0.1,0-0.1,0-0.1,0
							C53.1,71.7,53.1,71.7,53.1,71.7z"/>
					</g>
				</g>
				<g>
					
						<linearGradient id="SVGID_9_" gradientUnits="userSpaceOnUse" x1="-1.1709" y1="-12.9302" x2="3.3554" y2="-11.735" gradientTransform="matrix(0.8101 0 0 1.1687 40.5001 84.7498)">
						<stop  offset="0" style="stop-color:#060606"/>
						<stop  offset="1" style="stop-color:#000000;stop-opacity:0"/>
					</linearGradient>
					<path fill-rule="evenodd" clip-rule="evenodd" fill="url(#SVGID_9_)" d="M44.3,73.5l-3.6-0.9c-0.5-0.2-1-0.4-1.5-0.5
						c-0.3-0.1-0.6-0.3-0.9-0.4c-1.2-1.5-1.3-2.6-0.2-3.3c0.4-0.3,0.8-0.5,1.4-0.7l4.7,1.2V73.5z"/>
				</g>
			</g>
			<g>
				<g>
					<g>
						
							<radialGradient id="SVGID_10_" cx="4" cy="-18.0498" r="16.0371" fx="3.434" fy="-18.0498" gradientTransform="matrix(0.7825 -0.3024 4.497458e-002 0.2423 41.4222 69.237)" gradientUnits="userSpaceOnUse">
							<stop  offset="0" style="stop-color:#A7A7A7"/>
							<stop  offset="0.698" style="stop-color:#808080"/>
							<stop  offset="1" style="stop-color:#595959"/>
						</radialGradient>
						<path fill-rule="evenodd" clip-rule="evenodd" fill="url(#SVGID_10_)" d="M36.7,64.5c-0.8,0.7-1.2,1.4-1.3,2l-0.1-0.1
							C35.6,65.6,36.1,65,36.7,64.5z M53.1,58.9c0-0.1,0-0.1,0-0.1c0,0,0.1,0,0.1,0.1C53.2,58.9,53.1,58.9,53.1,58.9z"/>
						
							<linearGradient id="SVGID_11_" gradientUnits="userSpaceOnUse" x1="4.4541" y1="-20.9004" x2="5.536" y2="-15.7768" gradientTransform="matrix(0.8101 0 0 1.1687 40.5001 84.7498)">
							<stop  offset="0" style="stop-color:#000000"/>
							<stop  offset="0.2588" style="stop-color:#3A3A3A"/>
							<stop  offset="0.4784" style="stop-color:#EAEAEA"/>
							<stop  offset="0.5529" style="stop-color:#A6A6A6"/>
							<stop  offset="0.6314" style="stop-color:#616161"/>
							<stop  offset="0.7294" style="stop-color:#6A6A6A"/>
							<stop  offset="0.8353" style="stop-color:#2C2C2C"/>
							<stop  offset="1" style="stop-color:#000000"/>
						</linearGradient>
						<path fill-rule="evenodd" clip-rule="evenodd" fill="url(#SVGID_11_)" d="M35.3,66.5L35.3,66.5c0.2-0.6,0.6-1.2,1.4-2
							c0.2-0.2,0.4-0.4,0.7-0.5c1.1-0.7,2.9-1.3,5.3-1.9c1.5-0.4,2.1-0.5,1.8-0.5c0.6-0.2,1.3-0.3,1.9-0.5c0,0,0.1,0,0.1,0
							c0,0,0.1,0,0.1,0c0.1,0,0.2-0.1,0.3-0.1c1.1-0.3,2.2-0.6,3.1-1h0c0.4-0.2,0.9-0.3,1.3-0.5c0.1,0,0.2-0.1,0.4-0.1
							c0.4-0.2,0.9-0.4,1.3-0.6c0,0,0.1,0,0.1,0s0.1,0,0.1,0c0.3,0.2,0.6,0.4,0.7,0.8c0.2,0.4,0.4,0.9,0.4,1.5c0,0.3,0,0.5,0,0.8
							c-0.1,0.4-0.3,0.7-0.4,1c-0.3,0.4-0.7,0.8-1.2,1.1h0l-11,3.2c-0.6,0.2-1.2,0.4-1.7,0.6c-0.6,0.2-1.1,0.4-1.5,0.7
							c-0.1,0.1-0.2,0.2-0.3,0.2c-0.8,0.7-0.6,1.7,0.5,3.1c-0.7-0.3-1.3-0.7-1.8-1.1c-0.5-0.4-0.9-0.7-1.1-1.1
							C35.1,68.7,34.9,67.6,35.3,66.5z"/>
						
							<linearGradient id="SVGID_12_" gradientUnits="userSpaceOnUse" x1="6.208" y1="-25.4941" x2="5.4829" y2="-20.8442" gradientTransform="matrix(0.8101 0 0 1.1687 40.5001 84.7498)">
							<stop  offset="0" style="stop-color:#000000"/>
							<stop  offset="0.2588" style="stop-color:#3A3A3A"/>
							<stop  offset="0.4784" style="stop-color:#EAEAEA"/>
							<stop  offset="0.5529" style="stop-color:#A6A6A6"/>
							<stop  offset="0.6314" style="stop-color:#616161"/>
							<stop  offset="0.7294" style="stop-color:#6A6A6A"/>
							<stop  offset="0.8353" style="stop-color:#2C2C2C"/>
							<stop  offset="1" style="stop-color:#000000"/>
						</linearGradient>
						<path fill-rule="evenodd" clip-rule="evenodd" fill="url(#SVGID_12_)" d="M53.1,58.9C53.1,58.9,53,58.9,53.1,58.9
							c-0.5,0.2-0.9,0.4-1.3,0.6c-0.1,0-0.3,0.1-0.4,0.1c-0.4,0.2-0.8,0.3-1.3,0.5h0c-0.9,0.4-2,0.7-3.1,1c-0.1,0-0.2,0.1-0.3,0.1
							l-6-1.5c-0.5-0.2-1-0.3-1.5-0.5c-0.3-0.2-0.6-0.3-0.9-0.5c-1.2-1.5-1.3-2.6-0.2-3.3c0.4-0.2,0.8-0.4,1.4-0.6l5.5,1.5
							c2.1,0.5,3.8,0.9,5.2,1.3c1.4,0.4,2.4,0.8,2.9,1.2C53.1,58.7,53.1,58.8,53.1,58.9z"/>
					</g>
				</g>
			</g>
			<g>
				<g>
					<g>
						
							<linearGradient id="SVGID_13_" gradientUnits="userSpaceOnUse" x1="6.2075" y1="7.6558" x2="5.4824" y2="12.3057" gradientTransform="matrix(0.8101 0 0 1.1687 40.5001 84.7498)">
							<stop  offset="0" style="stop-color:#000000"/>
							<stop  offset="0.2588" style="stop-color:#3A3A3A"/>
							<stop  offset="0.4784" style="stop-color:#EAEAEA"/>
							<stop  offset="0.5529" style="stop-color:#A6A6A6"/>
							<stop  offset="0.6314" style="stop-color:#616161"/>
							<stop  offset="0.7294" style="stop-color:#6A6A6A"/>
							<stop  offset="0.8353" style="stop-color:#2C2C2C"/>
							<stop  offset="1" style="stop-color:#000000"/>
						</linearGradient>
						<path fill-rule="evenodd" clip-rule="evenodd" fill="url(#SVGID_13_)" d="M46.7,99.9l-6-1.5c-0.5-0.2-1-0.4-1.5-0.5
							c-0.3-0.2-0.6-0.3-0.9-0.5c-1.2-1.5-1.3-2.6-0.2-3.3c0.4-0.2,0.8-0.4,1.4-0.6l5.5,1.5c2.1,0.5,3.8,0.9,5.2,1.4
							c1.4,0.4,2.4,0.8,2.9,1.1c0,0,0,0,0,0.1c0,0-0.1,0-0.1,0c-0.4,0.2-0.8,0.4-1.3,0.6c-0.1,0-0.3,0.1-0.4,0.1
							c-0.4,0.2-0.8,0.3-1.3,0.5h0c-0.9,0.4-2,0.7-3.1,1C46.9,99.9,46.8,99.9,46.7,99.9z"/>
						
							<linearGradient id="SVGID_14_" gradientUnits="userSpaceOnUse" x1="4.4517" y1="12.25" x2="5.5336" y2="17.3735" gradientTransform="matrix(0.8101 0 0 1.1687 40.5001 84.7498)">
							<stop  offset="0" style="stop-color:#000000"/>
							<stop  offset="0.2588" style="stop-color:#3A3A3A"/>
							<stop  offset="0.4784" style="stop-color:#EAEAEA"/>
							<stop  offset="0.5529" style="stop-color:#A6A6A6"/>
							<stop  offset="0.6314" style="stop-color:#616161"/>
							<stop  offset="0.7294" style="stop-color:#6A6A6A"/>
							<stop  offset="0.8353" style="stop-color:#2C2C2C"/>
							<stop  offset="1" style="stop-color:#000000"/>
						</linearGradient>
						<path fill-rule="evenodd" clip-rule="evenodd" fill="url(#SVGID_14_)" d="M35.3,105.3L35.3,105.3c0.2-0.6,0.6-1.3,1.4-2
							c0.2-0.2,0.4-0.3,0.7-0.5c1.1-0.6,2.7-1.2,4.7-1.8c0.2-0.1,0.5-0.1,0.7-0.2h0c0.5-0.1,1.1-0.2,1.6-0.4
							c0.6-0.2,1.3-0.3,1.9-0.5c0,0,0.1,0,0.1,0c0,0,0.1,0,0.1,0c0.1,0,0.2-0.1,0.3-0.1c1.1-0.3,2.2-0.6,3.1-1h0
							c0.4-0.2,0.9-0.3,1.3-0.5c0.1,0,0.2-0.1,0.4-0.1c0.4-0.2,0.9-0.4,1.3-0.6c0,0,0.1,0,0.1,0s0.1,0,0.1,0
							c0.3,0.2,0.6,0.4,0.7,0.8c0.2,0.4,0.4,0.9,0.4,1.5c0,0.3,0,0.6,0,0.9c-0.1,0.3-0.3,0.7-0.4,0.9c-0.3,0.4-0.7,0.8-1.2,1.1h0
							l-11,3.2c-0.6,0.2-1.2,0.4-1.7,0.6c-0.6,0.2-1.1,0.4-1.5,0.7c-0.1,0.1-0.2,0.2-0.3,0.2c-0.8,0.7-0.6,1.7,0.5,3.1
							c-0.7-0.3-1.3-0.6-1.8-1c-0.5-0.4-0.9-0.8-1.1-1.1C35.1,107.5,34.9,106.4,35.3,105.3z"/>
						
							<radialGradient id="SVGID_15_" cx="4" cy="15.1001" r="16.0371" fx="3.434" fy="15.1001" gradientTransform="matrix(0.7825 -0.3024 4.497458e-002 0.2423 39.9313 99.9487)" gradientUnits="userSpaceOnUse">
							<stop  offset="0" style="stop-color:#A7A7A7"/>
							<stop  offset="0.698" style="stop-color:#808080"/>
							<stop  offset="1" style="stop-color:#595959"/>
						</radialGradient>
						<path fill-rule="evenodd" clip-rule="evenodd" fill="url(#SVGID_15_)" d="M53.1,97.5c0,0,0.1,0,0.1,0.1c-0.1,0-0.1,0-0.1,0
							C53.1,97.5,53.1,97.5,53.1,97.5z M36.7,103.2c-0.8,0.7-1.2,1.4-1.3,2h-0.1C35.6,104.4,36.1,103.7,36.7,103.2z"/>
					</g>
				</g>
			</g>
		</g>
	</g>
	<g>
		
			<linearGradient id="SVGID_16_" gradientUnits="userSpaceOnUse" x1="-47.8999" y1="-20.1504" x2="-43.5999" y2="-20.1504" gradientTransform="matrix(0.8101 0 0 1.1687 40.5001 84.7498)">
			<stop  offset="0" style="stop-color:#414141"/>
			<stop  offset="0.4627" style="stop-color:#FFFFFF"/>
			<stop  offset="1" style="stop-color:#000000"/>
		</linearGradient>
		<path fill-rule="evenodd" clip-rule="evenodd" fill="url(#SVGID_16_)" d="M3.4,0.8c0.5,0,0.8,0.2,1.2,0.7c0.3,0.5,0.5,1,0.5,1.7
			v118.5c-1.2-0.1-2.3-0.7-3.2-1.5V3.1c0-0.6,0.2-1.2,0.5-1.7C2.6,1,3,0.8,3.4,0.8z"/>
	</g>
</g>
</svg>
