<?xml version="1.0" encoding="utf-8"?>
<!-- Generator: Adobe Illustrator 16.0.0, SVG Export Plug-In . SVG Version: 6.00 Build 0)  -->
<!DOCTYPE svg PUBLIC "-//W3C//DTD SVG 1.1//EN" "http://www.w3.org/Graphics/SVG/1.1/DTD/svg11.dtd">
<svg version="1.1" id="Layer_1" xmlns="http://www.w3.org/2000/svg" xmlns:xlink="http://www.w3.org/1999/xlink" x="0px" y="0px"
	 width="133px" height="148px" viewBox="0 0 133 148" enable-background="new 0 0 133 148" xml:space="preserve">
<g>
	<linearGradient id="SVGID_1_" gradientUnits="userSpaceOnUse" x1="67.5752" y1="2.7627" x2="67.5752" y2="145.3377">
		<stop  offset="0" style="stop-color:#FFFFFF;stop-opacity:0.2392"/>
		<stop  offset="0.1373" style="stop-color:#FFFFFF;stop-opacity:0"/>
		<stop  offset="0.8902" style="stop-color:#FFFFFF;stop-opacity:0"/>
		<stop  offset="1" style="stop-color:#FFFFFF;stop-opacity:0.3686"/>
	</linearGradient>
	<path fill-rule="evenodd" clip-rule="evenodd" fill="url(#SVGID_1_)" d="M127.9,8.5c-0.1,0.2-0.1,0.4-0.1,0.6v118.6
		c-0.1,3.3-1.2,6.1-3.3,8.6s-5.6,4.3-10.8,5.4c-29.6,6.1-59.5,6.1-89.5,0.1c-6.4-1.8-10.4-3.8-11.8-6c-1.6-2.3-2.3-5-2.2-7.9V15
		c-0.1-4.3-2.1-8.5-6.1-12.5C7.3,3,12.6,3.5,20.4,4.1C33,4.9,48.4,5.3,66.5,5.3c18,0,32.7-0.3,44.1-0.8c11-0.6,17.5-1.4,19.5-2.3
		c0-0.1,0-0.1,0.1-0.1c0.4,0,0.6-0.1,0.8-0.1C129.3,4.7,128.3,6.9,127.9,8.5z"/>
	
		<path fill-rule="evenodd" clip-rule="evenodd" fill="none" stroke="#FFFFFF" stroke-width="0.75" stroke-linecap="round" stroke-linejoin="round" stroke-miterlimit="3" stroke-opacity="0.6941" d="
		M127.9,8.5c0.4-1.6,1.4-3.8,3.1-6.6c-0.2,0.1-0.5,0.1-0.8,0.1c-0.1,0-0.1,0-0.1,0.1c-2,0.9-8.5,1.7-19.5,2.3
		C99.2,5,84.5,5.3,66.5,5.3C48.4,5.3,33,4.9,20.4,4.1C12.6,3.5,7.3,3,4.1,2.5c4,4,6.1,8.2,6.1,12.5v112.8c-0.2,2.9,0.6,5.5,2.2,7.9
		c1.4,2.2,5.4,4.2,11.8,6c30,6,59.9,6,89.5-0.1c5.2-1.1,8.8-2.9,10.8-5.4s3.1-5.4,3.3-8.6V9.1C127.8,8.9,127.8,8.7,127.9,8.5z
		 M4.1,2.5C3,2.5,2.3,2.2,2,1.6"/>
</g>
</svg>
