<?xml version="1.0" encoding="utf-8"?>
<!-- Generator: Adobe Illustrator 16.0.0, SVG Export Plug-In . SVG Version: 6.00 Build 0)  -->
<!DOCTYPE svg PUBLIC "-//W3C//DTD SVG 1.1//EN" "http://www.w3.org/Graphics/SVG/1.1/DTD/svg11.dtd">
<svg version="1.1" id="Layer_2" xmlns="http://www.w3.org/2000/svg" xmlns:xlink="http://www.w3.org/1999/xlink" x="0px" y="0px"
	 width="77px" height="83px" viewBox="0 0 77 83" enable-background="new 0 0 77 83" xml:space="preserve">
<g>
	<g>
		<linearGradient id="SVGID_1_" gradientUnits="userSpaceOnUse" x1="38.394" y1="4.0186" x2="41.394" y2="97.5186">
			<stop  offset="0" style="stop-color:#FFFFFF;stop-opacity:0.5"/>
			<stop  offset="1" style="stop-color:#AAAAAA;stop-opacity:0.3"/>
		</linearGradient>
		<path fill="url(#SVGID_1_)" d="M63.125,7.45c0.5,0,1.101,0.1,1.601,0.1s1,0.101,1.5,0.2c-0.5,0-1,0.101-1.5,0.101
			c-1.7,0.1-3.601,0.3-5.5,0.5l0,0c-6,0.399-12.9,0.5-20.7,0.5c-7.7,0-14.6-0.2-20.6-0.5l0,0c-2-0.2-3.801-0.301-5.601-0.5
			c-0.5,0-1-0.101-1.5-0.101c0.5-0.1,1-0.1,1.5-0.2c0.5-0.1,1.101-0.1,1.601-0.1c1.3,0.1,2.6,0.2,4,0.3c6,0.4,12.899,0.5,20.6,0.5
			s14.6-0.2,20.7-0.5C60.525,7.65,61.825,7.55,63.125,7.45z M8.325,7.45c-4.7-0.7-7.1-1.5-7.1-2.4c0-1.199,3.7-2.1,11-2.699
			c7.2-0.7,16-1.101,26.2-1.101c10.199,0,19,0.4,26.199,1.101c7.4,0.699,11.101,1.6,11,2.699c0,1-2.3,1.801-7,2.4
			c-0.8-0.1-1.6-0.2-2.5-0.3c0.801-0.101,1.7-0.2,2.4-0.3c4.4-0.601,6.6-1.2,6.7-1.801c0-0.8-3.601-1.5-10.7-2.199
			c-7.2-0.7-16-1.101-26.2-1.101s-19,0.4-26.2,1.101C5.226,3.55,1.726,4.25,1.625,5.05c0,0.601,2.301,1.2,6.7,1.801
			c0.8,0.1,1.601,0.199,2.5,0.3C9.926,7.25,9.125,7.351,8.325,7.45z"/>
		<linearGradient id="SVGID_2_" gradientUnits="userSpaceOnUse" x1="38.1387" y1="4.0269" x2="41.1387" y2="97.5269">
			<stop  offset="0" style="stop-color:#FFFFFF;stop-opacity:0.5"/>
			<stop  offset="1" style="stop-color:#AAAAAA;stop-opacity:0.3"/>
		</linearGradient>
		<path fill="url(#SVGID_2_)" d="M10.825,12.45L10.825,12.45c-0.899,0.1-1.7,0.2-2.5,0.3l0,0c-0.7,0.101-1.399,0.2-2,0.3
			c-3.1,0.4-4.6,0.9-4.6,1.4c0,0,0,0,0,0.1l0,0c0.1,0.101,0.2,0.2,0.3,0.2l0,0c0.9,0.5,3,1,6.3,1.5c0.7,0.101,1.601,0.2,2.4,0.3
			c-0.8,0.101-1.601,0.2-2.3,0.301l0,0H8.325l0,0c-3.399-0.5-5.6-1-6.5-1.5l0,0c-0.2-0.101-0.3-0.2-0.399-0.301
			c-0.101-0.1-0.2-0.3-0.2-0.5c0-0.8,1.6-1.5,5-2c0.6-0.1,1.3-0.199,2-0.3h0.1l0,0c0.7-0.1,1.5-0.2,2.4-0.3l0,0
			c0.5-0.1,1-0.1,1.5-0.2c7.2-0.7,16-1.1,26.2-1.1c10.199,0,19,0.399,26.199,1.1c0.5,0,1,0.101,1.5,0.2l0,0
			c0.801,0.1,1.601,0.2,2.4,0.3h0.2c0.7,0.101,1.399,0.2,2,0.3c3.3,0.5,5,1.2,5,2c0,0.2,0,0.4-0.101,0.5
			c-0.1,0.101-0.199,0.301-0.399,0.4c-0.9,0.6-3.101,1.1-6.5,1.5l0,0h-0.101c-0.699-0.1-1.5-0.2-2.3-0.3c0.8-0.101,1.7-0.2,2.4-0.3
			c3.399-0.5,5.5-1,6.399-1.5c0.101-0.101,0.2-0.101,0.301-0.2V14.55c0-0.5-1.601-1-4.601-1.399c-0.6-0.101-1.3-0.2-2-0.3l0,0
			c-0.8-0.101-1.6-0.2-2.5-0.301l0,0c-0.5-0.1-1-0.1-1.5-0.199c-0.5-0.101-1.1-0.101-1.6-0.101c-6.9-0.6-15.101-0.899-24.601-0.899
			s-17.699,0.3-24.6,0.899c-0.5,0-1.1,0.101-1.6,0.101C11.825,12.25,11.325,12.351,10.825,12.45z M13.926,16.75
			c1.3,0.101,2.6,0.2,3.899,0.3c6,0.4,12.9,0.5,20.601,0.5c7.699,0,14.6-0.199,20.6-0.5c1.4-0.1,2.7-0.199,3.9-0.3
			c0.5,0,1.1,0.101,1.6,0.101s1,0.1,1.5,0.199c-0.5,0-1,0.101-1.5,0.101c-1.8,0.2-3.6,0.3-5.5,0.5l0,0c-6,0.399-12.9,0.5-20.7,0.5
			c-7.7,0-14.6-0.2-20.6-0.5l0,0c-2-0.2-3.8-0.3-5.601-0.5c-0.5,0-1-0.101-1.5-0.101c0.5-0.1,1-0.1,1.5-0.199
			C12.825,16.851,13.426,16.75,13.926,16.75z"/>
		<linearGradient id="SVGID_3_" gradientUnits="userSpaceOnUse" x1="38.3901" y1="4.0181" x2="41.3905" y2="97.5294">
			<stop  offset="0" style="stop-color:#FFFFFF;stop-opacity:0.5"/>
			<stop  offset="1" style="stop-color:#AAAAAA;stop-opacity:0.3"/>
		</linearGradient>
		<path fill="url(#SVGID_3_)" d="M63.125,7.45c-6.899-0.6-15.1-1-24.6-1s-17.7,0.3-24.6,0.9c-0.5,0-1.101,0.1-1.601,0.1
			s-1,0.1-1.5,0.2l0,0c-0.899,0.2-1.7,0.3-2.5,0.399c-3.899,0.5-6.1,1-6.6,1.601l0,0c0,0,0,0,0,0.1c0,0.101,0.1,0.2,0.399,0.3
			c0.9,0.5,3,1,6.5,1.5c0.7,0.101,1.5,0.2,2.301,0.301c-0.9,0.1-1.7,0.199-2.4,0.3l0,0c-3.5-0.5-5.6-1-6.5-1.5
			c-0.4-0.3-0.6-0.5-0.6-0.8c0-0.2,0.1-0.4,0.199-0.5c0.4-0.9,2.7-1.4,6.7-1.9c0.8-0.1,1.601-0.2,2.5-0.3l0,0
			c0.5-0.101,1-0.101,1.5-0.2c7.2-0.7,16-1,26.2-1s19,0.4,26.2,1.1c0.5,0,1,0.101,1.5,0.2l0,0c0.899,0.101,1.7,0.2,2.5,0.3
			c4.1,0.5,6.399,1.101,6.899,1.801c0.101,0.1,0.101,0.3,0.101,0.5c0,0.3-0.2,0.6-0.601,0.8c-0.899,0.5-3,1.1-6.399,1.5h-0.2
			c-0.7-0.101-1.5-0.2-2.4-0.3c0.801-0.101,1.601-0.2,2.301-0.301c3.399-0.5,5.6-1,6.5-1.5c0.199-0.1,0.3-0.199,0.3-0.3v-0.1
			c-0.5-0.601-2.7-1.2-6.601-1.601c-0.6-0.1-1.5-0.199-2.3-0.3l0,0c-0.5-0.1-1-0.1-1.5-0.2C64.226,7.45,63.625,7.45,63.125,7.45z
			 M10.825,12.45c0.5-0.1,1-0.1,1.5-0.2c0.5-0.1,1.101-0.1,1.601-0.1c1.3,0.1,2.6,0.2,4,0.3c6,0.4,12.899,0.5,20.6,0.5
			s14.6-0.2,20.7-0.5c1.3-0.1,2.6-0.2,3.899-0.3c0.5,0,1.101,0.1,1.601,0.1s1,0.101,1.5,0.2c-0.5,0-1,0.1-1.5,0.1
			c-1.8,0.2-3.601,0.301-5.5,0.5l0,0c-6,0.4-12.9,0.5-20.7,0.5c-7.7,0-14.6-0.199-20.6-0.5l0,0c-2-0.199-3.801-0.3-5.601-0.5
			C11.825,12.45,11.325,12.45,10.825,12.45z"/>
		<linearGradient id="SVGID_4_" gradientUnits="userSpaceOnUse" x1="37.9937" y1="4.0317" x2="40.9936" y2="97.5317">
			<stop  offset="0" style="stop-color:#FFFFFF;stop-opacity:0.5"/>
			<stop  offset="1" style="stop-color:#AAAAAA;stop-opacity:0.3"/>
		</linearGradient>
		<path fill="url(#SVGID_4_)" d="M66.226,17.05c-0.5-0.1-1-0.1-1.5-0.199c-0.5-0.101-1.101-0.101-1.601-0.101
			c-6.899-0.6-15.1-0.899-24.6-0.899s-17.7,0.3-24.6,0.899c-0.5,0-1.101,0.101-1.601,0.101s-1,0.1-1.5,0.199l0,0
			c-0.8,0.101-1.6,0.2-2.3,0.301l0,0h-0.1c-0.7,0.1-1.4,0.199-2,0.3c-3.101,0.399-4.7,0.899-4.7,1.399c0,0.101,0.1,0.2,0.399,0.301
			c1.2,0.699,4.601,1.399,10.301,1.899c0.5,0,1.1,0.101,1.6,0.2c-0.6,0-1.1,0.1-1.7,0.1l0,0c-0.5,0.101-1,0.101-1.399,0.101
			c-4.9-0.5-7.9-1.101-9-1.8c-0.4-0.301-0.601-0.5-0.601-0.801c0-0.8,1.7-1.5,5.101-2c0.6-0.1,1.3-0.199,2-0.3l0,0h0.1l0,0
			c0.7-0.1,1.5-0.2,2.3-0.3l0,0c0.5-0.1,1-0.1,1.5-0.2c7.2-0.7,16-1.1,26.2-1.1s19,0.399,26.2,1.1c0.5,0,1,0.101,1.5,0.2l0,0
			c0.8,0.1,1.6,0.2,2.3,0.3h0.1l0,0c0.7,0.101,1.4,0.2,2,0.3c3.4,0.5,5,1.2,5,2c0,0.301-0.199,0.601-0.6,0.801
			c-1.1,0.699-4.1,1.3-9.1,1.8c-0.5,0-0.9-0.101-1.4-0.101s-1.1-0.1-1.6-0.1c0.5-0.1,1.1-0.1,1.6-0.2c5.7-0.5,9.2-1.2,10.3-1.899
			c0.2-0.101,0.3-0.2,0.3-0.301c0-0.5-1.6-1-4.6-1.399c-0.6-0.101-1.3-0.2-2-0.3h-0.1l0,0C67.926,17.25,67.125,17.15,66.226,17.05
			L66.226,17.05z M63.125,22.05c-1.3,0.101-2.6,0.2-3.899,0.301l0,0c-6,0.399-12.9,0.5-20.7,0.5s-14.6-0.2-20.7-0.5l0,0
			c-1.3-0.101-2.6-0.2-3.8-0.301c1.2-0.1,2.5-0.199,3.8-0.3l0,0c0,0,0,0,0.101,0c6,0.4,12.899,0.5,20.699,0.5
			c7.7,0,14.601-0.2,20.601-0.5h0.1C60.625,21.851,61.825,21.95,63.125,22.05z"/>
		<linearGradient id="SVGID_5_" gradientUnits="userSpaceOnUse" x1="37.8242" y1="4.0371" x2="40.8242" y2="97.5371">
			<stop  offset="0" style="stop-color:#FFFFFF;stop-opacity:0.5"/>
			<stop  offset="1" style="stop-color:#AAAAAA;stop-opacity:0.3"/>
		</linearGradient>
		<path fill="url(#SVGID_5_)" d="M14.025,22.05L14.025,22.05c-0.6,0-1.1,0.101-1.7,0.101c-1.5,0.2-2.899,0.3-4.1,0.5
			c-4.3,0.5-6.5,1.1-6.5,1.7c0,0,0,0,0,0.1l0,0c0.5,0.6,2.7,1.2,6.6,1.7c0.7,0.1,1.601,0.2,2.4,0.3c-0.8,0.1-1.601,0.2-2.3,0.3l0,0
			H8.325l0,0c-4-0.6-6.3-1.2-6.899-1.899c-0.101-0.101-0.2-0.301-0.2-0.5c0-1,2.3-1.7,6.899-2.301c0.801-0.1,1.7-0.199,2.7-0.3
			c0.5,0,0.9-0.1,1.4-0.1l0,0c0.5,0,1.1-0.101,1.7-0.101c6.899-0.6,15.1-0.899,24.5-0.899c9.5,0,17.699,0.3,24.6,0.899l0,0
			c0.5,0,1.1,0.101,1.6,0.101s1,0.1,1.4,0.1c1,0.101,1.9,0.2,2.8,0.3c4.601,0.601,6.9,1.301,6.9,2.301c0,0.199,0,0.399-0.101,0.5
			c-0.5,0.699-2.8,1.3-6.899,1.899l0,0h-0.101c-0.699-0.1-1.5-0.2-2.3-0.3c0.8-0.1,1.7-0.2,2.4-0.3c3.899-0.5,6.1-1.101,6.6-1.7
			v-0.1c0-0.601-2.2-1.2-6.5-1.7c-1.2-0.2-2.6-0.3-4.2-0.5c-0.5,0-1.1-0.101-1.6-0.101l0,0c-1.2-0.1-2.5-0.199-3.8-0.3h-0.101
			c-6-0.399-12.899-0.6-20.6-0.6c-7.8,0-14.6,0.2-20.7,0.6c0,0,0,0-0.1,0l0,0C16.426,21.851,15.226,21.95,14.025,22.05z
			 M63.025,26.65c0.6,0,1.1,0.1,1.7,0.1c0.5,0,1,0.101,1.5,0.2c-0.5,0-1,0.1-1.5,0.1c-1.8,0.2-3.7,0.301-5.7,0.5l0,0
			c-6,0.4-12.8,0.5-20.5,0.5c-7.7,0.101-14.5-0.1-20.5-0.5l0,0c-2-0.199-3.9-0.3-5.8-0.5c-0.5,0-1-0.1-1.5-0.1
			c0.5-0.1,1-0.1,1.5-0.2c0.5-0.1,1.1-0.1,1.7-0.1c1.3,0.1,2.699,0.2,4.1,0.3c6,0.4,12.8,0.5,20.5,0.5s14.5-0.2,20.5-0.5
			C60.426,26.95,61.726,26.75,63.025,26.65z"/>
		<linearGradient id="SVGID_6_" gradientUnits="userSpaceOnUse" x1="37.5225" y1="4.0469" x2="40.5225" y2="97.5469">
			<stop  offset="0" style="stop-color:#FFFFFF;stop-opacity:0.5"/>
			<stop  offset="1" style="stop-color:#AAAAAA;stop-opacity:0.3"/>
		</linearGradient>
		<path fill="url(#SVGID_6_)" d="M63.125,36.05c0.5,0,1.101,0.101,1.601,0.101s1,0.1,1.5,0.2c-0.5,0-1,0.1-1.5,0.1
			c-1.8,0.2-3.601,0.3-5.5,0.5l0,0c-6,0.4-12.9,0.5-20.7,0.5c-7.7,0-14.6-0.2-20.6-0.5l0,0c-2-0.2-3.801-0.3-5.601-0.5
			c-0.5,0-1-0.1-1.5-0.1c0.5-0.101,1-0.101,1.5-0.2c0.5-0.101,1.101-0.101,1.601-0.101c1.3,0.101,2.6,0.2,3.899,0.301
			c6,0.399,12.9,0.5,20.601,0.5c7.699,0,14.6-0.2,20.6-0.5C60.525,36.25,61.825,36.15,63.125,36.05z M66.226,31.65
			c-0.5-0.101-1-0.101-1.5-0.2s-1.101-0.1-1.601-0.1c-6.899-0.601-15.1-0.9-24.6-0.9s-17.7,0.3-24.6,0.9c-0.5,0-1.101,0.1-1.601,0.1
			s-1,0.1-1.5,0.2l0,0c-0.899,0.1-1.7,0.2-2.399,0.3l0,0c-0.7,0.1-1.4,0.2-2,0.3c-3.101,0.4-4.601,0.9-4.601,1.4c0,0,0,0,0,0.1l0,0
			c0,0.101,0.101,0.2,0.2,0.2l0,0c0.9,0.5,3,1,6.3,1.5c0.7,0.1,1.601,0.2,2.4,0.3c-0.8,0.101-1.601,0.2-2.3,0.3H8.325l0,0
			c-3.399-0.5-5.6-1-6.5-1.5l0,0c-0.2-0.1-0.3-0.199-0.399-0.3c-0.101-0.1-0.2-0.3-0.2-0.5c0-0.8,1.6-1.5,5-2c0.6-0.1,1.3-0.2,2-0.3
			h0.1l0,0c0.7-0.1,1.5-0.2,2.4-0.3l0,0c0.5-0.101,1-0.101,1.5-0.2c7.2-0.7,16-1.1,26.2-1.1c10.199,0,19,0.399,26.199,1.1
			c0.5,0,1,0.1,1.5,0.2l0,0c0.801,0.1,1.601,0.2,2.4,0.3h0.2c0.7,0.1,1.399,0.2,2,0.3c3.3,0.5,5,1.2,5,2c0,0.2,0,0.4-0.101,0.5
			c-0.1,0.101-0.199,0.3-0.399,0.4c-0.9,0.6-3.101,1.1-6.5,1.5l0,0h-0.101c-0.699-0.101-1.5-0.2-2.3-0.3
			c0.8-0.101,1.7-0.2,2.4-0.301c3.399-0.5,5.5-1,6.399-1.5c0.101-0.1,0.2-0.1,0.301-0.199V33.75c0-0.5-1.601-1-4.601-1.399
			c-0.6-0.101-1.3-0.2-2-0.301l0,0C67.926,31.851,67.125,31.75,66.226,31.65L66.226,31.65z"/>
		<linearGradient id="SVGID_7_" gradientUnits="userSpaceOnUse" x1="37.8242" y1="4.04" x2="40.8239" y2="97.5287">
			<stop  offset="0" style="stop-color:#FFFFFF;stop-opacity:0.5"/>
			<stop  offset="1" style="stop-color:#AAAAAA;stop-opacity:0.3"/>
		</linearGradient>
		<path fill="url(#SVGID_7_)" d="M66.325,26.45c0.8,0.1,1.601,0.2,2.3,0.3h0.101l0,0c4.1,0.5,6.399,1.101,6.899,1.8
			c0.101,0.101,0.101,0.301,0.101,0.5c0,0.301-0.2,0.601-0.601,0.801c-0.899,0.5-3,1.1-6.399,1.5h-0.2c-0.7-0.101-1.5-0.2-2.4-0.301
			c0.801-0.1,1.601-0.199,2.301-0.3c3.399-0.5,5.6-1,6.5-1.5c0.199-0.1,0.3-0.2,0.3-0.3v-0.1c-0.5-0.601-2.7-1.2-6.601-1.601h-0.1
			l0,0c-0.7-0.1-1.5-0.2-2.3-0.3l0,0c-0.5-0.1-1-0.1-1.5-0.2c-0.5-0.1-1.101-0.1-1.7-0.1c-6.9-0.601-15.1-0.9-24.5-0.9
			c-9.5,0-17.6,0.3-24.5,0.9c-0.6,0-1.1,0.1-1.7,0.1c-0.5,0-1,0.101-1.5,0.2l0,0c-0.8,0.1-1.6,0.2-2.3,0.3l0,0h-0.1
			c-3.9,0.5-6.101,1-6.601,1.601l0,0c0,0,0,0,0,0.1s0.101,0.2,0.4,0.3c0.899,0.5,3,1,6.5,1.5c0.7,0.101,1.5,0.2,2.3,0.3
			c-0.9,0.101-1.7,0.2-2.4,0.301l0,0c-3.5-0.5-5.6-1-6.5-1.5c-0.399-0.301-0.6-0.5-0.6-0.801c0-0.199,0.1-0.399,0.2-0.5
			c0.6-0.699,2.8-1.3,6.899-1.8l0,0h0.101l0,0c0.7-0.1,1.5-0.2,2.3-0.3l0,0c0.5-0.1,1-0.1,1.5-0.2c7.2-0.7,16-1.1,26.2-1.1
			s19,0.399,26.2,1.1C65.226,26.25,65.726,26.351,66.325,26.45L66.325,26.45z M63.125,31.351c0.5,0,1.101,0.1,1.601,0.1
			s1,0.1,1.5,0.2c-0.5,0-1,0.1-1.5,0.1c-1.8,0.2-3.601,0.3-5.5,0.5l0,0c-6,0.4-12.9,0.5-20.7,0.5c-7.7,0-14.6-0.2-20.6-0.5l0,0
			c-2-0.2-3.801-0.3-5.601-0.5c-0.5,0-1-0.1-1.5-0.1c0.5-0.101,1-0.101,1.5-0.2s1.101-0.1,1.601-0.1c1.3,0.1,2.6,0.199,3.899,0.3
			c6,0.399,12.9,0.5,20.601,0.5c7.699,0,14.6-0.2,20.6-0.5C60.525,31.55,61.825,31.45,63.125,31.351z"/>
		<linearGradient id="SVGID_8_" gradientUnits="userSpaceOnUse" x1="37.2183" y1="4.0566" x2="40.2183" y2="97.5566">
			<stop  offset="0" style="stop-color:#FFFFFF;stop-opacity:0.5"/>
			<stop  offset="1" style="stop-color:#AAAAAA;stop-opacity:0.3"/>
		</linearGradient>
		<path fill="url(#SVGID_8_)" d="M64.726,40.55c1,0.101,2,0.2,2.899,0.301c4.101,0.5,6.601,1,7.601,1.6c0.399,0.3,0.6,0.5,0.6,0.8
			c0,0.8-1.6,1.5-5,2.101c-0.6,0.1-1.3,0.199-2.1,0.3c-0.8-0.101-1.601-0.2-2.5-0.3c0.8-0.101,1.7-0.2,2.399-0.301
			c0.801-0.1,1.4-0.199,2.101-0.3c3-0.5,4.6-1,4.6-1.5c0-0.1-0.1-0.2-0.3-0.3c-1.2-0.7-4.6-1.3-10.3-1.8l0,0
			c-1.101-0.101-2.3-0.2-3.5-0.3c-0.601,0-1.3-0.101-2-0.101c-6-0.399-12.9-0.6-20.7-0.6c-7.7,0-14.6,0.2-20.6,0.6
			c-0.7,0-1.4,0.101-2,0.101c-1.2,0.1-2.4,0.199-3.601,0.3l0,0c-5.7,0.5-9.1,1.1-10.3,1.8c-0.2,0.1-0.3,0.2-0.4,0.3
			c0,0.5,1.601,1,4.601,1.5c0.6,0.101,1.3,0.2,2.1,0.3c0.7,0.101,1.601,0.2,2.4,0.301c-0.9,0.1-1.7,0.199-2.5,0.3
			c-0.8-0.101-1.4-0.2-2.101-0.3c-3.399-0.601-5-1.301-5-2.101c0-0.3,0.2-0.6,0.601-0.8c1-0.6,3.5-1.2,7.6-1.6
			c0.9-0.101,1.8-0.2,2.9-0.301l0,0c1.8-0.199,3.6-0.3,5.6-0.399c6-0.4,12.9-0.601,20.601-0.601c7.699,0,14.6,0.2,20.699,0.601
			C61.125,40.25,62.926,40.45,64.726,40.55L64.726,40.55z M14.025,45.65c6.9,0.6,15,0.8,24.5,0.8c9.4,0,17.6-0.3,24.5-0.8
			c0.6,0,1.2,0.1,1.7,0.1s1,0.101,1.5,0.2c-0.5,0-1,0.1-1.5,0.1c-7.2,0.7-16,1-26.2,1s-19-0.3-26.2-1c-0.5,0-1-0.1-1.5-0.1
			c0.5-0.1,1-0.1,1.5-0.2C12.926,45.75,13.426,45.75,14.025,45.65z"/>
		<linearGradient id="SVGID_9_" gradientUnits="userSpaceOnUse" x1="37.4248" y1="4.0449" x2="40.4252" y2="97.5561">
			<stop  offset="0" style="stop-color:#FFFFFF;stop-opacity:0.5"/>
			<stop  offset="1" style="stop-color:#AAAAAA;stop-opacity:0.3"/>
		</linearGradient>
		<path fill="url(#SVGID_9_)" d="M66.325,35.75c0.8,0.101,1.601,0.2,2.3,0.3h0.101l0,0c0.7,0.101,1.399,0.2,2,0.301
			c3.399,0.5,5,1.199,5,2c0,0.3-0.2,0.6-0.601,0.8c-1,0.6-3.5,1.2-7.6,1.7c-0.9-0.101-1.8-0.2-2.9-0.301
			c5.7-0.5,9.101-1.199,10.301-1.899c0.199-0.101,0.3-0.2,0.3-0.3c0-0.5-1.601-1-4.601-1.4c-0.6-0.1-1.3-0.2-2-0.3h-0.1l0,0
			c-0.7-0.101-1.5-0.2-2.3-0.3l0,0c-0.5-0.101-1-0.101-1.5-0.2c-0.5-0.101-1.101-0.101-1.601-0.101
			c-6.899-0.6-15.1-0.899-24.6-0.899s-17.7,0.3-24.6,0.899c-0.5,0-1.101,0.101-1.601,0.101s-1,0.1-1.5,0.2l0,0
			c-0.8,0.1-1.6,0.199-2.3,0.3l0,0h-0.1c-0.7,0.1-1.4,0.2-2,0.3c-3.101,0.4-4.7,0.9-4.7,1.4c0,0.1,0.1,0.199,0.399,0.3
			c1.2,0.7,4.601,1.399,10.301,1.899c-1,0.101-2,0.2-2.9,0.301c-4.1-0.5-6.6-1-7.6-1.7c-0.4-0.3-0.601-0.5-0.601-0.8
			c0-0.801,1.7-1.5,5.101-2c0.6-0.101,1.3-0.2,2-0.301l0,0h0.1c0.7-0.1,1.5-0.199,2.3-0.3l0,0c0.5-0.1,1-0.1,1.5-0.2
			c7.2-0.699,16-1.1,26.2-1.1s19,0.4,26.2,1.1C65.226,35.65,65.726,35.65,66.325,35.75L66.325,35.75z M12.325,41.15
			c1.101-0.101,2.3-0.2,3.601-0.3c0.699,0.1,1.3,0.1,2,0.199c6,0.4,12.899,0.5,20.6,0.5s14.6-0.199,20.7-0.5
			c0.7-0.1,1.3-0.1,2-0.199c1.2,0.1,2.399,0.199,3.5,0.3c-1.7,0.2-3.601,0.3-5.5,0.5l0,0c-6,0.399-12.9,0.5-20.7,0.5
			c-7.7,0-14.6-0.2-20.6-0.5l0,0C15.926,41.45,14.125,41.351,12.325,41.15z"/>
		<linearGradient id="SVGID_10_" gradientUnits="userSpaceOnUse" x1="37.0181" y1="4.063" x2="40.0181" y2="97.563">
			<stop  offset="0" style="stop-color:#FFFFFF;stop-opacity:0.5"/>
			<stop  offset="1" style="stop-color:#AAAAAA;stop-opacity:0.3"/>
		</linearGradient>
		<path fill="url(#SVGID_10_)" d="M14.025,50.351c-0.6,0-1.2-0.101-1.7-0.101s-1-0.1-1.5-0.1c0.5-0.101,1-0.101,1.5-0.2
			c1.8-0.2,3.601-0.3,5.601-0.4c6-0.399,12.899-0.6,20.6-0.6s14.6,0.2,20.7,0.6c2,0.101,3.8,0.301,5.6,0.4c0.5,0,1,0.1,1.5,0.2
			c-0.5,0-1,0.1-1.5,0.1c-0.6,0.101-1.1,0.101-1.7,0.101c-1.199-0.101-2.5-0.2-3.8-0.301c-6-0.399-12.899-0.6-20.7-0.6
			c-7.699,0-14.6,0.2-20.6,0.6C16.525,50.15,15.325,50.25,14.025,50.351z M14.025,55.05c6.9,0.601,15,0.801,24.5,0.801
			c9.4,0,17.6-0.301,24.5-0.801c0.6,0,1.2,0.101,1.7,0.101s1,0.1,1.5,0.2c-0.5,0-1,0.1-1.5,0.1c-7.2,0.7-16,1-26.2,1s-19-0.3-26.2-1
			c-0.5,0-1-0.1-1.5-0.1c0.5-0.101,1-0.101,1.5-0.2C12.926,55.15,13.426,55.05,14.025,55.05z M8.325,50.351L8.325,50.351
			c0.101,0,0.101,0,0.101,0c0.699,0.1,1.5,0.199,2.3,0.3c-0.9,0.1-1.7,0.2-2.4,0.3l0,0c-3.3,0.4-5.399,0.9-6.3,1.4
			c-0.2,0.1-0.3,0.199-0.4,0.3c0,0,0,0,0,0.1l0,0c0.5,0.601,2.7,1.2,6.5,1.7c0.101,0,0.101,0,0.2,0l0,0c0.7,0.1,1.601,0.2,2.4,0.3
			c-0.8,0.101-1.601,0.2-2.3,0.3l0,0H8.325l0,0h-0.1l0,0c-3.9-0.6-6.101-1.199-6.7-1.899c-0.1-0.101-0.2-0.3-0.2-0.5
			c0-0.3,0.2-0.601,0.601-0.8C2.726,51.25,4.926,50.75,8.325,50.351L8.325,50.351z M68.825,50.351c3.4,0.399,5.5,0.899,6.4,1.399
			c0.399,0.3,0.6,0.5,0.6,0.8c0,0.2,0,0.4-0.1,0.5c-0.5,0.7-2.8,1.301-6.7,1.9l0,0h-0.1l0,0h-0.101c-0.7-0.1-1.5-0.2-2.3-0.3
			c0.8-0.101,1.7-0.2,2.4-0.3l0,0h0.1c3.8-0.5,6-1.101,6.5-1.7V52.55c0-0.1-0.1-0.199-0.3-0.3c-0.9-0.5-3-1-6.3-1.399h-0.101
			c-0.8-0.101-1.6-0.2-2.5-0.301c0.8-0.1,1.601-0.199,2.4-0.3h0.1V50.351z"/>
		<linearGradient id="SVGID_11_" gradientUnits="userSpaceOnUse" x1="36.8169" y1="4.0693" x2="39.8169" y2="97.5693">
			<stop  offset="0" style="stop-color:#FFFFFF;stop-opacity:0.5"/>
			<stop  offset="1" style="stop-color:#AAAAAA;stop-opacity:0.3"/>
		</linearGradient>
		<path fill="url(#SVGID_11_)" d="M14.025,55.05c-0.6,0-1.2,0.101-1.7,0.101s-1,0.1-1.5,0.2l0,0c-0.8,0.1-1.6,0.199-2.3,0.3l0,0
			h-0.1c-3.9,0.5-6.101,1-6.601,1.6l0,0c0,0,0,0,0,0.101c0,0.6,2.3,1.199,6.8,1.8c1.101,0.1,2.4,0.3,3.801,0.399
			c0.5,0,1.1,0.101,1.6,0.2l0,0c1.3,0.101,2.7,0.2,4.1,0.3l0,0h0.101c5.899,0.4,12.7,0.5,20.399,0.5c7.601,0,14.4-0.199,20.4-0.5
			h0.1c1.4-0.1,2.801-0.199,4.101-0.3l0,0c0.5-0.1,1.1-0.1,1.6-0.2c1.4-0.199,2.7-0.3,3.9-0.399c4.5-0.601,6.8-1.2,6.8-1.8V57.25
			c-0.5-0.6-2.7-1.2-6.6-1.6l0,0h-0.101l0,0c-0.7-0.101-1.5-0.2-2.3-0.3l0,0c-0.5-0.101-1-0.101-1.5-0.2c-0.6,0-1.1-0.101-1.7-0.101
			c-1.2-0.1-2.5-0.199-3.8-0.3c-6-0.399-12.9-0.6-20.7-0.6s-14.6,0.2-20.7,0.6C16.525,54.851,15.325,54.95,14.025,55.05z
			 M68.726,55.05c4.1,0.5,6.399,1.101,6.899,1.801c0.101,0.1,0.101,0.3,0.101,0.5c0,1-2.4,1.8-7.101,2.399
			c-0.8,0.101-1.6,0.2-2.399,0.3c-0.5,0-1,0.101-1.5,0.101s-1.101,0.1-1.601,0.2l0,0c-6.899,0.5-15.1,0.8-24.6,0.8
			s-17.6-0.3-24.5-0.8l0,0c-0.6-0.101-1.1-0.101-1.6-0.2l0,0c-0.5-0.101-1-0.101-1.5-0.101c-0.9-0.1-1.7-0.199-2.4-0.3
			c-4.8-0.6-7.2-1.399-7.2-2.399c0-0.2,0.101-0.4,0.2-0.5c0.6-0.7,2.8-1.301,6.9-1.801l0,0h0.1l0,0c0.7-0.1,1.5-0.199,2.3-0.3l0,0
			c0.5-0.1,1-0.1,1.5-0.2c1.8-0.199,3.601-0.3,5.601-0.399c6-0.4,12.899-0.601,20.699-0.601c7.801,0,14.601,0.2,20.7,0.601
			c2,0.1,3.8,0.3,5.601,0.399c0.5,0,1,0.101,1.5,0.2l0,0C67.226,54.851,68.025,54.95,68.726,55.05
			C68.625,55.05,68.726,55.05,68.726,55.05L68.726,55.05z"/>
		<linearGradient id="SVGID_12_" gradientUnits="userSpaceOnUse" x1="37.1655" y1="4.0581" x2="40.1655" y2="97.5581">
			<stop  offset="0" style="stop-color:#FFFFFF;stop-opacity:0.5"/>
			<stop  offset="1" style="stop-color:#AAAAAA;stop-opacity:0.3"/>
		</linearGradient>
		<path fill="url(#SVGID_12_)" d="M66.325,45.45c0.9,0.1,1.7,0.2,2.5,0.3c3.4,0.4,5.601,0.9,6.5,1.4c0.2,0.1,0.3,0.2,0.4,0.399
			c0.1,0.101,0.1,0.301,0.1,0.5c0,0.801-1.6,1.5-5,2.101c-0.6,0.1-1.3,0.2-2,0.3h-0.2c-0.8,0.1-1.6,0.2-2.399,0.3l0,0
			c-0.5,0-1,0.101-1.5,0.101c-7.2,0.699-16,1-26.2,1s-19-0.301-26.2-1c-0.5,0-1-0.101-1.5-0.101l0,0c-0.8-0.1-1.6-0.2-2.3-0.3
			c0,0,0,0-0.1,0l0,0c-0.7-0.1-1.4-0.2-2-0.3c-3.4-0.601-5.101-1.3-5.101-2.101c0-0.199,0.101-0.399,0.2-0.5
			c0.1-0.1,0.2-0.199,0.4-0.3l0,0c0.899-0.6,3-1,6.5-1.399c0.8-0.101,1.6-0.2,2.5-0.301l0,0c0.5-0.1,1-0.1,1.5-0.199
			c1.8-0.2,3.6-0.301,5.6-0.4c6-0.4,12.9-0.6,20.6-0.6c7.7,0,14.601,0.199,20.7,0.6c2,0.1,3.8,0.3,5.601,0.4
			C65.226,45.25,65.726,45.351,66.325,45.45L66.325,45.45z M10.825,50.05c0.5,0,1,0.101,1.5,0.101c0.601,0.1,1.101,0.1,1.7,0.1
			c6.9,0.601,15,0.8,24.5,0.8c9.4,0,17.6-0.3,24.5-0.8c0.6,0,1.2-0.1,1.7-0.1s1-0.101,1.5-0.101l0,0c0.8-0.1,1.6-0.199,2.3-0.3
			c0.8-0.1,1.5-0.2,2.1-0.3c3.101-0.5,4.601-1,4.601-1.5v-0.1c-0.101-0.101-0.2-0.2-0.3-0.2c-0.9-0.5-3-1-6.4-1.4
			c-0.7-0.1-1.6-0.2-2.4-0.3l0,0c-0.5-0.1-1-0.1-1.5-0.2c-0.6,0-1.1-0.1-1.699-0.1c-1.2-0.101-2.5-0.2-3.801-0.3
			c-6-0.4-12.899-0.601-20.699-0.601c-7.7,0-14.601,0.2-20.601,0.601c-1.3,0.1-2.6,0.199-3.8,0.3c-0.6,0-1.2,0.1-1.7,0.1
			s-1,0.101-1.5,0.2l0,0c-0.899,0.1-1.7,0.2-2.399,0.3c-3.4,0.4-5.5,0.9-6.4,1.4l0,0c-0.1,0.1-0.2,0.1-0.3,0.2l0,0c0,0,0,0,0,0.1
			c0,0.5,1.6,1,4.7,1.5c0.6,0.1,1.3,0.2,2.1,0.3C9.226,49.851,10.025,49.95,10.825,50.05L10.825,50.05z"/>
		<linearGradient id="SVGID_13_" gradientUnits="userSpaceOnUse" x1="36.5464" y1="4.0781" x2="39.5464" y2="97.5781">
			<stop  offset="0" style="stop-color:#FFFFFF;stop-opacity:0.5"/>
			<stop  offset="1" style="stop-color:#AAAAAA;stop-opacity:0.3"/>
		</linearGradient>
		<path fill="url(#SVGID_13_)" d="M58.926,60.05c-6-0.399-12.801-0.6-20.4-0.6s-14.4,0.2-20.4,0.6h-0.1l0,0
			c-1.4-0.1-2.8-0.199-4.1-0.3c1.3-0.1,2.699-0.2,4.1-0.3c6-0.4,12.8-0.6,20.5-0.6s14.5,0.199,20.5,0.6c1.4,0.1,2.8,0.2,4.1,0.3
			C61.825,59.851,60.426,59.95,58.926,60.05C59.025,60.05,58.926,60.05,58.926,60.05z M13.926,60.351c-0.601,0-1.101,0.1-1.601,0.1
			c-5.7,0.5-9.1,1.1-10.3,1.8c-0.2,0.101-0.3,0.2-0.4,0.3c0,0.5,1.601,1,4.601,1.5c0.6,0.101,1.3,0.2,2.1,0.301
			c0.7,0.1,1.601,0.199,2.4,0.3l0,0c0.5,0,1,0.1,1.5,0.1c0.6,0.101,1.1,0.101,1.7,0.101c6.899,0.6,15,0.8,24.5,0.8
			c9.399,0,17.6-0.3,24.5-0.8c0.6,0,1.199-0.101,1.699-0.101s1-0.1,1.5-0.1l0,0c0.801-0.101,1.7-0.2,2.4-0.3
			c0.8-0.101,1.4-0.2,2.1-0.301c3-0.5,4.601-1,4.601-1.5c0-0.1-0.101-0.199-0.3-0.3c-1.2-0.7-4.601-1.3-10.301-1.8
			c-0.5,0-1.1-0.1-1.6-0.1c0.5-0.101,1.1-0.101,1.6-0.2c0.5-0.101,1-0.101,1.5-0.101c4.9,0.5,7.9,1.101,9,1.801
			c0.4,0.3,0.601,0.5,0.601,0.8c0,0.8-1.601,1.5-5,2.1c-0.601,0.101-1.3,0.2-2.101,0.3c-0.8,0.101-1.6,0.2-2.5,0.301l0,0
			c-0.5,0-1,0.1-1.5,0.1c-7.199,0.7-16,1-26.199,1c-10.2,0-19-0.3-26.2-1c-0.5,0-1-0.1-1.5-0.1l0,0c-0.9-0.101-1.7-0.2-2.5-0.301
			c-0.8-0.1-1.4-0.199-2.101-0.3c-3.399-0.6-5-1.3-5-2.1c0-0.3,0.2-0.601,0.601-0.8c1.1-0.7,4.1-1.301,9-1.801
			c0.5,0,1,0.101,1.5,0.101l0,0C12.825,60.15,13.426,60.25,13.926,60.351z"/>
		<linearGradient id="SVGID_14_" gradientUnits="userSpaceOnUse" x1="36.5493" y1="4.0781" x2="39.5493" y2="97.5781">
			<stop  offset="0" style="stop-color:#FFFFFF;stop-opacity:0.5"/>
			<stop  offset="1" style="stop-color:#AAAAAA;stop-opacity:0.3"/>
		</linearGradient>
		<path fill="url(#SVGID_14_)" d="M10.825,65.25c-0.899,0.101-1.7,0.2-2.399,0.3c-3.4,0.4-5.5,0.9-6.4,1.4l0,0
			c-0.1,0.1-0.2,0.1-0.3,0.2l0,0c0,0,0,0,0,0.1c0,0.5,1.6,1,4.7,1.5c0.6,0.101,1.3,0.2,2.1,0.3c0.7,0.101,1.5,0.2,2.3,0.301
			c-0.899,0.1-1.7,0.199-2.399,0.3l0,0c-0.7-0.101-1.4-0.2-2-0.3c-3.4-0.601-5.101-1.301-5.101-2.101c0-0.2,0.101-0.399,0.2-0.5
			c0.1-0.1,0.2-0.2,0.4-0.3l0,0c0.899-0.6,3-1,6.5-1.4C9.125,65.05,9.926,65.15,10.825,65.25z M66.325,65.25
			c0.9-0.1,1.7-0.2,2.5-0.3c3.4,0.4,5.601,0.9,6.5,1.4c0.2,0.1,0.3,0.199,0.4,0.399c0.1,0.101,0.1,0.3,0.1,0.5
			c0,0.8-1.6,1.5-5,2.101c-0.6,0.1-1.3,0.199-2,0.3h-0.2c-0.699-0.101-1.5-0.2-2.399-0.3c0.8-0.101,1.6-0.2,2.3-0.301
			c0.8-0.1,1.5-0.199,2.1-0.3c3.101-0.5,4.601-1,4.601-1.5v-0.1c-0.101-0.101-0.2-0.2-0.3-0.2c-0.9-0.5-3-1-6.4-1.4
			C68.025,65.45,67.125,65.351,66.325,65.25z M63.025,64.95c-1.2-0.1-2.5-0.2-3.8-0.3c-6-0.4-12.9-0.601-20.7-0.601
			c-7.7,0-14.6,0.2-20.6,0.601c-1.301,0.1-2.601,0.2-3.801,0.3c-0.6,0-1.199-0.1-1.699-0.1s-1-0.101-1.5-0.101
			c0.5-0.1,1-0.1,1.5-0.2c1.8-0.199,3.6-0.3,5.6-0.399c6-0.4,12.9-0.601,20.6-0.601c7.7,0,14.601,0.2,20.7,0.601
			c2,0.1,3.8,0.3,5.601,0.399c0.5,0,1,0.101,1.5,0.2c-0.5,0-1,0.101-1.5,0.101C64.125,64.851,63.525,64.95,63.025,64.95z
			 M14.025,69.65c6.9,0.6,15,0.8,24.5,0.8c9.4,0,17.6-0.3,24.5-0.8c0.6,0,1.2,0.1,1.7,0.1s1,0.101,1.5,0.2c-0.5,0-1,0.1-1.5,0.1
			c-7.2,0.7-16,1-26.2,1s-19-0.3-26.2-1c-0.5,0-1-0.1-1.5-0.1c0.5-0.1,1-0.1,1.5-0.2C12.926,69.75,13.426,69.65,14.025,69.65z"/>
		<linearGradient id="SVGID_15_" gradientUnits="userSpaceOnUse" x1="36.3496" y1="4.0845" x2="39.3496" y2="97.5845">
			<stop  offset="0" style="stop-color:#FFFFFF;stop-opacity:0.5"/>
			<stop  offset="1" style="stop-color:#AAAAAA;stop-opacity:0.3"/>
		</linearGradient>
		<path fill="url(#SVGID_15_)" d="M10.825,69.351L10.825,69.351c0.5-0.101,1-0.101,1.5-0.2c1.8-0.2,3.601-0.3,5.601-0.4
			c6-0.399,12.899-0.6,20.6-0.6s14.6,0.2,20.7,0.6c2,0.101,3.8,0.3,5.6,0.4c0.5,0,1,0.1,1.5,0.2l0,0c0.8,0.1,1.601,0.199,2.4,0.3
			h0.2c3.399,0.399,5.5,0.899,6.399,1.399c0.4,0.301,0.601,0.5,0.601,0.801c0,0.199,0,0.399-0.101,0.5
			c-0.5,0.699-2.8,1.3-6.899,1.899l0,0h-0.101c-0.7-0.1-1.5-0.2-2.3-0.3c0.8-0.1,1.7-0.2,2.4-0.3c3.899-0.5,6.1-1.101,6.6-1.7v-0.1
			c0-0.101-0.1-0.2-0.3-0.301c-0.9-0.5-3-1-6.3-1.399h-0.101c-0.8-0.101-1.6-0.2-2.5-0.3l0,0c-0.5-0.101-1-0.101-1.5-0.2
			c-0.6,0-1.1-0.101-1.7-0.101c-1.199-0.1-2.5-0.199-3.8-0.3c-6-0.399-12.899-0.6-20.7-0.6c-7.699,0-14.6,0.2-20.6,0.6
			c-1.3,0.101-2.6,0.2-3.8,0.3c-0.601,0-1.2,0.101-1.7,0.101s-1,0.1-1.5,0.2l0,0c-0.9,0.1-1.7,0.199-2.4,0.3l0,0
			c-3.6,0.5-5.699,0.899-6.6,1.5c-0.2,0.1-0.3,0.2-0.4,0.3c0,0,0,0,0,0.1l0,0c0.5,0.601,2.7,1.2,6.601,1.7
			c0.7,0.101,1.6,0.2,2.399,0.3c-0.8,0.101-1.6,0.2-2.3,0.301h-0.1l0,0c-4-0.601-6.3-1.2-6.9-1.9c-0.1-0.1-0.2-0.3-0.2-0.5
			c0-0.3,0.2-0.6,0.601-0.8c0.899-0.601,3-1,6.399-1.4h0.101l0,0C9.125,69.55,9.926,69.45,10.825,69.351z M14.025,74.351
			c6.9,0.6,15,0.8,24.5,0.8c9.4,0,17.6-0.3,24.5-0.8c0.6,0,1.2,0.1,1.7,0.1s1,0.1,1.5,0.2c-0.5,0-1,0.1-1.5,0.1
			c-7.2,0.7-16,1-26.2,1s-19-0.3-26.2-1c-0.5,0-1-0.1-1.5-0.1c0.5-0.101,1-0.101,1.5-0.2C12.926,74.45,13.426,74.351,14.025,74.351z
			"/>
		<linearGradient id="SVGID_16_" gradientUnits="userSpaceOnUse" x1="36.1987" y1="4.0894" x2="39.1987" y2="97.5894">
			<stop  offset="0" style="stop-color:#FFFFFF;stop-opacity:0.5"/>
			<stop  offset="1" style="stop-color:#AAAAAA;stop-opacity:0.3"/>
		</linearGradient>
		<path fill="url(#SVGID_16_)" d="M68.726,74.351c4.7,0.6,7.1,1.3,7,2.3c0,1.2-3.7,2.1-11,2.8c-7.2,0.7-16,1-26.2,1s-19-0.3-26.2-1
			c-7.399-0.7-11.1-1.7-11-2.8c0-1,2.3-1.7,7.101-2.3l0,0h0.1c0.7-0.101,1.5-0.2,2.3-0.301l0,0c0.5-0.1,1-0.1,1.5-0.199
			c1.8-0.2,3.601-0.301,5.601-0.4c6-0.4,12.899-0.6,20.6-0.6s14.6,0.199,20.7,0.6c2,0.1,3.8,0.3,5.6,0.4c0.5,0,1,0.1,1.5,0.199l0,0
			c0.8,0.101,1.601,0.2,2.3,0.301H68.726L68.726,74.351z M14.025,74.351c-0.6,0-1.2,0.1-1.7,0.1s-1,0.1-1.5,0.2l0,0
			c-0.8,0.1-1.6,0.2-2.3,0.3l0,0h-0.1c-4.4,0.5-6.7,1.1-6.7,1.7c0,0.8,3.6,1.5,10.7,2.2c7.199,0.699,16,1,26.199,1
			c10.2,0,19-0.301,26.2-1c7.101-0.7,10.7-1.4,10.7-2.2c0-0.601-2.2-1.2-6.7-1.7h-0.1l0,0c-0.7-0.1-1.5-0.2-2.3-0.3l0,0
			c-0.5-0.101-1-0.101-1.5-0.2c-0.601,0-1.101-0.1-1.7-0.1c-1.2-0.101-2.5-0.2-3.8-0.301c-6-0.399-12.9-0.6-20.7-0.6
			c-7.7,0-14.601,0.2-20.601,0.6C16.525,74.15,15.325,74.25,14.025,74.351z"/>
	</g>
	<g>
		<linearGradient id="SVGID_17_" gradientUnits="userSpaceOnUse" x1="56.7246" y1="3.4307" x2="59.7246" y2="96.9307">
			<stop  offset="0" style="stop-color:#FFFFFF;stop-opacity:0.5"/>
			<stop  offset="1" style="stop-color:#AAAAAA;stop-opacity:0.3"/>
		</linearGradient>
		<path fill="url(#SVGID_17_)" d="M57.726,2.15c0-0.101,0-0.101,0.1-0.2c0-0.1,0.101-0.1,0.101-0.1c0.1,0,0.1,0,0.1,0.1
			s0.1,0.1,0.1,0.2V79.55c0,0.101,0,0.101-0.1,0.2c0,0.101-0.1,0.101-0.1,0.101c-0.101,0-0.101,0-0.101-0.101c0-0.1-0.1-0.1-0.1-0.2
			V2.15z"/>
		<linearGradient id="SVGID_18_" gradientUnits="userSpaceOnUse" x1="60.1211" y1="3.3218" x2="63.1211" y2="96.8206">
			<stop  offset="0" style="stop-color:#FFFFFF;stop-opacity:0.5"/>
			<stop  offset="1" style="stop-color:#AAAAAA;stop-opacity:0.3"/>
		</linearGradient>
		<path fill="url(#SVGID_18_)" d="M61.426,2.25c0,0.101,0.1,0.101,0.1,0.2v76.8c0,0.101,0,0.101-0.1,0.2c0,0.1-0.101,0.1-0.101,0.1
			c-0.1,0-0.1,0-0.1-0.1s-0.101-0.1-0.101-0.2V2.45c0-0.1,0-0.1,0.101-0.2c0-0.1,0.1-0.1,0.1-0.1
			C61.426,2.15,61.426,2.25,61.426,2.25z"/>
		<linearGradient id="SVGID_19_" gradientUnits="userSpaceOnUse" x1="67.8037" y1="3.0742" x2="70.8037" y2="96.5742">
			<stop  offset="0" style="stop-color:#FFFFFF;stop-opacity:0.5"/>
			<stop  offset="1" style="stop-color:#AAAAAA;stop-opacity:0.3"/>
		</linearGradient>
		<path fill="url(#SVGID_19_)" d="M69.125,3.15c0,0.1,0.101,0.1,0.101,0.2v75.6c0,0.1,0,0.1-0.101,0.2c0,0.1-0.1,0.1-0.1,0.1
			s-0.1,0-0.1-0.1c0-0.101-0.101-0.101-0.101-0.2V3.45c0-0.1,0-0.1,0.101-0.2c0-0.1,0.1-0.1,0.1-0.1H69.125z"/>
		<linearGradient id="SVGID_20_" gradientUnits="userSpaceOnUse" x1="63.9131" y1="3.1997" x2="66.9131" y2="96.6997">
			<stop  offset="0" style="stop-color:#FFFFFF;stop-opacity:0.5"/>
			<stop  offset="1" style="stop-color:#AAAAAA;stop-opacity:0.3"/>
		</linearGradient>
		<path fill="url(#SVGID_20_)" d="M64.926,2.851c0-0.101,0-0.101,0.1-0.2c0-0.101,0.1-0.101,0.1-0.101c0.101,0,0.101,0,0.101,0.101
			c0,0.1,0.1,0.1,0.1,0.2v76.3c0,0.1,0,0.1-0.1,0.2c0,0.1-0.101,0.1-0.101,0.1c-0.1,0-0.1,0-0.1-0.1c0-0.101-0.1-0.101-0.1-0.2
			V2.851z"/>
		<linearGradient id="SVGID_21_" gradientUnits="userSpaceOnUse" x1="41.4365" y1="3.9199" x2="44.4366" y2="97.4211">
			<stop  offset="0" style="stop-color:#FFFFFF;stop-opacity:0.5"/>
			<stop  offset="1" style="stop-color:#AAAAAA;stop-opacity:0.3"/>
		</linearGradient>
		<path fill="url(#SVGID_21_)" d="M42.726,1.45c0,0.1,0.1,0.1,0.1,0.2v78.7c0,0.1,0,0.1-0.1,0.199c0,0.101-0.101,0.101-0.101,0.101
			c-0.1,0-0.1,0-0.1-0.101c0-0.1-0.1-0.1-0.1-0.199V1.65c0-0.101,0-0.101,0.1-0.2c0-0.1,0.1-0.1,0.1-0.1S42.625,1.351,42.726,1.45z"
			/>
		<linearGradient id="SVGID_22_" gradientUnits="userSpaceOnUse" x1="45.3369" y1="3.7959" x2="48.3369" y2="97.2959">
			<stop  offset="0" style="stop-color:#FFFFFF;stop-opacity:0.5"/>
			<stop  offset="1" style="stop-color:#AAAAAA;stop-opacity:0.3"/>
		</linearGradient>
		<path fill="url(#SVGID_22_)" d="M46.625,1.45c0,0.1,0.101,0.1,0.101,0.2V80.05c0,0.101,0,0.101-0.101,0.2
			c0,0.101-0.1,0.101-0.1,0.101c-0.1,0-0.1,0-0.1-0.101c0-0.1-0.101-0.1-0.101-0.2V1.65c0-0.101,0-0.101,0.101-0.2
			c0-0.1,0.1-0.1,0.1-0.1S46.525,1.351,46.625,1.45z"/>
		<linearGradient id="SVGID_23_" gradientUnits="userSpaceOnUse" x1="37.5303" y1="4.0454" x2="40.5303" y2="97.5454">
			<stop  offset="0" style="stop-color:#FFFFFF;stop-opacity:0.5"/>
			<stop  offset="1" style="stop-color:#AAAAAA;stop-opacity:0.3"/>
		</linearGradient>
		<path fill="url(#SVGID_23_)" d="M38.726,1.45c0.1,0,0.1,0,0.1,0.1c0,0.101,0.101,0.101,0.101,0.2v79.101c0,0.1,0,0.1-0.101,0.199
			c0,0.101-0.1,0.101-0.1,0.101s-0.101,0-0.101-0.101c0-0.1-0.1-0.1-0.1-0.199V1.75c0-0.1,0-0.1,0.1-0.2
			C38.625,1.45,38.625,1.45,38.726,1.45z"/>
		<linearGradient id="SVGID_24_" gradientUnits="userSpaceOnUse" x1="49.1357" y1="3.6738" x2="52.1357" y2="97.1738">
			<stop  offset="0" style="stop-color:#FFFFFF;stop-opacity:0.5"/>
			<stop  offset="1" style="stop-color:#AAAAAA;stop-opacity:0.3"/>
		</linearGradient>
		<path fill="url(#SVGID_24_)" d="M50.125,1.65c0-0.101,0-0.101,0.101-0.2c0-0.1,0.1-0.1,0.1-0.1c0.101,0,0.101,0,0.101,0.1
			s0.1,0.1,0.1,0.2v78.2c0,0.1,0,0.1-0.1,0.199c0,0.101-0.101,0.101-0.101,0.101c-0.1,0-0.1,0-0.1-0.101
			c0-0.1-0.101-0.1-0.101-0.199V1.65z"/>
		<linearGradient id="SVGID_25_" gradientUnits="userSpaceOnUse" x1="52.9355" y1="3.5522" x2="55.9355" y2="97.0522">
			<stop  offset="0" style="stop-color:#FFFFFF;stop-opacity:0.5"/>
			<stop  offset="1" style="stop-color:#AAAAAA;stop-opacity:0.3"/>
		</linearGradient>
		<path fill="url(#SVGID_25_)" d="M53.926,1.65c0-0.101,0-0.101,0.1-0.2c0-0.1,0.1-0.1,0.1-0.1c0.101,0,0.101,0,0.101,0.1
			s0.1,0.1,0.1,0.2v78c0,0.1,0,0.1-0.1,0.2c0,0.1-0.101,0.1-0.101,0.1c-0.1,0-0.1,0-0.1-0.1c0-0.101-0.1-0.101-0.1-0.2V1.65z"/>
		<linearGradient id="SVGID_26_" gradientUnits="userSpaceOnUse" x1="71.6006" y1="2.9531" x2="74.6006" y2="96.4531">
			<stop  offset="0" style="stop-color:#FFFFFF;stop-opacity:0.5"/>
			<stop  offset="1" style="stop-color:#AAAAAA;stop-opacity:0.3"/>
		</linearGradient>
		<path fill="url(#SVGID_26_)" d="M72.625,3.55c0-0.1,0-0.1,0.101-0.199c0-0.101,0.1-0.101,0.1-0.101c0.101,0,0.101,0,0.101,0.101
			c0.1,0,0.1,0.1,0.1,0.199v75.2c0,0.101,0,0.101-0.1,0.2c0,0.1-0.101,0.1-0.101,0.1c-0.1,0-0.1,0-0.1-0.1s-0.101-0.1-0.101-0.2
			V3.55z"/>
		<linearGradient id="SVGID_27_" gradientUnits="userSpaceOnUse" x1="74.2021" y1="2.8696" x2="77.2021" y2="96.3696">
			<stop  offset="0" style="stop-color:#FFFFFF;stop-opacity:0.5"/>
			<stop  offset="1" style="stop-color:#AAAAAA;stop-opacity:0.3"/>
		</linearGradient>
		<path fill="url(#SVGID_27_)" d="M75.226,5.05c0-0.1,0-0.1,0.1-0.199c0-0.101,0.101-0.101,0.101-0.101c0.1,0,0.1,0,0.1,0.101
			c0,0.1,0.1,0.1,0.1,0.199v71.9c0,0.1,0,0.1-0.1,0.2c0,0.1-0.1,0.1-0.1,0.1c-0.101,0-0.101,0-0.101-0.1c0-0.101-0.1-0.101-0.1-0.2
			V5.05z"/>
		<linearGradient id="SVGID_28_" gradientUnits="userSpaceOnUse" x1="2.7769" y1="5.1616" x2="5.7769" y2="98.6616">
			<stop  offset="0" style="stop-color:#FFFFFF;stop-opacity:0.5"/>
			<stop  offset="1" style="stop-color:#AAAAAA;stop-opacity:0.3"/>
		</linearGradient>
		<path fill="url(#SVGID_28_)" d="M3.726,3.65c0-0.101,0-0.101,0.1-0.2c0-0.1,0.101-0.1,0.101-0.1c0.1,0,0.1,0,0.1,0.1
			s0.1,0.1,0.1,0.2v74.6c0,0.101,0,0.101-0.1,0.2c0,0.1-0.1,0.1-0.1,0.1c-0.101,0-0.101,0-0.101-0.1s-0.1-0.1-0.1-0.2V3.65z"/>
		<linearGradient id="SVGID_29_" gradientUnits="userSpaceOnUse" x1="0.2783" y1="5.2417" x2="3.2783" y2="98.7417">
			<stop  offset="0" style="stop-color:#FFFFFF;stop-opacity:0.5"/>
			<stop  offset="1" style="stop-color:#AAAAAA;stop-opacity:0.3"/>
		</linearGradient>
		<path fill="url(#SVGID_29_)" d="M1.226,4.55c0-0.1,0-0.1,0.1-0.199c0-0.101,0.101-0.101,0.101-0.101c0.1,0,0.1,0,0.1,0.101
			c0,0.1,0.1,0.1,0.1,0.199v72.9c0,0.1,0,0.1-0.1,0.2c0,0.1-0.1,0.1-0.1,0.1c-0.101,0-0.101,0-0.101-0.1c0-0.101-0.1-0.101-0.1-0.2
			V4.55z"/>
		<linearGradient id="SVGID_30_" gradientUnits="userSpaceOnUse" x1="25.8413" y1="4.4214" x2="28.8413" y2="97.9214">
			<stop  offset="0" style="stop-color:#FFFFFF;stop-opacity:0.5"/>
			<stop  offset="1" style="stop-color:#AAAAAA;stop-opacity:0.3"/>
		</linearGradient>
		<path fill="url(#SVGID_30_)" d="M26.825,1.75c0-0.1,0-0.1,0.101-0.2c0-0.1,0.1-0.1,0.1-0.1c0.1,0,0.1,0,0.1,0.1
			c0,0.101,0.101,0.101,0.101,0.2v79.2c0,0.1,0,0.1-0.101,0.2c0,0.1-0.1,0.1-0.1,0.1c-0.1,0-0.1,0-0.1-0.1
			c0-0.101-0.101-0.101-0.101-0.2V1.75z"/>
		<linearGradient id="SVGID_31_" gradientUnits="userSpaceOnUse" x1="22.0464" y1="4.5435" x2="25.0463" y2="98.0423">
			<stop  offset="0" style="stop-color:#FFFFFF;stop-opacity:0.5"/>
			<stop  offset="1" style="stop-color:#AAAAAA;stop-opacity:0.3"/>
		</linearGradient>
		<path fill="url(#SVGID_31_)" d="M23.325,1.65c0,0.1,0.101,0.1,0.101,0.2V80.75c0,0.101,0,0.101-0.101,0.2c0,0.1-0.1,0.1-0.1,0.1
			c-0.101,0-0.101,0-0.101-0.1s-0.1-0.1-0.1-0.2V1.851c0-0.101,0-0.101,0.1-0.2c0-0.101,0.101-0.101,0.101-0.101
			S23.226,1.55,23.325,1.65z"/>
		<linearGradient id="SVGID_32_" gradientUnits="userSpaceOnUse" x1="29.8379" y1="4.2925" x2="32.8379" y2="97.7936">
			<stop  offset="0" style="stop-color:#FFFFFF;stop-opacity:0.5"/>
			<stop  offset="1" style="stop-color:#AAAAAA;stop-opacity:0.3"/>
		</linearGradient>
		<path fill="url(#SVGID_32_)" d="M30.825,1.75c0-0.1,0-0.1,0.101-0.2c0-0.1,0.1-0.1,0.1-0.1c0.1,0,0.1,0,0.1,0.1
			c0,0.101,0.101,0.101,0.101,0.2v79.101c0,0.1,0,0.1-0.101,0.199c0,0.101-0.1,0.101-0.1,0.101s-0.1,0-0.1-0.101
			c0-0.1-0.101-0.1-0.101-0.199V1.75z"/>
		<linearGradient id="SVGID_33_" gradientUnits="userSpaceOnUse" x1="33.7344" y1="4.168" x2="36.7344" y2="97.668">
			<stop  offset="0" style="stop-color:#FFFFFF;stop-opacity:0.5"/>
			<stop  offset="1" style="stop-color:#AAAAAA;stop-opacity:0.3"/>
		</linearGradient>
		<path fill="url(#SVGID_33_)" d="M34.726,1.75c0-0.1,0-0.1,0.1-0.2c0-0.1,0.101-0.1,0.101-0.1c0.1,0,0.1,0,0.1,0.1
			c0,0.101,0.1,0.101,0.1,0.2v79.101c0,0.1,0,0.1-0.1,0.199c0,0.101-0.1,0.101-0.1,0.101c-0.101,0-0.101,0-0.101-0.101
			c0-0.1-0.1-0.1-0.1-0.199V1.75z"/>
		<linearGradient id="SVGID_34_" gradientUnits="userSpaceOnUse" x1="10.3521" y1="4.9185" x2="13.352" y2="98.4173">
			<stop  offset="0" style="stop-color:#FFFFFF;stop-opacity:0.5"/>
			<stop  offset="1" style="stop-color:#AAAAAA;stop-opacity:0.3"/>
		</linearGradient>
		<path fill="url(#SVGID_34_)" d="M11.525,2.45c0.1,0,0.1,0,0.1,0.1c0,0.101,0.101,0.101,0.101,0.2v77.5c0,0.101,0,0.101-0.101,0.2
			c0,0.1-0.1,0.1-0.1,0.1c-0.1,0-0.1,0-0.1-0.1s-0.101-0.1-0.101-0.2V2.75c0-0.1,0-0.1,0.101-0.2
			C11.426,2.45,11.525,2.45,11.525,2.45z"/>
		<linearGradient id="SVGID_35_" gradientUnits="userSpaceOnUse" x1="6.561" y1="5.04" x2="9.561" y2="98.5401">
			<stop  offset="0" style="stop-color:#FFFFFF;stop-opacity:0.5"/>
			<stop  offset="1" style="stop-color:#AAAAAA;stop-opacity:0.3"/>
		</linearGradient>
		<path fill="url(#SVGID_35_)" d="M7.825,2.75c0.101,0.101,0.101,0.2,0.101,0.2v76.8c0,0.101,0,0.101-0.101,0.2
			c0,0.1-0.1,0.1-0.1,0.1c-0.101,0-0.101,0-0.101-0.1s-0.1-0.1-0.1-0.2V2.95c0-0.1,0-0.1,0.1-0.2c0-0.1,0.101-0.1,0.101-0.1
			C7.726,2.75,7.825,2.75,7.825,2.75z"/>
		<linearGradient id="SVGID_36_" gradientUnits="userSpaceOnUse" x1="18.1519" y1="4.668" x2="21.1518" y2="98.1668">
			<stop  offset="0" style="stop-color:#FFFFFF;stop-opacity:0.5"/>
			<stop  offset="1" style="stop-color:#AAAAAA;stop-opacity:0.3"/>
		</linearGradient>
		<path fill="url(#SVGID_36_)" d="M19.125,1.95c0-0.1,0-0.1,0.101-0.2c0-0.1,0.1-0.1,0.1-0.1c0.101,0,0.101,0,0.101,0.1
			c0,0.101,0.1,0.101,0.1,0.2v78.6c0,0.101,0,0.101-0.1,0.2c0,0.101-0.101,0.101-0.101,0.101c-0.1,0-0.1,0-0.1-0.101
			c0-0.1-0.101-0.1-0.101-0.2V1.95z"/>
		<linearGradient id="SVGID_37_" gradientUnits="userSpaceOnUse" x1="14.3511" y1="4.79" x2="17.3511" y2="98.29">
			<stop  offset="0" style="stop-color:#FFFFFF;stop-opacity:0.5"/>
			<stop  offset="1" style="stop-color:#AAAAAA;stop-opacity:0.3"/>
		</linearGradient>
		<path fill="url(#SVGID_37_)" d="M15.325,2.351c0-0.101,0-0.101,0.101-0.2c0-0.101,0.1-0.101,0.1-0.101c0.1,0,0.1,0,0.1,0.101
			c0,0.1,0.101,0.1,0.101,0.2v78.1c0,0.1,0,0.1-0.101,0.2c0,0.1-0.1,0.1-0.1,0.1c-0.1,0-0.1,0-0.1-0.1
			c0-0.101-0.101-0.101-0.101-0.2V2.351z"/>
	</g>
</g>
</svg>
