<?xml version="1.0" encoding="utf-8"?>
<!-- Generator: Adobe Illustrator 16.0.0, SVG Export Plug-In . SVG Version: 6.00 Build 0)  -->
<!DOCTYPE svg PUBLIC "-//W3C//DTD SVG 1.1//EN" "http://www.w3.org/Graphics/SVG/1.1/DTD/svg11.dtd">
<svg version="1.1" id="Layer_1" xmlns="http://www.w3.org/2000/svg" xmlns:xlink="http://www.w3.org/1999/xlink" x="0px" y="0px"
	 width="120px" height="120px" viewBox="0 0 120 120" enable-background="new 0 0 120 120" xml:space="preserve">
<path fill="none" d="M60.2,11c-16.3,0-30-0.5-41.2-1.4C30.1,10.5,43.9,11,60.2,11z"/>
<path fill="none" d="M19.3,4c0.3,0,0.7-0.1,1.1-0.1C20,3.9,19.6,4,19.3,4C8.2,5.1,2.6,6.1,2.5,7C2.7,6.1,8.3,5.1,19.3,4z"/>
<path fill="none" d="M63.2,11c15-0.1,27.7-0.6,38.1-1.4c10-0.8,15.5-1.6,16.5-2.6l0,0c-1.2,1-6.7,1.7-16.399,2.5
	C90.9,10.4,78.2,10.9,63.2,11z"/>
<g opacity="0.902">
	<path fill="#FFFFFF" d="M118.8,6.4c-0.899-1.3-6.6-2.4-17.3-3.2C90.3,2.3,76.6,1.8,60.2,1.8C43.8,1.8,30,2.2,18.9,3.1
		C8.2,3.9,2.4,5,1.4,6.5L1.3,7c0,0.3,0,0.5,0.1,0.5c0.1,0.1,0.3,0.3,0.4,0.3c1.7,1.2,7.4,2.2,17,3c11.2,0.9,24.9,1.4,41.3,1.4
		s30.2-0.5,41.3-1.4c9.5-0.7,15.1-1.6,16.8-2.7c0.3-0.1,0.5-0.2,0.5-0.4l0.1-0.3L119,7L118.8,6.4z M117.8,7c-1,1-6.5,1.8-16.5,2.6
		C90.9,10.4,78.2,10.9,63.2,11c-1,0-2,0-3,0C43.9,11,30.1,10.5,19,9.6C8.1,8.8,2.6,7.9,2.5,7c0.1-0.9,5.7-1.9,16.7-3
		c0.4,0,0.8-0.1,1.2-0.1c11.3-1,24.4-1.6,39.4-1.6c15.601,0,29,0.5,40.3,1.5C110.9,4.8,116.9,5.9,117.9,6.9L117.8,7L117.8,7z"/>
</g>
<path opacity="0.15" fill="#DFC1BC" enable-background="new    " d="M118.2,8.2c-1.7,1.1-7.3,2-16.8,2.7
	c-11.2,0.9-24.9,1.4-41.3,1.4S30,11.8,18.8,10.9c-9.6-0.8-15.3-1.8-17-3C1.6,7.8,1.5,7.7,1.3,7.5v93.2c-0.2,2.899,0.5,5.5,2.1,7.8
	c1.4,2.2,5.4,4.3,11.8,6.1c30,6,59.899,6,89.5-0.1c5.2-1,8.8-2.8,10.8-5.3c2.1-2.5,3.2-5.4,3.3-8.7V7.4l-0.1,0.4
	C118.7,7.9,118.5,8.1,118.2,8.2z"/>
<path opacity="0.45" fill="#DFC1BC" enable-background="new    " d="M100.1,3.8C88.8,2.8,75.4,2.3,59.8,2.3c-15,0-28.2,0.6-39.4,1.6
	C20,3.9,19.6,4,19.3,4C8.3,5.1,2.7,6.1,2.5,7C2.6,7.9,8.1,8.8,19,9.6C30.2,10.5,43.9,11,60.2,11c1,0,2,0,3,0
	c15-0.1,27.7-0.6,38.2-1.5C111.1,8.7,116.6,7.9,117.8,7l0.101-0.1C116.9,5.9,110.9,4.8,100.1,3.8z"/>
</svg>
