<?xml version="1.0" encoding="utf-8"?>
<!-- Generator: Adobe Illustrator 16.0.0, SVG Export Plug-In . SVG Version: 6.00 Build 0)  -->
<!DOCTYPE svg PUBLIC "-//W3C//DTD SVG 1.1//EN" "http://www.w3.org/Graphics/SVG/1.1/DTD/svg11.dtd">
<svg version="1.1" id="Layer_1" xmlns="http://www.w3.org/2000/svg" xmlns:xlink="http://www.w3.org/1999/xlink" x="0px" y="0px"
	 width="39px" height="55px" viewBox="0 0 39 55" enable-background="new 0 0 39 55" xml:space="preserve">
<g>
	<polygon fill-rule="evenodd" clip-rule="evenodd" fill="#5E4C36" points="0.6,4.5 38,4.5 38.1,4.8 38.1,5 0.6,5 	"/>
	<path fill-rule="evenodd" clip-rule="evenodd" fill="#9D958A" d="M0.6,5h37.4v1.5h-5.8c0.4,0.4,0.7,0.9,0.9,1.4c0,0.1,0,0.2,0,0.2
		c0,0.1,0,0.1,0.1,0.2c0.1,0.5,0.1,1.1-0.1,1.7h-0.1c-0.1-0.6-0.3-1.2-0.5-1.7c0,0,0-0.1,0-0.2c0.1,0,0.1,0,0.1,0.1
		c0,0,0-0.1-0.1-0.1c-0.8-1.1-1.8-1.6-3-1.5H8.3C7.2,6.8,6.5,7.3,6,8h0c0,0.1,0,0.1,0,0.2C5.8,8.5,5.6,8.9,5.5,9.3
		c0,0.2,0,0.4,0,0.6c-0.1-0.6-0.1-1.2,0-1.7c0,0,0-0.1,0-0.2C5.6,7.2,6,6.6,6.5,6.3L0.6,6.4V5z"/>
	<path fill-rule="evenodd" clip-rule="evenodd" fill="#393631" d="M38.1,7.8l-4.8,0.1c-0.2-0.5-0.5-0.9-0.9-1.4h5.8V7.8z M5.5,8H0.6
		V6.4l5.9-0.1C6,6.6,5.6,7.2,5.5,8z"/>
	<polygon fill-rule="evenodd" clip-rule="evenodd" fill="#83704F" points="38,4.5 0.6,4.5 0.6,1.9 7.3,1.9 8,1 30,1 30.8,1.9 
		35.8,1.9 	"/>
	<path fill-rule="evenodd" clip-rule="evenodd" fill="#1C130C" d="M37,21H1.3h0c0,0-0.1,0-0.2,0h0c-0.2,0-0.3-0.1-0.4-0.2v-5.9h2.6
		v0.3c0.1,2.3,2,3.7,5.8,4.1l23.4,0.2c1.7-0.4,2.7-1.7,3.1-3.9c0-0.1,0-0.2,0-0.4l2.6,0.1V20c0,0.1,0,0.2,0,0.3
		c-0.1,0.3-0.3,0.5-0.6,0.6H37z"/>
	<path fill-rule="evenodd" clip-rule="evenodd" fill="#171006" d="M33.5,15.1h2c0,0.2,0,0.3,0,0.4C35,17.7,34,19,32.3,19.4L9,19.2
		c-3.8-0.4-5.7-1.7-5.8-4.1v-0.3L5.8,15c0,0,0,0.1,0.1,0.1c0.6,1.6,2.1,2.4,4.4,2.5c0.1,0,0.1,0,0.2,0h21.1
		C32.5,17.5,33.2,16.7,33.5,15.1z"/>
	<path fill-rule="evenodd" clip-rule="evenodd" fill="#2A2319" d="M3.2,14.9H0.6v-0.6h5.1l0,0.7L3.2,14.9z M33.5,15.1
		c-0.3,1.5-1,2.4-2,2.5H10.4c-0.1,0-0.1,0-0.2,0c-2.3-0.1-3.7-0.9-4.4-2.5c0-0.1,0-0.1,0-0.1L33.5,15.1c0-0.2,0-0.5,0-0.8h4.5v0.9
		l-2.6-0.1H33.5z"/>
	<polygon fill-rule="evenodd" clip-rule="evenodd" fill="#1D1610" points="1.3,21 37,21 37,26.8 24.5,26.8 24.5,24.5 23.7,24.5 
		14.9,24.5 13.6,24.5 12.3,24.5 12.3,26.6 1.3,26.6 1.3,21.1 	"/>
	<path fill-rule="evenodd" clip-rule="evenodd" fill="#17120C" d="M33.3,7.9l4.8-0.1v6.6h-4.5c0-1.1-0.1-2.5-0.3-4.1l0-0.3
		c0.2-0.6,0.2-1.2,0.1-1.7c-0.1,0-0.1-0.1-0.1-0.2C33.3,8,33.3,8,33.3,7.9z M0.6,8h4.8c0,0.1,0,0.1,0,0.2c-0.1,0.5-0.1,1.1,0,1.7
		c0-0.2,0-0.4,0-0.6l0.3,5H0.6V8z"/>
	<path fill-rule="evenodd" clip-rule="evenodd" fill="#1B1310" d="M6,8l26.7,0l0,0h0c0,0.1,0,0.1,0,0.2c0.2,0.5,0.3,1.1,0.5,1.7h0.1
		l0,0.3c0.2,1.6,0.3,3,0.3,4.1c0,0.3,0,0.6,0,0.8L5.9,15c0,0,0,0.1,0,0.1C5.8,15,5.8,15,5.8,15l0-0.7l-0.3-5C5.6,8.9,5.8,8.5,6,8.2
		L6,8z"/>
	<path fill-rule="evenodd" clip-rule="evenodd" fill="#7E7771" d="M32.8,8L32.8,8L32.8,8H6c0.4-0.7,1.2-1.3,2.2-1.5h21.5
		C31,6.4,32,6.9,32.8,8C32.8,8,32.8,8.1,32.8,8C32.8,8.1,32.8,8,32.8,8z"/>
	<polygon fill-rule="evenodd" clip-rule="evenodd" fill="#504941" points="23.7,25.4 14.9,25.4 14.9,24.5 23.7,24.5 	"/>
	<polygon fill-rule="evenodd" clip-rule="evenodd" fill="#211916" points="14.9,25.4 23.7,25.4 23.8,26.7 14.9,26.6 	"/>
	<polygon fill-rule="evenodd" clip-rule="evenodd" fill="#696258" points="14.9,26.6 23.8,26.7 23.8,28 14.9,28 	"/>
	<rect x="14.9" y="28" fill-rule="evenodd" clip-rule="evenodd" fill="#C9C0BB" width="8.9" height="0.9"/>
	<polygon fill-rule="evenodd" clip-rule="evenodd" fill="#433010" points="14.9,28 14.9,28.9 14.9,32 13.6,32 13.6,24.5 14.9,24.5 
		14.9,25.4 14.9,26.6 	"/>
	<linearGradient id="SVGID_1_" gradientUnits="userSpaceOnUse" x1="19.2461" y1="30.1426" x2="19.4953" y2="55.449">
		<stop  offset="0" style="stop-color:#201A14"/>
		<stop  offset="9.803922e-002" style="stop-color:#928C88"/>
		<stop  offset="0.1961" style="stop-color:#9F9995"/>
		<stop  offset="0.2588" style="stop-color:#F2EDEA"/>
		<stop  offset="0.2902" style="stop-color:#928A84"/>
		<stop  offset="0.5569" style="stop-color:#8F867E"/>
		<stop  offset="0.6157" style="stop-color:#7E705B"/>
		<stop  offset="0.7922" style="stop-color:#221D15"/>
		<stop  offset="0.8667" style="stop-color:#8F7D57"/>
		<stop  offset="0.9176" style="stop-color:#A89565"/>
		<stop  offset="1" style="stop-color:#B9A46F"/>
	</linearGradient>
	<path fill-rule="evenodd" clip-rule="evenodd" fill="url(#SVGID_1_)" d="M14.9,28.9h8.9l0,23.9c-3,1.9-6,1.8-8.9-0.2V32V28.9z"/>
</g>
</svg>
