<?xml version="1.0" encoding="utf-8"?>
<!-- Generator: Adobe Illustrator 16.0.0, SVG Export Plug-In . SVG Version: 6.00 Build 0)  -->
<!DOCTYPE svg PUBLIC "-//W3C//DTD SVG 1.1//EN" "http://www.w3.org/Graphics/SVG/1.1/DTD/svg11.dtd">
<svg version="1.1" id="Layer_1" xmlns="http://www.w3.org/2000/svg" xmlns:xlink="http://www.w3.org/1999/xlink" x="0px" y="0px"
	 width="133px" height="48px" viewBox="0 0 133 48" enable-background="new 0 0 133 48" xml:space="preserve">
<g>
	<path fill-rule="evenodd" clip-rule="evenodd" fill="#4A4A4A" d="M2.5,32.7l0.1-0.1v0.1H2.5z M1.3,31.3L1.3,31.3L1.3,31.3L1.3,31.3
		z"/>
	<path fill-rule="evenodd" clip-rule="evenodd" d="M1.3,31.3l1.4,1.3l-0.1,0.1v1.7h0c-0.4-0.4-0.8-0.9-1.1-1.3l-0.1-0.3
		C1.3,32.3,1.3,31.8,1.3,31.3L1.3,31.3z"/>
	<g>
		<linearGradient id="SVGID_1_" gradientUnits="userSpaceOnUse" x1="72.21" y1="44.1211" x2="95.0191" y2="-7.061">
			<stop  offset="0" style="stop-color:#292929"/>
			<stop  offset="0.1882" style="stop-color:#525252"/>
			<stop  offset="0.3137" style="stop-color:#FFFFFF"/>
			<stop  offset="0.4549" style="stop-color:#777777"/>
			<stop  offset="0.6118" style="stop-color:#AAAAAA"/>
			<stop  offset="1" style="stop-color:#262626"/>
		</linearGradient>
		<path fill-rule="evenodd" clip-rule="evenodd" fill="url(#SVGID_1_)" d="M95.6,1.5L95.6,1.5L95.6,1.5L95.6,1.5z M72.9,32.5
			l0.9,1.1l-0.9-1V32.5z"/>
		<path fill-rule="evenodd" clip-rule="evenodd" fill="#B7B7B7" d="M95.7,32.5H72.9c0-0.1-0.1-0.1-0.1-0.1v-0.2c0-2.6,0-4.8,0-6.7
			V9.6l22.8-8.1h0.1V32.5z"/>
		<polygon fill-rule="evenodd" clip-rule="evenodd" fill="#858585" points="70.8,9 93,1.1 95.6,1.5 72.8,9.6 		"/>
		<path fill-rule="evenodd" clip-rule="evenodd" fill="#565656" d="M72.8,9.6v15.9c0,1.9,0,4.1,0,6.7v0.2c0,0,0,0.1,0.1,0.1v0.1
			l-0.1-0.1v0.1c0,0.6,0.7,2,2,4.3c-0.1,0-0.1,0-0.1,0c-1.6-1.7-2.9-3-3.9-4v-7.5v-6.4V9L72.8,9.6z"/>
		<path fill-rule="evenodd" clip-rule="evenodd" fill="#D9D9D9" d="M75,34.8c0,0.1,0.1,0.2,0.1,0.2c0.1,0.1,0.3,0.2,0.5,0.4l0.1,0.1
			c0.1,0,0.2,0.1,0.3,0.2c0.5,0.3,1.1,0.6,1.8,0.8c0.7,0.2,1.5,0.5,2.5,0.8c0.4,0,0.7,0.1,1,0.1c1.2,0.3,2.4,0.5,3.7,0.6h1
			c0.2,0.1,0.5,0.1,0.8,0.1c0.7,0,2.1,0,4.2-0.1c1.9,0,3.5-0.1,4.7-0.4V38h4.2l0,0.5c-0.3,0.2-0.5,0.4-0.8,0.4
			c-0.8,0.3-1.7,0.5-2.7,0.6c-5.8,0.7-10.6,0.7-14.5,0c-0.4,0-0.7-0.1-1-0.2c-1.8-0.3-3.5-0.9-5-1.7c-0.1-0.1-0.3-0.1-0.3-0.2
			c-0.1-0.1-0.3-0.2-0.5-0.3c0,0,0,0,0,0v0v0V37l-0.1,0.2l0-0.2c-1.3-2.3-2-3.8-2-4.3h0.1l0.9,1L75,34.8h-0.1H75z"/>
		<path fill-rule="evenodd" clip-rule="evenodd" fill="#7F7F7F" d="M72.9,32.5h22.8v5c-1.2,0.2-2.8,0.3-4.7,0.4
			C88.9,38,87.5,38,86.8,38c-0.3,0-0.6,0-0.8-0.1h-1c-1.3-0.1-2.5-0.3-3.7-0.6c-0.3-0.1-0.7-0.1-1-0.1c-1-0.3-1.8-0.5-2.5-0.8
			c-0.7-0.2-1.3-0.5-1.8-0.8c-0.2-0.1-0.3-0.2-0.3-0.2l-0.1-0.1c-0.2-0.2-0.3-0.3-0.5-0.4c-0.1,0-0.1-0.1-0.1-0.2l0,0l-1.1-1
			L72.9,32.5z"/>
	</g>
	<g>
		<path fill-rule="evenodd" clip-rule="evenodd" fill="#CCCCCC" d="M16.6,19.2c-0.7-0.5-1.2-0.7-1.3-0.8l-0.6-0.3l-0.1,0h-0.2h0
			c-0.9-0.3-1.8-0.5-2.8-0.5c-2.1,0-3.9,0.7-5.4,2C4.7,21,4,22.7,4,24.5c0,0.1,0,1.9,0,5.3c0,1.3,0,2.8,0,4.6v0.1c0,0,0,0.1,0.1,0.1
			H4L4,34.7L5.4,36H5.3v1.7c-0.1,0-0.1,0-0.2,0l-2.5-3.2v-4.7v-6.1c0-1.9,0.8-3.5,2.3-4.8c0.9-0.8,2-1.4,3.1-1.7
			C8.7,17,9.5,17,10.4,17c0.4,0,0.7,0,1.1,0c0.6,0,1.2,0.1,1.8,0.3c0.4,0.1,0.7,0.2,1,0.4c0.7,0.3,1.2,0.6,1.6,0.9L16.6,19.2z"/>
		<path fill-rule="evenodd" clip-rule="evenodd" fill="#9C9C9C" d="M19.4,34.6H4C4,34.6,4,34.5,4,34.5v-0.1c0-1.7,0-3.3,0-4.6
			c0-3.4,0-5.2,0-5.3c0-1.8,0.8-3.5,2.3-4.9c1.5-1.3,3.3-2,5.4-2c1,0,1.9,0.2,2.8,0.5h0c0.1,0,0.2,0,0.3,0l0.6,0.3
			c0.1,0.1,0.6,0.3,1.3,0.8l0.2,0.1c0,0,0,0.1,0,0.1c0,0,0.1,0.1,0.1,0.1v0c0,0,0.1,0,0.1,0c0.4,0.4,0.9,0.9,1.3,1.5
			c0.7,1.1,1,2.2,1,3.5c0,0.1,0,0.3,0,0.4V34.6z"/>
		<polygon fill-rule="evenodd" clip-rule="evenodd" fill="#A8A8A8" points="4,34.6 19.4,34.6 19.4,34.7 21.1,36 5.5,36 5.4,36 
			4,34.7 		"/>
		<linearGradient id="SVGID_2_" gradientUnits="userSpaceOnUse" x1="1.7886" y1="32.3887" x2="15.3136" y2="45.9137">
			<stop  offset="0" style="stop-color:#292929"/>
			<stop  offset="0.1882" style="stop-color:#525252"/>
			<stop  offset="0.3137" style="stop-color:#FFFFFF"/>
			<stop  offset="0.4549" style="stop-color:#777777"/>
			<stop  offset="0.6118" style="stop-color:#AAAAAA"/>
			<stop  offset="1" style="stop-color:#262626"/>
		</linearGradient>
		<polygon fill-rule="evenodd" clip-rule="evenodd" fill="url(#SVGID_2_)" points="4,34.6 4,34.7 4,34.6 		"/>
		<linearGradient id="SVGID_3_" gradientUnits="userSpaceOnUse" x1="8.3677" y1="16.4746" x2="5.1876" y2="37.6526">
			<stop  offset="0" style="stop-color:#292929"/>
			<stop  offset="0.1882" style="stop-color:#525252"/>
			<stop  offset="0.3137" style="stop-color:#FFFFFF"/>
			<stop  offset="0.4549" style="stop-color:#777777"/>
			<stop  offset="0.6118" style="stop-color:#AAAAAA"/>
			<stop  offset="0.7255" style="stop-color:#848484"/>
			<stop  offset="0.8353" style="stop-color:#080808"/>
			<stop  offset="1" style="stop-color:#000000"/>
		</linearGradient>
		<path fill-rule="evenodd" clip-rule="evenodd" fill="url(#SVGID_3_)" d="M5.5,36L5.5,36c0,0,0,0-0.1,0H5.5z"/>
		<path fill-rule="evenodd" clip-rule="evenodd" fill="#636363" d="M5.5,36h15.6v1.7H5.3V36h0.1C5.4,36.1,5.5,36.1,5.5,36L5.5,36z"
			/>
	</g>
	<g>
		<path fill-rule="evenodd" clip-rule="evenodd" d="M131.2,44.8c-0.4,0.7-1,1.1-1.7,1.4c-0.8,0.2-1.5,0.1-2.2-0.3
			c-11.6-6.7-21.1-10.1-28.3-10.2c-6.2,1.8-12.8,1.5-19.8-0.9c-0.7-0.3-1.3-0.8-1.7-1.4c-0.4-0.7-0.4-1.4-0.1-2.1
			c0.2-0.7,0.7-1.3,1.4-1.6c0.7-0.4,1.4-0.4,2.1-0.2c5.9,2,11.4,2.2,16.5,0.8c0.4-0.2,0.8-0.3,1.3-0.3c8.1-0.1,18.5,3.5,31.4,10.9
			c0.7,0.4,1.1,1,1.4,1.8C131.6,43.4,131.5,44.2,131.2,44.8z"/>
	</g>
	<g>
		<g>
			<path fill-rule="evenodd" clip-rule="evenodd" fill="#8E8E8E" d="M91,30c0.9-1.1,2.2-1.7,4.1-1.8c0.3-0.1,0.7-0.1,1-0.2v3.7
				c0,0.6-0.8,1-2.3,1.4c-0.9,0.2-1.8,0.4-2.8,0.5V30z M79.8,27.8c1.2,0.3,2.8,1,4.7,2.1v3.6c-0.8-0.1-1.6-0.2-2.4-0.4
				c-1.6-0.4-2.3-0.8-2.3-1.4v-3.7C79.7,28,79.7,28,79.8,27.8L79.8,27.8z"/>
			<path fill-rule="evenodd" clip-rule="evenodd" fill="#DBDBDB" d="M91,33.7c-0.9,0.1-2,0.1-3,0.1c-1.3,0-2.4-0.1-3.5-0.2V30
				c1-0.2,2.1-0.3,3.3-0.3c1.2,0,2.3,0.1,3.3,0.3V33.7z"/>
			<path fill-rule="evenodd" clip-rule="evenodd" fill="#FFFFFF" d="M84.4,30c-1.9-1.1-3.4-1.8-4.7-2.1c0.2-0.4,0.9-0.8,2.3-1.2
				c0.8-0.2,2.2-0.4,4.3-0.5c2.1-0.2,4.6,0,7.5,0.5c1.5,0.4,2.3,0.8,2.3,1.4c-0.4,0-0.8,0.1-1,0.2c-1.9,0-3.2,0.6-4.1,1.8
				c-1-0.2-2.1-0.3-3.3-0.3C86.5,29.7,85.4,29.8,84.4,30z"/>
		</g>
	</g>
	<g>
		<radialGradient id="SVGID_4_" cx="83.9004" cy="13.3999" r="3.6625" gradientUnits="userSpaceOnUse">
			<stop  offset="0" style="stop-color:#FFFFFF"/>
			<stop  offset="0.4549" style="stop-color:#888888"/>
			<stop  offset="1" style="stop-color:#343434"/>
		</radialGradient>
		<path fill-rule="evenodd" clip-rule="evenodd" fill="url(#SVGID_4_)" d="M86.1,11.3c0.1,0.1,0.2,0.1,0.4,0.2
			c0.3,0.2,0.5,0.4,0.8,0.7c0.8,0.8,1.2,1.7,1.2,2.7s-0.4,1.9-1.2,2.7c-0.7,0.8-1.6,1.2-2.7,1.2c-1.1,0-2-0.4-2.8-1.2
			c-0.7-0.8-1.1-1.7-1.1-2.8c0-1,0.4-1.8,1.1-2.6c0.8-0.7,1.7-1.1,2.8-1.1C85.1,11,85.6,11.1,86.1,11.3z"/>
	</g>
	<g>
		<radialGradient id="SVGID_5_" cx="10.75" cy="24.75" r="2.425" gradientUnits="userSpaceOnUse">
			<stop  offset="0" style="stop-color:#FFFFFF"/>
			<stop  offset="0.4549" style="stop-color:#888888"/>
			<stop  offset="1" style="stop-color:#343434"/>
		</radialGradient>
		<path fill-rule="evenodd" clip-rule="evenodd" fill="url(#SVGID_5_)" d="M11.3,23.2c0.7,0,1.3,0.2,1.8,0.7
			c0.5,0.5,0.8,1.1,0.8,1.9c0,0.7-0.3,1.3-0.8,1.8c-0.5,0.5-1,0.8-1.8,0.8c-0.7,0-1.3-0.3-1.8-0.8C9,27,8.7,26.4,8.7,25.8
			c0-0.7,0.3-1.3,0.8-1.9C9.9,23.4,10.5,23.2,11.3,23.2z"/>
	</g>
</g>
</svg>
