<?xml version="1.0" encoding="utf-8"?>
<!-- Generator: Adobe Illustrator 16.0.0, SVG Export Plug-In . SVG Version: 6.00 Build 0)  -->
<!DOCTYPE svg PUBLIC "-//W3C//DTD SVG 1.1//EN" "http://www.w3.org/Graphics/SVG/1.1/DTD/svg11.dtd">
<svg version="1.1" id="Layer_1" xmlns="http://www.w3.org/2000/svg" xmlns:xlink="http://www.w3.org/1999/xlink" x="0px" y="0px"
	 width="102px" height="91px" viewBox="0 0 102 91" enable-background="new 0 0 102 91" xml:space="preserve">
<g>
	<path fill-rule="evenodd" clip-rule="evenodd" fill="#4A4A4A" d="M5.2,88L5.2,88l-0.1,0L5.2,88z M3.8,86.7L3.8,86.7L3.8,86.7
		L3.8,86.7z"/>
	<g>
		<g>
			
				<linearGradient id="SVGID_1_" gradientUnits="userSpaceOnUse" x1="530.1709" y1="386.332" x2="623.9078" y2="408.632" gradientTransform="matrix(0.9999 1.351929e-002 -1.351929e-002 0.9999 -529.4498 -336.5992)">
				<stop  offset="1.568628e-002" style="stop-color:#6F6F6F"/>
				<stop  offset="0.549" style="stop-color:#A6A6A6"/>
				<stop  offset="1" style="stop-color:#C8C8C8"/>
			</linearGradient>
			<path fill-rule="evenodd" clip-rule="evenodd" fill="url(#SVGID_1_)" d="M100.2,72L4,73.1l-2.6-3.9l0-0.3l95.1-0.8l0.5,0.7
				L71.3,69c0,0-0.2,0.2-0.5,0.6c-0.3,0.3,0.2,1,1.4,2.1l24.7-0.4l2.6,0L100.2,72z"/>
			<path fill-rule="evenodd" clip-rule="evenodd" fill="#515151" d="M96.8,71.2l-24.7,0.4c-1.2-1.1-1.6-1.8-1.4-2.1
				c0.3-0.4,0.5-0.6,0.5-0.6L97,68.9L96.8,71.2z"/>
			<polygon fill-rule="evenodd" clip-rule="evenodd" fill="#666666" points="4,73.1 100.2,72 99.6,87.3 3.6,88.9 			"/>
			<polygon fill-rule="evenodd" clip-rule="evenodd" fill="#484848" points="4,73.1 3.6,88.9 1.4,85.2 1.3,69.3 			"/>
		</g>
		<g>
			<g>
				<path fill-rule="evenodd" clip-rule="evenodd" d="M4.7,71.9l-1.2-1.4l20.1-0.1c0.5,0.4,1,0.8,1.5,1.3L4.7,71.9z"/>
			</g>
			<g>
				
					<radialGradient id="SVGID_2_" cx="-671.1162" cy="184.8672" r="10.6952" fx="-670.2354" fy="184.8672" gradientTransform="matrix(-0.6549 -0.7558 8.226 -7.9281 -1916.88 1000.5869)" gradientUnits="userSpaceOnUse">
					<stop  offset="0" style="stop-color:#9D9D9D"/>
					<stop  offset="0.2745" style="stop-color:#484848"/>
					<stop  offset="1" style="stop-color:#000000"/>
				</radialGradient>
				<path fill-rule="evenodd" clip-rule="evenodd" fill="url(#SVGID_2_)" d="M31.2,64.3C31.2,64.3,31.2,64.3,31.2,64.3l-8.3,7
					L4.7,71.5L70.5,3.7c0.5-0.7,1-1.2,1.5-1.5c0-0.1,0.1-0.1,0.3,0c0.6-0.4,1.1-0.6,1.7-0.7c0.2,0,0.4,0,0.5,0.1
					c0.6,0.1,1.4,0.3,2.3,0.5c3.3,0.7,5.9,2.4,7.9,5.1c0.3,0.3,0.5,0.6,0.8,1c1.4,2.2,2.1,4.5,2.2,7.1c0.1,1.4-0.1,2.6-0.6,3.6
					c0,0.1-0.1,0.1-0.1,0.2c-0.3,0.6-0.7,1.1-1.2,1.6c-0.3,0.3-0.6,0.5-0.8,0.8l-0.3,0.2v0L31.2,64.3z"/>
			</g>
			<g>
				
					<radialGradient id="SVGID_3_" cx="711.9355" cy="-137.4224" r="9.8023" gradientTransform="matrix(0.6981 0.716 -0.1738 0.3114 -483.4583 -418.9862)" gradientUnits="userSpaceOnUse">
					<stop  offset="0" style="stop-color:#BBBBBB"/>
					<stop  offset="0.3373" style="stop-color:#616161"/>
					<stop  offset="1" style="stop-color:#000000"/>
				</radialGradient>
				<path fill-rule="evenodd" clip-rule="evenodd" fill="url(#SVGID_3_)" d="M31,41.4c0.8-1.1,1.7-1.4,2.7-1.2l0.9,0.4
					c1.5,2.9,3.3,5.3,5.5,7.2c2.2,1.9,4.3,3.4,6.1,4.5c0.3,0.4,0.3,0.8,0.1,1.4c-0.3,0.7-0.6,1.2-1.1,1.6c-0.6,0.5-1.3,0.7-2.3,0.8
					c-1.1,0-2.9-1.1-5.6-3.3c-2.6-2.1-4.5-4.3-5.7-6.6C30.4,44.1,30.2,42.4,31,41.4z"/>
			</g>
		</g>
	</g>
</g>
</svg>
