<?xml version="1.0" encoding="utf-8"?>
<!-- Generator: Adobe Illustrator 16.0.0, SVG Export Plug-In . SVG Version: 6.00 Build 0)  -->
<!DOCTYPE svg PUBLIC "-//W3C//DTD SVG 1.1//EN" "http://www.w3.org/Graphics/SVG/1.1/DTD/svg11.dtd">
<svg version="1.1" id="Layer_1" xmlns="http://www.w3.org/2000/svg" xmlns:xlink="http://www.w3.org/1999/xlink" x="0px" y="0px"
	 width="700px" height="700px" viewBox="0 0 700 700" enable-background="new 0 0 700 700" xml:space="preserve">
<g>
	<g>
		<path fill-rule="evenodd" clip-rule="evenodd" d="M402.1,577.8c0.4-0.5,1-0.7,1.7-0.8c8.1-0.3,14.3-0.1,18.8,0.6
			c5.7,0.7,10.1,5.5,13.4,14.5c2.6,7.5,6,13.2,10,17.3c3.8,3.8,8.5,6.1,14.1,6.9c5.4,0.7,10-0.8,13.9-4.6c3.1-3.3,4.4-8.3,4-15.2
			c0-0.7,0.2-1.3,0.6-1.8c0.4-0.5,1-0.8,1.7-0.9c0.7,0,1.3,0.2,1.8,0.6c0.5,0.5,0.8,1,0.8,1.7c0.5,8.6-1.3,14.9-5.3,18.9v0
			c-4.9,4.9-10.9,6.9-17.9,6c-6.8-0.9-12.4-3.6-17-8.3v0c-4.5-4.5-8.2-10.8-11.1-19c-2.5-6.8-5.7-10.5-9.6-11.3
			c-4.3-0.7-10.2-0.9-17.8-0.5c-0.7,0-1.3-0.2-1.8-0.6c-0.5-0.5-0.8-1.1-0.8-1.7C401.4,578.9,401.6,578.3,402.1,577.8z M170.3,524.3
			c2.5-3.6,6.2-4.3,11.1-2c8.1,3.4,18,14.7,29.5,33.8h-0.1c7,11.5,16.5,19,28.5,22.6c10.5,3.1,25.4,3.7,44.8,1.9
			c0.7-0.1,1.3,0.1,1.8,0.5c0.5,0.4,0.8,1,0.9,1.7c0.1,0.7-0.1,1.3-0.6,1.8c-0.4,0.5-1,0.8-1.6,0.8c-20.1,1.9-35.7,1.2-46.6-2
			c-13.2-3.9-23.6-12.2-31.3-24.8c-10.8-17.9-19.9-28.5-27.3-31.9c-2.3-1-4-0.8-5.2,0.6c-1.4,2-1.9,6.1-1.6,12.3v0.4
			c-0.6,0.3-1.5,0.4-2.5,0.4c-0.9,0-1.7-0.2-2.3-0.4l0-0.2C167.4,531.9,168.3,526.8,170.3,524.3z M300.5,177
			c3.9-0.3,7.5,1.6,10.7,5.6h0.1c3,3.7,5.2,9.1,6.5,16.3c1.2,6,1.9,13.9,2.1,23.6c0.1,0.7,0.1,1.4,0.1,2.1c0,0.6-0.2,1.2-0.7,1.7
			c-0.5,0.5-1,0.7-1.7,0.7c-0.7,0-1.2-0.2-1.7-0.7c-0.5-0.5-0.8-1.1-0.8-1.7c0-0.7,0-1.5,0-2.2c-0.2-9-0.9-16.2-1.9-21.6
			c-1.2-6.7-3.2-11.7-5.8-15.1c-2.1-2.5-4.3-3.8-6.8-3.8c-2.7,0.2-5.4,1.8-8.1,4.8c-6.4,7.1-11.5,19-15.3,35.8
			c-0.4,1.7-0.8,3.4-1.1,5.2c-4.5,22.1-6.2,48.1-5.3,78c0,1.4,0.1,2.8,0.1,4.2c0.1,0.2,0.1,0.5,0.1,0.8c0,3.5,0,6.9-0.1,10.1v0
			c-1.3,36-14.7,63.5-40.2,82.4c-4.7,3.5-10,6.9-15.8,10l12.8,29.3c0,0.1,0,0.1,0,0.2c9.8,19.5,20.7,31.5,32.8,36
			c11.8,4.1,22.3-0.4,31.4-13.5c7.3-10.5,14.4-15.6,21.2-15.4c3.5,0,6.3,1.5,8.3,4.5c1.7,2.4,2.5,6.3,2.4,11.9v0
			c-1.6,0.8-3.3,0.8-4.9,0V466c0.2-4.4-0.3-7.4-1.5-9c-1-1.6-2.5-2.3-4.3-2.3c-5.4,0.2-11.1,4.6-17.2,13.3
			c-10.7,15.4-23,20.5-37.1,15.3c-13.2-4.6-25-17.5-35.5-38.5c-0.1,0-0.1-0.1-0.1-0.1l-12.8-29.3c-23.6,11.8-55.7,20.8-96.4,27.1
			c-17.7,2.8-30.8,7.1-39.1,12.9c-6.3,4.5-13.1,12.7-20.5,24.7c-8.5,16.4-14.5,31.1-18,43.9c-3.7,13.5-3.9,22.9-0.7,28.1
			c1.2,1.4,3,1.5,5.5,0.2c4.3-2.3,9.5-7.3,15.8-15.2l0,0c3.3-4.7,6-8.4,7.9-11c3.8-5.1,6.9-8.5,9.3-10.2c2.3-1.7,4.3-2.3,6.1-1.8
			c1.5,0.2,2.8,1,3.9,2.6c0.3,0.5,0.6,1,0.9,1.6c1.7,3.5,2.4,10.5,2.3,21.2c-1.7,0.5-3.3,0.5-4.9,0c0.1-9.7-0.5-16.1-1.8-19.1
			c-0.4-0.8-0.9-1.3-1.3-1.5c-0.6,0-1.4,0.3-2.3,1v0c-0.6,0.5-1.3,1-2,1.7c-1.8,1.7-3.9,4.2-6.3,7.4c-2,2.6-4.6,6.2-7.9,10.9
			c-0.1,0-0.1,0-0.1,0c-6.8,8.7-12.6,14.2-17.3,16.6c-5.4,2.7-9.3,2.1-11.8-1.9c-4.2-5.9-4.2-16.6,0.1-32
			c3.5-13.1,9.6-28.1,18.4-44.9c0-0.1,0-0.1,0-0.2c7.9-12.8,15.2-21.6,22-26.3v0c8.7-6.2,22.4-10.8,41.1-13.8
			c52.8-8.2,90.9-21,114.3-38.4c24.3-18.2,37.1-44.4,38.3-78.7c0.1-3.2,0.2-6.5,0.2-9.8c-0.1-0.2-0.2-0.5-0.2-0.7
			c0-1.5-0.1-3-0.1-4.5c-0.9-30.2,0.9-56.6,5.4-79c0.3-1.4,0.6-2.8,0.9-4.2c4.1-18.4,9.7-31.4,16.7-39.1
			C292.8,179.2,296.6,177,300.5,177L300.5,177z M386.5,184L386.5,184c10.3-0.7,19,1.8,26.3,7.5c8.2,6.3,12.6,15.4,13.3,27.5
			c0.1,1.2,0.1,2.3,0.2,3.4c1.9,33.3,5,61,9.5,83.2c3.3,16.6,7.3,30.1,12,40.6c11.2,24.5,27.4,33.4,48.6,26.7
			c38.6-11.9,66.8-16,84.6-12.2c19,3.9,26.9,16.2,23.6,36.8c-0.1,0.7-0.5,1.2-1,1.6c-0.6,0.4-1.2,0.5-1.8,0.4
			c-0.7-0.1-1.2-0.4-1.6-1c-0.4-0.6-0.5-1.2-0.4-1.8c2.7-17.5-3.9-27.9-19.8-31.3c-17.3-3.6-44.7,0.5-82.2,12
			c-23.9,7.8-42-2-54.5-29.3c-5-10.9-9.2-25.1-12.6-42.6c-4.4-22.3-7.5-50.1-9.4-83.2c-0.1-1-0.1-2.1-0.2-3.2
			c-0.6-10.4-4.4-18.4-11.4-24c-6.3-4.9-14-7-23-6.4c-8.9,0.6-16.4,3.8-22.6,9.4c-6.7,6-9.9,13.7-9.8,22.9c0,0.5-0.1,0.9-0.4,1.3
			c-0.1,0.1-0.2,0.3-0.3,0.4c-0.5,0.5-1,0.7-1.7,0.7c-0.7,0-1.3-0.2-1.8-0.6c-0.1-0.2-0.2-0.3-0.3-0.5c-0.3-0.4-0.5-0.8-0.5-1.3
			c-0.1-10.7,3.7-19.6,11.5-26.5C368,188.2,376.5,184.7,386.5,184z M679.5,442.2c-1.8-3.4-8.2-8.1-19.2-14.2
			c-4.8-2.6-8.9-4.7-12.1-6.1v-5.2c5.1,1.4,11.2,4.2,18.3,8.2c10.2,5.9,16.3,11,18.1,15.3c1.8,4.3,2.3,8.4,1.4,12
			c-0.3,5.6-6.4,9.1-18.2,10.5c-10.3,1.2-25.5,0.7-45.6-1.4c-19.1-2-31.8-1.4-37.9,1.9c-1.4,0.8-1.9,1.6-1.7,2.6
			c0.9,1.8,3.2,3.6,6.8,5.5c7.5,1,15.2,2.3,23,4.2c26,6.1,44.9,12.5,56.6,19.3c12.4,7.1,19.1,13.5,20,19.3
			c1.1,6.5-0.9,10.7-5.9,12.7h0c-2.1,0.9-5.3,1.3-9.8,1.5c-0.7,0-1.2-0.2-1.7-0.7c-0.5-0.4-0.8-1-0.8-1.7c0-0.7,0.2-1.2,0.7-1.7
			c0.5-0.5,1-0.8,1.7-0.8c3.6-0.1,6.3-0.5,8.1-1.1c2.6-1.3,3.6-3.7,2.9-7.4c-1.1-4.5-6.9-9.8-17.5-15.9
			c-11.5-6.6-29.9-12.9-55.3-18.8c-7.8-1.8-15.4-3.2-22.8-4.2c-0.2,0-0.3,0-0.5,0c-18.5-2.4-35.6-2.1-51.3,0.8h-0.1
			c-6,1-14.2,2.8-24.7,5.5c-9.8,2.4-16.9,3.9-21.3,4.6h0c-14.9,2.3-27.5,0.2-37.8-6.3c-0.1,0-0.1-0.1-0.1-0.1
			c-21.1-15.5-36.6-24.3-46.4-26.5c-4-0.8-6.9-0.4-8.8,1.2c-1.7,1.9-2.3,5.6-2,11v0.2c-0.4,0.4-1.1,0.5-2.3,0.5
			c-1.1,0-2-0.2-2.6-0.5c-0.2-2.9,0-5.9,0.7-9c0.5-2.4,1.4-4.2,2.8-5.5c2.8-3,7.2-3.8,13.3-2.6c10.2,2.2,26.3,11.3,48.1,27.4
			l-0.1-0.1c9.3,5.9,20.8,7.8,34.3,5.7c4.3-0.7,11.3-2.2,20.9-4.6c10.6-2.6,18.9-4.4,25-5.5c13.6-2.5,28.2-3.1,43.9-1.8
			c-0.7-0.8-1.2-1.7-1.5-2.5c-1.7-3.5-0.4-6.5,3.8-8.8c6.6-3.9,20.2-4.8,40.8-2.5c19.7,2.1,34.6,2.5,44.7,1.5
			c8.6-1,13.2-3.1,13.8-6.3c0-0.1,0-0.2,0.1-0.3C681.8,448.6,681.3,445.5,679.5,442.2z"/>
	</g>
	<g>
		<g>
			<radialGradient id="SVGID_1_" cx="390.7998" cy="195.1001" r="34.25" gradientUnits="userSpaceOnUse">
				<stop  offset="0" style="stop-color:#FFFFFF"/>
				<stop  offset="1" style="stop-color:#FFFFFF;stop-opacity:0"/>
			</radialGradient>
			<path fill-rule="evenodd" clip-rule="evenodd" fill="url(#SVGID_1_)" d="M372.8,188.4c6.9-3,13.9-4.1,21-3.4
				c7.5,0.7,13.8,3.4,19,7.9c5.8,5,9.5,11.7,11.2,20.1c0,0.2,0,0.5-0.1,0.8c-0.2,0.1-0.4,0.3-0.6,0.4c-0.2,0-0.5,0-0.6-0.1
				c-0.2-0.1-0.3-0.3-0.4-0.6c-1.6-8-5.1-14.4-10.6-19.1c-5-4.3-11-6.8-18.1-7.5c-6.9-0.6-13.6,0.5-20.1,3.3
				c-6.8,3-12.3,7.4-16.3,13.3c-0.2,0.2-0.4,0.3-0.6,0.4c-0.3,0-0.5,0-0.6-0.1c-0.3-0.2-0.4-0.4-0.5-0.6c0-0.3,0-0.5,0.2-0.7
				C360,196.2,365.7,191.5,372.8,188.4z"/>
			<radialGradient id="SVGID_2_" cx="449.7764" cy="313.3999" r="68.7586" gradientUnits="userSpaceOnUse">
				<stop  offset="0" style="stop-color:#FFFFFF"/>
				<stop  offset="1" style="stop-color:#FFFFFF;stop-opacity:0"/>
			</radialGradient>
			<path fill-rule="evenodd" clip-rule="evenodd" fill="url(#SVGID_2_)" d="M425.1,248.3c0.3,0,0.5,0.1,0.7,0.3
				c0.2,0.1,0.3,0.3,0.3,0.6c6.2,76.4,22.4,118.7,48.6,126.8c0.2,0,0.3,0.2,0.5,0.4c0.1,0.3,0.2,0.5,0.1,0.8
				c-0.1,0.2-0.3,0.4-0.5,0.5c-0.2,0.1-0.5,0.1-0.6,0.1c-26.9-8-43.6-50.8-49.9-128.4c0-0.2,0-0.4,0.3-0.6
				C424.7,248.5,424.9,248.3,425.1,248.3z"/>
			<radialGradient id="SVGID_3_" cx="559.6504" cy="379.9004" r="45.975" gradientUnits="userSpaceOnUse">
				<stop  offset="0" style="stop-color:#FFFFFF"/>
				<stop  offset="1" style="stop-color:#FFFFFF;stop-opacity:0"/>
			</radialGradient>
			<path fill-rule="evenodd" clip-rule="evenodd" fill="url(#SVGID_3_)" d="M514,370c-0.1-0.3,0-0.5,0.1-0.7
				c0.1-0.2,0.3-0.4,0.5-0.4c29.7-7.9,52.4-10,68-6.2c15.8,3.8,22.8,12.9,21,27.5c0,0.2-0.1,0.4-0.3,0.6s-0.4,0.2-0.7,0.2
				c-0.3,0-0.5-0.2-0.6-0.4c-0.1-0.2-0.2-0.4-0.2-0.7c1.6-13.5-4.9-22-19.6-25.5c-15.4-3.7-37.8-1.6-67.2,6.2c-0.2,0-0.5,0-0.6-0.1
				C514.2,370.4,514,370.2,514,370z"/>
			<radialGradient id="SVGID_4_" cx="276.4502" cy="252.8501" r="55.325" gradientUnits="userSpaceOnUse">
				<stop  offset="0" style="stop-color:#FFFFFF"/>
				<stop  offset="1" style="stop-color:#FFFFFF;stop-opacity:0"/>
			</radialGradient>
			<path fill-rule="evenodd" clip-rule="evenodd" fill="url(#SVGID_4_)" d="M282.4,197.2c0.1-0.2,0.2-0.4,0.5-0.5
				c0.2-0.1,0.5-0.1,0.7,0c0.2,0.1,0.4,0.2,0.4,0.5c0.1,0.3,0.1,0.5,0,0.8c-5.9,12.6-10,27.8-12.3,45.8c-2.2,17.2-3,38.5-2.4,63.9
				c0,0.3-0.1,0.5-0.3,0.7c-0.2,0.2-0.4,0.3-0.6,0.3c-0.3,0-0.5-0.1-0.7-0.3c-0.2-0.2-0.3-0.4-0.3-0.6c-0.6-25.5,0.2-46.9,2.4-64.2
				C272.2,225.3,276.4,209.9,282.4,197.2z"/>
			<radialGradient id="SVGID_5_" cx="309.2002" cy="196.25" r="22.65" gradientUnits="userSpaceOnUse">
				<stop  offset="0" style="stop-color:#FFFFFF"/>
				<stop  offset="1" style="stop-color:#FFFFFF;stop-opacity:0"/>
			</radialGradient>
			<path fill-rule="evenodd" clip-rule="evenodd" fill="url(#SVGID_5_)" d="M310.9,188.4c-3.5-7.1-8.3-9.6-14.3-7.5
				c-0.2,0.1-0.4,0.1-0.6,0c-0.2-0.1-0.4-0.3-0.5-0.5c-0.1-0.3,0-0.5,0.1-0.7c0.1-0.2,0.2-0.4,0.4-0.5c7-2.5,12.5,0.3,16.5,8.5
				c3.6,7.2,5.6,18,6,32.4c0,0.2-0.1,0.4-0.3,0.6c-0.2,0.2-0.4,0.3-0.6,0.3c-0.3,0-0.5-0.1-0.7-0.3c-0.2-0.2-0.3-0.4-0.3-0.6
				C316.3,206,314.3,195.4,310.9,188.4z"/>
			<radialGradient id="SVGID_6_" cx="191.5957" cy="385.0537" r="92.6762" gradientUnits="userSpaceOnUse">
				<stop  offset="0" style="stop-color:#FFFFFF"/>
				<stop  offset="1" style="stop-color:#FFFFFF;stop-opacity:0"/>
			</radialGradient>
			<path fill-rule="evenodd" clip-rule="evenodd" fill="url(#SVGID_6_)" d="M266.9,329.9c0.2,0,0.4,0.1,0.6,0.3
				c0.2,0.2,0.3,0.4,0.3,0.7c-1.4,30.1-13.8,53.6-37.2,70.8c-23.7,17.4-61.7,30.3-113.9,38.5c-0.3,0-0.5,0-0.8-0.2
				c-0.2-0.1-0.3-0.3-0.4-0.5c0-0.3,0-0.5,0.2-0.7c0.2-0.2,0.4-0.3,0.6-0.3c51.9-8.2,89.6-21,113.2-38.2
				c22.9-16.8,35-39.9,36.4-69.4c0-0.3,0.1-0.5,0.3-0.6C266.4,330,266.6,329.9,266.9,329.9z"/>
			<radialGradient id="SVGID_7_" cx="253.4053" cy="450.6504" r="43.517" gradientUnits="userSpaceOnUse">
				<stop  offset="0" style="stop-color:#FFFFFF"/>
				<stop  offset="1" style="stop-color:#FFFFFF;stop-opacity:0"/>
			</radialGradient>
			<path fill-rule="evenodd" clip-rule="evenodd" fill="url(#SVGID_7_)" d="M289.9,472c0.2,0.2,0.3,0.4,0.3,0.7
				c0,0.2-0.1,0.5-0.3,0.6c-11.5,12-24.2,13.5-38,4.4c-13.5-8.9-25.2-26.1-35.1-51.4c-0.1-0.2,0-0.5,0-0.7c0.1-0.3,0.3-0.4,0.5-0.5
				c0.2-0.1,0.4-0.1,0.7,0c0.3,0.1,0.4,0.2,0.5,0.5c9.7,24.9,21.2,41.7,34.4,50.5c13,8.6,24.9,7.2,35.6-4.1c0.2-0.2,0.4-0.3,0.7-0.3
				C289.4,471.8,289.6,471.9,289.9,472z"/>
			<radialGradient id="SVGID_8_" cx="184.2002" cy="533.9004" r="15.7875" gradientUnits="userSpaceOnUse">
				<stop  offset="0" style="stop-color:#FFFFFF"/>
				<stop  offset="1" style="stop-color:#FFFFFF;stop-opacity:0"/>
			</radialGradient>
			<path fill-rule="evenodd" clip-rule="evenodd" fill="url(#SVGID_8_)" d="M180.6,525.3L180.6,525.3c-3.5-1.8-6.5-1.1-9.1,2
				c-0.2,0.2-0.4,0.3-0.6,0.3c-0.3,0-0.5,0-0.6-0.2c-0.2-0.1-0.4-0.3-0.4-0.6s0-0.5,0.3-0.6c3.2-3.9,6.9-4.8,11.4-2.5
				c4.4,2.2,10.2,8,17.3,17.4c0.2,0.2,0.2,0.4,0.2,0.7s-0.1,0.4-0.4,0.6c-0.2,0.2-0.4,0.2-0.7,0.2c-0.2-0.1-0.4-0.2-0.6-0.4
				C190.4,533,184.9,527.4,180.6,525.3z"/>
			<radialGradient id="SVGID_9_" cx="239.9873" cy="570.3496" r="34.5736" gradientUnits="userSpaceOnUse">
				<stop  offset="0" style="stop-color:#FFFFFF"/>
				<stop  offset="1" style="stop-color:#FFFFFF;stop-opacity:0"/>
			</radialGradient>
			<path fill-rule="evenodd" clip-rule="evenodd" fill="url(#SVGID_9_)" d="M207.6,556.8c-0.1-0.2-0.2-0.5-0.1-0.7
				c0.1-0.3,0.3-0.4,0.5-0.5c0.2-0.1,0.4-0.2,0.6-0.1c0.3,0.1,0.5,0.2,0.6,0.5c9.9,20.4,30.7,29.5,62.3,27.2c0.2,0,0.5,0,0.7,0.3
				c0.2,0.1,0.3,0.3,0.3,0.6c0,0.2,0,0.4-0.2,0.6c-0.2,0.2-0.4,0.3-0.6,0.3C239,587.5,217.7,578,207.6,556.8z"/>
			<radialGradient id="SVGID_10_" cx="63.4229" cy="487.2021" r="51.7855" gradientUnits="userSpaceOnUse">
				<stop  offset="0" style="stop-color:#FFFFFF"/>
				<stop  offset="1" style="stop-color:#FFFFFF;stop-opacity:0"/>
			</radialGradient>
			<path fill-rule="evenodd" clip-rule="evenodd" fill="url(#SVGID_10_)" d="M94.1,444.7c0,0.2,0,0.4-0.1,0.6
				c-0.2,0.2-0.4,0.3-0.6,0.4c-25.8,4.7-45.5,32.7-58.9,84.1c-0.1,0.2-0.3,0.4-0.5,0.6c-0.2,0.1-0.5,0.1-0.7,0.1
				c-0.3-0.1-0.5-0.2-0.6-0.4c-0.1-0.3-0.1-0.5,0-0.8c13.7-52.3,33.8-80.8,60.4-85.4c0.2,0,0.4,0,0.6,0.2
				C94,444.2,94.1,444.4,94.1,444.7z"/>
			<radialGradient id="SVGID_11_" cx="80.3999" cy="527.8496" r="12.2625" gradientUnits="userSpaceOnUse">
				<stop  offset="0" style="stop-color:#FFFFFF"/>
				<stop  offset="1" style="stop-color:#FFFFFF;stop-opacity:0"/>
			</radialGradient>
			<path fill-rule="evenodd" clip-rule="evenodd" fill="url(#SVGID_11_)" d="M80,516.8c-1-0.4-2.3-0.3-3.6,0.4
				c-0.2,0.1-0.5,0.1-0.8,0c-0.2-0.1-0.4-0.2-0.4-0.4c-0.1-0.2-0.2-0.5-0.1-0.8c0.1-0.2,0.3-0.4,0.5-0.4c2-1,3.7-1.2,5.1-0.5
				c1.4,0.6,2.6,2,3.4,4.2c1.5,3.8,2,10.5,1.6,19.9c0,0.2-0.1,0.4-0.3,0.6c-0.2,0.2-0.4,0.3-0.7,0.3c-0.2,0-0.4-0.1-0.6-0.3
				c-0.2-0.2-0.3-0.4-0.3-0.6c0.5-9.1,0-15.5-1.4-19.2C81.8,518.3,81,517.3,80,516.8z"/>
			<radialGradient id="SVGID_12_" cx="641.7998" cy="453" r="41.7875" gradientUnits="userSpaceOnUse">
				<stop  offset="0" style="stop-color:#FFFFFF"/>
				<stop  offset="1" style="stop-color:#FFFFFF;stop-opacity:0"/>
			</radialGradient>
			<path fill-rule="evenodd" clip-rule="evenodd" fill="url(#SVGID_12_)" d="M683,450.6c0-0.1,0-0.2,0-0.3c-0.1-0.8-0.3-1.6-0.7-2.4
				c-0.1-0.2-0.1-0.5,0-0.7c0.1-0.2,0.3-0.4,0.5-0.5c0.1,0,0.1,0,0.2,0c0.2,0,0.3,0,0.5,0c0.2,0.1,0.4,0.3,0.5,0.5
				c0.4,1,0.7,1.9,0.8,2.9v0.1c0,0,0,0.1,0,0.1c0,0,0,0,0,0c0,0.1,0,0.1,0,0.2v0.1c0.3,5.7-5.2,9.2-16.7,10.5
				c-12.8,1.5-35.4,0.4-67.8-3.2c-0.3,0-0.5-0.1-0.6-0.3c-0.2-0.2-0.3-0.4-0.3-0.7c0-0.3,0.2-0.5,0.3-0.6c0.2-0.2,0.4-0.3,0.7-0.3
				c32.2,3.6,54.7,4.6,67.5,3.2c8.8-1,13.7-3.3,14.8-7c0.2-0.6,0.3-1.1,0.3-1.7C683,450.7,683,450.6,683,450.6z"/>
			<radialGradient id="SVGID_13_" cx="602.7988" cy="493.4502" r="82.5384" gradientUnits="userSpaceOnUse">
				<stop  offset="0" style="stop-color:#FFFFFF"/>
				<stop  offset="1" style="stop-color:#FFFFFF;stop-opacity:0"/>
			</radialGradient>
			<path fill-rule="evenodd" clip-rule="evenodd" fill="url(#SVGID_13_)" d="M683.4,511c-0.2-0.1-0.4-0.2-0.6-0.4
				c-4-6.1-12.5-12-25.5-17.7c-12.5-5.5-27.1-10.1-43.8-13.6c-17.2-3.6-33.6-5.6-49.3-6c-17-0.3-31,1.4-42,5.2
				c-0.2,0.1-0.5,0.1-0.6,0c-0.3-0.1-0.4-0.3-0.5-0.5c-0.1-0.3-0.1-0.5,0-0.7c0.1-0.2,0.2-0.4,0.5-0.5c11.1-3.8,25.3-5.6,42.6-5.3
				c15.8,0.3,32.4,2.3,49.7,6c16.9,3.6,31.6,8.2,44.1,13.8c13.4,5.9,22.1,12,26.3,18.3c0.1,0.2,0.1,0.4,0.1,0.7
				c-0.1,0.2-0.2,0.4-0.3,0.6C683.9,511,683.7,511,683.4,511z"/>
			<radialGradient id="SVGID_14_" cx="420.002" cy="463.4004" r="25.9857" gradientUnits="userSpaceOnUse">
				<stop  offset="0" style="stop-color:#FFFFFF"/>
				<stop  offset="1" style="stop-color:#FFFFFF;stop-opacity:0"/>
			</radialGradient>
			<path fill-rule="evenodd" clip-rule="evenodd" fill="url(#SVGID_14_)" d="M443.9,472.3c-13.8-9.3-24.2-15.4-31.3-18.1
				c-7.8-3-13.3-2.8-16.3,0.8c-0.2,0.2-0.4,0.3-0.6,0.3c-0.3,0.1-0.5,0-0.7-0.1c-0.2-0.2-0.3-0.4-0.3-0.6c0-0.3,0-0.5,0.3-0.7
				c3.4-4.3,9.5-4.8,18.3-1.3c7.2,2.7,17.7,8.8,31.6,18.3c0.2,0.1,0.3,0.3,0.4,0.5c0,0.2,0,0.5-0.1,0.8c-0.2,0.2-0.4,0.3-0.6,0.4
				C444.3,472.5,444.1,472.5,443.9,472.3z"/>
			<radialGradient id="SVGID_15_" cx="426.2998" cy="589.25" r="12.9375" gradientUnits="userSpaceOnUse">
				<stop  offset="0" style="stop-color:#FFFFFF"/>
				<stop  offset="1" style="stop-color:#FFFFFF;stop-opacity:0"/>
			</radialGradient>
			<path fill-rule="evenodd" clip-rule="evenodd" fill="url(#SVGID_15_)" d="M417,578.5c5.5,0.2,9.4,1.3,11.7,3.5
				c2.8,2.5,5.4,7.8,7.8,16c0,0.2,0,0.4-0.2,0.7c-0.1,0.2-0.3,0.4-0.5,0.5c-0.2,0-0.5,0-0.7-0.2c-0.2-0.1-0.4-0.3-0.5-0.5
				c-2.3-7.7-4.7-12.8-7.2-15.1c-2.1-1.9-5.6-2.9-10.6-3.1c-0.3,0-0.5-0.1-0.7-0.3c-0.2-0.2-0.3-0.4-0.3-0.6c0-0.3,0.1-0.5,0.3-0.7
				C416.5,578.6,416.7,578.5,417,578.5z"/>
			<radialGradient id="SVGID_16_" cx="464.0332" cy="613.0996" r="16.7775" gradientUnits="userSpaceOnUse">
				<stop  offset="0" style="stop-color:#FFFFFF"/>
				<stop  offset="1" style="stop-color:#FFFFFF;stop-opacity:0"/>
			</radialGradient>
			<path fill-rule="evenodd" clip-rule="evenodd" fill="url(#SVGID_16_)" d="M477.8,606.9c0.1-0.2,0.2-0.4,0.5-0.5
				c0.2-0.1,0.4-0.2,0.7-0.1c0.2,0.1,0.4,0.3,0.5,0.5c0.1,0.2,0.1,0.4,0,0.7c-2.3,6.3-5.8,10.2-10.7,11.7c-4.8,1.5-10.8,0.7-18-2.5
				c-0.6-0.2-1.1-0.5-1.7-0.8c-0.2-0.1-0.4-0.3-0.5-0.5c-0.1-0.2,0-0.5,0.1-0.7c0.1-0.2,0.2-0.4,0.5-0.5c0.2-0.1,0.5,0,0.7,0
				c0.5,0.3,1.1,0.5,1.7,0.8v0c6.7,2.9,12.3,3.7,16.8,2.4C472.5,616.1,475.7,612.5,477.8,606.9z"/>
			
				<radialGradient id="SVGID_17_" cx="721.415" cy="580.7441" r="9.4744" gradientTransform="matrix(0.9763 -0.2164 -3.562216e-002 0.9183 -2.5883 66.7192)" gradientUnits="userSpaceOnUse">
				<stop  offset="0" style="stop-color:#FFFFFF"/>
				<stop  offset="1" style="stop-color:#FFFFFF;stop-opacity:0"/>
			</radialGradient>
			<path fill-rule="evenodd" clip-rule="evenodd" fill="url(#SVGID_17_)" d="M684.8,450.3v-0.1c-0.1-0.9-0.3-1.9-0.8-2.9
				c-0.1-0.2-0.2-0.4-0.5-0.5c-0.2-0.1-0.3-0.1-0.5,0c-0.5-3.7-3-7.5-7.3-11.4c-0.2-0.2-0.3-0.4-0.3-0.6c0-0.3,0.1-0.5,0.3-0.7
				c0.2-0.2,0.4-0.3,0.6-0.3s0.5,0.1,0.7,0.3C683.2,439.6,685.8,445,684.8,450.3z"/>
			<radialGradient id="SVGID_18_" cx="680.7998" cy="442.75" r="9.475" gradientUnits="userSpaceOnUse">
				<stop  offset="0" style="stop-color:#FFFFFF"/>
				<stop  offset="1" style="stop-color:#FFFFFF;stop-opacity:0"/>
			</radialGradient>
			<path fill-rule="evenodd" clip-rule="evenodd" fill="url(#SVGID_18_)" d="M683,450.6c0,0,0,0.1,0,0.2c0,0.6-0.1,1.1-0.3,1.7
				c-0.1-0.1-0.1-0.2-0.2-0.3c-0.1-0.2,0-0.5,0.1-0.7C682.7,451.2,682.8,450.9,683,450.6z"/>
		</g>
	</g>
</g>
</svg>
