<?xml version="1.0" encoding="utf-8"?>
<!-- Generator: Adobe Illustrator 16.0.0, SVG Export Plug-In . SVG Version: 6.00 Build 0)  -->
<!DOCTYPE svg PUBLIC "-//W3C//DTD SVG 1.1//EN" "http://www.w3.org/Graphics/SVG/1.1/DTD/svg11.dtd">
<svg version="1.1" id="Layer_1" xmlns="http://www.w3.org/2000/svg" xmlns:xlink="http://www.w3.org/1999/xlink" x="0px" y="0px"
	 width="39.67px" height="39px" viewBox="0 0 39.67 39" enable-background="new 0 0 39.67 39" xml:space="preserve">
<g>
	<g>
		<path fill-rule="evenodd" clip-rule="evenodd" fill="#FFFFFF" fill-opacity="0.251" d="M1.47,7.44v1.1
			c0.4,1.33,2.12,2.48,5.15,3.45c0.1,0.03,0.2,0.08,0.3,0.15c3.6,1.13,7.97,1.7,13.1,1.7c5.17,0,9.58-0.57,13.25-1.7
			c0.07-0.07,0.18-0.12,0.35-0.15c3.03-0.93,4.68-2.08,4.95-3.45c0.07-0.17,0.1-0.3,0.1-0.4v-0.7c-0.47,1.33-2.25,2.48-5.35,3.45
			c-3.7,1.1-8.13,1.65-13.3,1.65c-5.13,0-9.5-0.55-13.1-1.65c-3.1-1-4.88-2.13-5.35-3.4C1.5,7.49,1.47,7.47,1.47,7.44z M1.47,6.74
			c0,0.07,0,0.15,0,0.25v0.1c0,0.03,0.03,0.05,0.1,0.05c0,0.1,0.02,0.22,0.05,0.35c0.47,1.23,2.23,2.33,5.3,3.3
			c3.6,1.13,7.97,1.7,13.1,1.7c5.17,0,9.58-0.57,13.25-1.7c3.07-0.93,4.82-2.05,5.25-3.35c0.03-0.1,0.05-0.2,0.05-0.3
			c0.07-0.1,0.1-0.2,0.1-0.3V6.79c-0.07-1.6-1.87-2.95-5.4-4.05c-3.67-1.1-8.08-1.65-13.25-1.65c-5.13,0-9.55,0.57-13.25,1.7
			C3.4,3.82,1.63,5.14,1.47,6.74z M24.47,37.29v-0.1c0.43-0.27,0.73-0.68,0.9-1.25c-0.27,0.33-0.73,0.62-1.4,0.85
			c-0.1,0.03-0.2,0.08-0.3,0.15c-1.07,0.27-2.25,0.4-3.55,0.4c-0.9,0-1.72-0.07-2.45-0.2c-0.53-0.1-1.02-0.22-1.45-0.35
			c-0.7-0.23-1.17-0.48-1.4-0.75c0.17,0.47,0.43,0.83,0.8,1.1c0.03,0.03,0.08,0.05,0.15,0.05c0.03,0.07,0.07,0.12,0.1,0.15
			c0.23,0.2,0.57,0.37,1,0.5c0.9,0.23,1.98,0.35,3.25,0.35c1.2,0,2.25-0.12,3.15-0.35C23.83,37.64,24.23,37.45,24.47,37.29
			c-0.2,0.23-0.58,0.43-1.15,0.6c-0.93,0.3-2,0.45-3.2,0.45c-1.27,0-2.35-0.15-3.25-0.45c-0.47-0.13-0.8-0.28-1-0.45
			c-0.07-0.07-0.13-0.12-0.2-0.15c-0.03,0-0.08-0.03-0.15-0.1c-0.47-0.3-0.73-0.78-0.8-1.45c-0.07-0.03-0.1-0.08-0.1-0.15
			c0-0.1,0-0.17,0-0.2c0-0.07,0-0.12,0-0.15c-0.17-0.23-0.28-0.77-0.35-1.6c-0.37-1.7-0.88-3.08-1.55-4.15
			c-0.17-0.3-0.35-0.57-0.55-0.8c-0.03-0.03-0.08-0.07-0.15-0.1c-0.6-0.7-1.23-1.5-1.9-2.4v-0.1h-0.05c-0.7-0.93-1.27-1.88-1.7-2.85
			c-0.37-0.8-0.65-1.67-0.85-2.6l-0.95-8.6c-3.07-0.97-4.78-2.1-5.15-3.4V6.99c0-0.1,0-0.18,0-0.25c0.1-1.67,1.85-3,5.25-4
			c3.77-1.2,8.22-1.8,13.35-1.8c5.17,0,9.6,0.57,13.3,1.7c3.57,1.13,5.37,2.52,5.4,4.15v1.35c0,0.1-0.02,0.23-0.05,0.4
			c-0.23,1.37-1.9,2.53-5,3.5l-1.05,8.6c-0.23,1.27-0.65,2.43-1.25,3.5c-0.4,0.67-0.83,1.32-1.3,1.95h-0.05v0.1
			c-0.67,0.9-1.3,1.7-1.9,2.4c-0.03,0.03-0.08,0.07-0.15,0.1c-0.03,0.07-0.08,0.15-0.15,0.25c-0.83,1.1-1.47,2.67-1.9,4.7
			c-0.07,0.83-0.18,1.37-0.35,1.6c-0.03,0.03-0.05,0.1-0.05,0.2c0,0.07,0,0.12,0,0.15v0.1C25.38,36.42,25.03,36.95,24.47,37.29z
			 M12.52,2.84c-0.8,0.2-1.55,0.4-2.25,0.6C7.57,4.2,6.3,5.22,6.47,6.49C6.7,7.45,8.02,8.3,10.42,9.04c2.67,0.8,5.87,1.2,9.6,1.2
			c3.8,0,7.07-0.4,9.8-1.2c2.33-0.7,3.62-1.55,3.85-2.55c0-0.07,0-0.15,0-0.25c0-1.13-1.28-2.07-3.85-2.8c-0.7-0.2-1.43-0.4-2.2-0.6
			c-2.2-0.4-4.73-0.6-7.6-0.6C17.25,2.24,14.75,2.44,12.52,2.84z M10.27,3.34c0.7-0.23,1.45-0.42,2.25-0.55
			c2.23-0.43,4.73-0.65,7.5-0.65c2.87,0,5.4,0.22,7.6,0.65c0.77,0.13,1.5,0.3,2.2,0.5c2.67,0.8,4,1.78,4,2.95
			c0,0.1-0.03,0.18-0.1,0.25c-0.17,1.03-1.47,1.9-3.9,2.6c-2.73,0.8-6,1.2-9.8,1.2c-3.73,0-6.93-0.4-9.6-1.2
			c-2.5-0.73-3.83-1.6-4-2.6C6.22,5.19,7.5,4.14,10.27,3.34z M6.62,12.14l1,8.5c0.17,0.9,0.45,1.73,0.85,2.5
			c0.4,1.03,0.95,2,1.65,2.9c0.07,0,0.1,0.02,0.1,0.05c0.63,0.9,1.27,1.7,1.9,2.4c0.03,0.07,0.07,0.12,0.1,0.15
			c0.2,0.23,0.37,0.48,0.5,0.75c0.7,1.1,1.25,2.52,1.65,4.25c0.03,0.83,0.15,1.37,0.35,1.6c0,0.03,0,0.08,0,0.15
			c0,0.13,0.02,0.25,0.05,0.35c0.13,0.37,0.62,0.7,1.45,1c0.43,0.13,0.92,0.25,1.45,0.35c0.73,0.13,1.55,0.2,2.45,0.2
			c1.3,0,2.47-0.17,3.5-0.5c0.1,0,0.2-0.02,0.3-0.05c0.87-0.33,1.38-0.72,1.55-1.15c0-0.03,0-0.08,0-0.15v-0.05
			c0-0.07,0.02-0.12,0.05-0.15c0.13-0.23,0.25-0.77,0.35-1.6c0.43-2.07,1.07-3.67,1.9-4.8c0.03-0.03,0.1-0.1,0.2-0.2
			c0-0.03,0.03-0.08,0.1-0.15c0.6-0.7,1.22-1.5,1.85-2.4l0.1-0.05c0.47-0.6,0.88-1.25,1.25-1.95c0.6-1.1,1.02-2.25,1.25-3.45l1-8.5
			c-0.1,0-0.17,0.02-0.2,0.05c-3.7,1.13-8.13,1.7-13.3,1.7c-5.13,0-9.5-0.57-13.1-1.7C6.82,12.15,6.72,12.14,6.62,12.14z"/>
		<linearGradient id="SVGID_1_" gradientUnits="userSpaceOnUse" x1="1.5039" y1="10.6377" x2="38.7041" y2="10.6377">
			<stop  offset="0" style="stop-color:#696967"/>
			<stop  offset="0.1216" style="stop-color:#DDD9D2;stop-opacity:0.9059"/>
			<stop  offset="0.349" style="stop-color:#A09584;stop-opacity:0.8431"/>
			<stop  offset="0.749" style="stop-color:#DED8CF;stop-opacity:0.5882"/>
			<stop  offset="1" style="stop-color:#A09581;stop-opacity:0.3255"/>
		</linearGradient>
		<path fill-rule="evenodd" clip-rule="evenodd" fill="url(#SVGID_1_)" d="M1.47,7.44c0,0.03,0.03,0.05,0.1,0.05
			c0.47,1.27,2.25,2.4,5.35,3.4c3.6,1.1,7.97,1.65,13.1,1.65c5.17,0,9.6-0.55,13.3-1.65c3.1-0.97,4.88-2.12,5.35-3.45v0.7
			c0,0.1-0.03,0.23-0.1,0.4c-0.27,1.37-1.92,2.52-4.95,3.45c-0.17,0.03-0.28,0.08-0.35,0.15c-3.67,1.13-8.08,1.7-13.25,1.7
			c-5.13,0-9.5-0.57-13.1-1.7c-0.1-0.07-0.2-0.12-0.3-0.15c-3.03-0.97-4.75-2.12-5.15-3.45V7.44z"/>
		<linearGradient id="SVGID_2_" gradientUnits="userSpaceOnUse" x1="38.729" y1="6.624" x2="1.5288" y2="6.9485">
			<stop  offset="0" style="stop-color:#696967"/>
			<stop  offset="0.1216" style="stop-color:#DDD9D2;stop-opacity:0.9059"/>
			<stop  offset="0.349" style="stop-color:#A09584;stop-opacity:0.8431"/>
			<stop  offset="0.749" style="stop-color:#DED8CF;stop-opacity:0.5882"/>
			<stop  offset="1" style="stop-color:#A09581;stop-opacity:0.3255"/>
		</linearGradient>
		<path fill-rule="evenodd" clip-rule="evenodd" fill="url(#SVGID_2_)" d="M1.47,6.74c0.17-1.6,1.93-2.92,5.3-3.95
			c3.7-1.13,8.12-1.7,13.25-1.7c5.17,0,9.58,0.55,13.25,1.65c3.53,1.1,5.33,2.45,5.4,4.05v0.05c0,0.1-0.03,0.2-0.1,0.3
			c0,0.1-0.02,0.2-0.05,0.3c-0.43,1.3-2.18,2.42-5.25,3.35c-3.67,1.13-8.08,1.7-13.25,1.7c-5.13,0-9.5-0.57-13.1-1.7
			c-3.07-0.97-4.83-2.07-5.3-3.3C1.58,7.35,1.57,7.24,1.57,7.14c-0.07,0-0.1-0.02-0.1-0.05v-0.1C1.47,6.89,1.47,6.8,1.47,6.74z
			 M10.27,3.34C7.5,4.14,6.22,5.19,6.42,6.49c0.17,1,1.5,1.87,4,2.6c2.67,0.8,5.87,1.2,9.6,1.2c3.8,0,7.07-0.4,9.8-1.2
			c2.43-0.7,3.73-1.57,3.9-2.6c0.07-0.07,0.1-0.15,0.1-0.25c0-1.17-1.33-2.15-4-2.95c-0.7-0.2-1.43-0.37-2.2-0.5
			c-2.2-0.43-4.73-0.65-7.6-0.65c-2.77,0-5.27,0.22-7.5,0.65C11.72,2.92,10.97,3.1,10.27,3.34z"/>
		<linearGradient id="SVGID_3_" gradientUnits="userSpaceOnUse" x1="6.9292" y1="6.2378" x2="33.7042" y2="6.2378">
			<stop  offset="0" style="stop-color:#585854;stop-opacity:0.498"/>
			<stop  offset="0.2745" style="stop-color:#F5EAD3;stop-opacity:0.498"/>
			<stop  offset="0.5765" style="stop-color:#706B61;stop-opacity:0.298"/>
			<stop  offset="0.8118" style="stop-color:#FFFFFF;stop-opacity:0.298"/>
			<stop  offset="1" style="stop-color:#A09581;stop-opacity:0.3255"/>
		</linearGradient>
		<path fill-rule="evenodd" clip-rule="evenodd" fill="url(#SVGID_3_)" d="M12.52,2.84c2.23-0.4,4.73-0.6,7.5-0.6
			c2.87,0,5.4,0.2,7.6,0.6c0.77,0.2,1.5,0.4,2.2,0.6c2.57,0.73,3.85,1.67,3.85,2.8c0,0.1,0,0.18,0,0.25c-0.23,1-1.52,1.85-3.85,2.55
			c-2.73,0.8-6,1.2-9.8,1.2c-3.73,0-6.93-0.4-9.6-1.2C8.02,8.3,6.7,7.45,6.47,6.49c-0.17-1.27,1.1-2.28,3.8-3.05
			C10.97,3.24,11.72,3.04,12.52,2.84z"/>
		<path fill-rule="evenodd" clip-rule="evenodd" fill="#817A67" fill-opacity="0.298" d="M6.62,12.14c0.1,0,0.2,0.02,0.3,0.05
			c3.6,1.13,7.97,1.7,13.1,1.7c5.17,0,9.6-0.57,13.3-1.7c0.03-0.03,0.1-0.05,0.2-0.05l-1,8.5c-0.23,1.2-0.65,2.35-1.25,3.45
			c-0.37,0.7-0.78,1.35-1.25,1.95l-0.1,0.05c-0.63,0.9-1.25,1.7-1.85,2.4c-0.07,0.07-0.1,0.12-0.1,0.15c-0.1,0.1-0.17,0.17-0.2,0.2
			c-0.83,1.13-1.47,2.73-1.9,4.8c-0.1,0.83-0.22,1.37-0.35,1.6c-0.03,0.03-0.05,0.08-0.05,0.15v0.05c0,0.07,0,0.12,0,0.15
			c-0.17,0.43-0.68,0.82-1.55,1.15c-0.1,0.03-0.2,0.05-0.3,0.05c-1.03,0.33-2.2,0.5-3.5,0.5c-0.9,0-1.72-0.07-2.45-0.2
			c-0.53-0.1-1.02-0.22-1.45-0.35c-0.83-0.3-1.32-0.63-1.45-1c-0.03-0.1-0.05-0.22-0.05-0.35c0-0.07,0-0.12,0-0.15
			c-0.2-0.23-0.32-0.77-0.35-1.6c-0.4-1.73-0.95-3.15-1.65-4.25c-0.13-0.27-0.3-0.52-0.5-0.75c-0.03-0.03-0.07-0.08-0.1-0.15
			c-0.63-0.7-1.27-1.5-1.9-2.4c0-0.03-0.03-0.05-0.1-0.05c-0.7-0.9-1.25-1.87-1.65-2.9c-0.4-0.77-0.68-1.6-0.85-2.5L6.62,12.14z"/>
		<linearGradient id="SVGID_4_" gradientUnits="userSpaceOnUse" x1="14.7417" y1="37.0625" x2="25.4917" y2="37.0625">
			<stop  offset="0" style="stop-color:#696967"/>
			<stop  offset="0.1216" style="stop-color:#DDD9D2;stop-opacity:0.9059"/>
			<stop  offset="0.349" style="stop-color:#000000;stop-opacity:0.8392"/>
			<stop  offset="0.6196" style="stop-color:#040404"/>
			<stop  offset="1" style="stop-color:#A09581;stop-opacity:0.3255"/>
		</linearGradient>
		<path fill-rule="evenodd" clip-rule="evenodd" fill="url(#SVGID_4_)" d="M24.47,37.29c-0.23,0.17-0.63,0.35-1.2,0.55
			c-0.9,0.23-1.95,0.35-3.15,0.35c-1.27,0-2.35-0.12-3.25-0.35c-0.43-0.13-0.77-0.3-1-0.5c-0.03-0.03-0.07-0.08-0.1-0.15
			c-0.07,0-0.12-0.02-0.15-0.05c-0.37-0.27-0.63-0.63-0.8-1.1c0.23,0.27,0.7,0.52,1.4,0.75c0.43,0.13,0.92,0.25,1.45,0.35
			c0.73,0.13,1.55,0.2,2.45,0.2c1.3,0,2.48-0.13,3.55-0.4c0.1-0.07,0.2-0.12,0.3-0.15c0.67-0.23,1.13-0.52,1.4-0.85
			c-0.17,0.57-0.47,0.98-0.9,1.25V37.29z"/>
	</g>
	<g>
		<radialGradient id="SVGID_5_" cx="27.7163" cy="3.8877" r="4.8625" gradientUnits="userSpaceOnUse">
			<stop  offset="0" style="stop-color:#FDFDFB"/>
			<stop  offset="1" style="stop-color:#FFFFFF;stop-opacity:0"/>
		</radialGradient>
		<path fill-rule="evenodd" clip-rule="evenodd" fill="url(#SVGID_5_)" d="M22.37,2.64c-0.07,0-0.12,0-0.15,0c0-0.03,0-0.08,0-0.15
			c0-0.03,0.02-0.07,0.05-0.1h0.1c4.97,0.27,8.52,1.15,10.65,2.65c0.07,0.03,0.1,0.08,0.1,0.15c0,0.03-0.03,0.08-0.1,0.15h-0.05
			c-0.07,0.03-0.12,0.03-0.15,0C30.72,3.87,27.23,2.97,22.37,2.64z"/>
	</g>
	<g>
		<g>
			<g>
				
					<radialGradient id="SVGID_6_" cx="20.2666" cy="17.3877" r="21.5875" gradientTransform="matrix(1 0 0 0.5524 0 7.7827)" gradientUnits="userSpaceOnUse">
					<stop  offset="0" style="stop-color:#000000;stop-opacity:0"/>
					<stop  offset="0.6941" style="stop-color:#000000;stop-opacity:7.843138e-003"/>
					<stop  offset="1" style="stop-color:#000000;stop-opacity:0.4196"/>
				</radialGradient>
				<path fill-rule="evenodd" clip-rule="evenodd" fill="url(#SVGID_6_)" d="M19.97,19.14c2.63,0,4.85,0.52,6.65,1.55
					c1.83,1.1,2.75,2.42,2.75,3.95c0,1.5-0.92,2.78-2.75,3.85c-1.8,1.1-4.02,1.65-6.65,1.65c-2.57,0-4.8-0.55-6.7-1.65
					c-1.8-1.07-2.7-2.35-2.7-3.85c0-1.53,0.9-2.85,2.7-3.95C15.17,19.65,17.4,19.14,19.97,19.14z"/>
			</g>
		</g>
		<g>
			<radialGradient id="SVGID_7_" cx="13.5166" cy="30.5381" r="4.1125" gradientUnits="userSpaceOnUse">
				<stop  offset="0" style="stop-color:#FDFDFB"/>
				<stop  offset="1" style="stop-color:#FFFFFF;stop-opacity:7.843138e-003"/>
			</radialGradient>
			<path fill-rule="evenodd" clip-rule="evenodd" fill="url(#SVGID_7_)" d="M14.97,32.64c0.1,0.9,0.17,1.53,0.2,1.9l-0.05-0.2v-0.1
				c-0.27-2.2-1.02-4.12-2.25-5.75c-1.17-1.73-1.65-2.48-1.45-2.25c0.17,0.2,0.28,0.32,0.35,0.35l0.05,0.1l1.4,1.75
				C14.15,29.6,14.73,31,14.97,32.64z"/>
		</g>
		<g>
			<path fill-rule="evenodd" clip-rule="evenodd" fill="#817A67" fill-opacity="0.2392" d="M26.87,29.19c0.13-0.33,0.27-0.7,0.4-1.1
				c-4.3,2.47-8.98,2.65-14.05,0.55c0.1,0.27,0.17,0.52,0.2,0.75c-0.1-0.13-0.22-0.32-0.35-0.55c-0.17-0.27-0.35-0.52-0.55-0.75
				c-0.03,0-0.05-0.03-0.05-0.1c-0.63-0.63-1.27-1.4-1.9-2.3v-0.05c-0.7-0.87-1.27-1.78-1.7-2.75c-0.33-0.8-0.58-1.62-0.75-2.45
				l-1-8.25c0.13,0.07,0.25,0.1,0.35,0.1c3.47,1.07,7.65,1.6,12.55,1.6c4.93,0,9.15-0.53,12.65-1.6c0.13,0,0.25-0.03,0.35-0.1
				l-0.95,8.25c-0.23,1.17-0.63,2.27-1.2,3.3c-0.4,0.63-0.83,1.27-1.3,1.9v0.05c-0.6,0.9-1.22,1.67-1.85,2.3
				c0,0.07-0.03,0.1-0.1,0.1c-0.03,0.1-0.08,0.17-0.15,0.2c-0.4,0.6-0.53,0.88-0.4,0.85C26.97,29.17,26.9,29.19,26.87,29.19z"/>
			<linearGradient id="SVGID_8_" gradientUnits="userSpaceOnUse" x1="13.3667" y1="32.2383" x2="26.5662" y2="32.2383">
				<stop  offset="0" style="stop-color:#000000;stop-opacity:0.4196"/>
				<stop  offset="0.9922" style="stop-color:#000000;stop-opacity:0"/>
			</linearGradient>
			<path fill-rule="evenodd" clip-rule="evenodd" fill="url(#SVGID_8_)" d="M26.87,29.19c-0.53,1.27-0.88,2.32-1.05,3.15
				c-0.07,0.97-0.18,1.58-0.35,1.85c0,0.03,0,0.08,0,0.15c0,0.1,0,0.17,0,0.2c-0.17,0.47-0.68,0.87-1.55,1.2
				c-0.1,0.03-0.22,0.08-0.35,0.15c-1.03,0.33-2.23,0.5-3.6,0.5c-0.9,0-1.72-0.08-2.45-0.25c-0.53-0.07-1-0.2-1.4-0.4
				c-0.87-0.3-1.38-0.65-1.55-1.05c0-0.13,0-0.28,0-0.45l-0.1-0.05c-0.13-0.27-0.25-0.88-0.35-1.85c-0.13-0.87-0.37-1.85-0.7-2.95
				c-0.03-0.23-0.1-0.48-0.2-0.75c5.07,2.1,9.75,1.92,14.05-0.55C27.13,28.49,27,28.85,26.87,29.19z"/>
		</g>
	</g>
	<g>
		
			<radialGradient id="SVGID_9_" cx="-548.2568" cy="28.3643" r="2.481" gradientTransform="matrix(-0.1209 -0.9927 1.3958 -0.1965 -96.8273 -532.022)" gradientUnits="userSpaceOnUse">
			<stop  offset="0" style="stop-color:#FFFFFF"/>
			<stop  offset="0.1765" style="stop-color:#FFFFFF"/>
			<stop  offset="0.3059" style="stop-color:#FFFFFF;stop-opacity:0.4235"/>
			<stop  offset="0.4902" style="stop-color:#FFFFFF;stop-opacity:0.2314"/>
			<stop  offset="0.651" style="stop-color:#FFFFFF;stop-opacity:0.0824"/>
			<stop  offset="1" style="stop-color:#FFFFFF;stop-opacity:0"/>
		</radialGradient>
		<path fill-rule="evenodd" clip-rule="evenodd" fill="url(#SVGID_9_)" d="M11.77,8.04c-0.63,0.53-1.43,0.87-2.4,1
			c-0.9,0.13-1.7,0.02-2.4-0.35C6.23,8.32,5.82,7.8,5.72,7.14c-0.1-0.67,0.18-1.3,0.85-1.9C7.1,4.67,7.85,4.32,8.82,4.19
			s1.8,0,2.5,0.4c0.77,0.4,1.17,0.92,1.2,1.55C12.62,6.8,12.37,7.44,11.77,8.04z"/>
	</g>
	<g>
		
			<radialGradient id="SVGID_10_" cx="-549.6025" cy="-24.9995" r="0.7315" gradientTransform="matrix(-0.3417 -0.9398 8.6119 -0.7006 52.7874 -521.8387)" gradientUnits="userSpaceOnUse">
			<stop  offset="0" style="stop-color:#FFFFFF"/>
			<stop  offset="0.1765" style="stop-color:#FFFFFF"/>
			<stop  offset="0.3059" style="stop-color:#FFFFFF;stop-opacity:0.4235"/>
			<stop  offset="0.4902" style="stop-color:#FFFFFF;stop-opacity:0.2314"/>
			<stop  offset="0.651" style="stop-color:#FFFFFF;stop-opacity:0.0824"/>
			<stop  offset="1" style="stop-color:#FFFFFF;stop-opacity:0"/>
		</radialGradient>
		<path fill-rule="evenodd" clip-rule="evenodd" fill="url(#SVGID_10_)" d="M19.17,12.69c-0.03-0.2,0.53-0.42,1.7-0.65
			c1.13-0.23,2.55-0.42,4.25-0.55c1.77-0.13,3.25-0.18,4.45-0.15c1.27,0.07,1.93,0.18,2,0.35c0.1,0.2-0.47,0.42-1.7,0.65
			c-1.07,0.2-2.5,0.37-4.3,0.5c-1.67,0.13-3.12,0.2-4.35,0.2C19.95,13,19.27,12.89,19.17,12.69z"/>
	</g>
	<g>
		
			<radialGradient id="SVGID_11_" cx="-562.873" cy="-31.8965" r="0.5112" gradientTransform="matrix(-0.3672 -0.9302 12.2878 -1.5911 213.1815 -561.2693)" gradientUnits="userSpaceOnUse">
			<stop  offset="0" style="stop-color:#FFFFFF"/>
			<stop  offset="0.1765" style="stop-color:#FFFFFF"/>
			<stop  offset="0.3059" style="stop-color:#FFFFFF;stop-opacity:0.4235"/>
			<stop  offset="0.4902" style="stop-color:#FFFFFF;stop-opacity:0.2314"/>
			<stop  offset="0.651" style="stop-color:#FFFFFF;stop-opacity:0.0824"/>
			<stop  offset="1" style="stop-color:#FFFFFF;stop-opacity:0"/>
		</radialGradient>
		<path fill-rule="evenodd" clip-rule="evenodd" fill="url(#SVGID_11_)" d="M23.47,13.24c1.13-0.23,2.55-0.47,4.25-0.7
			c1.77-0.17,3.23-0.3,4.4-0.4c1.27-0.07,1.92-0.02,1.95,0.15c0.1,0.07-0.45,0.25-1.65,0.55c-1.13,0.23-2.58,0.47-4.35,0.7
			c-1.7,0.2-3.13,0.33-4.3,0.4c-1.27,0.07-1.93,0.03-2-0.1C21.73,13.74,22.3,13.54,23.47,13.24z"/>
	</g>
	<g>
		
			<radialGradient id="SVGID_12_" cx="-577.3096" cy="40.2666" r="2.529" gradientTransform="matrix(-0.1186 -0.9929 1.9908 -0.2865 -125.0409 -528.6129)" gradientUnits="userSpaceOnUse">
			<stop  offset="0" style="stop-color:#FFFFFF"/>
			<stop  offset="0.1765" style="stop-color:#FFFFFF"/>
			<stop  offset="0.3059" style="stop-color:#FFFFFF;stop-opacity:0.4235"/>
			<stop  offset="0.4902" style="stop-color:#FFFFFF;stop-opacity:0.2314"/>
			<stop  offset="0.651" style="stop-color:#FFFFFF;stop-opacity:0.0824"/>
			<stop  offset="1" style="stop-color:#FFFFFF;stop-opacity:0"/>
		</radialGradient>
		<path fill-rule="evenodd" clip-rule="evenodd" fill="url(#SVGID_12_)" d="M28.52,32.34c0.1,0.73-0.32,1.4-1.25,2
			c-0.9,0.6-2.05,1-3.45,1.2c-1.37,0.17-2.53,0.08-3.5-0.25c-1.03-0.3-1.6-0.8-1.7-1.5c-0.1-0.67,0.33-1.33,1.3-2
			c0.87-0.6,1.98-1,3.35-1.2c1.4-0.17,2.6-0.08,3.6,0.25C27.9,31.2,28.45,31.7,28.52,32.34z"/>
	</g>
	<g>
		
			<radialGradient id="SVGID_13_" cx="-576.8726" cy="39.2617" r="1.4968" gradientTransform="matrix(-0.1168 -0.9932 1.9946 -0.2838 -123.6468 -528.4935)" gradientUnits="userSpaceOnUse">
			<stop  offset="0" style="stop-color:#FFFFFF"/>
			<stop  offset="0.1765" style="stop-color:#FFFFFF"/>
			<stop  offset="0.3059" style="stop-color:#FFFFFF;stop-opacity:0.4235"/>
			<stop  offset="0.4902" style="stop-color:#FFFFFF;stop-opacity:0.2314"/>
			<stop  offset="0.651" style="stop-color:#FFFFFF;stop-opacity:0.0824"/>
			<stop  offset="1" style="stop-color:#FFFFFF;stop-opacity:0"/>
		</radialGradient>
		<path fill-rule="evenodd" clip-rule="evenodd" fill="url(#SVGID_13_)" d="M25.02,32.84c0.07,0.43-0.18,0.83-0.75,1.2
			c-0.53,0.33-1.22,0.57-2.05,0.7c-0.8,0.1-1.48,0.05-2.05-0.15c-0.67-0.17-1.02-0.47-1.05-0.9c0-0.37,0.27-0.73,0.8-1.1
			c0.5-0.4,1.15-0.67,1.95-0.8c0.83-0.1,1.55-0.05,2.15,0.15C24.65,32.17,24.98,32.47,25.02,32.84z"/>
	</g>
	<g>
		
			<radialGradient id="SVGID_14_" cx="-126.2822" cy="128.79" r="0.8276" gradientTransform="matrix(0.9062 -0.4229 1.5858 3.2925 -75.7359 -447.5516)" gradientUnits="userSpaceOnUse">
			<stop  offset="0" style="stop-color:#FFFFFF"/>
			<stop  offset="0.1765" style="stop-color:#FFFFFF"/>
			<stop  offset="0.3059" style="stop-color:#FFFFFF;stop-opacity:0.4235"/>
			<stop  offset="0.4902" style="stop-color:#FFFFFF;stop-opacity:0.2314"/>
			<stop  offset="0.651" style="stop-color:#FFFFFF;stop-opacity:0.0824"/>
			<stop  offset="1" style="stop-color:#FFFFFF;stop-opacity:0"/>
		</radialGradient>
		<path fill-rule="evenodd" clip-rule="evenodd" fill="url(#SVGID_14_)" d="M13.72,27.89c0.37,0.4,0.73,0.95,1.1,1.65
			c0.33,0.8,0.55,1.48,0.65,2.05c0.13,0.6,0.08,0.95-0.15,1.05c-0.17,0.1-0.45-0.12-0.85-0.65c-0.4-0.4-0.8-0.98-1.2-1.75
			c-0.3-0.7-0.5-1.35-0.6-1.95c-0.13-0.6-0.08-0.93,0.15-1C12.98,27.22,13.28,27.42,13.72,27.89z"/>
	</g>
	<g>
		
			<radialGradient id="SVGID_15_" cx="28.1665" cy="23.438" r="0.8233" gradientTransform="matrix(-0.7466 -0.6652 2.4402 -2.7389 -7.9973 106.3701)" gradientUnits="userSpaceOnUse">
			<stop  offset="0" style="stop-color:#FFFFFF"/>
			<stop  offset="0.1765" style="stop-color:#FFFFFF"/>
			<stop  offset="0.3059" style="stop-color:#FFFFFF;stop-opacity:0.4235"/>
			<stop  offset="0.4902" style="stop-color:#FFFFFF;stop-opacity:0.2314"/>
			<stop  offset="0.651" style="stop-color:#FFFFFF;stop-opacity:0.0824"/>
			<stop  offset="1" style="stop-color:#FFFFFF;stop-opacity:0"/>
		</radialGradient>
		<path fill-rule="evenodd" clip-rule="evenodd" fill="url(#SVGID_15_)" d="M29.17,21.49c0.5-0.4,0.85-0.5,1.05-0.3
			c0.13,0.13,0.07,0.48-0.2,1.05c-0.23,0.53-0.63,1.12-1.2,1.75c-0.57,0.63-1.08,1.08-1.55,1.35c-0.5,0.37-0.83,0.47-1,0.3
			c-0.17-0.17-0.12-0.52,0.15-1.05c0.23-0.53,0.63-1.1,1.2-1.7C28.18,22.22,28.7,21.75,29.17,21.49z"/>
	</g>
	<g>
		
			<radialGradient id="SVGID_16_" cx="-26.2729" cy="47.4238" r="1.974" gradientTransform="matrix(0.9942 -0.1077 0.4876 3.6221 11.913 -156.5162)" gradientUnits="userSpaceOnUse">
			<stop  offset="0" style="stop-color:#FFFFFF"/>
			<stop  offset="0.1765" style="stop-color:#FFFFFF"/>
			<stop  offset="0.3059" style="stop-color:#FFFFFF;stop-opacity:0.4235"/>
			<stop  offset="0.4902" style="stop-color:#FFFFFF;stop-opacity:0.2314"/>
			<stop  offset="0.651" style="stop-color:#FFFFFF;stop-opacity:0.0824"/>
			<stop  offset="1" style="stop-color:#FFFFFF;stop-opacity:0"/>
		</radialGradient>
		<path fill-rule="evenodd" clip-rule="evenodd" fill="url(#SVGID_16_)" d="M7.02,18.29c-0.23-1.9-0.25-3.53-0.05-4.9
			c0.2-1.43,0.55-2.18,1.05-2.25c0.53-0.03,1.1,0.63,1.7,2c0.57,1.23,0.97,2.82,1.2,4.75c0.27,2,0.28,3.68,0.05,5.05
			c-0.2,1.47-0.55,2.25-1.05,2.35c-0.5,0.03-1.07-0.63-1.7-2C7.72,21.99,7.32,20.32,7.02,18.29z"/>
	</g>
	<g>
		
			<radialGradient id="SVGID_17_" cx="-529.8643" cy="87.2061" r="0.6893" gradientTransform="matrix(0.0725 -0.9974 4.3884 0.1813 -325.1952 -506.0944)" gradientUnits="userSpaceOnUse">
			<stop  offset="0" style="stop-color:#FFFFFF"/>
			<stop  offset="0.1765" style="stop-color:#FFFFFF"/>
			<stop  offset="0.3059" style="stop-color:#FFFFFF;stop-opacity:0.4235"/>
			<stop  offset="0.4902" style="stop-color:#FFFFFF;stop-opacity:0.2314"/>
			<stop  offset="0.651" style="stop-color:#FFFFFF;stop-opacity:0.0824"/>
			<stop  offset="1" style="stop-color:#FFFFFF;stop-opacity:0"/>
		</radialGradient>
		<path fill-rule="evenodd" clip-rule="evenodd" fill="url(#SVGID_17_)" d="M17.02,37.64c0.57-0.13,1.27-0.18,2.1-0.15
			c0.83,0.03,1.53,0.13,2.1,0.3c0.57,0.17,0.85,0.35,0.85,0.55s-0.3,0.33-0.9,0.4c-0.57,0.1-1.3,0.13-2.2,0.1
			c-0.8-0.07-1.47-0.17-2-0.3c-0.57-0.13-0.85-0.3-0.85-0.5C16.12,37.87,16.42,37.74,17.02,37.64z"/>
	</g>
	<g>
		
			<radialGradient id="SVGID_18_" cx="17.3164" cy="36.7383" r="0.918" gradientTransform="matrix(0.1109 -0.9938 2.5197 0.2811 -77.1733 43.6217)" gradientUnits="userSpaceOnUse">
			<stop  offset="0" style="stop-color:#FFFFFF"/>
			<stop  offset="0.1765" style="stop-color:#FFFFFF"/>
			<stop  offset="0.3059" style="stop-color:#FFFFFF;stop-opacity:0.4235"/>
			<stop  offset="0.4902" style="stop-color:#FFFFFF;stop-opacity:0.2314"/>
			<stop  offset="0.651" style="stop-color:#FFFFFF;stop-opacity:0.0824"/>
			<stop  offset="1" style="stop-color:#FFFFFF;stop-opacity:0"/>
		</radialGradient>
		<path fill-rule="evenodd" clip-rule="evenodd" fill="url(#SVGID_18_)" d="M15.62,37.19c-0.43-0.23-0.65-0.48-0.65-0.75
			c0.07-0.23,0.33-0.4,0.8-0.5c0.47-0.13,1-0.18,1.6-0.15c0.67,0.1,1.2,0.27,1.6,0.5c0.43,0.23,0.63,0.47,0.6,0.7
			c0,0.23-0.25,0.42-0.75,0.55c-0.47,0.1-1.02,0.13-1.65,0.1C16.53,37.54,16.02,37.39,15.62,37.19z"/>
	</g>
</g>
</svg>
